<svg id="Grupo_24" data-name="Grupo 24" xmlns="http://www.w3.org/2000/svg" xmlns:xlink="http://www.w3.org/1999/xlink" width="81.047" height="85.274" viewBox="0 0 81.047 85.274">
  <defs>
    <clipPath id="clip-path">
      <rect id="Rectángulo_25" data-name="Rectángulo 25" width="81.047" height="85.274" fill="none"/>
    </clipPath>
  </defs>
  <g id="Grupo_23" data-name="Grupo 23" clip-path="url(#clip-path)">
    <path id="Trazado_230" data-name="Trazado 230" d="M29.135,3.813S43.8-1.3,51.964,4.851l-.721,3.735s2.114,6.562,3.4,10.025c0,0-.955,11.133,3.071,13.839,0,0-6.729,1.638-10.811-1.552L44.36,32.45s-.037,6.827,10.28,6.779c0,0,7.1,2.045,5.687,14.282l.288,8.725L21.259,61.12l-.984-12.293s-1.387-8.139,6.038-10.448c0,0,8.661.019,10.268-4.922l-.9-2.393-1.4-2.11s-.12,5.781-13,3.778-1.109-.282-1.109-.282,5.645-.788,4.987-13.633c0,0,2.137-8.212,5.167-9.12Z" fill="#ffe227"/>
    <path id="Trazado_231" data-name="Trazado 231" d="M33.357,22.459l5.828-3.47,8.864,2.738S50.766,33.45,41.36,33.545c0,0-8.2-.034-8-11.086" fill="#fff"/>
    <path id="Trazado_232" data-name="Trazado 232" d="M72.635,77.217H8.948A4.556,4.556,0,0,1,4.4,72.666V27.661a4.555,4.555,0,0,1,4.55-4.549H20.431a1.338,1.338,0,1,1,0,2.676H8.948a1.875,1.875,0,0,0-1.873,1.873V72.666A1.876,1.876,0,0,0,8.948,74.54H72.635a1.877,1.877,0,0,0,1.874-1.874V27.661a1.876,1.876,0,0,0-1.874-1.873H60.955a1.338,1.338,0,1,1,0-2.676h11.68a4.555,4.555,0,0,1,4.55,4.549V72.666a4.556,4.556,0,0,1-4.55,4.551" fill="#3e145e"/>
    <path id="Trazado_233" data-name="Trazado 233" d="M67.807,71.02H13.776a2.365,2.365,0,0,1-2.362-2.362V32.142a2.365,2.365,0,0,1,2.362-2.363h4.507a1.339,1.339,0,0,1,0,2.677H14.091V68.344h53.4V32.456H63.427a1.339,1.339,0,0,1,0-2.677h4.38a2.366,2.366,0,0,1,2.363,2.363V68.658a2.366,2.366,0,0,1-2.363,2.362" fill="#3e145e"/>
    <path id="Trazado_234" data-name="Trazado 234" d="M27.071,34.512a15.956,15.956,0,0,1-4.919-.761,1.336,1.336,0,0,1-.42-2.281,6.26,6.26,0,0,0,1.213-1.56,12.756,12.756,0,0,0,1.736-6.545V19.714c.261-6.008,2.363-8.688,4.68-11.126A1.338,1.338,0,1,1,31.3,10.432c-2.1,2.209-3.724,4.3-3.944,9.341v3.592a15.422,15.422,0,0,1-2.115,7.918c-.082.136-.165.27-.248.4a10.457,10.457,0,0,0,9.288-2.728A1.339,1.339,0,1,1,36.2,30.818a12.366,12.366,0,0,1-9.133,3.694" fill="#3e145e"/>
    <path id="Trazado_235" data-name="Trazado 235" d="M50.574,62.236A1.339,1.339,0,0,1,49.236,60.9v-6.4a1.338,1.338,0,1,1,2.676,0v6.4a1.339,1.339,0,0,1-1.338,1.339" fill="#3e145e"/>
    <path id="Trazado_236" data-name="Trazado 236" d="M30.473,62.236A1.339,1.339,0,0,1,29.135,60.9v-6.4a1.338,1.338,0,1,1,2.676,0v6.4a1.339,1.339,0,0,1-1.338,1.339" fill="#3e145e"/>
    <path id="Trazado_237" data-name="Trazado 237" d="M40.6,33.577a8.52,8.52,0,0,1-7.611-4.6q-.363-.684-.713-1.482a1.344,1.344,0,0,1-.111-.353,21.744,21.744,0,0,1-.358-5.465,1.338,1.338,0,0,1,1.16-1.195,7.344,7.344,0,0,0,4.715-3.3,1.322,1.322,0,0,1,1.213-.6,1.337,1.337,0,0,1,1.118.764s1.443,2.362,7.88,2.141a1.314,1.314,0,0,1,1.379,1.267,36.845,36.845,0,0,1-.334,6.356,5.5,5.5,0,0,1-.173.631,8.426,8.426,0,0,1-7.4,5.8c-.255.021-.509.032-.76.032m-5.822-7.038q.282.636.576,1.187a5.9,5.9,0,0,0,5.784,3.152,5.8,5.8,0,0,0,5.088-3.984c.033-.1.057-.18.072-.232a36.344,36.344,0,0,0,.318-4.489c-4.167-.08-6.484-1.194-7.726-2.182a10.213,10.213,0,0,1-4.462,2.88,23.708,23.708,0,0,0,.35,3.668" fill="#3e145e"/>
    <path id="Trazado_238" data-name="Trazado 238" d="M60.615,62.236H20.431A1.339,1.339,0,0,1,19.093,60.9V47.168a10,10,0,0,1,8.776-9.915L31.9,36.76c1.329-.162,2.976-1.18,3.216-2.379l.559-3.317a1.339,1.339,0,0,1,1.98-.942,6.093,6.093,0,0,0,5.788.087,1.34,1.34,0,0,1,1.942.963l.545,3.25c.232,1.158,1.88,2.176,3.208,2.338l4.035.493a10,10,0,0,1,8.777,9.915V60.9a1.34,1.34,0,0,1-1.339,1.339M21.769,59.559H59.277V47.168a7.32,7.32,0,0,0-6.425-7.257l-4.035-.494c-2.292-.28-5-1.957-5.515-4.51l-.28-1.664a8.874,8.874,0,0,1-4.986-.061l-.285,1.685c-.517,2.593-3.23,4.27-5.521,4.55l-4.036.494a7.32,7.32,0,0,0-6.425,7.257Z" fill="#3e145e"/>
    <path id="Trazado_239" data-name="Trazado 239" d="M31.657,13.433A2.106,2.106,0,0,1,29.625,11.9L27.8,5.523a2.884,2.884,0,0,1,1.587-3.444A26.62,26.62,0,0,1,40.3,0a26.61,26.61,0,0,1,10.92,2.079A2.883,2.883,0,0,1,52.81,5.522L50.981,11.9a2.115,2.115,0,0,1-2.72,1.42,32.836,32.836,0,0,0-7.979-1.108,32.814,32.814,0,0,0-7.938,1.108,2.128,2.128,0,0,1-.687.113m8.625-3.9a37.053,37.053,0,0,1,8.285,1.073l1.67-5.823a.221.221,0,0,0-.12-.269A23.9,23.9,0,0,0,40.3,2.677a23.908,23.908,0,0,0-9.815,1.839.223.223,0,0,0-.12.269l1.67,5.823a37.037,37.037,0,0,1,8.244-1.073" fill="#3e145e"/>
    <path id="Trazado_240" data-name="Trazado 240" d="M53.539,34.51a12.445,12.445,0,0,1-8.762-3.319,1.339,1.339,0,0,1,1.841-1.945C49.529,32,53.327,32,55.6,31.665c-.08-.124-.159-.251-.237-.383a15.416,15.416,0,0,1-2.115-7.918v-3.65c-.219-4.983-1.843-7.073-3.944-9.283a1.338,1.338,0,1,1,1.94-1.844c2.317,2.438,4.419,5.118,4.679,11.069v3.708a12.742,12.742,0,0,0,1.737,6.545,6.252,6.252,0,0,0,1.213,1.561,1.337,1.337,0,0,1-.42,2.281,15.943,15.943,0,0,1-4.914.759" fill="#3e145e"/>
    <path id="Trazado_241" data-name="Trazado 241" d="M40.524,9.248a1.339,1.339,0,0,1-1.338-1.339V4.469a1.338,1.338,0,1,1,2.676,0v3.44a1.339,1.339,0,0,1-1.338,1.339" fill="#3e145e"/>
    <path id="Trazado_242" data-name="Trazado 242" d="M42.243,7.527H38.8a1.338,1.338,0,1,1,0-2.676h3.44a1.338,1.338,0,1,1,0,2.676" fill="#3e145e"/>
    <path id="Trazado_243" data-name="Trazado 243" d="M32.78,51.913h-.3a1.338,1.338,0,1,1,0-2.677h.3l.039-2.491a2.491,2.491,0,0,0-4.983,0V49.2l.336.038a1.338,1.338,0,0,1,0,2.677h-.3A2.718,2.718,0,0,1,25.159,49.2V46.745a5.168,5.168,0,1,1,10.336,0V49.2a2.718,2.718,0,0,1-2.715,2.715" fill="#3e145e"/>
    <path id="Trazado_244" data-name="Trazado 244" d="M30.327,44.254a1.338,1.338,0,0,1-1.338-1.338V38.284a1.338,1.338,0,1,1,2.676,0v4.632a1.338,1.338,0,0,1-1.338,1.338" fill="#3e145e"/>
    <path id="Trazado_245" data-name="Trazado 245" d="M50.574,44.569a1.338,1.338,0,0,1-1.338-1.338V38.284a1.338,1.338,0,1,1,2.676,0v4.947a1.338,1.338,0,0,1-1.338,1.338" fill="#3e145e"/>
    <path id="Trazado_246" data-name="Trazado 246" d="M50.574,50.025a4.066,4.066,0,1,1,4.066-4.066,4.071,4.071,0,0,1-4.066,4.066m0-5.456a1.389,1.389,0,1,0,1.39,1.39,1.391,1.391,0,0,0-1.39-1.39" fill="#3e145e"/>
    <path id="Trazado_247" data-name="Trazado 247" d="M72.972,85.275H8.075A8.084,8.084,0,0,1,0,77.2,2.663,2.663,0,0,1,2.659,74.54H78.388A2.663,2.663,0,0,1,81.047,77.2a8.085,8.085,0,0,1-8.075,8.076M2.659,77.217A5.428,5.428,0,0,0,8.075,82.6h64.9a5.4,5.4,0,0,0,5.4-5.381Z" fill="#3e145e"/>
  </g>
</svg>
