<svg xmlns="http://www.w3.org/2000/svg" xmlns:xlink="http://www.w3.org/1999/xlink" width="84.923" height="96.699" viewBox="0 0 84.923 96.699">
  <defs>
    <clipPath id="clip-path">
      <rect id="Rectángulo_24" data-name="Rectángulo 24" width="84.923" height="96.699" transform="translate(0 0)" fill="none"/>
    </clipPath>
  </defs>
  <g id="Grupo_22" data-name="Grupo 22" transform="translate(0 0)">
    <g id="Grupo_21" data-name="Grupo 21" clip-path="url(#clip-path)">
      <path id="Trazado_212" data-name="Trazado 212" d="M83.83,17.535H81.883V15.588a1.095,1.095,0,0,0-2.189,0v1.947H77.747a1.094,1.094,0,1,0,0,2.188h1.947v1.948a1.095,1.095,0,0,0,2.189,0V19.723H83.83a1.094,1.094,0,1,0,0-2.188" fill="#3e145e"/>
      <path id="Trazado_213" data-name="Trazado 213" d="M73.265,8.618h-.013a1.094,1.094,0,0,0-1.081,1.107l.023,1.947a1.1,1.1,0,0,0,1.093,1.081H73.3a1.094,1.094,0,0,0,1.081-1.107L74.359,9.7a1.093,1.093,0,0,0-1.094-1.081" fill="#3e145e"/>
      <path id="Trazado_214" data-name="Trazado 214" d="M73.265,68.649h-.013a1.094,1.094,0,0,0-1.081,1.107l.023,1.948a1.1,1.1,0,0,0,1.093,1.081H73.3a1.1,1.1,0,0,0,1.081-1.108l-.023-1.947a1.093,1.093,0,0,0-1.094-1.081" fill="#3e145e"/>
      <path id="Trazado_215" data-name="Trazado 215" d="M77.433,29.675h-.014a1.1,1.1,0,0,0-1.081,1.107l.024,1.947a1.094,1.094,0,0,0,1.093,1.082h.013A1.094,1.094,0,0,0,78.549,32.7l-.022-1.947a1.094,1.094,0,0,0-1.094-1.081" fill="#3e145e"/>
      <path id="Trazado_216" data-name="Trazado 216" d="M60.727,0H22.559a7.2,7.2,0,0,0-7.191,7.192V89.507A7.2,7.2,0,0,0,22.559,96.7H60.727a7.2,7.2,0,0,0,7.192-7.191V7.192A7.2,7.2,0,0,0,60.727,0M17.556,15.646H65.731V81.007H17.556Zm5-13.457H60.727a5.009,5.009,0,0,1,5,5v6.265H17.556V7.192a5.008,5.008,0,0,1,5-5M60.727,94.51H22.559a5.008,5.008,0,0,1-5-5V83.2H65.731v6.311a5.009,5.009,0,0,1-5,5" fill="#3e145e"/>
      <path id="Trazado_217" data-name="Trazado 217" d="M36.9,8.994h9.488a1.094,1.094,0,1,0,0-2.188H36.9a1.094,1.094,0,0,0,0,2.188" fill="#3e145e"/>
      <path id="Trazado_218" data-name="Trazado 218" d="M42.617,87.658H40.67a1.094,1.094,0,0,0,0,2.188h1.947a1.094,1.094,0,0,0,0-2.188" fill="#3e145e"/>
      <path id="Trazado_219" data-name="Trazado 219" d="M9.991,76.265H9.978A1.1,1.1,0,0,0,8.9,77.372l.024,1.947A1.094,1.094,0,0,0,10.013,80.4h.013a1.094,1.094,0,0,0,1.081-1.108l-.022-1.947a1.093,1.093,0,0,0-1.094-1.081" fill="#3e145e"/>
      <path id="Trazado_220" data-name="Trazado 220" d="M9.991,24.256H9.978A1.094,1.094,0,0,0,8.9,25.362L8.92,27.31a1.094,1.094,0,0,0,1.093,1.081h.013a1.093,1.093,0,0,0,1.081-1.107l-.022-1.947a1.093,1.093,0,0,0-1.094-1.081" fill="#3e145e"/>
      <path id="Trazado_221" data-name="Trazado 221" d="M1.094,53.695H1.081A1.094,1.094,0,0,0,0,54.8l.023,1.947a1.1,1.1,0,0,0,1.093,1.082H1.13a1.094,1.094,0,0,0,1.081-1.107l-.023-1.947a1.093,1.093,0,0,0-1.094-1.081" fill="#3e145e"/>
      <path id="Trazado_222" data-name="Trazado 222" d="M10,69.326a1.094,1.094,0,1,0,0-2.188H8.594v-1.41a1.095,1.095,0,0,0-2.189,0v1.41H5a1.094,1.094,0,1,0,0,2.188H6.405v1.409a1.094,1.094,0,0,0,2.189,0V69.326Z" fill="#3e145e"/>
      <path id="Trazado_223" data-name="Trazado 223" d="M47.919,77.451H36.294a3.474,3.474,0,0,1-3.474-3.473V23.541a3.475,3.475,0,0,1,3.474-3.474H47.919a3.475,3.475,0,0,1,3.474,3.474V73.978a3.474,3.474,0,0,1-3.474,3.473" fill="#ffe227"/>
      <path id="Trazado_224" data-name="Trazado 224" d="M70.029,42.695V54.32a3.475,3.475,0,0,1-3.474,3.474H16.118a3.475,3.475,0,0,1-3.474-3.474V42.695a3.475,3.475,0,0,1,3.474-3.474H66.555a3.475,3.475,0,0,1,3.474,3.474" fill="#ffe227"/>
      <path id="Trazado_225" data-name="Trazado 225" d="M47.484,78.033H36.463a5.228,5.228,0,0,1-5.223-5.222V59.04H29.049a1.011,1.011,0,0,1,0-2.021h3.2a1.011,1.011,0,0,1,1.01,1.011V72.811a3.2,3.2,0,0,0,3.2,3.2H47.484a3.2,3.2,0,0,0,3.2-3.2V58.03A1.01,1.01,0,0,1,51.7,57.019H66.477a3.2,3.2,0,0,0,3.2-3.2V42.8a3.2,3.2,0,0,0-3.2-3.2H51.7a1.011,1.011,0,0,1-1.011-1.01V30.663a1.011,1.011,0,1,1,2.022,0v6.911h13.77A5.227,5.227,0,0,1,71.7,42.8V53.818a5.227,5.227,0,0,1-5.222,5.222H52.707V72.811a5.228,5.228,0,0,1-5.223,5.222" fill="#3e145e"/>
      <path id="Trazado_226" data-name="Trazado 226" d="M23.433,59.04H17.469a5.227,5.227,0,0,1-5.222-5.222V42.8a5.227,5.227,0,0,1,5.222-5.222H31.24V23.8a5.228,5.228,0,0,1,5.222-5.222H47.484A5.228,5.228,0,0,1,52.706,23.8V25.84a1.011,1.011,0,1,1-2.021,0V23.8a3.2,3.2,0,0,0-3.2-3.2H36.462a3.2,3.2,0,0,0-3.2,3.2V38.585A1.011,1.011,0,0,1,32.25,39.6H17.469a3.2,3.2,0,0,0-3.2,3.2V53.818a3.2,3.2,0,0,0,3.2,3.2h5.964a1.011,1.011,0,1,1,0,2.021" fill="#3e145e"/>
      <path id="Trazado_227" data-name="Trazado 227" d="M24.929,53.318a.983.983,0,0,1-.131-.009,1.009,1.009,0,0,1-.864-.821l-.957-5.3-1.265,1.717a1.009,1.009,0,0,1-.813.41h-4.03a1.011,1.011,0,0,1,0-2.021h3.52l2.353-3.192a1.011,1.011,0,0,1,1.808.42L25.358,49l1.86-3.987a1.01,1.01,0,0,1,1.908.237l.392,2.049h7.135a1.011,1.011,0,0,1,0,2.021h-7.97a1.008,1.008,0,0,1-.942-.647l-1.9,4.062a1.01,1.01,0,0,1-.915.584" fill="#3e145e"/>
      <path id="Trazado_228" data-name="Trazado 228" d="M59.016,53.318a1.009,1.009,0,0,1-.914-.584l-1.9-4.063a1.011,1.011,0,0,1-.943.648h-8.17a1.011,1.011,0,1,1,0-2.021h7.335l.393-2.049a1.01,1.01,0,0,1,1.908-.237L58.588,49l.808-4.473a1.011,1.011,0,0,1,1.808-.42L63.557,47.3h3.52a1.011,1.011,0,0,1,0,2.021h-4.03a1.009,1.009,0,0,1-.813-.41l-1.265-1.717-.957,5.3a1.009,1.009,0,0,1-.864.821.987.987,0,0,1-.132.009" fill="#3e145e"/>
      <path id="Trazado_229" data-name="Trazado 229" d="M41.974,54.219a1.019,1.019,0,0,1-.441-.1C37.77,52.3,36.389,50,35.89,48.388a4.428,4.428,0,0,1-.231-1.136,3.172,3.172,0,0,1-.016-.364,4.165,4.165,0,0,1,4.018-4.277,3.825,3.825,0,0,1,2.313.782,3.82,3.82,0,0,1,2.312-.782A4.17,4.17,0,0,1,48.3,46.9a3.363,3.363,0,0,1-.018.373,4.485,4.485,0,0,1-.233,1.124c-.5,1.609-1.888,3.9-5.639,5.716a1.012,1.012,0,0,1-.44.1m-2.313-9.587a2.154,2.154,0,0,0-2,2.279,1.252,1.252,0,0,0,.008.169,2.458,2.458,0,0,0,.136.672c.308.994,1.24,2.786,4.165,4.325,2.926-1.539,3.857-3.332,4.153-4.29a2.623,2.623,0,0,0,.146-.68c.008-.1.01-.149.01-.168a2.164,2.164,0,0,0-2-2.307,1.905,1.905,0,0,0-1.509.788,1.009,1.009,0,0,1-1.608,0,1.9,1.9,0,0,0-1.508-.787" fill="#3e145e"/>
    </g>
  </g>
</svg>
