<svg id="Grupo_28" data-name="Grupo 28" xmlns="http://www.w3.org/2000/svg" xmlns:xlink="http://www.w3.org/1999/xlink" width="51.587" height="94.924" viewBox="0 0 51.587 94.924">
  <defs>
    <clipPath id="clip-path">
      <rect id="Rectángulo_27" data-name="Rectángulo 27" width="51.587" height="94.924" transform="translate(0 0)" fill="none"/>
    </clipPath>
  </defs>
  <g id="Grupo_27" data-name="Grupo 27" clip-path="url(#clip-path)">
    <path id="Trazado_266" data-name="Trazado 266" d="M22.09,34.236l-1.52-2.771s.6-6.275,5.875-6.124c0,0,6.661,2.735,3.043,7.138l-.472,2.2,10.894-.6v9.71s6.932-3.429,8.231,3.607c0,0-.835,7.808-8.764,4.013l.456,9.847H29.488s4.2,6.89-3.043,8.241c0,0-7.8.589-4.459-7.8H12.4l.532-10.934S6.406,55.6,3.623,47.991c0,0,.557-8.169,8.487-4.205l.278-9.55Z" fill="#ffe227"/>
    <path id="Trazado_267" data-name="Trazado 267" d="M44.528,0H7.06A7.068,7.068,0,0,0,0,7.059V87.865a7.068,7.068,0,0,0,7.06,7.059H44.528a7.068,7.068,0,0,0,7.06-7.059V7.059A7.068,7.068,0,0,0,44.528,0M2.149,15.358H49.44V79.521H2.149ZM7.06,2.148H44.528a4.916,4.916,0,0,1,4.911,4.911v6.152H2.149V7.059A4.916,4.916,0,0,1,7.06,2.148M44.528,92.776H7.06a4.916,4.916,0,0,1-4.911-4.911v-6.2h47.29v6.2a4.916,4.916,0,0,1-4.911,4.911" fill="#3e145e"/>
    <path id="Trazado_268" data-name="Trazado 268" d="M21.987,49.894l3.751-3.128,4.268,3.469s1.479,5.751-4.434,5.81c0,0-3.711.8-3.585-6.151" fill="#fff"/>
    <path id="Trazado_269" data-name="Trazado 269" d="M25.855,70.539a5.568,5.568,0,0,1-4.684-8.566H13.353a1.843,1.843,0,0,1-1.841-1.842V52.313a5.572,5.572,0,1,1,0-9.393V35.1a1.843,1.843,0,0,1,1.841-1.842h7.818a5.572,5.572,0,1,1,9.393,0h7.818A1.844,1.844,0,0,1,40.224,35.1V42.92a5.572,5.572,0,1,1,0,9.393v7.818a1.844,1.844,0,0,1-1.842,1.842H30.564a5.569,5.569,0,0,1-4.709,8.566M12.22,50.056a.71.71,0,0,1,.708.709v9.366a.425.425,0,0,0,.425.425H22.72a.708.708,0,0,1,.458,1.248,4.156,4.156,0,1,0,5.379,0,.708.708,0,0,1,.459-1.248h9.366a.425.425,0,0,0,.425-.425V50.765a.709.709,0,0,1,1.248-.46,4.156,4.156,0,1,0,0-5.378.709.709,0,0,1-1.248-.459V35.1a.426.426,0,0,0-.425-.425H29.016a.709.709,0,0,1-.459-1.248,4.153,4.153,0,0,0-2.2-7.292A4.12,4.12,0,0,0,23.1,27.165a4.151,4.151,0,0,0,.079,6.264.708.708,0,0,1-.459,1.248H13.353a.425.425,0,0,0-.425.425v9.366a.709.709,0,0,1-1.248.459,4.153,4.153,0,0,0-7.292,2.2,4.154,4.154,0,0,0,7.292,3.176.712.712,0,0,1,.54-.25" fill="#3e145e"/>
    <path id="Trazado_270" data-name="Trazado 270" d="M18.258,58.35a.707.707,0,0,1-.677-.5c-.137-.446-3.3-10.994,2.253-16.269a.709.709,0,0,1,.976,1.028c-4.131,3.924-2.664,11.653-2.073,14.079a23.1,23.1,0,0,1,2.5-.647.708.708,0,0,1,.29,1.387,14.359,14.359,0,0,0-2.952.847.694.694,0,0,1-.317.075" fill="#3e145e"/>
    <path id="Trazado_271" data-name="Trazado 271" d="M33.866,58.35a.711.711,0,0,1-.447-.159,7.724,7.724,0,0,0-2.7-1.288.709.709,0,1,1,.339-1.376,9.088,9.088,0,0,1,2.289.924c.973-6.48.145-11.271-2.415-13.9a.708.708,0,1,1,1.014-.988c3.073,3.15,3.955,8.6,2.622,16.2a.709.709,0,0,1-.7.586" fill="#3e145e"/>
    <path id="Trazado_272" data-name="Trazado 272" d="M25.691,56.837c-.148,0-.3-.006-.448-.018A4.962,4.962,0,0,1,20.882,53.4c-.051-.153-.076-.251-.082-.276a22.1,22.1,0,0,1-.217-3.881.711.711,0,0,1,.657-.669c2.236-.159,3.63-2.822,3.644-2.848a.708.708,0,0,1,1.267.015,7.275,7.275,0,0,0,4.2,3.449.71.71,0,0,1,.518.613,12.933,12.933,0,0,1-.214,3.254.7.7,0,0,1-.06.19c-.134.308-.277.6-.425.882a5.016,5.016,0,0,1-4.482,2.707M22.18,52.8c.009.031.023.082.046.148a3.565,3.565,0,0,0,3.135,2.455,3.638,3.638,0,0,0,3.561-1.94c.12-.226.237-.47.353-.73a13.737,13.737,0,0,0,.212-2.344,8.8,8.8,0,0,1-4-3,6.349,6.349,0,0,1-3.5,2.5,21.917,21.917,0,0,0,.193,2.91" fill="#3e145e"/>
    <path id="Trazado_273" data-name="Trazado 273" d="M30.424,44.909a.714.714,0,0,1-.293-.064,13.253,13.253,0,0,0-4.275-.825,13.266,13.266,0,0,0-4.247.825.707.707,0,0,1-.933-.342l-2.388-5.054a.708.708,0,0,1,.247-.892c.1-.068,2.566-1.674,7.335-1.674s7.233,1.606,7.335,1.674a.707.707,0,0,1,.248.892L31.065,44.5a.71.71,0,0,1-.641.406M25.856,42.6a15.805,15.805,0,0,1,4.211.695l1.816-3.844A14.343,14.343,0,0,0,25.87,38.3a14.359,14.359,0,0,0-6.013,1.155L21.673,43.3a15.809,15.809,0,0,1,4.183-.695" fill="#3e145e"/>
    <path id="Trazado_274" data-name="Trazado 274" d="M25.738,42.242a.707.707,0,0,1-.708-.708V39.47a.708.708,0,1,1,1.416,0v2.064a.707.707,0,0,1-.708.708" fill="#3e145e"/>
    <path id="Trazado_275" data-name="Trazado 275" d="M26.769,41.21H24.7a.709.709,0,0,1,0-1.417h2.064a.709.709,0,0,1,0,1.417" fill="#3e145e"/>
  </g>
</svg>
