<svg xmlns="http://www.w3.org/2000/svg" width="40" height="43.968" viewBox="0 0 40 43.968">
  <g id="Grupo_1" data-name="Grupo 1" transform="translate(-15.064 62.158)">
    <path id="Trazado_1" data-name="Trazado 1" d="M37.881-52.353h4.06l-6.259-6.589v4.381A2.214,2.214,0,0,0,37.881-52.353Z" fill="#fff"/>
    <path id="Trazado_2" data-name="Trazado 2" d="M22.468-44.839h9.283a.919.919,0,0,1,.916.917.919.919,0,0,1-.916.916H22.468a.92.92,0,0,1-.917-.916A.92.92,0,0,1,22.468-44.839Zm0,6.424a.919.919,0,0,1-.917-.916.92.92,0,0,1,.917-.917H34.106A12.789,12.789,0,0,1,42.463-43.4c.239,0,.459.027.733.036V-50.52H37.882a4.041,4.041,0,0,1-4.033-4.042v-5.764H19.975A3.1,3.1,0,0,0,16.9-57.2v27.968a3.07,3.07,0,0,0,3.079,3.088v.01H30.743a12.224,12.224,0,0,1-.9-4.656,12.334,12.334,0,0,1,.348-2.95H22.468a.92.92,0,0,1-.917-.917.919.919,0,0,1,.917-.916h8.321A14.541,14.541,0,0,1,32.4-38.415Z" fill="#fff"/>
    <path id="Trazado_3" data-name="Trazado 3" d="M48.475-29.728,43.1-23.963a.924.924,0,0,1-.669.293.923.923,0,0,1-.669-.293l-5.361-5.765a.913.913,0,0,1,.046-1.292.925.925,0,0,1,1.3.046l3.794,4.06V-36.921a.919.919,0,0,1,.916-.917.92.92,0,0,1,.917.917v10.007l3.766-4.06a.914.914,0,0,1,1.292-.046A.912.912,0,0,1,48.475-29.728ZM42.454-41.549A10.772,10.772,0,0,0,31.687-30.781,10.778,10.778,0,0,0,42.454-20.014,10.778,10.778,0,0,0,53.221-30.781,10.772,10.772,0,0,0,42.454-41.549Z" fill="#ffe227"/>
    <path id="Trazado_4" data-name="Trazado 4" d="M42.454-20.014A10.778,10.778,0,0,1,31.687-30.781,10.773,10.773,0,0,1,42.454-41.549,10.773,10.773,0,0,1,53.222-30.781,10.779,10.779,0,0,1,42.454-20.014ZM30.789-35.574H22.468a.92.92,0,0,0-.917.917.92.92,0,0,0,.917.916h7.725a12.342,12.342,0,0,0-.348,2.951,12.2,12.2,0,0,0,.9,4.655H19.975v-.009A3.071,3.071,0,0,1,16.9-29.233V-57.2a3.1,3.1,0,0,1,3.079-3.124H33.849v5.764a4.041,4.041,0,0,0,4.033,4.041H43.2v7.157c-.274-.009-.494-.037-.733-.037a12.784,12.784,0,0,0-8.357,3.153H22.468a.919.919,0,0,0-.917.916.919.919,0,0,0,.917.916H32.4A14.57,14.57,0,0,0,30.789-35.574Zm4.893-23.368,6.259,6.589H37.882a2.214,2.214,0,0,1-2.2-2.208Zm9.347,15.817v-8.321a.965.965,0,0,0-.265-.632l-9.329-9.8a.931.931,0,0,0-.669-.284H19.975A4.927,4.927,0,0,0,15.064-57.2v27.968a4.9,4.9,0,0,0,4.911,4.922H31.65a12.6,12.6,0,0,0,10.8,6.121,12.627,12.627,0,0,0,12.619-12.6A12.639,12.639,0,0,0,45.029-43.125Z" fill="#3e145e"/>
    <path id="Trazado_5" data-name="Trazado 5" d="M22.468-43.006h9.283a.918.918,0,0,0,.916-.916.919.919,0,0,0-.916-.917H22.468a.92.92,0,0,0-.917.917A.919.919,0,0,0,22.468-43.006Z" fill="#3e145e"/>
    <path id="Trazado_6" data-name="Trazado 6" d="M47.146-30.974l-3.766,4.06V-36.921a.919.919,0,0,0-.917-.916.918.918,0,0,0-.916.916v10.007l-3.794-4.06a.924.924,0,0,0-1.3-.045.913.913,0,0,0-.046,1.292l5.361,5.764a.923.923,0,0,0,.669.293.924.924,0,0,0,.669-.293l5.37-5.764a.912.912,0,0,0-.037-1.292A.913.913,0,0,0,47.146-30.974Z" fill="#3e145e"/>
  </g>
</svg>
