<svg id="Grupo_312" data-name="Grupo 312" xmlns="http://www.w3.org/2000/svg" xmlns:xlink="http://www.w3.org/1999/xlink" width="415.383" height="369.821" viewBox="0 0 415.383 369.821">
  <defs>
    <clipPath id="clip-path">
      <rect id="Rectángulo_153" data-name="Rectángulo 153" width="415.383" height="369.821" fill="none"/>
    </clipPath>
    <clipPath id="clip-path-3">
      <rect id="Rectángulo_143" data-name="Rectángulo 143" width="410.292" height="369.821" transform="translate(5.091)" fill="none"/>
    </clipPath>
    <clipPath id="clip-path-4">
      <rect id="Rectángulo_145" data-name="Rectángulo 145" width="36.069" height="44.841" transform="translate(103.374 183.846)" fill="none"/>
    </clipPath>
    <clipPath id="clip-path-5">
      <path id="Trazado_1339" data-name="Trazado 1339" d="M60.886,123.733a2.132,2.132,0,0,0-2.113,2.113v40.643a2.109,2.109,0,0,0,2.113,2.087H96.04a2.085,2.085,0,0,0,2.085-2.087V125.846a2.108,2.108,0,0,0-2.085-2.113Z" fill="none"/>
    </clipPath>
    <clipPath id="clip-path-7">
      <rect id="Rectángulo_147" data-name="Rectángulo 147" width="36.068" height="44.841" transform="translate(52.845 183.846)" fill="none"/>
    </clipPath>
    <clipPath id="clip-path-8">
      <rect id="Rectángulo_148" data-name="Rectángulo 148" width="36.068" height="44.841" transform="translate(206.718 183.846)" fill="none"/>
    </clipPath>
    <clipPath id="clip-path-9">
      <rect id="Rectángulo_149" data-name="Rectángulo 149" width="36.068" height="44.841" transform="translate(156.188 183.846)" fill="none"/>
    </clipPath>
    <clipPath id="clip-path-10">
      <rect id="Rectángulo_150" data-name="Rectángulo 150" width="36.069" height="44.841" transform="translate(309.957 183.846)" fill="none"/>
    </clipPath>
    <clipPath id="clip-path-11">
      <rect id="Rectángulo_151" data-name="Rectángulo 151" width="36.068" height="44.841" transform="translate(259.428 183.846)" fill="none"/>
    </clipPath>
  </defs>
  <g id="Grupo_311" data-name="Grupo 311" clip-path="url(#clip-path)">
    <g id="Grupo_291" data-name="Grupo 291">
      <g id="Grupo_290" data-name="Grupo 290" clip-path="url(#clip-path)">
        <path id="Trazado_1325" data-name="Trazado 1325" d="M373.754,341.837H6.39a6.39,6.39,0,1,1,0-12.78H373.754a6.39,6.39,0,1,1,0,12.78" fill="#c9ced8" fill-rule="evenodd"/>
        <g id="Grupo_286" data-name="Grupo 286" opacity="0.7">
          <g id="Grupo_285" data-name="Grupo 285">
            <g id="Grupo_284" data-name="Grupo 284" clip-path="url(#clip-path-3)">
              <path id="Trazado_1326" data-name="Trazado 1326" d="M363.623,304.266c14.513-8.779,28.8-18.638,38.982-32.2s15.775-31.507,11.118-47.817c-4.557-15.96-17.907-27.837-31.848-36.846s-29.234-16.214-41.4-27.508c-6.286-5.837-11.955-13.869-10.474-22.318,1.608-9.178,10.671-14.7,17.248-21.3,14.144-14.19,17.787-36.908,11.5-55.933S337.406,26,319.784,16.461,282.1,2.713,262.144.965C177.982-6.407,93.817,29.142,30.1,84.622,19.962,93.451,9.815,103.5,6.486,116.529c-5.63,22.026,11.051,44.75,31.757,54.134,8.962,4.062,19.69,7.188,23.934,16.064,3.145,6.577,1.55,14.61-2.15,20.892s-9.242,11.221-14.514,16.256C30.686,238.036,17.1,254.191,9.957,273.411s-7,41.99,4.274,59.117c11.639,17.688,32.8,26.611,53.424,31.391,41.812,9.687,85.214,6.16,127.068-1.33,36.884-6.6,73.834-13.388,108.529-27.773a448.837,448.837,0,0,0,60.371-30.55" fill="#eceffe" fill-rule="evenodd"/>
            </g>
          </g>
        </g>
        <path id="Trazado_1327" data-name="Trazado 1327" d="M243.331,303.293c3.323-6.682,11.309-8.971,19.762-11.394,14.81-4.244,31.6-9.055,31.878-37.631l.988.014c-.129,13.15-3.693,22.6-10.9,28.881-6.26,5.461-14.484,7.817-21.74,9.9-8.245,2.362-16.034,4.594-19.143,10.846-1.77,3.559-1.987,8.249-.661,14.337,4.262,19.564,16.007,16.471,33.787,11.794a154.9,154.9,0,0,1,22.9-4.744c14.261-1.542,23.82.293,28.415,5.453a10.677,10.677,0,0,1,2.189,3.759h-1.078a9.564,9.564,0,0,0-1.785-2.887c-3.013-3.382-10.256-7.02-27.652-5.137a154.233,154.233,0,0,0-22.781,4.72c-17.678,4.652-30.451,8.014-34.955-12.656-1.4-6.414-1.144-11.4.771-15.252" fill="#fdfdfd"/>
        <path id="Trazado_1328" data-name="Trazado 1328" d="M343.291,344.064a8.847,8.847,0,0,0-8.6-11.02H323.665a8.843,8.843,0,0,0-8.605,11.02Z" fill="#081723" fill-rule="evenodd"/>
        <rect id="Rectángulo_144" data-name="Rectángulo 144" width="83.427" height="44.21" transform="translate(147.358 294.09)" fill="#3e145e"/>
        <path id="Trazado_1329" data-name="Trazado 1329" d="M113.205,344.064H264.936a3.855,3.855,0,1,0,0-7.711H113.205a3.855,3.855,0,0,0,0,7.711" fill="#3e145e" fill-rule="evenodd"/>
        <path id="Trazado_1330" data-name="Trazado 1330" d="M39.81,103.8H350.956a8.375,8.375,0,0,1,8.343,8.342V290.88a8.374,8.374,0,0,1-8.343,8.342H39.81a8.38,8.38,0,0,1-8.37-8.342V112.144a8.38,8.38,0,0,1,8.37-8.342" fill="#3e145e" fill-rule="evenodd"/>
        <path id="Trazado_1331" data-name="Trazado 1331" d="M40.221,108.934H350.544a3.66,3.66,0,0,1,3.623,3.65V290.468a3.654,3.654,0,0,1-3.623,3.622H40.221a3.636,3.636,0,0,1-3.622-3.622V112.584a3.642,3.642,0,0,1,3.622-3.65" fill="#d3d7ef" fill-rule="evenodd"/>
        <g id="Grupo_289" data-name="Grupo 289" opacity="0.7">
          <g id="Grupo_288" data-name="Grupo 288">
            <g id="Grupo_287" data-name="Grupo 287" clip-path="url(#clip-path-4)">
              <path id="Trazado_1332" data-name="Trazado 1332" d="M105.311,183.846h32.221a2.029,2.029,0,0,1,1.911,2.113V226.6a2,2,0,0,1-1.911,2.086H105.311a2.024,2.024,0,0,1-1.937-2.086V185.959a2.049,2.049,0,0,1,1.937-2.113" fill="#fff" fill-rule="evenodd"/>
            </g>
          </g>
        </g>
        <path id="Trazado_1333" data-name="Trazado 1333" d="M61.653,118.135h76.923a8.807,8.807,0,0,1,8.781,8.782v38.474a8.807,8.807,0,0,1-8.781,8.782H61.653a8.814,8.814,0,0,1-8.809-8.782V126.917a8.814,8.814,0,0,1,8.809-8.782" fill="#93edf8" fill-rule="evenodd"/>
      </g>
    </g>
    <g id="Grupo_293" data-name="Grupo 293">
      <g id="Grupo_292" data-name="Grupo 292" clip-path="url(#clip-path-5)">
        <path id="Trazado_1334" data-name="Trazado 1334" d="M70.93,147.115c.22-.027,13.639,0,13.639,0,2.113-2.058,4.83-11.746-1.784-16.438-3.9-2.772-8.151-.769-9.111.823a4.9,4.9,0,0,0-2.635.851c-6.284,4.857-.3,14.792-.109,14.764" fill="#081723" fill-rule="evenodd"/>
        <path id="Trazado_1335" data-name="Trazado 1335" d="M71.451,148.13H83.965a6.365,6.365,0,0,1,6.366,6.339v22.366H65.084V154.469a6.365,6.365,0,0,1,6.367-6.339" fill="#ff9733" fill-rule="evenodd"/>
        <path id="Trazado_1336" data-name="Trazado 1336" d="M81.248,147.335c-.192,2.388-1.757,4.226-3.623,4.226-1.894,0-3.457-1.838-3.622-4.226a9.525,9.525,0,0,1-3.1-7.354c0-4.8,2.992-8.7,6.723-8.7,3.705,0,6.724,3.9,6.724,8.7a9.525,9.525,0,0,1-3.1,7.354" fill="#ffad8f" fill-rule="evenodd"/>
        <path id="Trazado_1337" data-name="Trazado 1337" d="M73.482,132.186c1.646,6.257,12.926,4.418,12.9,4.391-.192-.192-1.893-4.117-4.39-5.3a11.726,11.726,0,0,0-7.356-.164,3.248,3.248,0,0,0-1.152,1.07" fill="#081723" fill-rule="evenodd"/>
        <path id="Trazado_1338" data-name="Trazado 1338" d="M75.815,132.982a8.285,8.285,0,0,1-3.129,3.65,6.356,6.356,0,0,1-3.9,1.262s.3-3.211,2.222-4.473a12.431,12.431,0,0,1,4.144-1.619Z" fill="#081723" fill-rule="evenodd"/>
      </g>
    </g>
    <g id="Grupo_310" data-name="Grupo 310">
      <g id="Grupo_309" data-name="Grupo 309" clip-path="url(#clip-path)">
        <path id="Trazado_1340" data-name="Trazado 1340" d="M105.1,130.32h29.857a1.318,1.318,0,0,1,1.318,1.317,1.336,1.336,0,0,1-1.318,1.318H105.1a1.335,1.335,0,0,1-1.317-1.318,1.317,1.317,0,0,1,1.317-1.317" fill="#fdfdfd" fill-rule="evenodd"/>
        <path id="Trazado_1341" data-name="Trazado 1341" d="M105.1,136.742h29.857a1.336,1.336,0,0,1,1.318,1.317,1.318,1.318,0,0,1-1.318,1.317H105.1a1.317,1.317,0,0,1-1.317-1.317,1.335,1.335,0,0,1,1.317-1.317" fill="#fdfdfd" fill-rule="evenodd"/>
        <path id="Trazado_1342" data-name="Trazado 1342" d="M105.1,143.191h29.857a1.318,1.318,0,1,1,0,2.635H105.1a1.318,1.318,0,0,1,0-2.635" fill="#fdfdfd" fill-rule="evenodd"/>
        <path id="Trazado_1343" data-name="Trazado 1343" d="M105.1,149.64h29.857a1.3,1.3,0,1,1,0,2.607H105.1a1.3,1.3,0,1,1,0-2.607" fill="#fdfdfd" fill-rule="evenodd"/>
        <path id="Trazado_1344" data-name="Trazado 1344" d="M105.1,156.061h13.749a1.317,1.317,0,0,1,0,2.635H105.1a1.317,1.317,0,0,1,0-2.635" fill="#fdfdfd" fill-rule="evenodd"/>
        <g id="Grupo_296" data-name="Grupo 296" opacity="0.7">
          <g id="Grupo_295" data-name="Grupo 295">
            <g id="Grupo_294" data-name="Grupo 294" clip-path="url(#clip-path-7)">
              <path id="Trazado_1345" data-name="Trazado 1345" d="M54.782,183.846H87a2.011,2.011,0,0,1,1.911,2.113v40.616A2.028,2.028,0,0,1,87,228.687H54.782a2.047,2.047,0,0,1-1.937-2.112V185.959a2.03,2.03,0,0,1,1.937-2.113" fill="#fff" fill-rule="evenodd"/>
            </g>
          </g>
        </g>
        <g id="Grupo_299" data-name="Grupo 299" opacity="0.7">
          <g id="Grupo_298" data-name="Grupo 298">
            <g id="Grupo_297" data-name="Grupo 297" clip-path="url(#clip-path-8)">
              <path id="Trazado_1346" data-name="Trazado 1346" d="M208.654,183.846h32.22a2.029,2.029,0,0,1,1.912,2.113V226.6a2,2,0,0,1-1.912,2.086h-32.22a2.023,2.023,0,0,1-1.937-2.086V185.959a2.048,2.048,0,0,1,1.937-2.113" fill="#fff" fill-rule="evenodd"/>
            </g>
          </g>
        </g>
        <g id="Grupo_302" data-name="Grupo 302" opacity="0.7">
          <g id="Grupo_301" data-name="Grupo 301">
            <g id="Grupo_300" data-name="Grupo 300" clip-path="url(#clip-path-9)">
              <path id="Trazado_1347" data-name="Trazado 1347" d="M158.125,183.846h32.22a2.011,2.011,0,0,1,1.911,2.113v40.616a2.028,2.028,0,0,1-1.911,2.112h-32.22a2.048,2.048,0,0,1-1.937-2.112V185.959a2.031,2.031,0,0,1,1.937-2.113" fill="#fff" fill-rule="evenodd"/>
            </g>
          </g>
        </g>
        <g id="Grupo_305" data-name="Grupo 305" opacity="0.7">
          <g id="Grupo_304" data-name="Grupo 304">
            <g id="Grupo_303" data-name="Grupo 303" clip-path="url(#clip-path-10)">
              <path id="Trazado_1348" data-name="Trazado 1348" d="M311.894,183.846h32.221a2.028,2.028,0,0,1,1.911,2.113V226.6a2,2,0,0,1-1.911,2.086H311.894a2.024,2.024,0,0,1-1.937-2.086V185.959a2.049,2.049,0,0,1,1.937-2.113" fill="#fff" fill-rule="evenodd"/>
            </g>
          </g>
        </g>
        <g id="Grupo_308" data-name="Grupo 308" opacity="0.7">
          <g id="Grupo_307" data-name="Grupo 307">
            <g id="Grupo_306" data-name="Grupo 306" clip-path="url(#clip-path-11)">
              <path id="Trazado_1349" data-name="Trazado 1349" d="M261.365,183.846h32.22a2.011,2.011,0,0,1,1.911,2.113v40.616a2.028,2.028,0,0,1-1.911,2.112h-32.22a2.048,2.048,0,0,1-1.938-2.112V185.959a2.031,2.031,0,0,1,1.938-2.113" fill="#fff" fill-rule="evenodd"/>
            </g>
          </g>
        </g>
        <path id="Trazado_1350" data-name="Trazado 1350" d="M122.843,206.7H112.314a.376.376,0,0,1-.376-.376v-4.061a5.641,5.641,0,0,1,10.337-3.126.376.376,0,0,1-.626.417,4.889,4.889,0,0,0-8.959,2.709v3.685h9.777v-3.685a4.947,4.947,0,0,0-.032-.559.376.376,0,0,1,.748-.086,6.032,6.032,0,0,1,.036.645v4.061a.376.376,0,0,1-.376.376" fill="#3e145e"/>
        <path id="Trazado_1351" data-name="Trazado 1351" d="M117.579,218a5.647,5.647,0,0,1-5.641-5.641V208.3a.376.376,0,0,1,.376-.376h10.529a.376.376,0,0,1,.376.376v4.061a5.647,5.647,0,0,1-5.64,5.641m-4.889-9.326v3.685a4.889,4.889,0,1,0,9.777,0v-3.685Z" fill="#3e145e"/>
        <path id="Trazado_1352" data-name="Trazado 1352" d="M122.392,208.677h-9.627a.377.377,0,0,1-.376-.376v-1.977a.376.376,0,0,1,.376-.376h9.627a.376.376,0,0,1,.376.376V208.3a.376.376,0,0,1-.376.376m-9.251-.752h8.875V206.7h-8.875Z" fill="#3e145e"/>
        <path id="Trazado_1353" data-name="Trazado 1353" d="M129.252,218h-2.727a.376.376,0,0,1-.376-.376v-7.069a.376.376,0,0,1,.376-.376h1.239a.376.376,0,1,1,0,.752H126.9v6.317h2.351a3.159,3.159,0,0,0,.362-6.3.376.376,0,1,1,.085-.747,3.911,3.911,0,0,1-.447,7.8" fill="#3e145e"/>
        <path id="Trazado_1354" data-name="Trazado 1354" d="M124.9,218a.376.376,0,0,1-.376-.376v-6.693h-.239a.376.376,0,1,1,0-.752h.615a.376.376,0,0,1,.376.376v7.069a.376.376,0,0,1-.376.376" fill="#3e145e"/>
        <path id="Trazado_1355" data-name="Trazado 1355" d="M126.526,217.7H124.9a.376.376,0,0,1-.376-.376V210.86a.376.376,0,0,1,.376-.376h1.628a.376.376,0,0,1,.376.376v6.464a.376.376,0,0,1-.376.376m-1.252-.752h.876v-5.712h-.876Z" fill="#3e145e"/>
        <path id="Trazado_1356" data-name="Trazado 1356" d="M132.787,218H112.313a.376.376,0,1,1,0-.752h20.474a.376.376,0,0,1,0,.752" fill="#3e145e"/>
        <path id="Trazado_1357" data-name="Trazado 1357" d="M126.8,206.7a.376.376,0,0,1-.376-.376v-1.131a.376.376,0,0,1,.752,0v1.131a.376.376,0,0,1-.376.376" fill="#3e145e"/>
        <path id="Trazado_1358" data-name="Trazado 1358" d="M127.364,206.134h-1.132a.376.376,0,1,1,0-.752h1.132a.376.376,0,1,1,0,.752" fill="#3e145e"/>
        <path id="Trazado_1359" data-name="Trazado 1359" d="M129.656,201.106a.376.376,0,0,1-.376-.376V199.6a.376.376,0,1,1,.752,0v1.132a.376.376,0,0,1-.376.376" fill="#3e145e"/>
        <path id="Trazado_1360" data-name="Trazado 1360" d="M130.222,200.54h-1.131a.376.376,0,1,1,0-.752h1.131a.376.376,0,1,1,0,.752" fill="#3e145e"/>
        <path id="Trazado_1361" data-name="Trazado 1361" d="M182.487,207.664h-1.448a.376.376,0,0,1-.376-.376v-1.046h-1.046a.376.376,0,0,1-.376-.376v-1.448a.376.376,0,0,1,.376-.376h1.046V203a.376.376,0,0,1,.376-.376h1.448a.376.376,0,0,1,.376.376v1.046h1.046a.376.376,0,0,1,.376.376v1.448a.376.376,0,0,1-.376.376h-1.046v1.046a.376.376,0,0,1-.376.376m-1.072-.752h.7v-1.046a.376.376,0,0,1,.376-.376h1.046v-.7h-1.046a.376.376,0,0,1-.376-.376v-1.046h-.7v1.046a.376.376,0,0,1-.376.376h-1.046v.7h1.046a.376.376,0,0,1,.376.376Z" fill="#3e145e"/>
        <path id="Trazado_1362" data-name="Trazado 1362" d="M181.763,209a3.856,3.856,0,1,1,3.856-3.856A3.86,3.86,0,0,1,181.763,209m0-6.96a3.1,3.1,0,1,0,3.1,3.1,3.108,3.108,0,0,0-3.1-3.1" fill="#3e145e"/>
        <path id="Trazado_1363" data-name="Trazado 1363" d="M176.587,217.773H163.9a.376.376,0,0,1-.376-.376V201.319a.376.376,0,0,1,.376-.376h12.684a.376.376,0,0,1,.376.376V217.4a.376.376,0,0,1-.376.376m-12.308-.752h11.933V201.7H164.279Z" fill="#3e145e"/>
        <path id="Trazado_1364" data-name="Trazado 1364" d="M177.288,201.7H163.2a.376.376,0,0,1-.376-.376v-1.487a.376.376,0,0,1,.376-.376h14.087a.376.376,0,0,1,.376.376v1.487a.376.376,0,0,1-.376.376m-13.711-.752h13.335v-.735H163.577Z" fill="#3e145e"/>
        <path id="Trazado_1365" data-name="Trazado 1365" d="M185.243,217.773H163.2a.376.376,0,1,1,0-.752h22.042a.376.376,0,1,1,0,.752" fill="#3e145e"/>
        <path id="Trazado_1366" data-name="Trazado 1366" d="M176.587,205.518H163.9a.376.376,0,0,1-.376-.376V203.3a.376.376,0,0,1,.376-.376h12.684a.376.376,0,0,1,.376.376v1.844a.376.376,0,0,1-.376.376m-12.308-.752h11.933v-1.092H164.279Z" fill="#3e145e"/>
        <path id="Trazado_1367" data-name="Trazado 1367" d="M176.587,209.168H163.9a.375.375,0,0,1-.376-.375v-1.844a.376.376,0,0,1,.376-.376h12.684a.376.376,0,0,1,.376.376v1.844a.375.375,0,0,1-.376.375m-12.308-.751h11.933v-1.092H164.279Z" fill="#3e145e"/>
        <path id="Trazado_1368" data-name="Trazado 1368" d="M176.587,212.819H163.9a.376.376,0,0,1-.376-.376V210.6a.376.376,0,0,1,.376-.376h12.684a.376.376,0,0,1,.376.376v1.843a.376.376,0,0,1-.376.376m-12.308-.752h11.933v-1.092H164.279Z" fill="#3e145e"/>
        <path id="Trazado_1369" data-name="Trazado 1369" d="M172.752,217.773h-5.014a.376.376,0,0,1-.376-.376v-3.2a.376.376,0,0,1,.376-.376h5.014a.376.376,0,0,1,.376.376v3.2a.376.376,0,0,1-.376.376m-4.639-.752h4.263v-2.45h-4.263Z" fill="#3e145e"/>
        <path id="Trazado_1370" data-name="Trazado 1370" d="M170.244,217.706a.376.376,0,0,1-.376-.376V214.2a.376.376,0,1,1,.752,0v3.135a.376.376,0,0,1-.376.376" fill="#3e145e"/>
        <path id="Trazado_1371" data-name="Trazado 1371" d="M178.283,205.518h-1.7a.376.376,0,1,1,0-.752h1.7a.376.376,0,0,1,0,.752" fill="#3e145e"/>
        <path id="Trazado_1372" data-name="Trazado 1372" d="M179.1,213.483a.376.376,0,0,1-.376-.376v-.885a.376.376,0,1,1,.752,0v.885a.376.376,0,0,1-.376.376" fill="#3e145e"/>
        <path id="Trazado_1373" data-name="Trazado 1373" d="M179.537,213.041h-.885a.376.376,0,0,1,0-.752h.885a.376.376,0,0,1,0,.752" fill="#3e145e"/>
        <path id="Trazado_1374" data-name="Trazado 1374" d="M182.205,216.172a.376.376,0,0,1-.376-.376v-.885a.377.377,0,0,1,.753,0v.885a.376.376,0,0,1-.377.376" fill="#3e145e"/>
        <path id="Trazado_1375" data-name="Trazado 1375" d="M182.649,215.73h-.886a.376.376,0,1,1,0-.752h.886a.376.376,0,0,1,0,.752" fill="#3e145e"/>
        <path id="Trazado_1376" data-name="Trazado 1376" d="M183.9,211.676a.376.376,0,0,1-.376-.376v-.885a.376.376,0,0,1,.752,0v.885a.376.376,0,0,1-.376.376" fill="#3e145e"/>
        <path id="Trazado_1377" data-name="Trazado 1377" d="M184.345,211.234h-.886a.376.376,0,1,1,0-.752h.886a.376.376,0,0,1,0,.752" fill="#3e145e"/>
        <path id="Trazado_1378" data-name="Trazado 1378" d="M65.381,218.886a3.192,3.192,0,0,1-3.188-3.188V201.566h-.411a1.014,1.014,0,0,1-1.014-1.013v-1.612a1.015,1.015,0,0,1,1.014-1.013h7.2a1.015,1.015,0,0,1,1.014,1.013v1.612a1.014,1.014,0,0,1-1.014,1.013h-.411V215.7a3.192,3.192,0,0,1-3.187,3.188m-3.6-20.206a.261.261,0,0,0-.262.261v1.612a.261.261,0,0,0,.262.261h.787a.376.376,0,0,1,.376.376V215.7a2.436,2.436,0,1,0,4.871,0V201.19a.376.376,0,0,1,.376-.376h.787a.262.262,0,0,0,.262-.261v-1.612a.262.262,0,0,0-.262-.261Z" fill="#3e145e"/>
        <path id="Trazado_1379" data-name="Trazado 1379" d="M66.518,201.566H62.57a.376.376,0,1,1,0-.752h3.948a.376.376,0,1,1,0,.752" fill="#3e145e"/>
        <path id="Trazado_1380" data-name="Trazado 1380" d="M76.378,218.886a3.192,3.192,0,0,1-3.189-3.188V201.566h-.41a1.015,1.015,0,0,1-1.015-1.013v-1.612a1.015,1.015,0,0,1,1.015-1.013h7.2a1.015,1.015,0,0,1,1.014,1.013v1.612a1.014,1.014,0,0,1-1.014,1.013h-.412V215.7a3.192,3.192,0,0,1-3.186,3.188m-3.6-20.206a.261.261,0,0,0-.262.261v1.612a.261.261,0,0,0,.262.261h.786a.376.376,0,0,1,.376.376V215.7a2.436,2.436,0,1,0,4.872,0V201.19a.375.375,0,0,1,.375-.376h.788a.263.263,0,0,0,.262-.261v-1.612a.263.263,0,0,0-.262-.261Z" fill="#3e145e"/>
        <path id="Trazado_1381" data-name="Trazado 1381" d="M77.514,201.566H73.566a.376.376,0,1,1,0-.752h3.948a.376.376,0,1,1,0,.752" fill="#3e145e"/>
        <path id="Trazado_1382" data-name="Trazado 1382" d="M68.193,203.816H66.781a.376.376,0,1,1,0-.752h1.412a.376.376,0,1,1,0,.752" fill="#3e145e"/>
        <path id="Trazado_1383" data-name="Trazado 1383" d="M68.193,205.94H66.031a.376.376,0,1,1,0-.752h2.162a.376.376,0,1,1,0,.752" fill="#3e145e"/>
        <path id="Trazado_1384" data-name="Trazado 1384" d="M68.193,208.065H66.781a.376.376,0,1,1,0-.752h1.412a.376.376,0,1,1,0,.752" fill="#3e145e"/>
        <path id="Trazado_1385" data-name="Trazado 1385" d="M68.193,210.189H66.031a.376.376,0,1,1,0-.752h2.162a.376.376,0,1,1,0,.752" fill="#3e145e"/>
        <path id="Trazado_1386" data-name="Trazado 1386" d="M68.193,212.313H66.781a.376.376,0,1,1,0-.752h1.412a.376.376,0,1,1,0,.752" fill="#3e145e"/>
        <path id="Trazado_1387" data-name="Trazado 1387" d="M68.193,214.437H66.031a.376.376,0,1,1,0-.752h2.162a.376.376,0,1,1,0,.752" fill="#3e145e"/>
        <path id="Trazado_1388" data-name="Trazado 1388" d="M78.478,208.38a2.6,2.6,0,0,1-1.872-.906,3.214,3.214,0,0,0-2.936-.6.376.376,0,0,1-.21-.723,3.936,3.936,0,0,1,3.688.8c1,1.043,1.807.571,1.84.551a.376.376,0,0,1,.406.632,1.717,1.717,0,0,1-.916.244" fill="#3e145e"/>
        <path id="Trazado_1389" data-name="Trazado 1389" d="M62.57,208.064H61.145a.375.375,0,0,1-.376-.375v-2.975a.376.376,0,0,1,.376-.376H62.57a.376.376,0,0,1,.376.376v2.975a.375.375,0,0,1-.376.375m-1.049-.751h.673v-2.222h-.673Z" fill="#3e145e"/>
        <path id="Trazado_1390" data-name="Trazado 1390" d="M73.566,208.064H68.193a.375.375,0,0,1-.376-.375v-2.975a.376.376,0,0,1,.376-.376h5.373a.376.376,0,0,1,.376.376v2.975a.375.375,0,0,1-.376.375m-5-.751H73.19v-2.222H68.569Z" fill="#3e145e"/>
        <path id="Trazado_1391" data-name="Trazado 1391" d="M80.613,208.064H79.189a.375.375,0,0,1-.376-.375v-2.975a.376.376,0,0,1,.376-.376h1.424a.376.376,0,0,1,.376.376v2.975a.375.375,0,0,1-.376.375m-1.048-.751h.673v-2.222h-.673Z" fill="#3e145e"/>
        <path id="Trazado_1392" data-name="Trazado 1392" d="M283.337,217.629a1.722,1.722,0,0,1-1.22-.5L267.25,202.257a1.721,1.721,0,0,1,0-2.438l3.119-3.119a1.723,1.723,0,0,1,2.439,0l14.868,14.867a1.727,1.727,0,0,1,0,2.439l-3.12,3.119a1.719,1.719,0,0,1-1.219.5m-11.749-20.736a1.023,1.023,0,0,0-.726.3l-3.119,3.12a1.025,1.025,0,0,0,0,1.451l14.868,14.868a1.029,1.029,0,0,0,1.452,0l3.119-3.12a1.029,1.029,0,0,0,0-1.451l-14.868-14.868a1.02,1.02,0,0,0-.726-.3" fill="#3e145e"/>
        <path id="Trazado_1393" data-name="Trazado 1393" d="M277.825,210.115a.908.908,0,0,1-.643-.265l-2.657-2.657a.909.909,0,0,1,0-1.285l1.934-1.933a.931.931,0,0,1,1.285,0l2.657,2.657a.911.911,0,0,1,0,1.284l-1.935,1.934a.9.9,0,0,1-.641.265m-.724-5.708a.2.2,0,0,0-.147.062l-1.935,1.934a.208.208,0,0,0,0,.3l2.657,2.657a.209.209,0,0,0,.3,0l1.935-1.934a.209.209,0,0,0,0-.3l-2.658-2.657a.2.2,0,0,0-.148-.062" fill="#3e145e"/>
        <path id="Trazado_1394" data-name="Trazado 1394" d="M269.541,200.7a.594.594,0,1,1-.84,0,.6.6,0,0,1,.84,0" fill="#3e145e"/>
        <path id="Trazado_1395" data-name="Trazado 1395" d="M270.813,199.423a.593.593,0,1,1-.839,0,.593.593,0,0,1,.839,0" fill="#3e145e"/>
        <path id="Trazado_1396" data-name="Trazado 1396" d="M272.084,198.152a.593.593,0,1,1-.839,0,.593.593,0,0,1,.839,0" fill="#3e145e"/>
        <path id="Trazado_1397" data-name="Trazado 1397" d="M270.85,202a.594.594,0,1,1-.84,0,.594.594,0,0,1,.84,0" fill="#3e145e"/>
        <path id="Trazado_1398" data-name="Trazado 1398" d="M272.121,200.732a.593.593,0,1,1-.839,0,.593.593,0,0,1,.839,0" fill="#3e145e"/>
        <path id="Trazado_1399" data-name="Trazado 1399" d="M273.393,199.461a.593.593,0,1,1-.839,0,.593.593,0,0,1,.839,0" fill="#3e145e"/>
        <path id="Trazado_1400" data-name="Trazado 1400" d="M272.158,203.313a.593.593,0,1,1-.839,0,.593.593,0,0,1,.839,0" fill="#3e145e"/>
        <path id="Trazado_1401" data-name="Trazado 1401" d="M273.43,202.041a.594.594,0,1,1-.839,0,.594.594,0,0,1,.839,0" fill="#3e145e"/>
        <path id="Trazado_1402" data-name="Trazado 1402" d="M274.7,200.769a.594.594,0,1,1-.84,0,.594.594,0,0,1,.84,0" fill="#3e145e"/>
        <path id="Trazado_1403" data-name="Trazado 1403" d="M273.467,204.621a.593.593,0,1,1-.839,0,.593.593,0,0,1,.839,0" fill="#3e145e"/>
        <path id="Trazado_1404" data-name="Trazado 1404" d="M274.738,203.349a.594.594,0,1,1-.839,0,.594.594,0,0,1,.839,0" fill="#3e145e"/>
        <path id="Trazado_1405" data-name="Trazado 1405" d="M276.011,202.078a.594.594,0,1,1-.84,0,.594.594,0,0,1,.84,0" fill="#3e145e"/>
        <path id="Trazado_1406" data-name="Trazado 1406" d="M285.384,213.13a.594.594,0,1,1,.84,0,.6.6,0,0,1-.84,0" fill="#3e145e"/>
        <path id="Trazado_1407" data-name="Trazado 1407" d="M284.112,214.4a.594.594,0,1,1,.839,0,.594.594,0,0,1-.839,0" fill="#3e145e"/>
        <path id="Trazado_1408" data-name="Trazado 1408" d="M282.841,215.673a.593.593,0,1,1,.839,0,.593.593,0,0,1-.839,0" fill="#3e145e"/>
        <path id="Trazado_1409" data-name="Trazado 1409" d="M284.075,211.821a.594.594,0,1,1,.84,0,.593.593,0,0,1-.84,0" fill="#3e145e"/>
        <path id="Trazado_1410" data-name="Trazado 1410" d="M282.8,213.093a.594.594,0,1,1,.839,0,.594.594,0,0,1-.839,0" fill="#3e145e"/>
        <path id="Trazado_1411" data-name="Trazado 1411" d="M281.532,214.365a.593.593,0,1,1,.839,0,.593.593,0,0,1-.839,0" fill="#3e145e"/>
        <path id="Trazado_1412" data-name="Trazado 1412" d="M282.767,210.513a.593.593,0,1,1,.839,0,.593.593,0,0,1-.839,0" fill="#3e145e"/>
        <path id="Trazado_1413" data-name="Trazado 1413" d="M281.495,211.784a.593.593,0,1,1,.839,0,.593.593,0,0,1-.839,0" fill="#3e145e"/>
        <path id="Trazado_1414" data-name="Trazado 1414" d="M280.223,213.056a.594.594,0,1,1,.84,0,.6.6,0,0,1-.84,0" fill="#3e145e"/>
        <path id="Trazado_1415" data-name="Trazado 1415" d="M281.458,209.2a.593.593,0,1,1,.839,0,.593.593,0,0,1-.839,0" fill="#3e145e"/>
        <path id="Trazado_1416" data-name="Trazado 1416" d="M280.187,210.476a.593.593,0,1,1,.839,0,.593.593,0,0,1-.839,0" fill="#3e145e"/>
        <path id="Trazado_1417" data-name="Trazado 1417" d="M278.914,211.748a.594.594,0,1,1,.84,0,.6.6,0,0,1-.84,0" fill="#3e145e"/>
        <path id="Trazado_1418" data-name="Trazado 1418" d="M283.26,206.528a.349.349,0,0,1-.246-.6l4.168-4.168a1.029,1.029,0,0,0,0-1.451l-3.12-3.119a1.049,1.049,0,0,0-1.45,0l-3.962,3.962a.349.349,0,0,1-.494-.494l3.961-3.962a1.725,1.725,0,0,1,2.439,0l3.12,3.119a1.726,1.726,0,0,1,0,2.438l-4.169,4.169a.347.347,0,0,1-.247.1" fill="#3e145e"/>
        <path id="Trazado_1419" data-name="Trazado 1419" d="M271.588,217.63a1.719,1.719,0,0,1-1.219-.5l-3.119-3.12a1.721,1.721,0,0,1,0-2.438l4.1-4.1a.349.349,0,1,1,.494.494l-4.1,4.1a1.024,1.024,0,0,0,0,1.45l3.119,3.12a1.029,1.029,0,0,0,1.452,0l4.027-4.027a.349.349,0,0,1,.493.494l-4.026,4.027a1.723,1.723,0,0,1-1.22.5" fill="#3e145e"/>
        <path id="Trazado_1420" data-name="Trazado 1420" d="M283.68,198.991a.593.593,0,1,1,0-.839.593.593,0,0,1,0,.839" fill="#3e145e"/>
        <path id="Trazado_1421" data-name="Trazado 1421" d="M284.951,200.263a.593.593,0,1,1,0-.839.593.593,0,0,1,0,.839" fill="#3e145e"/>
        <path id="Trazado_1422" data-name="Trazado 1422" d="M286.224,201.535a.594.594,0,1,1,0-.84.6.6,0,0,1,0,.84" fill="#3e145e"/>
        <path id="Trazado_1423" data-name="Trazado 1423" d="M282.371,200.3a.593.593,0,1,1,0-.839.593.593,0,0,1,0,.839" fill="#3e145e"/>
        <path id="Trazado_1424" data-name="Trazado 1424" d="M283.643,201.571a.593.593,0,1,1,0-.839.593.593,0,0,1,0,.839" fill="#3e145e"/>
        <path id="Trazado_1425" data-name="Trazado 1425" d="M284.915,202.843a.594.594,0,1,1,0-.84.594.594,0,0,1,0,.84" fill="#3e145e"/>
        <path id="Trazado_1426" data-name="Trazado 1426" d="M281.063,201.608a.594.594,0,1,1,0-.839.594.594,0,0,1,0,.839" fill="#3e145e"/>
        <path id="Trazado_1427" data-name="Trazado 1427" d="M282.334,202.88a.594.594,0,1,1,0-.84.595.595,0,0,1,0,.84" fill="#3e145e"/>
        <path id="Trazado_1428" data-name="Trazado 1428" d="M283.606,204.152a.593.593,0,1,1,0-.839.593.593,0,0,1,0,.839" fill="#3e145e"/>
        <path id="Trazado_1429" data-name="Trazado 1429" d="M278.914,202.078a.594.594,0,0,1,.84.839Z" fill="#3e145e"/>
        <path id="Trazado_1430" data-name="Trazado 1430" d="M280.187,203.349a.594.594,0,0,1,.839.84Z" fill="#3e145e"/>
        <path id="Trazado_1431" data-name="Trazado 1431" d="M281.458,204.621a.593.593,0,0,1,.839.839Z" fill="#3e145e"/>
        <path id="Trazado_1432" data-name="Trazado 1432" d="M271.245,214.834a.593.593,0,1,1,0,.839.593.593,0,0,1,0-.839" fill="#3e145e"/>
        <path id="Trazado_1433" data-name="Trazado 1433" d="M269.974,213.562a.594.594,0,1,1,0,.84.594.594,0,0,1,0-.84" fill="#3e145e"/>
        <path id="Trazado_1434" data-name="Trazado 1434" d="M268.7,212.291a.594.594,0,1,1,0,.84.594.594,0,0,1,0-.84" fill="#3e145e"/>
        <path id="Trazado_1435" data-name="Trazado 1435" d="M272.554,213.525a.593.593,0,1,1,0,.839.593.593,0,0,1,0-.839" fill="#3e145e"/>
        <path id="Trazado_1436" data-name="Trazado 1436" d="M271.282,212.253a.594.594,0,1,1,0,.84.593.593,0,0,1,0-.84" fill="#3e145e"/>
        <path id="Trazado_1437" data-name="Trazado 1437" d="M270.01,210.982a.594.594,0,1,1,0,.839.594.594,0,0,1,0-.839" fill="#3e145e"/>
        <path id="Trazado_1438" data-name="Trazado 1438" d="M273.862,212.216a.594.594,0,1,1,0,.84.6.6,0,0,1,0-.84" fill="#3e145e"/>
        <path id="Trazado_1439" data-name="Trazado 1439" d="M272.591,210.945a.593.593,0,1,1,0,.839.593.593,0,0,1,0-.839" fill="#3e145e"/>
        <path id="Trazado_1440" data-name="Trazado 1440" d="M271.319,209.673a.593.593,0,1,1,0,.839.593.593,0,0,1,0-.839" fill="#3e145e"/>
        <path id="Trazado_1441" data-name="Trazado 1441" d="M276.011,211.748a.594.594,0,0,1-.84-.84Z" fill="#3e145e"/>
        <path id="Trazado_1442" data-name="Trazado 1442" d="M274.738,210.476a.593.593,0,0,1-.839-.839Z" fill="#3e145e"/>
        <path id="Trazado_1443" data-name="Trazado 1443" d="M273.467,209.2a.593.593,0,0,1-.839-.839Z" fill="#3e145e"/>
        <path id="Trazado_1444" data-name="Trazado 1444" d="M229.079,219.635a5.443,5.443,0,0,1-3.876-1.606l-8.123-8.123a5.487,5.487,0,0,1,0-7.751,1.682,1.682,0,0,1,2.375,0l1.539,1.54a1.611,1.611,0,0,1,0,2.277,1.624,1.624,0,0,0,0,2.293l5.851,5.851a1.621,1.621,0,0,0,2.293,0,1.611,1.611,0,0,1,2.277,0l1.54,1.539a1.682,1.682,0,0,1,0,2.375,5.446,5.446,0,0,1-3.876,1.606m-10.811-17.273a.974.974,0,0,0-.694.287,4.786,4.786,0,0,0,0,6.764l8.122,8.122a4.783,4.783,0,0,0,6.764,0,.981.981,0,0,0,0-1.387l-1.539-1.539a.933.933,0,0,0-1.29,0,2.319,2.319,0,0,1-3.279,0l-5.852-5.851a2.324,2.324,0,0,1,0-3.281.911.911,0,0,0,0-1.289l-1.539-1.539a.973.973,0,0,0-.693-.287" fill="#3e145e"/>
        <path id="Trazado_1445" data-name="Trazado 1445" d="M231.469,208.193h-2.417a.349.349,0,0,1-.349-.349v-1.977h-1.978a.348.348,0,0,1-.348-.349V203.1a.348.348,0,0,1,.348-.349H228.7v-1.977a.349.349,0,0,1,.349-.349h2.417a.349.349,0,0,1,.35.349v1.977H233.8a.348.348,0,0,1,.348.349v2.418a.348.348,0,0,1-.348.349h-1.978v1.977a.349.349,0,0,1-.35.349m-2.068-.7h1.72v-1.977a.349.349,0,0,1,.348-.35h1.978V203.45h-1.978a.349.349,0,0,1-.348-.35v-1.977H229.4V203.1a.35.35,0,0,1-.349.35h-1.977v1.718h1.977a.35.35,0,0,1,.349.35Z" fill="#3e145e"/>
        <path id="Trazado_1446" data-name="Trazado 1446" d="M226.724,211.713a.349.349,0,0,1-.336-.442l.19-.685a2.112,2.112,0,0,0-.511-2.067,5.943,5.943,0,1,1,4.193,1.737,2.176,2.176,0,0,0-1,.22l-2.381,1.2a.352.352,0,0,1-.158.037m2.935-12.62a5.244,5.244,0,0,0-3.1,8.931,2.8,2.8,0,0,1,.711,2.674l1.678-.846a2.865,2.865,0,0,1,1.3-.294,5.25,5.25,0,1,0-.591-10.465" fill="#3e145e"/>
        <path id="Trazado_1447" data-name="Trazado 1447" d="M226.867,217.193a.344.344,0,0,1-.247-.1l-8.707-8.706a.349.349,0,1,1,.494-.493l8.707,8.706a.349.349,0,0,1-.247.6" fill="#3e145e"/>
        <path id="Trazado_1448" data-name="Trazado 1448" d="M234.269,219.635h-14.4a.349.349,0,0,1,0-.7h14.4a.349.349,0,0,1,0,.7" fill="#3e145e"/>
        <path id="Trazado_1449" data-name="Trazado 1449" d="M330.976,262.2h-7.434a.653.653,0,0,1,0-1.307h7.434a.653.653,0,0,1,0,1.307" fill="#3e145e"/>
        <path id="Trazado_1450" data-name="Trazado 1450" d="M332.544,267.316H320.329a.654.654,0,1,1,0-1.307h12.215a.654.654,0,0,1,0,1.307" fill="#3e145e"/>
        <path id="Trazado_1451" data-name="Trazado 1451" d="M340.731,272.427h-20.4a.654.654,0,1,1,0-1.307h20.4a.654.654,0,0,1,0,1.307" fill="#3e145e"/>
        <path id="Trazado_1452" data-name="Trazado 1452" d="M338.891,277.538H322.169a.654.654,0,1,1,0-1.307h16.722a.654.654,0,0,1,0,1.307" fill="#3e145e"/>
        <path id="Trazado_1453" data-name="Trazado 1453" d="M330.519,287.769a17.818,17.818,0,0,1-6.248-1.123,5.146,5.146,0,0,0-2.762-.263c-4.371.839-8.14,1.374-8.178,1.379a.653.653,0,0,1-.667-.956c.514-.959,1.154-2.03,1.9-3.181a4.974,4.974,0,0,0,.252-5.128,17.946,17.946,0,0,1,14.238-26.558,18.2,18.2,0,0,1,5.4.374.653.653,0,1,1-.285,1.275,16.647,16.647,0,0,0-20.235,14.971,16.632,16.632,0,0,0,2.022,9.305,6.281,6.281,0,0,1-.3,6.474q-.662,1.016-1.2,1.933c1.469-.226,4.01-.636,6.8-1.171a6.469,6.469,0,0,1,3.464.321,16.645,16.645,0,0,0,22.386-14.247c.044-.548.06-1.1.051-1.644a.654.654,0,0,1,.642-.665.665.665,0,0,1,.665.641c.01.587-.009,1.182-.055,1.771a18.006,18.006,0,0,1-16.607,16.447q-.648.045-1.29.045" fill="#3e145e"/>
        <path id="Trazado_1454" data-name="Trazado 1454" d="M341.878,269.025a8.406,8.406,0,1,1,8.406-8.406,8.415,8.415,0,0,1-8.406,8.406m0-15.5a7.1,7.1,0,1,0,7.1,7.1,7.108,7.108,0,0,0-7.1-7.1" fill="#3e145e"/>
        <path id="Trazado_1455" data-name="Trazado 1455" d="M330.53,284.758a14.933,14.933,0,1,1,0-29.867c.474,0,.952.022,1.422.067a.653.653,0,1,1-.123,1.3c-.429-.041-.865-.061-1.3-.061A13.626,13.626,0,1,0,344.1,271.085a.653.653,0,1,1,1.3.119,14.855,14.855,0,0,1-14.87,13.554" fill="#3e145e"/>
        <path id="Trazado_1456" data-name="Trazado 1456" d="M343.662,265.424h-3.569a.653.653,0,0,1-.654-.654v-1.712h-1.714a.654.654,0,0,1-.653-.654v-3.57a.654.654,0,0,1,.653-.654h1.714v-1.712a.653.653,0,0,1,.654-.654h3.569a.654.654,0,0,1,.654.654v1.712h1.713a.654.654,0,0,1,.654.654v3.57a.654.654,0,0,1-.654.654h-1.713v1.712a.654.654,0,0,1-.654.654m-2.916-1.307h2.263V262.4a.653.653,0,0,1,.653-.653h1.714v-2.264h-1.714a.653.653,0,0,1-.653-.653v-1.713h-2.263v1.713a.653.653,0,0,1-.653.653H338.38v2.264h1.713a.653.653,0,0,1,.653.653Z" fill="#3e145e"/>
        <path id="Trazado_1457" data-name="Trazado 1457" d="M337.7,215.787h-5.338a.349.349,0,0,1,0-.7h4.984a3.62,3.62,0,0,0-6.456-2.066,10.588,10.588,0,0,0-.943,1.488.349.349,0,0,1-.628-.306,10.956,10.956,0,0,1,1.021-1.612,4.319,4.319,0,0,1,7.71,2.674v.171a.35.35,0,0,1-.35.349" fill="#3e145e"/>
        <path id="Trazado_1458" data-name="Trazado 1458" d="M331.218,217.824h-7.137a.349.349,0,0,1-.349-.349v-.153a3.918,3.918,0,0,1,7.836,0v.153a.349.349,0,0,1-.35.349m-6.782-.7h6.428a3.22,3.22,0,0,0-6.428,0" fill="#3e145e"/>
        <path id="Trazado_1459" data-name="Trazado 1459" d="M327.65,212.879a2.042,2.042,0,1,1,2.042-2.042,2.044,2.044,0,0,1-2.042,2.042m0-3.386a1.344,1.344,0,1,0,1.344,1.344,1.346,1.346,0,0,0-1.344-1.344" fill="#3e145e"/>
        <path id="Trazado_1460" data-name="Trazado 1460" d="M333.735,210.287a2.232,2.232,0,1,1,2.232-2.232,2.234,2.234,0,0,1-2.232,2.232m0-3.767a1.534,1.534,0,1,0,1.534,1.535,1.535,1.535,0,0,0-1.534-1.535" fill="#3e145e"/>
        <path id="Trazado_1461" data-name="Trazado 1461" d="M322.933,215.787H317.6a.349.349,0,0,1-.349-.349v-.171a4.32,4.32,0,0,1,7.708-2.678,11.224,11.224,0,0,1,1.022,1.616.349.349,0,1,1-.627.306,10.571,10.571,0,0,0-.946-1.492,3.621,3.621,0,0,0-6.454,2.07h4.984a.349.349,0,1,1,0,.7" fill="#3e145e"/>
        <path id="Trazado_1462" data-name="Trazado 1462" d="M321.565,210.287a2.232,2.232,0,1,1,2.232-2.232,2.234,2.234,0,0,1-2.232,2.232m0-3.767a1.534,1.534,0,1,0,1.534,1.535,1.536,1.536,0,0,0-1.534-1.535" fill="#3e145e"/>
        <path id="Trazado_1463" data-name="Trazado 1463" d="M327.65,207.052a5.419,5.419,0,1,1,5.419-5.419,5.426,5.426,0,0,1-5.419,5.419m0-10.14a4.72,4.72,0,1,0,4.721,4.721,4.726,4.726,0,0,0-4.721-4.721" fill="#3e145e"/>
        <path id="Trazado_1464" data-name="Trazado 1464" d="M327.65,205.753a4.12,4.12,0,1,1,4.119-4.12,4.126,4.126,0,0,1-4.119,4.12m0-7.541a3.421,3.421,0,1,0,3.421,3.421,3.425,3.425,0,0,0-3.421-3.421" fill="#3e145e"/>
        <path id="Trazado_1465" data-name="Trazado 1465" d="M328.464,204.135h-1.63a.348.348,0,0,1-.348-.349V202.8H325.5a.349.349,0,0,1-.35-.349v-1.63a.349.349,0,0,1,.35-.349h.989v-.99a.349.349,0,0,1,.348-.349h1.63a.35.35,0,0,1,.35.349v.99h.989a.349.349,0,0,1,.349.349v1.63a.349.349,0,0,1-.349.349h-.989v.989a.349.349,0,0,1-.35.349m-1.28-.7h.931v-.989a.35.35,0,0,1,.349-.35h.99v-.931h-.99a.349.349,0,0,1-.349-.349v-.989h-.931v.989a.349.349,0,0,1-.35.349h-.989v.931h.989a.35.35,0,0,1,.35.35Z" fill="#3e145e"/>
      </g>
    </g>
  </g>
</svg>
