<svg id="Grupo_9" data-name="Grupo 9" xmlns="http://www.w3.org/2000/svg" xmlns:xlink="http://www.w3.org/1999/xlink" width="704.552" height="432.556" viewBox="0 0 704.552 432.556">
  <defs>
    <clipPath id="clip-path">
      <rect id="Rect치ngulo_5" data-name="Rect치ngulo 5" width="704.552" height="432.556" fill="none"/>
    </clipPath>
  </defs>
  <g id="Grupo_8" data-name="Grupo 8" clip-path="url(#clip-path)">
    <path id="Trazado_32" data-name="Trazado 32" d="M449.452,57.25s-18.349,84.871,30.2,117.167S584.765,116.96,547.688,65.136s-84.094-35.3-98.236-7.886" fill="#f9bfb3" fill-rule="evenodd"/>
    <path id="Trazado_33" data-name="Trazado 33" d="M449.452,57.25a192.3,192.3,0,0,0-3.157,45.475,25.3,25.3,0,0,0,5.255.716c52.746,1.5,32.977,37.328,18.9,63.485a62.323,62.323,0,0,0,9.2,7.491c48.543,32.3,105.116-57.457,68.039-109.281s-84.094-35.3-98.236-7.886" fill="#e8a597" fill-rule="evenodd"/>
    <path id="Trazado_34" data-name="Trazado 34" d="M223.023,370.6s-11.4,27.431-2.862,39.339c4.344,6.061,16.913,11.409,28.211,15.2H147.932c-8.015-3.359-15.037-6.843-16.521-9.238-3.812-6.143-2.638-13.71,1.793-26.743s6.138-18.6,6.138-18.6Z" fill="#dbdbdb" fill-rule="evenodd"/>
    <path id="Trazado_35" data-name="Trazado 35" d="M143.98,368.814c-.027.071-9.959,24.692-10.645,31.806-.106,1.108-.228,1.937-.348,2.772-.816,5.6-1.687,11.577,14.84,17.858l10.235,3.89H140.088c-15.94-7.5-14.805-15.3-13.734-22.668.135-.926.269-1.844.328-2.464.778-8.078,11.052-33.535,11.081-33.609Z" fill="#fff"/>
    <path id="Trazado_36" data-name="Trazado 36" d="M38.478,94.409s.23-10.036,11.739-9.29S355.3,109.634,355.3,109.634s15.608-.736,17.185,15.525,9.666,236.9,9.666,236.9.569,11.392-19.465,11.842-300.754.39-300.754.39-15.9,1.809-17.023-17.917C40.043,270.78,38.65,180.58,38.478,94.409" fill="#ccc" fill-rule="evenodd"/>
    <path id="Trazado_37" data-name="Trazado 37" d="M46,94.9s.23-10.036,11.738-9.29,305.085,24.515,305.085,24.515,15.609-.736,17.185,15.525,9.666,236.9,9.666,236.9.569,11.391-19.465,11.841-300.754.39-300.754.39-15.9,1.809-17.023-17.917C47.567,271.268,46.175,181.068,46,94.9" fill="#fff" fill-rule="evenodd"/>
    <path id="Trazado_38" data-name="Trazado 38" d="M62.257,97.852l306.92,23.7,7.244,196.742L66.535,314.865Z" fill="#3b347a" fill-rule="evenodd"/>
    <rect id="Rect치ngulo_4" data-name="Rect치ngulo 4" width="704.552" height="18.723" transform="translate(0 413.834)" fill="#e6e6e6"/>
    <path id="Trazado_39" data-name="Trazado 39" d="M206.213,413.834H511.222v18.722h-114.7a9.487,9.487,0,0,0-.873-1.6c-5.785-8.375-121.737,2.691-154.979,0-22.321-1.807-31.1-11.17-34.454-17.125" fill="#d9d9d9" fill-rule="evenodd"/>
    <path id="Trazado_40" data-name="Trazado 40" d="M490.62,194.839s-44.225-1.978-65.057,45.221-11.693,111.849-24.69,117.593-105.844,2.826-117.692,6.108-11.853,24.215-12.617,32.424a134.776,134.776,0,0,0,0,18.612l160.368-.964c.02,6.862-.116,13.082-.38,18.723H651.505c-.156-14.965-.945-31.133-2.5-48.7,1.577-60.792,7.2-103.07-10.708-145.228s-82.576-43.917-147.677-43.786" fill="#fec961" fill-rule="evenodd"/>
    <path id="Trazado_41" data-name="Trazado 41" d="M651.495,432.556q-.216-20.752-2.188-44.793a440.478,440.478,0,0,1-29.7,44.793Z" fill="#ebb64d" fill-rule="evenodd"/>
    <path id="Trazado_42" data-name="Trazado 42" d="M490.62,194.839a68.987,68.987,0,0,0-35.706,10.412c2.513,18.764,17.674,57.219,98.361,67.328,37.853,4.742,67.719-4.523,90.554-18.544a143.979,143.979,0,0,0-5.532-15.411c-17.907-42.158-82.576-43.917-147.677-43.785" fill="#ebb64d" fill-rule="evenodd"/>
    <path id="Trazado_43" data-name="Trazado 43" d="M430.932,413.833c.021,6.87-.12,13.077-.386,18.723H470.9a20.671,20.671,0,0,1,3.91-3.563c21.8-15.057,18.478-127.305,13.509-152.09s-21.174-27.6-21.174-27.6,11.086,7.887,7.645,35.3-5.16,125.664-27.9,129.231Z" fill="#ebb64d" fill-rule="evenodd"/>
    <path id="Trazado_44" data-name="Trazado 44" d="M273.909,375c-9.354-.449-24.387.6-38.47,9.323-22.639,14.022-26.084,26.836-21.41,28.771,3.937,1.628,43.964,1.713,56.535,1.7a119.448,119.448,0,0,1,0-17.647c.462-4.967.646-14.592,3.345-22.147" fill="#f9bfb3" fill-rule="evenodd"/>
    <path id="Trazado_45" data-name="Trazado 45" d="M273.909,374.038a75.068,75.068,0,0,0-9.652.157c-3.862,8.579-9.469,25.247-7.994,40.567,5.922.036,11.006.039,14.3.035-.007-.07-.612-12.039,0-18.612s.646-14.593,3.345-22.147" fill="#e8a597" fill-rule="evenodd"/>
    <path id="Trazado_46" data-name="Trazado 46" d="M407.071,356.7c.055,0,19.286,1.005,32.6,21.937l-1.958,1.2c-12.68-19.933-30.734-20.871-30.786-20.873Zm-2.228,2.743c.063.043,21.919,15.211,19.363,38.784l-2.294-.24c2.412-22.244-18.355-36.657-18.414-36.7Z" fill="#ebb64d" fill-rule="evenodd"/>
    <path id="Trazado_47" data-name="Trazado 47" d="M636.868,352.935c-.081.167-18.407,39.344-68.208,79.621h-6.54c51.991-40.7,70.929-81.185,71.01-81.354Zm-141.4,79.621c22.372-8.89,101.609-43.22,124.846-91.9l3.736,1.717c-21.306,44.64-87.749,77.27-117.908,90.18Z" fill="#ebb64d"/>
    <path id="Trazado_48" data-name="Trazado 48" d="M117.945,106.525c20.408,2.208,40.869,4.326,61.282,6.1s40.906,3.3,61.372,4.8q.638,48.464,1.573,96.858.884,48.395,1.542,96.835-31.247-.377-62.492-.889-31.153-.51-62.4-1.252-.181-50.615-.455-101.183-.249-50.58-.423-101.275" fill="#5848c2" fill-rule="evenodd"/>
    <path id="Trazado_49" data-name="Trazado 49" d="M244.137,117.659c20.437,1.411,40.935,2.756,61.345,3.961q30.7,1.812,61.432,3.507.633,23.155,1.33,46.357.726,23.156,1.511,46.334c-20.679-.752-41.419-1.48-62.067-2.232s-41.328-1.593-61.978-2.436q-.455-23.838-.877-47.723-.406-23.873-.7-47.768" fill="#e5e7e9" fill-rule="evenodd"/>
    <path id="Trazado_50" data-name="Trazado 50" d="M245.772,215.655q30.971,1.265,61.976,2.391,31.019,1.11,62.1,2.208c.485,15.46,1,30.92,1.421,46.357s.786,30.92,1.15,46.334q-31.336-.444-62.613-.911-31.2-.442-62.49-.865-.276-23.907-.7-47.768t-.845-47.746" fill="#352e70" fill-rule="evenodd"/>
    <path id="Trazado_51" data-name="Trazado 51" d="M89.856,123.548c7.1.911,12.937,8.219,13.057,16.439.089,8.219-5.589,14.3-12.7,13.479-7.113-.774-12.909-8.22-13-16.53s5.545-14.3,12.645-13.388" fill="#347df0" fill-rule="evenodd"/>
    <path id="Trazado_52" data-name="Trazado 52" d="M90.376,165.943c7.128.74,12.967,7.992,13.086,16.188.118,8.22-5.59,14.368-12.732,13.707-7.14-.615-12.964-7.923-13.055-16.234s5.574-14.4,12.7-13.661" fill="#347df0" fill-rule="evenodd"/>
    <path id="Trazado_53" data-name="Trazado 53" d="M90.868,208.521c7.156.581,13.054,7.673,13.172,15.893.091,8.219-5.615,14.481-12.786,13.98-7.171-.478-13.024-7.651-13.115-15.961s5.573-14.492,12.729-13.912" fill="#347df0" fill-rule="evenodd"/>
    <path id="Trazado_54" data-name="Trazado 54" d="M84.979,172.91c4.36.478,8.779.934,13.2,1.344.006.478.011.956.015,1.411-4.419-.455-8.807-.91-13.2-1.343,0-.478-.009-.934-.016-1.412m-.669,13.434c-.454-.046-.939-.091-1.394-.137.007.478.011.911.016,1.367.454.045.939.113,1.393.159,0-.456-.011-.911-.015-1.389m-.036-3.37c-.456-.045-.94-.114-1.394-.159.005.478.011.933.016,1.388.453.046.938.092,1.392.16-.005-.455-.009-.911-.014-1.389m-.038-3.393a13.083,13.083,0,0,1-1.393-.159c.007.479.012.934.015,1.389.456.046.938.114,1.393.159,0-.455-.01-.91-.015-1.389m-.035-3.346c-.485-.069-.941-.137-1.394-.182,0,.478.01.956.016,1.411.453.046.908.114,1.391.16,0-.456-.009-.911-.013-1.389m-.038-3.416c-.485-.022-.939-.091-1.393-.137.006.479.011.934.016,1.39.454.045.908.136,1.392.159-.005-.478-.011-.933-.015-1.412m.962,13.616c4.39.41,8.809.842,13.228,1.252.005.478.01.934.014,1.389-4.419-.433-8.836-.842-13.226-1.252,0-.456-.008-.911-.016-1.389m-.034-3.393c4.387.433,8.805.843,13.224,1.276.006.478.012.91.016,1.366-4.418-.41-8.838-.82-13.227-1.253,0-.455-.009-.911-.013-1.389m-.038-3.369c4.389.41,8.808.842,13.195,1.3.006.479.012.934.045,1.367-4.419-.433-8.837-.866-13.224-1.275,0-.456-.01-.911-.016-1.389m-.036-3.37c4.388.41,8.775.865,13.2,1.321,0,.477.008.91.014,1.366-4.419-.41-8.808-.866-13.195-1.3-.006-.455-.012-.911-.016-1.389" fill="#fff" fill-rule="evenodd"/>
    <path id="Trazado_55" data-name="Trazado 55" d="M82.781,218.334c1.938.159,3.875.319,5.841.456-.005-.433-.011-.865-.015-1.276-1.967-.136-3.9-.318-5.84-.5,0-.455-.01-.91-.014-1.365,2.3.2,4.629.386,6.959.591,0,.228.005.433.008.638,0,.25,0,.478.007.729.005.432.008.865.014,1.3,1,.068,2.028.159,3.026.25.033,2.982.065,5.942.126,8.879-3.357-.25-6.687-.5-10.014-.751q-.046-4.473-.1-8.948m16.463-1.366c-1.926.8-3.824,1.5-5.69,2.231.034,2.983.064,5.943.1,8.9,1.915,1.024,3.832,2.049,5.778,3.051-.081-4.69-.133-9.449-.184-14.185" fill="#fff9ef" fill-rule="evenodd"/>
    <path id="Trazado_56" data-name="Trazado 56" d="M91.391,251.053c7.169.455,13.111,7.445,13.2,15.665.12,8.2-5.645,14.594-12.844,14.23-7.17-.342-13.05-7.377-13.141-15.687s5.617-14.663,12.786-14.208" fill="#cf6557" fill-rule="evenodd"/>
    <path id="Trazado_57" data-name="Trazado 57" d="M85.813,127.26c2.725.345,5.477.715,8.236,1.048a1.146,1.146,0,0,1,.889,1.138c.1,6.466.171,12.933.239,19.353a.848.848,0,0,1-.866.934c-2.782-.333-5.51-.625-8.262-.934a1.161,1.161,0,0,1-.89-1.184q-.1-9.7-.212-19.4c0-.568.353-1.021.866-.956m4.326,19.695a.834.834,0,0,1,.675.82.618.618,0,0,1-.659.66.8.8,0,0,1-.643-.82.591.591,0,0,1,.627-.66m-3.9-16.826c2.45.273,4.933.592,7.416.888.059,5.305.146,10.61.2,15.892-2.513-.273-4.964-.592-7.446-.865-.06-5.305-.116-10.587-.173-15.915" fill="#fff9ef" fill-rule="evenodd"/>
    <path id="Trazado_58" data-name="Trazado 58" d="M317.543,141.885s1.256-1.628,2.448.956-.165,4.861-1.541,5.146-1.42.421-1.361-.5.272-3.711.454-5.6" fill="#cf9976" fill-rule="evenodd"/>
    <path id="Trazado_59" data-name="Trazado 59" d="M297.349,141.543s-1.755-1.594-2.661.524,1.813,6.261,2.782,4.508-.121-5.032-.121-5.032" fill="#cf9976" fill-rule="evenodd"/>
    <path id="Trazado_60" data-name="Trazado 60" d="M302.759,156.092s.378,6.4-.846,8.083a3.88,3.88,0,0,1-2.6,1.775s9.78,15.222,9.976,14.937S317.574,167,317.574,167a37.583,37.583,0,0,1-3.3-1.844c-.757-2.231-.878-8.516-.878-8.516s-6.771,3.052-10.642-.546" fill="#dba683" fill-rule="evenodd"/>
    <path id="Trazado_61" data-name="Trazado 61" d="M302.759,156.092a32.472,32.472,0,0,1,.03,3.939,9.585,9.585,0,0,0,10.733-.3c-.121-1.708-.121-3.1-.121-3.1s-6.771,3.052-10.642-.546" fill="#cf9976" fill-rule="evenodd"/>
    <path id="Trazado_62" data-name="Trazado 62" d="M296.077,133.347S295.9,146.7,299.1,153.406s10.295,7.046,14.421,4.007,5.02-11.077,4.113-21.448-22.4-7.195-21.557-2.618" fill="#dba683" fill-rule="evenodd"/>
    <path id="Trazado_63" data-name="Trazado 63" d="M302.4,141.611c.5.034.952.786.969,1.708s-.379,1.65-.879,1.616-.967-.785-.967-1.707.377-1.651.877-1.617" fill="#1b2631" fill-rule="evenodd"/>
    <path id="Trazado_64" data-name="Trazado 64" d="M311.557,142.112c.53.034.953.8.968,1.708s-.394,1.65-.906,1.616-.954-.808-.969-1.73.379-1.628.907-1.594" fill="#1b2631" fill-rule="evenodd"/>
    <path id="Trazado_65" data-name="Trazado 65" d="M305.844,142.431a.3.3,0,0,1,.361-.25.377.377,0,0,1,.273.433s-.817,6.488-.7,6.785a9.9,9.9,0,0,0,2.3.592.356.356,0,0,1,.273.386.319.319,0,0,1-.3.3c-.029,0-2.539-.456-2.78-1-.242-.433.575-7.218.575-7.241" fill="#6e2c00"/>
    <path id="Trazado_66" data-name="Trazado 66" d="M303.516,152.9a.336.336,0,0,1-.242-.433.314.314,0,0,1,.393-.205c.029,0,3.87,1.549,7.044,0a.33.33,0,0,1,.453.182.373.373,0,0,1-.121.433c-3.445,1.662-7.527.023-7.527.023" fill="#6e2c00"/>
    <path id="Trazado_67" data-name="Trazado 67" d="M300.431,140.268a.3.3,0,0,1-.452-.023.362.362,0,0,1,0-.478,2.968,2.968,0,0,1,4.806.319.363.363,0,0,1-.06.478.27.27,0,0,1-.423-.046,2.413,2.413,0,0,0-3.871-.25" fill="#6e2c00"/>
    <path id="Trazado_68" data-name="Trazado 68" d="M309.591,140.792a.27.27,0,0,1-.422-.045.334.334,0,0,1-.03-.478,3.018,3.018,0,0,1,4.836.318.362.362,0,0,1-.06.478.327.327,0,0,1-.453-.068,2.389,2.389,0,0,0-3.871-.2" fill="#6e2c00"/>
    <path id="Trazado_69" data-name="Trazado 69" d="M299.252,133.187c11.64,2.277,15.934,2.982,18.685,8.629.059-.432,1.179-.25,1.21-.182.392-14.367-14.937-20.2-20.62-12.454-4.3.09-4.113,9.084-3.206,11.976a1.035,1.035,0,0,1,1.09.091s3.235-4.508,2.841-8.06" fill="#f8c471" fill-rule="evenodd"/>
    <path id="Trazado_70" data-name="Trazado 70" d="M317.574,167c5.381,3.324,10.791,6.6,16.173,9.882,4.537,10.656,9.04,21.243,13.606,31.807-5.351,1.617-10.673,3.257-16.023,4.9.09.956.18,1.89.3,2.846q-22.948-.82-45.894-1.685c-5.986-2.732-11.942-5.464-17.868-8.242q7.031-15.473,14.058-30.9c5.775-3.211,11.581-6.444,17.385-9.654,3.3,5.009,6.62,9.973,9.977,14.936q4.126-6.933,8.284-13.889" fill="#7fb3d5" fill-rule="evenodd"/>
    <path id="Trazado_71" data-name="Trazado 71" d="M319.75,168.342c-3.507,5.9-6.952,11.816-10.431,17.759-.6-.819-1.208-1.639-1.783-2.482q4.989-8.333,10.038-16.621c.725.479,1.45.888,2.176,1.344" fill="#c6dffe" fill-rule="evenodd"/>
    <path id="Trazado_72" data-name="Trazado 72" d="M296.531,167.5c3.628,5.4,7.315,10.77,11.005,16.12.6-.933,1.24-1.912,1.875-2.869-3.387-4.918-6.774-9.858-10.1-14.8-.937.547-1.876,1.025-2.782,1.548" fill="#ddedfd" fill-rule="evenodd"/>
    <path id="Trazado_73" data-name="Trazado 73" d="M302,164.061a9.14,9.14,0,0,0-2.992,1.913,11.552,11.552,0,0,0-2.993,7.149,28.87,28.87,0,0,0,.786,8.789c1,4.1,2.569,7.559,3.84,8.993-.394.387-.757.752-1.151,1.116-1.421-1.594-3.174-5.4-4.231-9.791a28.219,28.219,0,0,1-.786-9.4,12.949,12.949,0,0,1,3.417-8.128,10.276,10.276,0,0,1,4.715-2.664,6.915,6.915,0,0,1-.605,2.026" fill="#384b5e"/>
    <path id="Trazado_74" data-name="Trazado 74" d="M313.765,162.559c3.778,1.184,10.036,5.578,9.069,21.79-.544-.069-1.057-.114-1.573-.206.545-9.357-1.391-14.412-3.686-17.145a9.083,9.083,0,0,0-3.508-2.572,14.193,14.193,0,0,1-.3-1.867" fill="#384b5e"/>
    <path id="Trazado_75" data-name="Trazado 75" d="M301.128,189.79a4.567,4.567,0,0,1,4.141,4.531,3.86,3.86,0,0,1-3.931,4.144,4.565,4.565,0,0,1-4.173-4.508,3.9,3.9,0,0,1,3.963-4.167" fill="#b2babb" fill-rule="evenodd"/>
    <path id="Trazado_76" data-name="Trazado 76" d="M301.128,190.336a3.96,3.96,0,0,1,3.626,3.939,3.408,3.408,0,0,1-3.446,3.666,4.01,4.01,0,0,1-3.659-3.962,3.415,3.415,0,0,1,3.479-3.643" fill="#f2f3f4" fill-rule="evenodd"/>
    <path id="Trazado_77" data-name="Trazado 77" d="M301.157,191.794a2.5,2.5,0,0,1,2.267,2.436,2.083,2.083,0,0,1-2.146,2.231,2.432,2.432,0,0,1-2.237-2.413,2.082,2.082,0,0,1,2.116-2.254" fill="#b2babb" fill-rule="evenodd"/>
    <path id="Trazado_78" data-name="Trazado 78" d="M317.634,191.27c0,.045-2.117,13.593-1.451,16.439.6,2.459,1.722,1.844,1.722,1.844.091.205.183.387.272.592,0,.023-1.812,1-2.6-2.322-.726-2.983,1.422-16.667,1.422-16.712a6.385,6.385,0,0,0,.634.159" fill="#e5e7e9"/>
    <path id="Trazado_79" data-name="Trazado 79" d="M323.8,193.865a54.615,54.615,0,0,1-5.291,11.362,11.349,11.349,0,0,1-2.779,3.119,2.371,2.371,0,0,1-2.965.045,5.074,5.074,0,0,1-1.269-1.662,4.98,4.98,0,0,0,.544-.3,5.074,5.074,0,0,0,1.059,1.434,1.835,1.835,0,0,0,2.265-.113A10.247,10.247,0,0,0,318,204.771a57.4,57.4,0,0,0,5.2-11.156,4.485,4.485,0,0,0,.6.25" fill="#e5e7e9"/>
    <path id="Trazado_80" data-name="Trazado 80" d="M318.088,209.052a.937.937,0,0,1,1.39.433c.181.512.4.945,0,1.3-.744.65-3.257-.671-1.39-1.73" fill="#fff" fill-rule="evenodd"/>
    <path id="Trazado_81" data-name="Trazado 81" d="M312.284,207.39a2.324,2.324,0,0,0-.153-1.73.935.935,0,1,0-1.633.888c.393.751,1.514,1.3,1.786.842" fill="#f8f9f9" fill-rule="evenodd"/>
    <path id="Trazado_82" data-name="Trazado 82" d="M339.493,211.079s-.062,2.186-.184,5.624c-2.66-.091-5.259-.183-7.889-.273-.121-.957-.211-1.868-.273-2.8,2.784-.842,5.564-1.708,8.346-2.55" fill="#dba683" fill-rule="evenodd"/>
    <path id="Trazado_83" data-name="Trazado 83" d="M339.493,211.079c-.031.865-.062,1.73-.062,2.618-2.267.706-5.533,1.731-8.011,2.528q-.182-1.3-.273-2.6c2.784-.842,5.564-1.708,8.346-2.55" fill="#cf9976" fill-rule="evenodd"/>
    <path id="Trazado_84" data-name="Trazado 84" d="M278.845,203.815c5.473,2.937,10.914,5.966,16.417,8.88,0,.8,0,1.617-.029,2.413l-16.145-.614c-.092-3.552-.151-7.127-.243-10.679" fill="#2874a6" fill-rule="evenodd"/>
    <path id="Trazado_85" data-name="Trazado 85" d="M283.773,205.455c2.055,1.093,4.111,2.231,6.166,3.3-.029,1.071-.059,2.118-.059,3.165-2.026-1.07-4.022-2.186-6.017-3.256-.028-1.047-.06-2.117-.09-3.21" fill="#f8f9f9" fill-rule="evenodd"/>
    <path id="Trazado_86" data-name="Trazado 86" d="M286.493,202.677c1.09.045,2.162,1.3,2.389,2.8s-.514,2.663-1.6,2.618-2.163-1.287-2.388-2.778.514-2.687,1.6-2.641m.243,1.639c.439.012.861.5.967,1.116s-.2,1.07-.635,1.047-.876-.546-.968-1.138.2-1.036.636-1.025" fill="#f8f9f9" fill-rule="evenodd"/>
    <path id="Trazado_87" data-name="Trazado 87" d="M330.725,210.851c-1.572-7.992-3.174-15.961-4.717-23.976a6.1,6.1,0,0,1,.635-.09q2.314,12.021,4.718,23.975a5.829,5.829,0,0,1-.636.091" fill="#c6dffe"/>
    <path id="Trazado_88" data-name="Trazado 88" d="M270.41,207.663s-2.66,3.757-2.63,6.375c3.719.16,7.467.3,11.216.456.029-.046.06-.114.092-.16-.032-.888-.032-1.776-.063-2.664-2.871-1.343-5.744-2.664-8.615-4.007" fill="#dba683" fill-rule="evenodd"/>
    <path id="Trazado_89" data-name="Trazado 89" d="M270.41,207.663a21.769,21.769,0,0,0-1.331,2.186q4.99,2.22,9.977,4.485h.032c-.032-.888-.032-1.776-.063-2.664-2.871-1.343-5.744-2.664-8.615-4.007" fill="#cf9976" fill-rule="evenodd"/>
    <path id="Trazado_90" data-name="Trazado 90" d="M283.47,176.015c2.48,4.622,4.93,9.221,7.407,13.821-.21.114-.391.227-.573.318-2.449-4.6-4.929-9.2-7.376-13.82.18-.091.362-.228.542-.319" fill="#c6dffe"/>
    <path id="Trazado_91" data-name="Trazado 91" d="M291.27,194.5c-.331,4.69-.664,9.38-1,14l-.636-.068c.334-4.667.666-9.358,1-14.025.211.023.424.068.634.091" fill="#c6dffe"/>
    <path id="Trazado_92" data-name="Trazado 92" d="M316.516,191.634a13.907,13.907,0,0,1,1.3-6.216,4.32,4.32,0,0,1,2.962-2.459,3.254,3.254,0,0,1,1.906.319,3.926,3.926,0,0,1,1.511,1.435,6.842,6.842,0,0,1,.846,5.168c-.422,2.186-1.24,4.781-1.24,4.781-.423-.159-.846-.341-1.238-.523a47.2,47.2,0,0,0,1.208-4.622,5.436,5.436,0,0,0-.573-4.076,2.42,2.42,0,0,0-1-.933,1.655,1.655,0,0,0-1.118-.205,3.179,3.179,0,0,0-2.177,1.867,12.15,12.15,0,0,0-1.088,5.51c-.454,0-.877-.023-1.3-.046" fill="#2c3b4a"/>
    <path id="Trazado_93" data-name="Trazado 93" d="M289.94,208.756c-.03.387-.03.729-.03,1.07.241.114.512.251.758.365-.273-.456-.487-.957-.728-1.435" fill="#b2babb" fill-rule="evenodd"/>
    <path id="Trazado_94" data-name="Trazado 94" d="M301.278,130.751a24.363,24.363,0,0,1,10.914,3.643c.092-.183.181-.387.272-.57a25.566,25.566,0,0,0-11.216-3.756c0,.227.03.478.03.683" fill="#fcd79c"/>
    <path id="Trazado_95" data-name="Trazado 95" d="M302.124,129.02c.03-.022,5.14-3.87,12.275,3.917.121-.137.243-.3.393-.456-7.5-8.2-13-4.053-13.03-4.03.12.205.241.387.362.569" fill="#fcd79c"/>
    <path id="Trazado_96" data-name="Trazado 96" d="M295.685,227.085c-6.1,7.906-2.856,12.716-3.99,15.8s-3.326,10.541-.665,16.029c2.63,5.487-2.585,9.517-1.271,15.346s3.794,13.319,18.956,12.5,19.213-6.546,20.016-14.161-4.234-14.185-3.055-17.305.725-9.9-1.42-14.822-1.568-4.959-2.087-8.037c-2.05-12.155-20.128-13.587-26.484-5.351" fill="#1b0a52" fill-rule="evenodd"/>
    <path id="Trazado_97" data-name="Trazado 97" d="M299.314,274.443c5.532,1.571,11.82,1.936,19.439.751,0,0,5.518,1.868,7.1,3.188s1.724,16.894,2.146,33.9c-11.276-.182-22.584-.319-33.861-.5q.047-16.632.062-33.356s4.261-1.662,5.11-3.984" fill="#c6dffe" fill-rule="evenodd"/>
    <path id="Trazado_98" data-name="Trazado 98" d="M299.525,273.1a42.321,42.321,0,0,0,18.926,1.389s3.354,1.548,5.683,2.778c-1.21.3,3.173-.49-4.143.91s-19.409.2-22.311-1.73a10.35,10.35,0,0,0,1.845-3.347" fill="#b2babb" fill-rule="evenodd"/>
    <path id="Trazado_99" data-name="Trazado 99" d="M342.517,312.512c-2.694-13.046-4.671-27.72-6.5-28.711s-7.346-3.984-11-5.965c-2.149-.5-4.293-.979-6.41-1.5q-.729,17.9-1.483,35.77c8.436.136,16.9.25,25.4.409m-35.676-.546c-3.235-11.931-6.44-23.884-9.705-35.906,0,0-10.174,3.757-11.55,6.444s-4.353,16.643-6.953,29.1q14.1.171,28.208.364" fill="#f2f3f4" fill-rule="evenodd"/>
    <path id="Trazado_100" data-name="Trazado 100" d="M302.851,264.675s.348,9.711-2.691,11.977a20.118,20.118,0,0,1-3.024,2.14s10.507,5.885,17.929,3.142,6.137-4.258,6.137-4.258-4.308.888-5.836-2.527-1.149-10.474-1.149-10.474-7.074,4.281-11.366,0" fill="#f9bfb3" fill-rule="evenodd"/>
    <path id="Trazado_101" data-name="Trazado 101" d="M302.851,264.675s.06,1.663-.092,3.78a4,4,0,0,0,.757.546c3.508,2.277,7.527,2.368,10.7-.546-.089-2.1,0-3.78,0-3.78s-7.074,4.281-11.366,0" fill="#e8a597" fill-rule="evenodd"/>
    <path id="Trazado_102" data-name="Trazado 102" d="M297.8,246.575c-3.265-3.575-5.2,1.868-3.537,4.508,1.177,1.868,3.6,2.413,3.6,2.027-.031-2.163-.061-4.349-.061-6.535" fill="#e8a597" fill-rule="evenodd"/>
    <path id="Trazado_103" data-name="Trazado 103" d="M318.934,247.668c3.235-3.188,5.279,2.4,3.629,4.85-1.161,1.719-3.6,2.071-3.6,1.662,0-2.163-.03-4.326-.03-6.512" fill="#e8a597" fill-rule="evenodd"/>
    <path id="Trazado_104" data-name="Trazado 104" d="M296.984,243.911c-.029.729-.06,1.435-.06,2.163.152,4.9.545,16.143,6.53,20.036s14.149-2.527,15.842-11.7,1.24-9.336.967-12.455c0,0-1.314-.25-6.983-1.3s-12.425-6.261-12.425-6.261c-.938.523-2.934,6.535-3.871,9.517" fill="#f9bfb3" fill-rule="evenodd"/>
    <path id="Trazado_105" data-name="Trazado 105" d="M303.093,243.523c.664.035,1.147.969,1.178,2.1s-.5,2.05-1.178,2.005-1.195-.979-1.18-2.118.513-2.015,1.18-1.982" fill="#1b2631" fill-rule="evenodd"/>
    <path id="Trazado_106" data-name="Trazado 106" d="M313.31,244.07c.635.034,1.2.968,1.211,2.095s-.484,2.049-1.149,2-1.271-1.014-1.271-2.141.575-1.992,1.209-1.958" fill="#1b2631" fill-rule="evenodd"/>
    <path id="Trazado_107" data-name="Trazado 107" d="M300.613,241.452s2.6-3.53,4.957.409c-.21.137-.423.274-.634.41-1.755-2.937-3.72-.295-3.72-.295-.21-.183-.422-.342-.6-.524m10.249.546c0-.022,2.6-3.483,4.927.41-.181.113-.393.25-.6.41-1.754-2.937-3.75-.3-3.75-.3a5.4,5.4,0,0,1-.573-.523" fill="#1b0a52" fill-rule="evenodd"/>
    <path id="Trazado_108" data-name="Trazado 108" d="M306.841,246.8a.335.335,0,0,1,.393-.319.39.39,0,0,1,.364.433c-.213,2.618-.455,5.214-.666,7.809.694.16,1.422.3,2.176.456a.435.435,0,0,1,.3.478.391.391,0,0,1-.455.319c-.844-.182-1.692-.342-2.509-.547a1.054,1.054,0,0,1-.363-.091,1.542,1.542,0,0,1,.062-.364c.243-2.732.484-5.419.7-8.174" fill="#d18b7d"/>
    <path id="Trazado_109" data-name="Trazado 109" d="M303.365,258.574a.411.411,0,0,1-.062-.569.347.347,0,0,1,.513-.046s3.3,2.96,8.163.2a.4.4,0,0,1,.545.182.394.394,0,0,1-.151.524c-5.32,3.028-9.008-.273-9.008-.3" fill="#d18b7d"/>
    <path id="Trazado_110" data-name="Trazado 110" d="M318.45,274.489s2.842.433,4.354.706a39.682,39.682,0,0,1,4.5,10.5c-.392,0-3.747,1.048-6.015,1.822.936,1.662,3.809,1.787,3.114,5.054s-2.781,13.069-4.143,19.582c-1.117-.023-2.237-.046-3.355-.046.544-12.523,1.028-25.069,1.542-37.614" fill="#fff" fill-rule="evenodd"/>
    <path id="Trazado_111" data-name="Trazado 111" d="M299.525,273.1s6.2,30.578,7.587,38.889c-.967-.023-1.9,0-2.842-.046q-4.4-8.4-8.707-16.758c.756-2.276,1.513-4.53,2.329-6.807,0,0-5.26,2.049-5.139,1.389s2.01-12.648,2.69-13.229,2.72-2.3,4.082-3.438" fill="#fff" fill-rule="evenodd"/>
    <path id="Trazado_112" data-name="Trazado 112" d="M324.043,312.239a18.385,18.385,0,0,1,5.986-2.414c2.722-.523,5.352,1.389,6.348,2.55-4.14-.022-8.253-.091-12.334-.136" fill="#f9bfb3" fill-rule="evenodd"/>
    <path id="Trazado_113" data-name="Trazado 113" d="M294.354,304.475c-.514,2.436-1.026,4.85-1.542,7.286-.271.023-.543,0-.785,0,.484-2.459,1.057-4.987,1.571-7.491.242.068.485.137.756.205" fill="#d3d5d6"/>
    <path id="Trazado_114" data-name="Trazado 114" d="M328.065,301.925c.785,2.6,1.542,5.191,2.327,7.81-.241.068-.483.136-.7.182-.818-2.574-1.572-5.192-2.36-7.787l.728-.205" fill="#d3d5d6"/>
    <path id="Trazado_115" data-name="Trazado 115" d="M302.124,273.032a11.9,11.9,0,0,0-2.3,1.776,11.263,11.263,0,0,0-2.541,3.916l-.15.068a.168.168,0,0,0,.091.046,16.719,16.719,0,0,0-1.12,4.8,32.369,32.369,0,0,0,.908,10.77c1.148,4.986,3.085,9.2,4.625,10.86-.483.478-.967.957-1.419,1.412-1.724-1.913-3.871-6.512-5.14-11.84a35.8,35.8,0,0,1-.938-11.5,16.346,16.346,0,0,1,4.293-10.086,13.248,13.248,0,0,1,4.111-2.8,22.059,22.059,0,0,1-.423,2.573" fill="#384b5e"/>
    <path id="Trazado_116" data-name="Trazado 116" d="M302.245,303.906c2.767.045,5.034,3.4,5.08,5.374s-.213,1.912-.666,2.709q-4.307-.035-8.617-.137a3.8,3.8,0,0,1-.725-2.732c-.031-1.958,2.162-5.259,4.928-5.214" fill="#b2babb" fill-rule="evenodd"/>
    <path id="Trazado_117" data-name="Trazado 117" d="M302.276,304.589c2.434.045,4.369,2.9,4.413,4.69a3.2,3.2,0,0,1-.755,2.687c-2.388-.023-4.776-.045-7.135-.091a3.589,3.589,0,0,1-.847-2.732c-.03-1.776,1.888-4.6,4.324-4.554" fill="#f2f3f4" fill-rule="evenodd"/>
    <path id="Trazado_118" data-name="Trazado 118" d="M302.276,306.365a3.017,3.017,0,0,1,2.75,2.892,2.6,2.6,0,0,1-1.753,2.687c-.635,0-1.238,0-1.843-.046a2.84,2.84,0,0,1-1.815-2.732,2.761,2.761,0,0,1,2.661-2.8" fill="#b2babb" fill-rule="evenodd"/>
    <path id="Trazado_119" data-name="Trazado 119" d="M314.278,269.093c4.534,2.231,10.157,8.493,9.04,25.706-.666-.092-1.33-.16-1.965-.228.786-11.5-1.6-17.6-4.445-20.9a11.235,11.235,0,0,0-2.449-2.117,22.1,22.1,0,0,1-.181-2.459" fill="#384b5e"/>
    <path id="Trazado_120" data-name="Trazado 120" d="M316.788,303.4c0,.023-.666,4.121-1.271,8.7h-.787c.607-4.668,1.271-8.834,1.3-8.857.241.045.485.114.757.159" fill="#b2babb"/>
    <path id="Trazado_121" data-name="Trazado 121" d="M324.436,306.365c-.331.934-1.179,3.21-2.328,5.829h-.875c1.237-2.778,2.116-5.169,2.448-6.125a2.93,2.93,0,0,0,.755.3" fill="#b2babb"/>
    <path id="Trazado_122" data-name="Trazado 122" d="M315.458,303.86c0-.023-.152-4.485,1.6-7.65a5.694,5.694,0,0,1,3.718-3.1,3.815,3.815,0,0,1,2.359.342,5.1,5.1,0,0,1,1.9,1.685,8.567,8.567,0,0,1,.907,6.329,58.71,58.71,0,0,1-1.571,5.874c-.515-.182-1-.387-1.483-.614a55.829,55.829,0,0,0,1.512-5.669,6.527,6.527,0,0,0-.664-4.987,2.951,2.951,0,0,0-1.241-1.115,2.143,2.143,0,0,0-1.42-.183,4,4,0,0,0-2.631,2.323c-1.542,2.732-1.42,6.785-1.42,6.807-.545,0-1.058-.022-1.572-.045" fill="#2c3b4a"/>
    <path id="Trazado_123" data-name="Trazado 123" d="M199.938,188.264Q189.1,213.88,178.26,239.721q-4.808-25.273-9.584-50.637c1.694-1.048,3.418-2.141,5.141-3.211q4.308,3.758,8.706,7.491,6.3-4.611,12.638-9.221c1.572,1.389,3.173,2.755,4.777,4.121" fill="#7fb3d5" fill-rule="evenodd"/>
    <path id="Trazado_124" data-name="Trazado 124" d="M180.316,203.064c-1.692,6.625-3.354,13.274-5.018,19.9,1.087,5.351,2.145,10.725,3.265,16.052q3.9-9.324,7.86-18.647c-1-5.715-2.026-11.385-3.023-17.1-1.028-.046-2.086-.114-3.084-.205" fill="#21618c" fill-rule="evenodd"/>
    <path id="Trazado_125" data-name="Trazado 125" d="M175.147,169c-.272.638,1.6,14.162-1.33,16.872s-4.867,2.459-3.688,3.324c9.31,6.944,20.1,11.134,28.782-1.3,0,0-4.626.751-5.655-6.466-1.088-7.241-.09-11.248-.09-11.248s-9.282,5.76-18.019-1.184" fill="#f9bfb3" fill-rule="evenodd"/>
    <path id="Trazado_126" data-name="Trazado 126" d="M175.147,169c-.12.3.181,3.142.3,6.443,5.018,4.167,12.486,4.759,17.323.775a25.016,25.016,0,0,1,.394-6.034s-9.282,5.76-18.019-1.184" fill="#e8a597" fill-rule="evenodd"/>
    <path id="Trazado_127" data-name="Trazado 127" d="M169.131,147.623s-3.235-2.892-5.11,1.32c-1.936,4.19,2.087,9.677,5.08,9.517,2.961-.182.15-10.769.03-10.837" fill="#e8a597" fill-rule="evenodd"/>
    <path id="Trazado_128" data-name="Trazado 128" d="M198.426,149.581s3.139-2.375,5.14,2.049c2.171,4.8-4.253,12.282-5.926,7.445-.565-1.63.03-4.553.786-9.494" fill="#e8a597" fill-rule="evenodd"/>
    <path id="Trazado_129" data-name="Trazado 129" d="M170.914,164.79c-3.893-12.046-2.644-14.662-3.931-25.706-2.037-17.484,34.788-14.413,33.106,2.528-1.069,10.745-.215,15.118-3.537,24.931-4.266,12.591-21.792,10.153-25.638-1.753" fill="#f9bfb3" fill-rule="evenodd"/>
    <path id="Trazado_130" data-name="Trazado 130" d="M181.557,146.848a.68.68,0,0,1,.846-.433.87.87,0,0,1,.454.956c0,.023-2.269,8.972-1.453,9.814a4.063,4.063,0,0,0,2.842.8.761.761,0,0,1,.757.706.662.662,0,0,1-.576.774s-2.539.205-3.9-1.23c-1.451-1.525,1.028-11.339,1.028-11.384" fill="#d18b7d"/>
    <path id="Trazado_131" data-name="Trazado 131" d="M175.9,161.762a.853.853,0,0,1-.062-1.047.623.623,0,0,1,.968.022c0,.023,5.685,6.171,14.21.888a.651.651,0,0,1,.907.319.721.721,0,0,1-.181,1c-9.372,5.829-15.811-1.184-15.842-1.184" fill="#d18b7d"/>
    <path id="Trazado_132" data-name="Trazado 132" d="M175.569,143.114c.771.057,1.375,1.241,1.392,2.618s-.576,2.436-1.362,2.391-1.39-1.207-1.39-2.6.589-2.471,1.36-2.414" fill="#1b2631" fill-rule="evenodd"/>
    <path id="Trazado_133" data-name="Trazado 133" d="M191.17,144.321c.787.057,1.4,1.2,1.422,2.573s-.59,2.448-1.362,2.39-1.376-1.229-1.389-2.6.543-2.425,1.329-2.368" fill="#1b2631" fill-rule="evenodd"/>
    <path id="Trazado_134" data-name="Trazado 134" d="M194.615,139.426a1.213,1.213,0,0,1,.214,1.57.907.907,0,0,1-1.391.046s-3.355-3.233-4.959-.615a.9.9,0,0,1-1.361.228,1.256,1.256,0,0,1-.272-1.571c2.752-4.531,7.769.319,7.769.342m-21.8.022a.943.943,0,0,1-1.392-.25,1.186,1.186,0,0,1,.122-1.548c.032,0,4.959-4.122,7.832.864a1.146,1.146,0,0,1-.3,1.526,1,1,0,0,1-1.362-.432c-1.63-2.892-4.9-.16-4.9-.16" fill="#191b41" fill-rule="evenodd"/>
    <path id="Trazado_135" data-name="Trazado 135" d="M169.462,115.883s-1.54,5.441,3.327,5.283c4.867-.183,20.028-4.213,25.394,3.779s1.345,24.066,1.331,24.613-1.95-8.436-3.114-12.158-2.026-3.78-2.026-3.78-6.558-4.406-10.943-3.256-8.707,2.436-11.217,2.414c-2.448,0-2.631-.411-2.631-.411s1.014,6.137-.151,10.269-1.814,4.144-1.814,4.144-3.6-6.66-3.447-11.134.575-4.394.575-4.394-5.05-11.863,4.716-15.369" fill="#191b41" fill-rule="evenodd"/>
    <path id="Trazado_136" data-name="Trazado 136" d="M195.16,184.143c-1.059.523-12.638,9.221-12.638,9.221s7.966,14.424,7.953,13.571,10.263-17.988,9.462-18.671-3.205-2.732-4.777-4.121" fill="#e5e7e9" fill-rule="evenodd"/>
    <path id="Trazado_137" data-name="Trazado 137" d="M173.6,184.621c2.965,2.938,5.926,5.829,8.919,8.743-2.449,4.258-4.838,8.539-7.224,12.774-2.509-5.511-4.929-11.066-7.377-16.667,1.873-1.617,3.779-3.233,5.682-4.85" fill="#e5e7e9" fill-rule="evenodd"/>
    <path id="Trazado_138" data-name="Trazado 138" d="M177.534,202.176c1.423,1.343,2.843,2.664,4.294,3.984,1.845-1.343,3.718-2.709,5.593-4.1-1.663-2.869-3.3-5.783-4.9-8.7,0,0-4.745,8.4-4.988,8.812" fill="#2874a6" fill-rule="evenodd"/>
    <path id="Trazado_139" data-name="Trazado 139" d="M168.676,189.085q-13.966,7.512-27.934,15.049c-3.295,11.635-6.627,23.337-9.918,35.018-3.3,11.725-6.619,23.52-9.946,35.292,0,0,11.7,23.884,17.354,34.995l41.36.752c-.214-11.749-.457-23.5-.666-35.224-.212-11.748-.455-23.5-.666-35.245,0,0-10.339-50.25-9.584-50.637m-25.153,88.524c.09-4.827.211-9.654.331-14.481-1,3.165-2,6.352-2.991,9.517.9,1.662,1.782,3.324,2.66,4.964" fill="#f2f3f4" fill-rule="evenodd"/>
    <path id="Trazado_140" data-name="Trazado 140" d="M199.938,188.264Q189.1,213.88,178.26,239.721q.318,17.624.635,35.246.319,17.589.665,35.223,22.948.34,45.986.706,8.842-18.34,17.655-36.453-.228-15.506-.514-31.056-8.614-19.125-17.172-38.365-12.836-8.265-25.577-16.758" fill="#e5e7e9" fill-rule="evenodd"/>
    <path id="Trazado_141" data-name="Trazado 141" d="M144.127,207.982c.031.046,6.622,14.937,6.5,30.169-.3,0-.573-.023-.907-.046.15-15-6.348-29.69-6.379-29.736.242-.091.514-.25.786-.387" fill="#b2babb"/>
    <path id="Trazado_142" data-name="Trazado 142" d="M223.881,207.185c0,.022-7.165,3.6-11.276,19.239a8.492,8.492,0,0,1-.846-.319c4.2-16.051,11.67-19.763,11.67-19.785a5.978,5.978,0,0,0,.452.865" fill="#b2babb"/>
    <path id="Trazado_143" data-name="Trazado 143" d="M161.42,191.361q-.451,12.569-.816,25.045c2.329.16,4.687.274,7.045.365-1.241,2.436-2.419,4.872-3.628,7.286,0,0,14.543,30.43,14.512,29.508a37.464,37.464,0,0,0-.273-13.844c-1.6-8.663-6.44-34.676-9.584-52.071-2.448,1.229-4.867,2.481-7.256,3.711" fill="#f8f9f9" fill-rule="evenodd"/>
    <path id="Trazado_144" data-name="Trazado 144" d="M199.907,186.193q-10.841,26.639-21.647,53.529c.09,4.6.152,9.244.273,13.843q9.841-15.062,19.711-30.032c-1.271-2.914-2.54-5.805-3.809-8.72,2.479.66,4.989,1.32,7.527,1.958q2.221-12.739,4.537-25.524c-2.208-1.661-4.415-3.346-6.592-5.054" fill="#f2f3f4" fill-rule="evenodd"/>
    <path id="Trazado_145" data-name="Trazado 145" d="M190.172,239.858c6.894.3,13.847.569,20.77.82.09,5.282.152,10.564.242,15.847-6.954-.206-13.908-.456-20.829-.707q-.094-7.956-.183-15.96" fill="#f2f3f4" fill-rule="evenodd"/>
    <path id="Trazado_146" data-name="Trazado 146" d="M198.818,236.147l3.388.137c.028,2.39.058,4.781.09,7.149-1.15-.068-2.269-.091-3.386-.137-.03-2.367-.062-4.735-.092-7.149" fill="#2874a6" fill-rule="evenodd"/>
    <path id="Trazado_147" data-name="Trazado 147" d="M191.351,245.732c5.9.228,11.731.433,17.6.638,0,.455.032.888.032,1.32q-8.8-.308-17.6-.637c0-.433,0-.865-.029-1.321" fill="#7fb3d5" fill-rule="evenodd"/>
    <path id="Trazado_148" data-name="Trazado 148" d="M191.412,249.785c2.539.114,5.048.205,7.587.3v1.3l-7.557-.273c-.03-.432-.03-.865-.03-1.32" fill="#7fb3d5" fill-rule="evenodd"/>
    <path id="Trazado_149" data-name="Trazado 149" d="M200.361,250.126c.906.046,1.845.069,2.811.091,0,.433,0,.866.031,1.3-.969-.023-1.9-.047-2.842-.092Z" fill="#7fb3d5" fill-rule="evenodd"/>
    <path id="Trazado_150" data-name="Trazado 150" d="M204.654,250.263c.937.045,1.874.068,2.811.091v1.321c-.937-.023-1.874-.069-2.781-.114-.03-.433-.03-.865-.03-1.3" fill="#7fb3d5" fill-rule="evenodd"/>
    <path id="Trazado_151" data-name="Trazado 151" d="M156.735,303.223c2.357,1.981,5.834,4.189,9.069,6.717-5.987-.114-11.972-.205-17.928-.319,2.963-2.14,5.9-4.257,8.859-6.4" fill="#f9bfb3" fill-rule="evenodd"/>
    <path id="Trazado_152" data-name="Trazado 152" d="M147.15,309.575c3.113-2.231,6.228-4.485,9.373-6.716q-8.029-15.1-15.994-30.283a.72.72,0,0,1-.121-.2.548.548,0,0,1,.061-.181q4.716-14.55,9.4-29.031a6.744,6.744,0,0,0,.757.319c-3.115,9.586-6.2,19.194-9.312,28.848q8.029,15.267,16.115,30.442a2.68,2.68,0,0,0,.181.364,2.676,2.676,0,0,0-.3.25c-2.9,2.1-5.774,4.19-8.677,6.262l-1.482-.069m64.457-79.94q6.62,17.247,13.332,34.38a.515.515,0,0,0,.062.2,1.644,1.644,0,0,1-.091.183c-5.9,11.953-11.852,23.929-17.778,35.951q3.718,5.226,7.438,10.383c-.364,0-.694,0-1.028-.023-2.419-3.347-4.806-6.717-7.2-10.086a2.328,2.328,0,0,1-.18-.228,1.868,1.868,0,0,1,.151-.251c5.925-12.022,11.882-24.021,17.777-36q-6.623-17.042-13.241-34.221a7.03,7.03,0,0,0,.755-.3" fill="#b2babb"/>
    <path id="Trazado_153" data-name="Trazado 153" d="M208.07,303.041c-2.9,1.525-8.587,4.736-13.031,7.377q9.25.171,18.5.3c-1.845-2.527-3.69-5.1-5.472-7.673" fill="#f9bfb3" fill-rule="evenodd"/>
    <path id="Trazado_154" data-name="Trazado 154" d="M198.607,187.6c5.714,4.144,14.692,15.619,6.681,45.173.756.3,1.512.569,2.268.842,9.192-33.948-3.9-48.975-12.4-49.476a20.772,20.772,0,0,1,3.447,3.461" fill="#2c3b4a"/>
    <path id="Trazado_155" data-name="Trazado 155" d="M206.286,227.449c-2.9-.068-5.169,2.413-5.109,5.6a5.81,5.81,0,0,0,5.351,5.874,5.183,5.183,0,0,0,5.139-5.555,5.911,5.911,0,0,0-5.381-5.92" fill="#b2babb" fill-rule="evenodd"/>
    <path id="Trazado_156" data-name="Trazado 156" d="M206.286,227.973a4.7,4.7,0,0,0-4.655,5.077,5.354,5.354,0,0,0,4.9,5.4,4.735,4.735,0,0,0,4.655-5.123,5.327,5.327,0,0,0-4.9-5.351" fill="#f2f3f4" fill-rule="evenodd"/>
    <path id="Trazado_157" data-name="Trazado 157" d="M206.378,230.751a2.219,2.219,0,0,0-2.178,2.391,2.472,2.472,0,0,0,2.267,2.5,2.2,2.2,0,0,0,2.177-2.391,2.473,2.473,0,0,0-2.266-2.5" fill="#f2f3f4" fill-rule="evenodd"/>
    <path id="Trazado_158" data-name="Trazado 158" d="M206.346,230.181a2.749,2.749,0,0,0-2.69,2.938,3.04,3.04,0,0,0,2.811,3.073,2.687,2.687,0,0,0,2.661-2.914,3.069,3.069,0,0,0-2.782-3.1" fill="#b2babb" fill-rule="evenodd"/>
    <path id="Trazado_159" data-name="Trazado 159" d="M171.216,186.648c-6.621,1.3-16.387,5.351-13.937,18.306a62.15,62.15,0,0,0,4.414,13.82c.726-.318,1.451-.66,2.147-.979a56.8,56.8,0,0,1-4.234-13.251c-2.509-10.633,7.922-14.845,8.316-15.073,1.087-.933,2.175-1.844,3.294-2.823" fill="#2c3b4a"/>
    <path id="Trazado_160" data-name="Trazado 160" d="M175.268,230.09c.031.068,8.646,25.569,4.2,33.447-4.324,7.673-11.006,3.575-11.035,3.552-.183.41-.334.774-.514,1.161.03,0,7.678,4.691,12.576-3.984,4.716-8.4-4.112-34.494-4.142-34.563-.394.137-.756.274-1.088.387" fill="#bdbdbd"/>
    <path id="Trazado_161" data-name="Trazado 161" d="M169.795,266.475c.03.25-1.029,3.3-1.029,3.3-5.2-.774-4.14-6.648,1.029-3.3" fill="#d9d9d9" fill-rule="evenodd"/>
    <path id="Trazado_162" data-name="Trazado 162" d="M155.918,234.917c.031.091,8.073,26.639,16.75,30.351,8.919,3.779,12.273-4.8,12.305-4.85-.364-.182-.727-.342-1.12-.546,0,.022-2.9,7.513-10.791,4.189-8.1-3.506-16-29.417-16.024-29.486-.393.114-.758.228-1.12.342" fill="#bdbdbd"/>
    <path id="Trazado_163" data-name="Trazado 163" d="M182.464,260.213c.09.25,2.326,2.459,2.326,2.459,4.294-3.051.848-7.7-2.326-2.459" fill="#d9d9d9" fill-rule="evenodd"/>
    <path id="Trazado_164" data-name="Trazado 164" d="M173.3,224.216a66.143,66.143,0,0,1,1.814,6.466c.544-.113,1.058-.227,1.631-.319a55.065,55.065,0,0,0-1.783-6.693c-3.778-12.136-21.889-8.972-20.529,3.962a63.438,63.438,0,0,0,1.331,7.672c.544-.091,1.089-.205,1.634-.318a70.492,70.492,0,0,1-1.18-7.469c-1.058-9.813,14.21-12.568,17.082-3.3" fill="#1b2631"/>
    <path id="Trazado_165" data-name="Trazado 165" d="M123.69,296.347q28.979.785,57.956,1.389c.03,3.074.062,6.125.09,9.175q-29.022-.512-57.986-1.184c-.031-3.119-.031-6.238-.06-9.38" fill="#fff" fill-rule="evenodd"/>
    <path id="Trazado_166" data-name="Trazado 166" d="M145.307,299.421c11.579.273,23.188.524,34.766.751,0,1.435.033,2.869.033,4.281q-17.372-.342-34.8-.706Zm-7.861-.2c-4.05-.091-8.1-.205-12.125-.341v4.348c4.052.137,8.1.251,12.156.319-.031-1.434-.031-2.869-.031-4.326m3.81.114c-1.179-.023-2.328-.046-3.479-.114,0,1.457,0,2.892.032,4.326,1.148.046,2.3.068,3.447.091Zm1.875.023c-.545.023-1.059,0-1.573,0v4.3c.514.023,1.028.045,1.573.023Zm1.873.068-1.572-.068v4.326c.513.022,1.027.022,1.572.068Z" fill="#d7dcf7" fill-rule="evenodd"/>
    <path id="Trazado_167" data-name="Trazado 167" d="M285.163,305.363c2.419,1.913,5.866,4.03,9.162,6.443-5.987-.091-11.942-.159-17.929-.228,2.933-2.094,5.866-4.143,8.767-6.215" fill="#f9bfb3" fill-rule="evenodd"/>
    <path id="Trazado_168" data-name="Trazado 168" d="M252.06,299.033q29.022.479,58.045.979c.06,2.938.093,5.9.152,8.834q-29.07-.443-58.076-.865c-.032-2.96-.062-5.965-.121-8.948" fill="#fff" fill-rule="evenodd"/>
    <path id="Trazado_169" data-name="Trazado 169" d="M273.706,301.766q17.412.308,34.857.569c.03,1.389.03,2.732.061,4.1q-17.46-.239-34.859-.523c-.029-1.366-.059-2.732-.059-4.144m-17.99-.273c-.7,0-1.36,0-2.026-.023.031,1.389.031,2.778.062,4.167.666.023,1.33.023,2.025.023-.029-1.389-.029-2.778-.061-4.167m8.344.136c-2.689-.023-5.35-.091-8.012-.136,0,1.389.031,2.778.062,4.167,2.661.022,5.32.09,8.012.113-.032-1.366-.032-2.755-.062-4.144m7.468.114c-2.388-.022-4.776-.068-7.134-.114.029,1.389.029,2.778.06,4.144,2.357.046,4.746.091,7.135.114-.031-1.366-.061-2.732-.061-4.144m1.874,0c-.514.023-1.027,0-1.541,0,0,1.412.03,2.778.06,4.144.513,0,1.029.023,1.543,0-.031-1.366-.062-2.732-.062-4.144" fill="#d7dcf7" fill-rule="evenodd"/>
    <path id="Trazado_170" data-name="Trazado 170" d="M283.2,208.187c2.388,1.958,5.866,4.121,9.131,6.626-5.927-.228-11.852-.433-17.778-.683,2.873-1.981,5.746-3.939,8.647-5.943" fill="#f9bfb3" fill-rule="evenodd"/>
    <path id="Trazado_171" data-name="Trazado 171" d="M250.337,200.969q28.7,1.3,57.5,2.436c.09,2.937.15,5.875.242,8.812q-28.8-1.093-57.564-2.277c-.091-2.983-.151-5.966-.18-8.971" fill="#fff" fill-rule="evenodd"/>
    <path id="Trazado_172" data-name="Trazado 172" d="M271.772,204.294c11.518.5,23.036.934,34.554,1.411.063,1.366.092,2.71.122,4.076-11.549-.432-23.038-.865-34.556-1.366-.061-1.344-.061-2.732-.12-4.121m-16.479-.706c-1.118-.045-2.237-.091-3.325-.137,0,1.412.062,2.756.062,4.167,1.117.046,2.205.091,3.355.114-.06-1.366-.092-2.732-.092-4.144m12.488.546c-4.021-.159-8.044-.319-12.064-.5.031,1.39.061,2.778.122,4.122,3.99.205,8.012.364,12.031.5-.03-1.343-.089-2.732-.089-4.121m1.844.092c-.514-.046-1.028-.069-1.512-.092.03,1.389.061,2.778.091,4.121.514.023,1.028.046,1.51.114-.03-1.388-.058-2.754-.089-4.143m1.844.068c-.483,0-1-.045-1.513-.068.031,1.389.062,2.777.092,4.143.515,0,1.028.023,1.541.046-.06-1.366-.06-2.732-.12-4.121" fill="#d7dcf7" fill-rule="evenodd"/>
    <path id="Trazado_173" data-name="Trazado 173" d="M93.941,274.505c3.416,1.521,4.9-2.619,4.9-2.619-1.223-1.3-2.447-2.618-3.671-3.939-1.753,5.442-9.924-6.284-4.822-6.967-.863-1.617-1.728-3.279-2.562-4.941a4.122,4.122,0,0,0-3.4,4.782c.464,3.642,6.526,12.336,9.55,13.684" fill="#fff" fill-rule="evenodd"/>
    <path id="Trazado_174" data-name="Trazado 174" d="M217.879,99.934c2,.13,3.754,2.309,3.916,4.868s-1.322,4.528-3.321,4.4-3.753-2.308-3.916-4.868,1.321-4.527,3.321-4.4" fill="#534d8c" fill-rule="evenodd"/>
    <path id="Trazado_175" data-name="Trazado 175" d="M217.958,101.168c1.467.1,2.753,1.694,2.874,3.571s-.971,3.322-2.437,3.226-2.753-1.693-2.875-3.57.97-3.322,2.438-3.227" fill="#5848c2" fill-rule="evenodd"/>
    <path id="Trazado_176" data-name="Trazado 176" d="M490.477,113.653,447.819,129.3a59.088,59.088,0,0,0,13.046,28.584c11.33,13.34,14,13.007,14,13.007s27.989-48.737,15.611-57.235" fill="#fff" fill-rule="evenodd"/>
    <path id="Trazado_177" data-name="Trazado 177" d="M486.094,123.294l-32.437,14.582s0,.553,2.556,4.188,29.881-18.77,29.881-18.77" fill="#e6e7e8" fill-rule="evenodd"/>
    <path id="Trazado_178" data-name="Trazado 178" d="M491.741,132.207,462.3,152s.1.544,3.244,3.7,26.2-23.488,26.2-23.488" fill="#e6e7e8" fill-rule="evenodd"/>
    <path id="Trazado_179" data-name="Trazado 179" d="M583.617,30.586s-48.928-53.326-112-19.153S431.1,88.419,457.475,89.171c18.93.539,28.507,5.5,32.371,12.852.511,8.788-2.489,23.231-17.539,44.948-6.871,9.915-11.042,19.331-13,28.037-2.411,10.707-1.483,20.34,1.876,28.525a42.57,42.57,0,0,0,8.031,12.61c10.8,22.477,40.312,41.868,104.751,45.428,108.757,6.008,120.124-103.676,9.653-230.985m-92.148,86.446c-3.042,17.8-18.853,39.83-23.289,52.5-3.607,10.3-5.341,22-3.214,33.536-.128-.292-.252-.584-.374-.88-3.1-7.547-3.943-16.46-1.706-26.4,1.861-8.267,5.856-17.256,12.454-26.779,8.94-12.9,13.763-23.478,16.129-31.975" fill="#413a80" fill-rule="evenodd"/>
    <path id="Trazado_180" data-name="Trazado 180" d="M510.318,249.75c15.908,6.083,36.727,10.333,63.646,11.821,96.709,5.343,116.4-80.8,41.9-189.466C601.557,82.242,576.8,90.992,528.349,87.916c-32.69-2.076-16.444,10.764-29.84,58.075-11.912,42.08-38.186,82.867,11.809,103.759" fill="#352e70" fill-rule="evenodd"/>
    <path id="Trazado_181" data-name="Trazado 181" d="M0,348.107l44.312-.086-9.993,65.84H0Z" fill="#e6e7ed" fill-rule="evenodd"/>
    <path id="Trazado_182" data-name="Trazado 182" d="M12.542,348.083l31.77-.062-9.993,65.84H10.706Z" fill="#d8d9db" fill-rule="evenodd"/>
    <path id="Trazado_183" data-name="Trazado 183" d="M113,322.584s14.21,1.518,19.442,13.892-9.72,22.842-9.72,22.842S133.559,342.9,113,322.584" fill="#67c7a9" fill-rule="evenodd"/>
    <path id="Trazado_184" data-name="Trazado 184" d="M12.868,319.837s13.578-11.086,29.145,3.641S57.576,358.7,57.576,358.7s-15-20.4-34.447-18.54S4.435,323.478,12.868,319.837" fill="#5ebd9f" fill-rule="evenodd"/>
    <path id="Trazado_185" data-name="Trazado 185" d="M9.715,347.512C9.8,347.464,39.182,330.7,50.156,361.4c1.812,5.065,3.332,9.732,4.708,13.958l.175.538c5.767-.573,19.536-4.068,21.059-24.326l3.519.245c-1.652,22.007-16.388,26.532-23.481,27.431,4.955,15.014,8.375,22.845,19.176,21.212,16-2.418,36.992-27.6,37.053-27.671l4.078,3.315c-.065.077-22.314,26.776-40.345,29.5-16.137,2.439-19.656-8.361-26.265-28.658-1.363-4.187-2.869-8.809-4.666-13.836-8.854-24.768-32.775-11.125-32.844-11.086Zm3.153-48.058a74.05,74.05,0,0,0-1.4,25l-3.507.393a77.934,77.934,0,0,1,1.5-26.246ZM0,291.782c3.866,3.881,7.3,11.007,6.941,24.092l-3.519-.081c.243-8.8-1.3-14.527-3.422-18.253Z" fill="#4ea388"/>
    <path id="Trazado_186" data-name="Trazado 186" d="M110.384,371.873s2.188-16.327,21.1-15.682,28.535,38.668,28.535,38.668a29.388,29.388,0,0,0-17.276-6.767c-10.384-.429-30.393-7.089-32.361-16.219" fill="#5ebd9f" fill-rule="evenodd"/>
    <path id="Trazado_187" data-name="Trazado 187" d="M105.617,384.114s5-9.643,17.294-5.234,14.769,20.2,14.769,32.326c0,8.472-3.149,16.989-5.046,21.35h-2.562a33.917,33.917,0,0,0-8.423-11.891c-6.776-5.785-27.342-20.48-16.032-36.551" fill="#67c7a9" fill-rule="evenodd"/>
    <path id="Trazado_188" data-name="Trazado 188" d="M50.375,303.758s26.548-3.123,37.577,23.51-8.335,24.306-8.335,24.306,0,9.2-13.634,4.6-15.608-52.527-15.608-52.414" fill="#67c7a9" fill-rule="evenodd"/>
    <path id="Trazado_189" data-name="Trazado 189" d="M12.191,292.323c.561-1.745,3.365-8.908,11.686-6.979s8.972,10.929,8.411,17.265S36.4,315.834,36.4,315.834a135.543,135.543,0,0,1-16.359-7.072c-10.33-5.117-20.565-10.234-18.883-16.99s11.03.551,11.03.551" fill="#67c7a9" fill-rule="evenodd"/>
  </g>
</svg>
