<svg id="Grupo_283" data-name="Grupo 283" xmlns="http://www.w3.org/2000/svg" xmlns:xlink="http://www.w3.org/1999/xlink" width="415.383" height="369.821" viewBox="0 0 415.383 369.821">
  <defs>
    <clipPath id="clip-path">
      <rect id="Rectángulo_142" data-name="Rectángulo 142" width="415.383" height="369.821" fill="none"/>
    </clipPath>
    <clipPath id="clip-path-3">
      <rect id="Rectángulo_133" data-name="Rectángulo 133" width="410.292" height="369.821" transform="translate(5.091)" fill="none"/>
    </clipPath>
    <clipPath id="clip-path-4">
      <rect id="Rectángulo_135" data-name="Rectángulo 135" width="126.169" height="95.383" transform="translate(199.815 135.25)" fill="none"/>
    </clipPath>
    <clipPath id="clip-path-5">
      <rect id="Rectángulo_136" data-name="Rectángulo 136" width="105.023" height="68.443" transform="translate(204.302 216.096)" fill="none"/>
    </clipPath>
    <clipPath id="clip-path-6">
      <path id="Trazado_1288" data-name="Trazado 1288" d="M68.981,196.145a2.133,2.133,0,0,0-2.113,2.114V238.9a2.109,2.109,0,0,0,2.113,2.086h35.154a2.085,2.085,0,0,0,2.086-2.086V198.259a2.109,2.109,0,0,0-2.086-2.114Z" fill="none"/>
    </clipPath>
    <clipPath id="clip-path-8">
      <path id="Trazado_1310" data-name="Trazado 1310" d="M68.569,131.188a2.114,2.114,0,0,0-2.113,2.113v40.615a2.132,2.132,0,0,0,2.113,2.113h35.155a2.108,2.108,0,0,0,2.085-2.113V133.3a2.091,2.091,0,0,0-2.085-2.113Z" fill="none"/>
    </clipPath>
    <clipPath id="clip-path-10">
      <rect id="Rectángulo_140" data-name="Rectángulo 140" width="23.334" height="3.041" transform="translate(169.611 269.874)" fill="none"/>
    </clipPath>
  </defs>
  <g id="Grupo_282" data-name="Grupo 282" clip-path="url(#clip-path)">
    <g id="Grupo_270" data-name="Grupo 270">
      <g id="Grupo_269" data-name="Grupo 269" clip-path="url(#clip-path)">
        <g id="Grupo_262" data-name="Grupo 262" opacity="0.7">
          <g id="Grupo_261" data-name="Grupo 261">
            <g id="Grupo_260" data-name="Grupo 260" clip-path="url(#clip-path-3)">
              <path id="Trazado_1232" data-name="Trazado 1232" d="M363.623,304.266c14.513-8.779,28.8-18.638,38.982-32.2s15.775-31.507,11.118-47.817c-4.557-15.96-17.907-27.838-31.848-36.846s-29.234-16.214-41.4-27.508c-6.286-5.837-11.955-13.869-10.474-22.318,1.608-9.178,10.671-14.7,17.248-21.3,14.144-14.19,17.787-36.908,11.5-55.933S337.406,26,319.784,16.461,282.1,2.713,262.144.965C177.982-6.407,93.817,29.142,30.1,84.622,19.962,93.451,9.815,103.5,6.486,116.529c-5.63,22.026,11.051,44.75,31.757,54.134,8.962,4.062,19.69,7.188,23.934,16.064,3.145,6.577,1.55,14.61-2.15,20.892s-9.242,11.221-14.514,16.256C30.686,238.036,17.1,254.191,9.957,273.411s-7,41.99,4.274,59.117c11.639,17.688,32.8,26.611,53.424,31.391,41.812,9.687,85.214,6.16,127.068-1.33,36.884-6.6,73.834-13.388,108.529-27.773a448.837,448.837,0,0,0,60.371-30.55" fill="#eceffe" fill-rule="evenodd"/>
            </g>
          </g>
        </g>
        <path id="Trazado_1233" data-name="Trazado 1233" d="M373.754,347.292H6.39a6.39,6.39,0,1,1,0-12.78H373.754a6.39,6.39,0,1,1,0,12.78" fill="#c9ced8" fill-rule="evenodd"/>
        <path id="Trazado_1234" data-name="Trazado 1234" d="M243.331,293.741c3.323-6.682,11.309-8.97,19.762-11.393,14.81-4.245,31.6-9.056,31.878-37.632l.988.014c-.129,13.15-3.693,22.6-10.9,28.881-6.26,5.461-14.484,7.817-21.74,9.9-8.245,2.362-16.034,4.6-19.143,10.846-1.77,3.56-1.987,8.249-.661,14.337,4.262,19.564,16.007,16.471,33.787,11.794a155.027,155.027,0,0,1,22.9-4.744c14.261-1.542,23.82.293,28.415,5.453a10.671,10.671,0,0,1,2.189,3.76h-1.078a9.555,9.555,0,0,0-1.785-2.888c-3.013-3.382-10.256-7.02-27.652-5.137a154.233,154.233,0,0,0-22.781,4.72c-17.678,4.652-30.451,8.014-34.955-12.655-1.4-6.415-1.144-11.4.771-15.253" fill="#fdfdfd"/>
        <path id="Trazado_1235" data-name="Trazado 1235" d="M343.291,334.512a8.847,8.847,0,0,0-8.6-11.02H323.665a8.843,8.843,0,0,0-8.605,11.02Z" fill="#081723" fill-rule="evenodd"/>
        <rect id="Rectángulo_134" data-name="Rectángulo 134" width="83.427" height="44.21" transform="translate(147.358 284.539)" fill="#3e145e"/>
        <path id="Trazado_1236" data-name="Trazado 1236" d="M113.205,334.512H264.936a3.855,3.855,0,1,0,0-7.711H113.205a3.855,3.855,0,0,0,0,7.711" fill="#3e145e" fill-rule="evenodd"/>
        <path id="Trazado_1237" data-name="Trazado 1237" d="M39.81,94.25H350.956a8.375,8.375,0,0,1,8.343,8.343V281.328a8.374,8.374,0,0,1-8.343,8.342H39.81a8.38,8.38,0,0,1-8.37-8.342V102.593a8.381,8.381,0,0,1,8.37-8.343" fill="#3e145e" fill-rule="evenodd"/>
        <path id="Trazado_1238" data-name="Trazado 1238" d="M40.221,99.382H350.544a3.66,3.66,0,0,1,3.623,3.65V280.916a3.655,3.655,0,0,1-3.623,3.623H40.221a3.637,3.637,0,0,1-3.622-3.623V103.032a3.642,3.642,0,0,1,3.622-3.65" fill="#d3d7ef" fill-rule="evenodd"/>
        <path id="Trazado_1239" data-name="Trazado 1239" d="M251.037,120.65l-16.384,9.688s-9.687,12.513-19.6,52.991c-9.906,40.506-10.756,101.21-10.756,101.21H304.66s2-63.722,7.684-86.775,13.007-54.062,9.331-62.24c-3.651-8.178-25.825-22.777-25.825-22.777Z" fill="#fdfdfd" fill-rule="evenodd"/>
        <path id="Trazado_1240" data-name="Trazado 1240" d="M241.981,147.571s3.376,3.485,1.646,10.868c-.9,3.869-2.771,10.537-4.61,16.328a74.679,74.679,0,0,1-3.952,10.62c-2.47,4.474-7.738,2.25-7.738,2.25l.6-1.536c.028,0,3.952,1.646,5.708-1.537a77.087,77.087,0,0,0,3.815-10.291c1.811-5.79,3.65-12.377,4.555-16.219,1.537-6.5-1.234-9.358-1.262-9.358Z" fill="#081723"/>
        <path id="Trazado_1241" data-name="Trazado 1241" d="M207.156,234.7c11.553,1.866,33.1-6.229,39.573-7.546,24.671,6.448,42.37,10.62,62.6-11.06,0,0,.85-6.285.822-6.367l-17.042-73s-15.2,46.653-17.15,50.632c-1.949,3.952-2.774,3.815-2.774,3.815s-3.347-4.5-7.409-5.132c-7.272-1.18-12.074,5.351-18.66,5.1l-30.873-1.125,10.181-39.874L213.8,190.135Z" fill="#dbdbdc" fill-rule="evenodd"/>
        <path id="Trazado_1242" data-name="Trazado 1242" d="M234.654,130.338s-12.158,6.147-19.925,16.273c-7.737,10.127-36.827,51.483-38.118,60.731-1.289,9.276,2.36,16.823,8.179,19.622,9.879,4.72,46.049,5.9,59.331-1.262,0,0-2-4.858-1.483-8.727L212.15,197.134c2.305-11.334,17.179-59.057,22.5-66.8" fill="#fdfdfd" fill-rule="evenodd"/>
        <path id="Trazado_1243" data-name="Trazado 1243" d="M235.037,149.795s-3.979.027-7.547,5.68c-1.948,3.047-5.021,8.782-7.738,14.243a111.441,111.441,0,0,0-5.544,12.295c-.933,3.1,4.007,2.991,4.007,2.991l.027,1.646c-.027,0-7.189.192-5.626-5.1a110.828,110.828,0,0,1,5.653-12.569c2.746-5.515,5.873-11.306,7.822-14.38,4.061-6.422,8.891-6.449,8.919-6.449Z" fill="#081723"/>
        <path id="Trazado_1244" data-name="Trazado 1244" d="M236.108,189.038l-3.183-27.086.164-18.5,6.066.165-4.913-14.161,16.8-8.809.383,21.735Z" fill="#eceeee" fill-rule="evenodd"/>
        <path id="Trazado_1245" data-name="Trazado 1245" d="M287.975,114.805c-3.431,2.195-19.951,17.069-19.951,17.069L248.841,174.3l-12.733,14.737.33-15.753,10.071-38.145,6.888-15.011,34.77-7.986Z" fill="#3b4e71" fill-rule="evenodd"/>
        <path id="Trazado_1246" data-name="Trazado 1246" d="M212.205,192.77c-1.619-.768-8.754-2.25-12.624,1.07-3.869,3.294-3.677,8.672-3.677,8.672l8.7.33Z" fill="#ffad8f" fill-rule="evenodd"/>
        <path id="Trazado_1247" data-name="Trazado 1247" d="M251.7,137.692l-15.643,36.5.055,14.847L248.841,174.3l11.663-35.95Z" fill="#081723" fill-rule="evenodd"/>
        <path id="Trazado_1248" data-name="Trazado 1248" d="M257.129,98.422l-2.552,18.359s.713,8.288,6.421,8.947,25.879-15.89,26.318-19.1l3.293-24.863Z" fill="#ff9974" fill-rule="evenodd"/>
        <path id="Trazado_1249" data-name="Trazado 1249" d="M252.079,127.127c-.274.549-.987,10.456-.384,10.565.576.11,8.425.934,8.809.659s9.551-11,7.986-11.91c-2.223-1.29-12.926-3.952-16.411.686" fill="#081723" fill-rule="evenodd"/>
        <path id="Trazado_1250" data-name="Trazado 1250" d="M258.474,124.52c-7.547.988-12.843,11.965-14,11.471-.357-.165,2.251-8.535,3.266-13.612,1.015-5.049,7.739-11.443,7.519-10.565a13.611,13.611,0,0,0,3.211,12.706" fill="#3b4e71" fill-rule="evenodd"/>
        <path id="Trazado_1251" data-name="Trazado 1251" d="M296.948,113.487c-5.461,42.18-18.634,79.914-24.589,80.408-5.955.466-56.861-4.09-62.24-1.949-9.577,3.842-13.31,14.133-7.629,22.668,0,0,58.673,13.09,70.721,15.67,12.074,2.579,30.653-9.688,39.133-23.9s13.556-54.694,13.639-63.311c.219-21.24-28.815-31.367-29.035-29.583" fill="#fdfdfd" fill-rule="evenodd"/>
        <path id="Trazado_1252" data-name="Trazado 1252" d="M295.576,114.612c3.431,1.7,1.4,7.876-2.606,15.917-1.7,3.375-3.788,7.218-5.956,11.2-5.956,10.922-12.459,22.887-13.474,30.818l-1.647-.192c1.042-8.233,7.657-20.363,13.666-31.4,2.141-3.924,4.172-7.684,5.928-11.169,3.568-7.19,5.6-12.6,3.348-13.694Z" fill="#081723"/>
        <path id="Trazado_1253" data-name="Trazado 1253" d="M291.625,108.575l13.611,5.873-30.1,26.07,7.793,2.333-46.818,46.186L248.841,174.3l19.182-42.427Z" fill="#eceeee" fill-rule="evenodd"/>
        <path id="Trazado_1254" data-name="Trazado 1254" d="M288.249,99.519c-3.458,10.236-31.56,24.562-29.446,25s10.263,8.206,11.69,10.182c1.428,1.948,30.736-22.75,28.623-25.056-4.857-5.269-7.245-6.86-10.867-10.126" fill="#3b4e71" fill-rule="evenodd"/>
        <path id="Trazado_1255" data-name="Trazado 1255" d="M268.381,188.818c3.238,1.372,5.379,5.406,5.379,5.406s1.125,3.925-.906,4.254c-2.058.329-4.885-4.912-4.885-4.912s.412,3.21.521,4.555c.11,1.318-3.129,1.619-3.9.357a57.049,57.049,0,0,1-2.306-5.242s.6,4.858-.164,5.517a2.662,2.662,0,0,1-3.238-.55,29.51,29.51,0,0,1-1.565-4.857s.082,4.693-.85,4.967c-.906.275-2.745.165-2.8-2.579-.027-2.772-1.207-2.745-1.207-2.745l-2.909-.164s2.524-3.4,5.05-4.172c2.551-.741,11.91-.576,13.776.165" fill="#ffad8f" fill-rule="evenodd"/>
        <g id="Grupo_265" data-name="Grupo 265" opacity="0.38">
          <g id="Grupo_264" data-name="Grupo 264">
            <g id="Grupo_263" data-name="Grupo 263" clip-path="url(#clip-path-4)">
              <path id="Trazado_1256" data-name="Trazado 1256" d="M200.24,202.677a14.809,14.809,0,0,0,2.25,11.938s2.58.576,6.724,1.481c.219.055.466.11.685.165,7.932,1.756,21.1,4.693,33.535,7.464,12.871,2.854,25,5.544,29.777,6.559,11.114,2.388,27.744-7.821,36.937-20.554.8-1.1,1.537-2.223,2.2-3.348,8.48-14.216,13.556-54.694,13.639-63.311a22.689,22.689,0,0,0-1.29-7.821c-.659,4.007-1.482,8.672-2.388,13.556-2.469,13.036-5.735,27.718-9.3,36.335a74.762,74.762,0,0,1-5.955,11.334c-8.4,13.337-20.2,24.2-26.072,25.659-4.007,1.015-21.679-.878-38.42-3.678-14.379-2.415-28.074-5.488-31.778-8.04-.247-.165-.494-.33-.714-.494a21.208,21.208,0,0,1-6.311-7.136,13.461,13.461,0,0,1-1.537-4.583,15.133,15.133,0,0,0-1.976,4.474" fill="#eceeee" fill-rule="evenodd"/>
            </g>
          </g>
        </g>
        <path id="Trazado_1257" data-name="Trazado 1257" d="M272.03,180.7a6.216,6.216,0,1,0-6.229-6.229,6.218,6.218,0,0,0,6.229,6.229" fill="#595656" fill-rule="evenodd"/>
        <path id="Trazado_1258" data-name="Trazado 1258" d="M272.03,176.935a2.469,2.469,0,1,0-2.47-2.47,2.477,2.477,0,0,0,2.47,2.47" fill="#221915" fill-rule="evenodd"/>
        <path id="Trazado_1259" data-name="Trazado 1259" d="M217.968,188.077a2.168,2.168,0,1,0-2.168-2.168,2.172,2.172,0,0,0,2.168,2.168" fill="#081723" fill-rule="evenodd"/>
        <path id="Trazado_1260" data-name="Trazado 1260" d="M228.15,188.763a2.155,2.155,0,1,0-2.168-2.168,2.155,2.155,0,0,0,2.168,2.168" fill="#081723" fill-rule="evenodd"/>
        <path id="Trazado_1261" data-name="Trazado 1261" d="M247.2,49.216a18.346,18.346,0,0,0-3.705,9.44,15.4,15.4,0,0,0,1.345,7.492l7.575-17.015Z" fill="#081723" fill-rule="evenodd"/>
        <path id="Trazado_1262" data-name="Trazado 1262" d="M288.3,90.682c-3.155,13.557-14.791,17.042-22.036,19.183s-13.859-.714-17.92-10.319c-4.09-9.6-3.294-17.728-4.336-21.817-1.016-4.089-2.031-11.938,2.112-21.707,6.5-15.313,25.083-16.164,36.39-4.885,8.232,8.178,9.275,24.726,5.79,39.545" fill="#ffad8f" fill-rule="evenodd"/>
        <path id="Trazado_1263" data-name="Trazado 1263" d="M288.057,81.105c-.576-.878-7.656-5.434-7.931-10.593-.3-5.159,3.513-11.8,1.454-17.1-2.277-5.9-19.758,4.8-34.331.274-2.963-.933-5.159-3.21-3.375-7.052,1.757-3.815,14.518-6.559,21.3-7.739s16.795,1.784,22.091,7.382,8.919,15.094,8.755,20.692c-.138,5.6-6.284,17.591-6.284,17.591Z" fill="#081723" fill-rule="evenodd"/>
        <path id="Trazado_1264" data-name="Trazado 1264" d="M292.5,71.2c6.586.631-1.043,18.25-6.093,14.462-2.03-1.536-.6-7.93-.136-9.714.685-2.717,2.167-5.132,6.229-4.748" fill="#ffad8f" fill-rule="evenodd"/>
        <path id="Trazado_1265" data-name="Trazado 1265" d="M256.141,78.745a.232.232,0,0,1,.274-.219.245.245,0,0,1,.193.274,21.724,21.724,0,0,1-.851,4.555,10.13,10.13,0,0,1-2.47,3.98,1.559,1.559,0,0,0-.412.631,1.019,1.019,0,0,0,.247,1.043,4.308,4.308,0,0,0,1.345.933,13,13,0,0,0,3.568,1.1.249.249,0,0,1-.055.495,14.314,14.314,0,0,1-3.733-1.153,4.929,4.929,0,0,1-1.508-1.071,1.523,1.523,0,0,1-.329-1.509,2.637,2.637,0,0,1,.521-.8,10.013,10.013,0,0,0,2.387-3.814,22.079,22.079,0,0,0,.823-4.446" fill="#221915"/>
        <path id="Trazado_1266" data-name="Trazado 1266" d="M254.8,95.869a.257.257,0,0,1,.028-.357.261.261,0,0,1,.357.055,1.62,1.62,0,0,0,.384.357,8.33,8.33,0,0,0,4.637,1.153,9.339,9.339,0,0,0,5.626-1.784,6.006,6.006,0,0,0,1.153-1.208.261.261,0,0,1,.357-.055.289.289,0,0,1,.027.357,6.834,6.834,0,0,1-1.235,1.29,9.7,9.7,0,0,1-5.928,1.866,8.723,8.723,0,0,1-4.939-1.235,1.783,1.783,0,0,1-.467-.439" fill="#221915"/>
        <path id="Trazado_1267" data-name="Trazado 1267" d="M267.969,70.448a23.449,23.449,0,0,1-3.947.344c-.724-.072-.955-.468-.667-1.1.2-.435.657-.558,1.08-.7,1.388-.467,8.063-.44,7.729,1.733a19.938,19.938,0,0,0-4.2-.274" fill="#221915"/>
        <path id="Trazado_1268" data-name="Trazado 1268" d="M249.082,71.5a23.383,23.383,0,0,0,3.96-.143c.709-.159.891-.58.526-1.176a1.569,1.569,0,0,0-1.158-.562c-1.434-.293-8.056.551-7.458,2.666a19.922,19.922,0,0,1,4.13-.785" fill="#221915"/>
        <path id="Trazado_1269" data-name="Trazado 1269" d="M267.448,77.922c.8,0,1.426-.988,1.426-2.223,0-1.207-.631-2.223-1.426-2.223s-1.427,1.016-1.427,2.223c0,1.235.63,2.223,1.427,2.223" fill="#221915" fill-rule="evenodd"/>
        <path id="Trazado_1270" data-name="Trazado 1270" d="M251.009,79.733c.8,0,1.428-.988,1.428-2.2,0-1.235-.632-2.222-1.428-2.222s-1.454.987-1.454,2.222c0,1.208.659,2.2,1.454,2.2" fill="#221915" fill-rule="evenodd"/>
        <path id="Trazado_1271" data-name="Trazado 1271" d="M257.651,80.117a17.8,17.8,0,0,1-2.059,6.065,5.183,5.183,0,0,0-1.1,2,9.292,9.292,0,0,1,2.909,0c1.728.22,2.607,1.921,3.156.933.549-1.015-1.372-2.387-1.757-3.4-.383-.988-1.152-5.6-1.152-5.6" fill="#ff9d79" fill-rule="evenodd"/>
        <path id="Trazado_1272" data-name="Trazado 1272" d="M256.662,234.236l32.712,4.418-.3,4.418-32.739-4.39Z" fill="#eceeee" fill-rule="evenodd"/>
        <g id="Grupo_268" data-name="Grupo 268" opacity="0.46">
          <g id="Grupo_267" data-name="Grupo 267">
            <g id="Grupo_266" data-name="Grupo 266" clip-path="url(#clip-path-5)">
              <path id="Trazado_1273" data-name="Trazado 1273" d="M299.007,225.125c-4.336,11.361-19.128,47.888-31.175,50.769-10.841,2.58-46.159,3.4-63.421,3.9-.082,3.046-.109,4.748-.109,4.748H304.66s1.262-40.341,4.665-68.443a63.908,63.908,0,0,1-10.318,9.029" fill="#eceeee" fill-rule="evenodd"/>
            </g>
          </g>
        </g>
        <path id="Trazado_1274" data-name="Trazado 1274" d="M235.833,81.873,220.081,72.25V44.276a7.407,7.407,0,0,0-7.382-7.409H120.135a7.413,7.413,0,0,0-7.41,7.409v53.98a7.431,7.431,0,0,0,7.41,7.41H212.7a7.425,7.425,0,0,0,7.382-7.41V81.649Z" fill="#93edf8" fill-rule="evenodd"/>
        <path id="Trazado_1275" data-name="Trazado 1275" d="M142.309,95.046a23.78,23.78,0,1,0-23.793-23.793,23.816,23.816,0,0,0,23.793,23.793" fill="#fdfdfd" fill-rule="evenodd"/>
        <path id="Trazado_1276" data-name="Trazado 1276" d="M137.314,57.449h9.962v8.836h8.837v9.962h-8.837v8.837h-9.962V76.247h-8.837V66.285h8.837Z" fill="#e40013" fill-rule="evenodd"/>
        <path id="Trazado_1277" data-name="Trazado 1277" d="M174.609,53.744h36.005a1.935,1.935,0,0,1,0,3.87H174.609a1.935,1.935,0,0,1,0-3.87" fill="#fdfdfd" fill-rule="evenodd"/>
        <path id="Trazado_1278" data-name="Trazado 1278" d="M174.609,63.24h36.005a1.921,1.921,0,1,1,0,3.842H174.609a1.921,1.921,0,0,1,0-3.842" fill="#fdfdfd" fill-rule="evenodd"/>
        <path id="Trazado_1279" data-name="Trazado 1279" d="M174.609,72.708h36.005a1.935,1.935,0,0,1,0,3.869H174.609a1.935,1.935,0,0,1,0-3.869" fill="#fdfdfd" fill-rule="evenodd"/>
        <path id="Trazado_1280" data-name="Trazado 1280" d="M174.609,82.2h22.832a1.921,1.921,0,1,1,0,3.842H174.609a1.921,1.921,0,0,1,0-3.842" fill="#fdfdfd" fill-rule="evenodd"/>
        <path id="Trazado_1281" data-name="Trazado 1281" d="M68.982,196.145h35.153a2.107,2.107,0,0,1,2.086,2.113V238.9a2.084,2.084,0,0,1-2.086,2.086H68.982a2.108,2.108,0,0,1-2.113-2.086V198.258a2.131,2.131,0,0,1,2.113-2.113" fill="#fdfdfd" fill-rule="evenodd"/>
        <path id="Trazado_1282" data-name="Trazado 1282" d="M69.749,190.547h76.923a8.807,8.807,0,0,1,8.781,8.782V237.8a8.807,8.807,0,0,1-8.781,8.782H69.749A8.814,8.814,0,0,1,60.94,237.8V199.329a8.814,8.814,0,0,1,8.809-8.782" fill="#93edf8" fill-rule="evenodd"/>
      </g>
    </g>
    <g id="Grupo_272" data-name="Grupo 272">
      <g id="Grupo_271" data-name="Grupo 271" clip-path="url(#clip-path-6)">
        <path id="Trazado_1283" data-name="Trazado 1283" d="M79.026,219.526c.219-.027,13.639,0,13.639,0,2.113-2.058,4.83-11.746-1.785-16.438-3.9-2.772-8.15-.769-9.11.823a4.9,4.9,0,0,0-2.635.851c-6.284,4.857-.3,14.791-.109,14.764" fill="#081723" fill-rule="evenodd"/>
        <path id="Trazado_1284" data-name="Trazado 1284" d="M79.546,220.542H92.061a6.365,6.365,0,0,1,6.366,6.339v22.366H73.18V226.881a6.365,6.365,0,0,1,6.366-6.339" fill="#ff9733" fill-rule="evenodd"/>
        <path id="Trazado_1285" data-name="Trazado 1285" d="M89.344,219.746c-.192,2.387-1.757,4.226-3.623,4.226-1.894,0-3.457-1.839-3.622-4.226a9.525,9.525,0,0,1-3.1-7.355c0-4.8,2.992-8.7,6.723-8.7,3.705,0,6.724,3.9,6.724,8.7a9.525,9.525,0,0,1-3.1,7.355" fill="#ffad8f" fill-rule="evenodd"/>
        <path id="Trazado_1286" data-name="Trazado 1286" d="M81.577,204.6c1.646,6.257,12.926,4.418,12.9,4.391-.192-.192-1.893-4.117-4.39-5.3a11.719,11.719,0,0,0-7.356-.164,3.248,3.248,0,0,0-1.152,1.07" fill="#081723" fill-rule="evenodd"/>
        <path id="Trazado_1287" data-name="Trazado 1287" d="M83.91,205.394a8.285,8.285,0,0,1-3.129,3.65,6.357,6.357,0,0,1-3.9,1.262s.3-3.211,2.222-4.473a12.431,12.431,0,0,1,4.144-1.619Z" fill="#081723" fill-rule="evenodd"/>
      </g>
    </g>
    <g id="Grupo_274" data-name="Grupo 274">
      <g id="Grupo_273" data-name="Grupo 273" clip-path="url(#clip-path)">
        <path id="Trazado_1289" data-name="Trazado 1289" d="M113.192,202.732h29.857a1.318,1.318,0,0,1,1.318,1.317,1.335,1.335,0,0,1-1.318,1.317H113.192a1.334,1.334,0,0,1-1.317-1.317,1.317,1.317,0,0,1,1.317-1.317" fill="#fdfdfd" fill-rule="evenodd"/>
        <path id="Trazado_1290" data-name="Trazado 1290" d="M113.192,209.153h29.857a1.336,1.336,0,0,1,1.318,1.317,1.318,1.318,0,0,1-1.318,1.318H113.192a1.317,1.317,0,0,1-1.317-1.318,1.335,1.335,0,0,1,1.317-1.317" fill="#fdfdfd" fill-rule="evenodd"/>
        <path id="Trazado_1291" data-name="Trazado 1291" d="M113.192,215.6h29.857a1.317,1.317,0,1,1,0,2.635H113.192a1.317,1.317,0,0,1,0-2.635" fill="#fdfdfd" fill-rule="evenodd"/>
        <path id="Trazado_1292" data-name="Trazado 1292" d="M113.192,222.051h29.857a1.3,1.3,0,1,1,0,2.607H113.192a1.3,1.3,0,1,1,0-2.607" fill="#fdfdfd" fill-rule="evenodd"/>
        <path id="Trazado_1293" data-name="Trazado 1293" d="M113.192,228.473h13.749a1.317,1.317,0,0,1,0,2.635H113.192a1.317,1.317,0,0,1,0-2.635" fill="#fdfdfd" fill-rule="evenodd"/>
        <path id="Trazado_1294" data-name="Trazado 1294" d="M68.57,131.188h35.154a2.091,2.091,0,0,1,2.086,2.113v40.616a2.108,2.108,0,0,1-2.086,2.112H68.57a2.132,2.132,0,0,1-2.114-2.112V133.3a2.115,2.115,0,0,1,2.114-2.113" fill="#fdfdfd" fill-rule="evenodd"/>
        <path id="Trazado_1295" data-name="Trazado 1295" d="M69.338,125.59H146.26a8.808,8.808,0,0,1,8.782,8.782v38.474a8.808,8.808,0,0,1-8.782,8.782H69.338a8.832,8.832,0,0,1-8.81-8.782V134.372a8.832,8.832,0,0,1,8.81-8.782" fill="#93edf8" fill-rule="evenodd"/>
        <path id="Trazado_1296" data-name="Trazado 1296" d="M112.78,137.775h29.857a1.318,1.318,0,0,1,1.318,1.317,1.336,1.336,0,0,1-1.318,1.317H112.78a1.334,1.334,0,0,1-1.317-1.317,1.317,1.317,0,0,1,1.317-1.317" fill="#fdfdfd" fill-rule="evenodd"/>
        <path id="Trazado_1297" data-name="Trazado 1297" d="M112.78,144.2h29.857a1.337,1.337,0,0,1,1.318,1.317,1.319,1.319,0,0,1-1.318,1.318H112.78a1.318,1.318,0,0,1-1.317-1.318,1.335,1.335,0,0,1,1.317-1.317" fill="#fdfdfd" fill-rule="evenodd"/>
        <path id="Trazado_1298" data-name="Trazado 1298" d="M112.78,150.645h29.857a1.318,1.318,0,0,1,1.318,1.317,1.336,1.336,0,0,1-1.318,1.317H112.78a1.335,1.335,0,0,1-1.317-1.317,1.317,1.317,0,0,1,1.317-1.317" fill="#fdfdfd" fill-rule="evenodd"/>
        <path id="Trazado_1299" data-name="Trazado 1299" d="M112.78,157.067h29.857a1.337,1.337,0,0,1,1.318,1.317,1.319,1.319,0,0,1-1.318,1.318H112.78a1.318,1.318,0,0,1-1.317-1.318,1.335,1.335,0,0,1,1.317-1.317" fill="#fdfdfd" fill-rule="evenodd"/>
        <path id="Trazado_1300" data-name="Trazado 1300" d="M112.78,163.516h13.748a1.317,1.317,0,1,1,0,2.634H112.78a1.317,1.317,0,1,1,0-2.634" fill="#fdfdfd" fill-rule="evenodd"/>
      </g>
    </g>
    <g id="Grupo_276" data-name="Grupo 276">
      <g id="Grupo_275" data-name="Grupo 275" clip-path="url(#clip-path-8)">
        <path id="Trazado_1301" data-name="Trazado 1301" d="M82.483,157.122c.192-.027,7.52.219,7.52.219,2.113-2.058,7.628-12.02,1.015-16.712-3.925-2.772-7.629-.714-8.59.878,0,0-.549-.3-1.674.576-6.256,4.857,1.538,15.066,1.729,15.039" fill="#081723" fill-rule="evenodd"/>
        <path id="Trazado_1302" data-name="Trazado 1302" d="M80.205,158.137H92.746a6.36,6.36,0,0,1,6.34,6.339v22.366H73.838V164.476a6.365,6.365,0,0,1,6.367-6.339" fill="#3b4e71" fill-rule="evenodd"/>
        <path id="Trazado_1303" data-name="Trazado 1303" d="M90,157.341c-.191,2.388-1.756,4.227-3.622,4.227-1.894,0-3.431-1.839-3.623-4.227a9.523,9.523,0,0,1-3.1-7.354c0-4.8,2.992-8.7,6.724-8.7,3.705,0,6.724,3.9,6.724,8.7a9.524,9.524,0,0,1-3.1,7.354" fill="#ffad8f" fill-rule="evenodd"/>
        <path id="Trazado_1304" data-name="Trazado 1304" d="M80.069,143.757c2.14-5.461,6.668-5.955,6.668-5.955a10.188,10.188,0,0,1,6.311,6.257s-6.942,1.674-7.216,1.509c-.275-.137-5.763-1.811-5.763-1.811" fill="#081723" fill-rule="evenodd"/>
        <path id="Trazado_1305" data-name="Trazado 1305" d="M81.083,142.3c.055-.22-.494-.192.659-1.866a11.7,11.7,0,0,1,3.073-2.854v.823l1.976-1.591,1.757,1.811.438-.878a11.256,11.256,0,0,1,2.333,2.277,14.427,14.427,0,0,1,1.208,2.388Z" fill="#081723" fill-rule="evenodd"/>
        <path id="Trazado_1306" data-name="Trazado 1306" d="M79.711,152.045a1.724,1.724,0,0,0,1.619-1.811,1.614,1.614,0,1,0-3.211,0,1.721,1.721,0,0,0,1.592,1.811" fill="#ffad8f" fill-rule="evenodd"/>
        <path id="Trazado_1307" data-name="Trazado 1307" d="M93.021,152.045a1.723,1.723,0,0,0,1.619-1.811,1.7,1.7,0,0,0-1.619-1.784,1.717,1.717,0,0,0-1.619,1.784,1.742,1.742,0,0,0,1.619,1.811" fill="#ffad8f" fill-rule="evenodd"/>
        <path id="Trazado_1308" data-name="Trazado 1308" d="M79.876,146.172l.329,4.144-.961-2.278Z" fill="#081723" fill-rule="evenodd"/>
        <path id="Trazado_1309" data-name="Trazado 1309" d="M92.664,145.98l-.329,4.144.96-2.278Z" fill="#081723" fill-rule="evenodd"/>
      </g>
    </g>
    <g id="Grupo_281" data-name="Grupo 281">
      <g id="Grupo_280" data-name="Grupo 280" clip-path="url(#clip-path)">
        <path id="Trazado_1311" data-name="Trazado 1311" d="M153.188,217.516h18.543A1.279,1.279,0,0,1,173,218.783v11.494H151.92V218.783a1.279,1.279,0,0,1,1.268-1.267" fill="#ff9733" fill-rule="evenodd"/>
        <path id="Trazado_1312" data-name="Trazado 1312" d="M154.156,218.691h0a.591.591,0,0,1,.6.576V230.6h-1.176V219.267a.57.57,0,0,1,.577-.576" fill="#ff8810" fill-rule="evenodd"/>
        <path id="Trazado_1313" data-name="Trazado 1313" d="M157.495,218.691h0a.584.584,0,0,1,.575.576V230.6H156.9V219.267a.591.591,0,0,1,.6-.576" fill="#ff8810" fill-rule="evenodd"/>
        <path id="Trazado_1314" data-name="Trazado 1314" d="M160.812,218.691h0a.57.57,0,0,1,.576.576V230.6h-1.175V219.267a.59.59,0,0,1,.6-.576" fill="#ff8810" fill-rule="evenodd"/>
        <path id="Trazado_1315" data-name="Trazado 1315" d="M164.129,218.691h0a.57.57,0,0,1,.575.576V230.6H163.53V219.267a.59.59,0,0,1,.6-.576" fill="#ff8810" fill-rule="evenodd"/>
        <path id="Trazado_1316" data-name="Trazado 1316" d="M167.445,218.691h0a.57.57,0,0,1,.576.576V230.6h-1.175V219.267a.59.59,0,0,1,.6-.576" fill="#ff8810" fill-rule="evenodd"/>
        <path id="Trazado_1317" data-name="Trazado 1317" d="M170.763,218.691h0a.57.57,0,0,1,.576.576V230.6h-1.175V219.267a.59.59,0,0,1,.6-.576" fill="#ff8810" fill-rule="evenodd"/>
        <path id="Trazado_1318" data-name="Trazado 1318" d="M146.461,230.277h31.995a4.056,4.056,0,0,1,4.055,4.031v39.3a4.056,4.056,0,0,1-4.055,4.031H146.461a4.035,4.035,0,0,1-4.03-4.031v-39.3a4.035,4.035,0,0,1,4.03-4.031" fill="#fdfdfd" fill-rule="evenodd"/>
        <rect id="Rectángulo_139" data-name="Rectángulo 139" width="40.08" height="18.727" transform="translate(142.431 245.503)" fill="#ff9733"/>
        <path id="Trazado_1319" data-name="Trazado 1319" d="M169.5,268.307h10.872v10H169.5a5,5,0,1,1,0-10" fill="#3b4e71" fill-rule="evenodd"/>
        <path id="Trazado_1320" data-name="Trazado 1320" d="M191.24,268.307H180.368v10H191.24a5,5,0,1,0,0-10" fill="#ff9733" fill-rule="evenodd"/>
        <path id="Trazado_1321" data-name="Trazado 1321" d="M127.85,265.635a6.46,6.46,0,1,1-2.488,8.776,6.469,6.469,0,0,1,2.488-8.776" fill="#dbdbdc" fill-rule="evenodd"/>
        <path id="Trazado_1322" data-name="Trazado 1322" d="M128.1,266.073a5.95,5.95,0,1,1-2.3,8.108,5.943,5.943,0,0,1,2.3-8.108" fill="#fdfdfd" fill-rule="evenodd"/>
        <path id="Trazado_1323" data-name="Trazado 1323" d="M135.774,267.709l-10.3,5.758a5.117,5.117,0,0,0,.322.715c.139.23.277.437.415.645l10.32-5.759a4.693,4.693,0,0,0-.346-.691,3.987,3.987,0,0,0-.414-.668" fill="#dbdbdc" fill-rule="evenodd"/>
        <g id="Grupo_279" data-name="Grupo 279" opacity="0.43">
          <g id="Grupo_278" data-name="Grupo 278">
            <g id="Grupo_277" data-name="Grupo 277" clip-path="url(#clip-path-10)">
              <path id="Trazado_1324" data-name="Trazado 1324" d="M171.131,269.874h20.294a1.521,1.521,0,0,1,0,3.041H171.131a1.521,1.521,0,0,1,0-3.041" fill="#eceeee" fill-rule="evenodd"/>
            </g>
          </g>
        </g>
      </g>
    </g>
  </g>
</svg>
