<svg id="Grupo_185" data-name="Grupo 185" xmlns="http://www.w3.org/2000/svg" xmlns:xlink="http://www.w3.org/1999/xlink" width="122.279" height="121.595" viewBox="0 0 122.279 121.595">
  <defs>
    <clipPath id="clip-path">
      <rect id="Rectángulo_72" data-name="Rectángulo 72" width="122.279" height="121.595" fill="none"/>
    </clipPath>
  </defs>
  <g id="Grupo_184" data-name="Grupo 184" clip-path="url(#clip-path)">
    <path id="Trazado_266" data-name="Trazado 266" d="M117.26,60.8A58.63,58.63,0,1,1,58.63,2.168,58.631,58.631,0,0,1,117.26,60.8" fill="#fff"/>
    <path id="Trazado_267" data-name="Trazado 267" d="M61.482,121.6a60.8,60.8,0,1,1,60.8-60.8,60.866,60.866,0,0,1-60.8,60.8m0-117.259A56.462,56.462,0,1,0,117.944,60.8,56.526,56.526,0,0,0,61.482,4.336" fill="#3e145e"/>
    <path id="Trazado_268" data-name="Trazado 268" d="M75.656,60.87A13.792,13.792,0,1,1,60.918,48.511,13.6,13.6,0,0,1,75.656,60.87" fill="#ffe227"/>
    <path id="Trazado_269" data-name="Trazado 269" d="M40.716,38.91a8.034,8.034,0,1,1,8.034-8.034,8.043,8.043,0,0,1-8.034,8.034m0-13.494a5.46,5.46,0,1,0,5.46,5.46,5.466,5.466,0,0,0-5.46-5.46" fill="#3e145e"/>
    <path id="Trazado_270" data-name="Trazado 270" d="M49.06,58.366a4.451,4.451,0,0,1-3.806-6.75l3.313-5.481-2.586-3.879a18.416,18.416,0,0,1-10.528,0l-2.587,3.879,3.312,5.481a4.449,4.449,0,0,1-7.454,4.85l-5.351-7.654a4.148,4.148,0,0,1-.117-4.584l5.919-8.636A1.287,1.287,0,0,1,31.3,37.048l-5.889,8.591a1.565,1.565,0,0,0,.073,1.7l5.351,7.653a1.875,1.875,0,0,0,3.142-2.045l-3.734-6.179a1.289,1.289,0,0,1,.03-1.38l3.584-5.374a1.288,1.288,0,0,1,1.507-.5,15.816,15.816,0,0,0,10.71,0,1.287,1.287,0,0,1,1.507.5l3.583,5.374a1.291,1.291,0,0,1,.031,1.38l-3.735,6.18A1.875,1.875,0,0,0,50.6,54.991l5.352-7.654a1.579,1.579,0,0,0,.044-1.742L50.136,37.05A1.287,1.287,0,1,1,52.259,35.6l5.888,8.589a4.16,4.16,0,0,1-.088,4.628l-5.351,7.654a4.433,4.433,0,0,1-3.254,1.882c-.132.012-.264.018-.394.018" fill="#3e145e"/>
    <path id="Trazado_271" data-name="Trazado 271" d="M83.3,38.91a8.034,8.034,0,1,1,8.034-8.034A8.043,8.043,0,0,1,83.3,38.91m0-13.494a5.46,5.46,0,1,0,5.46,5.46,5.466,5.466,0,0,0-5.46-5.46" fill="#3e145e"/>
    <path id="Trazado_272" data-name="Trazado 272" d="M74.957,58.366q-.195,0-.393-.018a4.435,4.435,0,0,1-3.256-1.882l-5.35-7.654a4.144,4.144,0,0,1-.117-4.583l5.918-8.635a1.287,1.287,0,1,1,2.123,1.455l-5.888,8.59a1.56,1.56,0,0,0,.073,1.7l5.35,7.655a1.866,1.866,0,0,0,1.373.793,1.841,1.841,0,0,0,1.49-.542,1.871,1.871,0,0,0,.279-2.3l-3.735-6.179a1.291,1.291,0,0,1,.031-1.38l3.583-5.374a1.29,1.29,0,0,1,1.507-.5,15.819,15.819,0,0,0,10.711,0,1.288,1.288,0,0,1,1.507.5l3.582,5.374a1.289,1.289,0,0,1,.031,1.38l-3.734,6.18a1.871,1.871,0,0,0,.278,2.3,1.85,1.85,0,0,0,1.491.542,1.872,1.872,0,0,0,1.374-.793l5.349-7.654a1.575,1.575,0,0,0,.044-1.742L92.72,37.05A1.287,1.287,0,0,1,94.843,35.6l5.888,8.589a4.163,4.163,0,0,1-.087,4.628l-5.351,7.654a4.449,4.449,0,0,1-7.455-4.85l3.312-5.481-2.586-3.879a18.424,18.424,0,0,1-10.528,0L75.45,46.135l3.313,5.481a4.451,4.451,0,0,1-3.806,6.75" fill="#3e145e"/>
    <path id="Trazado_273" data-name="Trazado 273" d="M62.009,106.063a8.035,8.035,0,1,1,8.034-8.035,8.043,8.043,0,0,1-8.034,8.035m0-13.5a5.46,5.46,0,1,0,5.46,5.46,5.467,5.467,0,0,0-5.46-5.46" fill="#3e145e"/>
    <path id="Trazado_274" data-name="Trazado 274" d="M72.957,93.184A1.286,1.286,0,0,1,71.9,91.17l5.419-7.9a1.563,1.563,0,0,0-.073-1.7l-5.35-7.653a1.875,1.875,0,0,0-3.142,2.044l3.734,6.18a1.289,1.289,0,0,1-.03,1.38L68.871,88.89a1.283,1.283,0,0,1-1.507.5,15.828,15.828,0,0,0-10.712,0,1.286,1.286,0,0,1-1.507-.5l-3.582-5.373a1.289,1.289,0,0,1-.031-1.38l3.735-6.18a1.875,1.875,0,0,0-3.142-2.044l-5.351,7.654a1.577,1.577,0,0,0-.044,1.742l5.39,7.861A1.287,1.287,0,1,1,50,92.625l-5.419-7.9a4.163,4.163,0,0,1,.087-4.628l5.351-7.654a4.449,4.449,0,0,1,7.453,4.851l-3.311,5.48,2.586,3.879a18.39,18.39,0,0,1,10.528,0l2.586-3.879-3.311-5.481A4.449,4.449,0,0,1,74,72.438l5.351,7.654a4.15,4.15,0,0,1,.117,4.583l-5.449,7.95a1.285,1.285,0,0,1-1.063.559" fill="#3e145e"/>
    <path id="Trazado_275" data-name="Trazado 275" d="M83.878,84.578H78.814a1.287,1.287,0,0,1,0-2.574h5.064a4.9,4.9,0,0,0,4.891-4.89v-16.3a1.287,1.287,0,0,1,2.574,0v16.3a7.474,7.474,0,0,1-7.465,7.464" fill="#3e145e"/>
    <path id="Trazado_276" data-name="Trazado 276" d="M45.2,84.578H40.138a7.473,7.473,0,0,1-7.465-7.464v-16.3a1.287,1.287,0,0,1,2.574,0v16.3A4.9,4.9,0,0,0,40.138,82H45.2a1.287,1.287,0,1,1,0,2.574" fill="#3e145e"/>
    <path id="Trazado_277" data-name="Trazado 277" d="M68.739,43.562H55.277a1.287,1.287,0,0,1,0-2.574H68.739a1.287,1.287,0,1,1,0,2.574" fill="#3e145e"/>
    <path id="Trazado_278" data-name="Trazado 278" d="M72.321,73.8a1.286,1.286,0,0,1-.922-2.184,13.121,13.121,0,0,0,2.747-14.077,1.287,1.287,0,1,1,2.383-.971,15.692,15.692,0,0,1-3.285,16.843,1.283,1.283,0,0,1-.923.389" fill="#3e145e"/>
    <path id="Trazado_279" data-name="Trazado 279" d="M67.909,50.645a1.3,1.3,0,0,1-.528-.114,13.206,13.206,0,0,0-10.745,0,1.287,1.287,0,0,1-1.059-2.347,15.784,15.784,0,0,1,12.862,0,1.288,1.288,0,0,1-.53,2.461" fill="#3e145e"/>
    <path id="Trazado_280" data-name="Trazado 280" d="M51.7,73.807a1.286,1.286,0,0,1-.922-.389,15.7,15.7,0,0,1-3.288-16.849,1.287,1.287,0,1,1,2.383.971,13.124,13.124,0,0,0,2.75,14.082,1.288,1.288,0,0,1-.923,2.185" fill="#3e145e"/>
    <path id="Trazado_281" data-name="Trazado 281" d="M62.009,78.159a15.606,15.606,0,0,1-5.788-1.1,1.287,1.287,0,0,1,.952-2.392,13.209,13.209,0,0,0,9.671,0,1.287,1.287,0,0,1,.95,2.392,15.591,15.591,0,0,1-5.785,1.1" fill="#3e145e"/>
    <path id="Trazado_282" data-name="Trazado 282" d="M64.624,71.106H59.392A1.287,1.287,0,0,1,58.1,69.819V66.387H54.673A1.287,1.287,0,0,1,53.386,65.1V59.866a1.287,1.287,0,0,1,1.287-1.286H58.1V55.148a1.287,1.287,0,0,1,1.287-1.287h5.232a1.287,1.287,0,0,1,1.287,1.287V58.58h3.433a1.287,1.287,0,0,1,1.287,1.286V65.1a1.287,1.287,0,0,1-1.287,1.287H65.911v3.432a1.287,1.287,0,0,1-1.287,1.287m-3.945-2.574h2.659V65.1a1.286,1.286,0,0,1,1.286-1.287h3.434V61.154H64.624a1.287,1.287,0,0,1-1.286-1.288V56.435H60.679v3.431a1.288,1.288,0,0,1-1.287,1.288H55.96v2.659h3.432A1.287,1.287,0,0,1,60.679,65.1Z" fill="#3e145e"/>
  </g>
</svg>
