<svg id="Grupo_183" data-name="Grupo 183" xmlns="http://www.w3.org/2000/svg" xmlns:xlink="http://www.w3.org/1999/xlink" width="122.279" height="121.595" viewBox="0 0 122.279 121.595">
  <defs>
    <clipPath id="clip-path">
      <rect id="Rectángulo_71" data-name="Rectángulo 71" width="122.279" height="121.595" fill="none"/>
    </clipPath>
  </defs>
  <g id="Grupo_182" data-name="Grupo 182" clip-path="url(#clip-path)">
    <path id="Trazado_223" data-name="Trazado 223" d="M117.259,60.8A58.63,58.63,0,1,1,58.629,2.168,58.63,58.63,0,0,1,117.259,60.8" fill="#fff"/>
    <path id="Trazado_224" data-name="Trazado 224" d="M61.481,121.6a60.8,60.8,0,1,1,60.8-60.8,60.866,60.866,0,0,1-60.8,60.8m0-117.259A56.462,56.462,0,1,0,117.943,60.8,56.526,56.526,0,0,0,61.481,4.336" fill="#3e145e"/>
    <path id="Trazado_225" data-name="Trazado 225" d="M25.221,23.186H39.936a3.472,3.472,0,0,1,3.472,3.473V60.646a3.473,3.473,0,0,1-3.472,3.474H25.221a3.474,3.474,0,0,1-3.474-3.474V26.659a3.473,3.473,0,0,1,3.474-3.473" fill="#ffe227"/>
    <path id="Trazado_226" data-name="Trazado 226" d="M53.833,72.919a6.406,6.406,0,0,1-6.393-6.842l1.188-17.422a.99.99,0,0,1,.987-.922H56.3a.989.989,0,1,1,0,1.978H50.539l-1.125,16.5a4.434,4.434,0,0,0,3.43,4.621V58.054a.988.988,0,1,1,1.977,0V71.93a.988.988,0,0,1-.988.989" fill="#3e145e"/>
    <path id="Trazado_227" data-name="Trazado 227" d="M60.346,96H53.832a.989.989,0,0,1-.989-.989V67.182a.989.989,0,0,1,1.978,0V94.026h4.536V71.132a.989.989,0,1,1,1.978,0V95.015a.989.989,0,0,1-.989.989" fill="#3e145e"/>
    <path id="Trazado_228" data-name="Trazado 228" d="M60.346,45.527A6.527,6.527,0,1,1,66.872,39a6.534,6.534,0,0,1-6.526,6.527m0-11.076A4.549,4.549,0,1,0,64.895,39a4.554,4.554,0,0,0-4.549-4.549" fill="#3e145e"/>
    <path id="Trazado_229" data-name="Trazado 229" d="M89.643,72.919a.988.988,0,0,1-.988-.989V58.054a.989.989,0,1,1,1.977,0V70.832a4.434,4.434,0,0,0,3.43-4.621l-1.125-16.5H87.178a.989.989,0,1,1,0-1.978h6.683a.99.99,0,0,1,.987.922l1.188,17.422a6.406,6.406,0,0,1-6.393,6.842" fill="#3e145e"/>
    <path id="Trazado_230" data-name="Trazado 230" d="M89.643,96H83.13a.989.989,0,0,1-.989-.989V71.132a.989.989,0,1,1,1.978,0V94.026h4.536V67.182a.989.989,0,1,1,1.977,0V95.015a.989.989,0,0,1-.989.989" fill="#3e145e"/>
    <path id="Trazado_231" data-name="Trazado 231" d="M77.591,49.793H65.883a.989.989,0,0,1,0-1.978H77.591a.989.989,0,0,1,0,1.978" fill="#3e145e"/>
    <path id="Trazado_232" data-name="Trazado 232" d="M83.131,45.527A6.527,6.527,0,1,1,89.656,39a6.533,6.533,0,0,1-6.525,6.527m0-11.076A4.549,4.549,0,1,0,87.678,39a4.555,4.555,0,0,0-4.547-4.549" fill="#3e145e"/>
    <path id="Trazado_233" data-name="Trazado 233" d="M98.931,96.126H44.544a.989.989,0,0,1,0-1.978H98.931a.989.989,0,0,1,0,1.978" fill="#3e145e"/>
    <path id="Trazado_234" data-name="Trazado 234" d="M71.737,96a.988.988,0,0,1-.988-.989v-11.6a.988.988,0,1,1,1.977,0v11.6a.989.989,0,0,1-.989.989" fill="#3e145e"/>
    <path id="Trazado_235" data-name="Trazado 235" d="M67.46,81.854a.989.989,0,0,1-.989-.989v-8.32a.989.989,0,0,1,1.978,0v8.32a.989.989,0,0,1-.989.989" fill="#3e145e"/>
    <path id="Trazado_236" data-name="Trazado 236" d="M71.737,96H67.46a.99.99,0,0,1-.99-.989V80.864a.989.989,0,0,1,1.979,0V94.026h3.288a.989.989,0,0,1,0,1.978" fill="#3e145e"/>
    <path id="Trazado_237" data-name="Trazado 237" d="M76.016,96H71.739a.989.989,0,1,1,0-1.978h3.288V80.864a.989.989,0,0,1,1.978,0V95.015a.989.989,0,0,1-.989.989" fill="#3e145e"/>
    <path id="Trazado_238" data-name="Trazado 238" d="M76.016,81.854a.989.989,0,0,1-.989-.989v-8.32a.989.989,0,0,1,1.978,0v7.136a2.582,2.582,0,0,0,.881-.61,2.552,2.552,0,0,0,.7-1.912l-.528-9.43H65.418l-.528,9.43a2.572,2.572,0,0,0,2.569,2.717.989.989,0,1,1,0,1.978,4.551,4.551,0,0,1-4.544-4.806l.538-9.616a1.782,1.782,0,0,1,1.778-1.681H78.245a1.781,1.781,0,0,1,1.777,1.682l.538,9.615a4.549,4.549,0,0,1-4.544,4.806" fill="#3e145e"/>
    <path id="Trazado_239" data-name="Trazado 239" d="M76.016,80.7H67.459a.989.989,0,0,1,0-1.978h8.557a.989.989,0,0,1,0,1.978" fill="#3e145e"/>
    <path id="Trazado_240" data-name="Trazado 240" d="M71.737,64.119a4.39,4.39,0,1,1,4.391-4.39,4.4,4.4,0,0,1-4.391,4.39m0-6.8a2.412,2.412,0,1,0,2.413,2.412,2.415,2.415,0,0,0-2.413-2.412" fill="#3e145e"/>
    <path id="Trazado_241" data-name="Trazado 241" d="M50.223,30.353h-.834v-.834a.469.469,0,1,0-.937,0v.834h-.834a.469.469,0,1,0,0,.937h.834v.834a.469.469,0,1,0,.937,0V31.29h.834a.469.469,0,0,0,0-.937" fill="#3e145e"/>
    <path id="Trazado_242" data-name="Trazado 242" d="M45.7,26.534h-.006a.468.468,0,0,0-.463.474l.01.834a.468.468,0,0,0,.469.463h.006a.47.47,0,0,0,.463-.474L46.168,27a.47.47,0,0,0-.469-.463" fill="#3e145e"/>
    <path id="Trazado_243" data-name="Trazado 243" d="M45.7,52.243h-.006a.469.469,0,0,0-.463.474l.01.834a.468.468,0,0,0,.469.463h.006a.47.47,0,0,0,.463-.474l-.01-.834a.47.47,0,0,0-.469-.463" fill="#3e145e"/>
    <path id="Trazado_244" data-name="Trazado 244" d="M47.484,35.552h-.006a.468.468,0,0,0-.463.474l.01.834a.468.468,0,0,0,.468.463H47.5a.47.47,0,0,0,.463-.474l-.01-.834a.468.468,0,0,0-.468-.463" fill="#3e145e"/>
    <path id="Trazado_245" data-name="Trazado 245" d="M40.33,22.842H23.983a3.084,3.084,0,0,0-3.08,3.08V61.175a3.083,3.083,0,0,0,3.08,3.08H40.33a3.082,3.082,0,0,0,3.079-3.08V25.922a3.083,3.083,0,0,0-3.079-3.08m-18.489,6.7H42.473V57.535H21.841Zm2.142-5.763H40.33a2.145,2.145,0,0,1,2.143,2.142v2.684H21.841V25.922a2.145,2.145,0,0,1,2.142-2.142M40.33,63.318H23.983a2.145,2.145,0,0,1-2.142-2.143v-2.7H42.473v2.7a2.146,2.146,0,0,1-2.143,2.143" fill="#3e145e"/>
    <path id="Trazado_246" data-name="Trazado 246" d="M30.125,26.695h4.063a.469.469,0,1,0,0-.937H30.125a.469.469,0,1,0,0,.937" fill="#3e145e"/>
    <path id="Trazado_247" data-name="Trazado 247" d="M32.573,60.384h-.834a.469.469,0,1,0,0,.937h.834a.469.469,0,1,0,0-.937" fill="#3e145e"/>
    <path id="Trazado_248" data-name="Trazado 248" d="M18.6,55.5h-.006a.468.468,0,0,0-.463.474l.01.834a.469.469,0,0,0,.469.463h.006a.47.47,0,0,0,.463-.474l-.01-.834A.469.469,0,0,0,18.6,55.5" fill="#3e145e"/>
    <path id="Trazado_249" data-name="Trazado 249" d="M18.6,33.231h-.006a.468.468,0,0,0-.463.474l.01.834A.469.469,0,0,0,18.61,35h.006a.47.47,0,0,0,.463-.474l-.01-.834a.468.468,0,0,0-.469-.463" fill="#3e145e"/>
    <path id="Trazado_250" data-name="Trazado 250" d="M14.791,45.838h-.006a.468.468,0,0,0-.463.474l.01.834a.468.468,0,0,0,.469.463h.005a.47.47,0,0,0,.464-.474l-.011-.834a.468.468,0,0,0-.468-.463" fill="#3e145e"/>
    <path id="Trazado_251" data-name="Trazado 251" d="M18.6,52.533a.469.469,0,1,0,0-.937H18v-.6a.469.469,0,0,0-.937,0v.6h-.6a.469.469,0,0,0,0,.937h.6v.6a.469.469,0,0,0,.937,0v-.6Z" fill="#3e145e"/>
    <path id="Trazado_252" data-name="Trazado 252" d="M27.063,43.443a5.961,5.961,0,0,1-1.846-.286.376.376,0,0,1-.119-.641,2.562,2.562,0,0,0,.5-.635,5.044,5.044,0,0,0,.689-2.59v-1.4A5.682,5.682,0,0,1,28.044,33.7a.377.377,0,0,1,.546.519A4.955,4.955,0,0,0,27.035,37.9v1.388a5.8,5.8,0,0,1-.794,2.976c-.07.115-.138.221-.208.32a4.282,4.282,0,0,0,3.9-1.048.377.377,0,1,1,.541.524,4.624,4.624,0,0,1-3.415,1.38" fill="#3e145e"/>
    <path id="Trazado_253" data-name="Trazado 253" d="M36.107,54.109a.376.376,0,0,1-.377-.376V51.269a.377.377,0,1,1,.753,0v2.464a.376.376,0,0,1-.376.376" fill="#3e145e"/>
    <path id="Trazado_254" data-name="Trazado 254" d="M28.373,54.109A.376.376,0,0,1,28,53.733V51.269a.376.376,0,1,1,.752,0v2.464a.376.376,0,0,1-.376.376" fill="#3e145e"/>
    <path id="Trazado_255" data-name="Trazado 255" d="M32.27,43.082a3.141,3.141,0,0,1-2.807-1.695c-.095-.179-.186-.369-.271-.564a.323.323,0,0,1-.031-.1,8.191,8.191,0,0,1-.137-2.066.374.374,0,0,1,.326-.336,2.959,2.959,0,0,0,1.912-1.331.377.377,0,0,1,.656.045s.563.991,3.162.9a.378.378,0,0,1,.387.356,14.023,14.023,0,0,1-.127,2.42.468.468,0,0,1-.015.067s-.015.059-.045.149a3.106,3.106,0,0,1-2.73,2.14c-.094.008-.187.012-.28.012M29.9,40.553c.073.167.152.329.233.481a2.4,2.4,0,0,0,2.359,1.286,2.366,2.366,0,0,0,2.079-1.627c.016-.048.026-.084.031-.1a13.991,13.991,0,0,0,.126-1.893,4.566,4.566,0,0,1-3.128-.894A3.781,3.781,0,0,1,29.756,39a8.776,8.776,0,0,0,.139,1.554" fill="#3e145e"/>
    <path id="Trazado_256" data-name="Trazado 256" d="M39.97,54.11H24.508a.377.377,0,0,1-.376-.377V48.451a3.71,3.71,0,0,1,3.255-3.678l1.554-.189A1.611,1.611,0,0,0,30.3,43.558l.216-1.281a.378.378,0,0,1,.557-.264,2.484,2.484,0,0,0,2.36.035.376.376,0,0,1,.546.271l.209,1.251a1.615,1.615,0,0,0,1.354,1.014l1.553.189a3.709,3.709,0,0,1,3.255,3.678v5.282a.376.376,0,0,1-.376.377m-15.085-.754H39.594v-4.9A2.954,2.954,0,0,0,37,45.521l-1.552-.19a2.349,2.349,0,0,1-2-1.625l-.133-.792a3.261,3.261,0,0,1-2.139-.027l-.137.807a2.348,2.348,0,0,1-2,1.637l-1.552.19a2.954,2.954,0,0,0-2.594,2.93Z" fill="#3e145e"/>
    <path id="Trazado_257" data-name="Trazado 257" d="M35.481,35.332a.7.7,0,0,1-.22-.036,12.823,12.823,0,0,0-3.112-.435,12.813,12.813,0,0,0-3.1.435.675.675,0,0,1-.869-.454l-.7-2.454a.973.973,0,0,1,.534-1.16,10.11,10.11,0,0,1,4.145-.787,10.1,10.1,0,0,1,4.145.787.972.972,0,0,1,.535,1.16l-.7,2.454a.675.675,0,0,1-.649.49m-3.327-4.139a9.339,9.339,0,0,0-3.833.72.223.223,0,0,0-.122.268l.682,2.377a13.582,13.582,0,0,1,3.268-.449,13.593,13.593,0,0,1,3.279.449l.682-2.377a.224.224,0,0,0-.122-.268,9.336,9.336,0,0,0-3.834-.72" fill="#3e145e"/>
    <path id="Trazado_258" data-name="Trazado 258" d="M37.248,43.442a4.655,4.655,0,0,1-3.276-1.24.376.376,0,0,1,.517-.547,4.327,4.327,0,0,0,3.787.932c-.069-.1-.138-.205-.208-.32a5.8,5.8,0,0,1-.794-2.976v-1.4a4.939,4.939,0,0,0-1.555-3.668.376.376,0,1,1,.545-.518,5.665,5.665,0,0,1,1.762,4.169v1.421a5.041,5.041,0,0,0,.688,2.59,2.586,2.586,0,0,0,.5.635.376.376,0,0,1-.118.641,6,6,0,0,1-1.845.285" fill="#3e145e"/>
    <path id="Trazado_259" data-name="Trazado 259" d="M32.24,33.721a.376.376,0,0,1-.377-.376V32.021a.377.377,0,0,1,.753,0v1.324a.376.376,0,0,1-.376.376" fill="#3e145e"/>
    <path id="Trazado_260" data-name="Trazado 260" d="M32.9,33.059H31.578a.376.376,0,0,1,0-.752H32.9a.376.376,0,1,1,0,.752" fill="#3e145e"/>
    <path id="Trazado_261" data-name="Trazado 261" d="M29.26,50.137h-.115a.376.376,0,1,1,0-.752h.115a.154.154,0,0,0,.153-.154v-.944a1.1,1.1,0,0,0-2.194,0v.944a.153.153,0,0,0,.152.154h.116a.376.376,0,1,1,0,.752h-.116a.906.906,0,0,1-.905-.906v-.944a1.85,1.85,0,1,1,3.7,0v.944a.906.906,0,0,1-.905.906" fill="#3e145e"/>
    <path id="Trazado_262" data-name="Trazado 262" d="M28.316,47.19a.376.376,0,0,1-.376-.376V45.032a.376.376,0,1,1,.752,0v1.782a.376.376,0,0,1-.376.376" fill="#3e145e"/>
    <path id="Trazado_263" data-name="Trazado 263" d="M36.107,47.525a.376.376,0,0,1-.377-.376V45.032a.377.377,0,0,1,.753,0v2.117a.376.376,0,0,1-.376.376" fill="#3e145e"/>
    <path id="Trazado_264" data-name="Trazado 264" d="M36.107,49.166a1.181,1.181,0,1,1,1.181-1.18,1.183,1.183,0,0,1-1.181,1.18m0-1.609a.429.429,0,1,0,.428.429.43.43,0,0,0-.428-.429" fill="#3e145e"/>
    <path id="Trazado_265" data-name="Trazado 265" d="M42.766,54.109H21.542a.377.377,0,0,1,0-.753H42.766a.377.377,0,0,1,0,.753" fill="#3e145e"/>
  </g>
</svg>
