<svg id="Grupo_224" data-name="Grupo 224" xmlns="http://www.w3.org/2000/svg" xmlns:xlink="http://www.w3.org/1999/xlink" width="504.363" height="393.211" viewBox="0 0 504.363 393.211">
  <defs>
    <clipPath id="clip-path">
      <rect id="Rectángulo_117" data-name="Rectángulo 117" width="504.363" height="393.211" fill="none"/>
    </clipPath>
  </defs>
  <g id="Grupo_223" data-name="Grupo 223" clip-path="url(#clip-path)">
    <g id="Grupo_222" data-name="Grupo 222">
      <g id="Grupo_221" data-name="Grupo 221" clip-path="url(#clip-path)">
        <path id="Trazado_752" data-name="Trazado 752" d="M486.13,45.055c-22.164-30.691-57-47.341-94.74-44.8C359.257,2.416,329.336,16.089,297.172,18.2c-43.986,2.886-88.13-3.775-132.167-1.791S74.533,30.775,45.456,63.906C11.108,103.041-5.312,158.884,1.525,210.335c11.112,83.625,78.351,139.257,152.917,168.8,157.584,62.428,316.2-94.4,346.526-241.346,6.582-31.9,4.584-65.835-14.838-92.73" fill="#eceffe"/>
        <g id="Grupo_220" data-name="Grupo 220" opacity="0.7">
          <g id="Grupo_219" data-name="Grupo 219">
            <g id="Grupo_218" data-name="Grupo 218" clip-path="url(#clip-path)">
              <path id="Trazado_753" data-name="Trazado 753" d="M486.13,45.055c-22.164-30.691-57-47.341-94.74-44.8C359.257,2.416,329.336,16.089,297.172,18.2c-43.986,2.886-88.13-3.775-132.167-1.791S74.533,30.775,45.456,63.906C11.108,103.041-5.312,158.884,1.525,210.335c11.112,83.625,78.351,139.257,152.917,168.8,157.584,62.428,316.2-94.4,346.526-241.346,6.582-31.9,4.584-65.835-14.838-92.73" fill="#eceffe"/>
            </g>
          </g>
        </g>
        <rect id="Rectángulo_108" data-name="Rectángulo 108" width="68.639" height="162.698" transform="translate(326.507 230.513)" fill="#ffedca"/>
        <rect id="Rectángulo_109" data-name="Rectángulo 109" width="68.639" height="156.852" transform="translate(321.168 236.36)" fill="#ead5b0"/>
        <path id="Trazado_754" data-name="Trazado 754" d="M389.807,236.36H321.168V393.212l68.639-140.328Z" fill="#dbc197"/>
        <path id="Trazado_755" data-name="Trazado 755" d="M270.347,164.417H218.763l-15.805,69.146h51.584Z" fill="#dbc197"/>
        <path id="Trazado_756" data-name="Trazado 756" d="M274.886,164.417H223.3L207.5,233.563h51.584Z" fill="#ead5b0"/>
        <path id="Trazado_757" data-name="Trazado 757" d="M265.475,205.59l9.411-41.173H223.3l-11.511,50.36Z" fill="#dbc197"/>
        <rect id="Rectángulo_110" data-name="Rectángulo 110" width="78.807" height="9.152" transform="translate(207.025 225.174)" fill="#dbc197"/>
        <rect id="Rectángulo_111" data-name="Rectángulo 111" width="57.707" height="9.152" transform="translate(230.668 225.174)" fill="#f4e1c1"/>
        <rect id="Rectángulo_112" data-name="Rectángulo 112" width="234.514" height="9.915" transform="translate(149.128 238.298)" fill="#dbc197"/>
        <rect id="Rectángulo_113" data-name="Rectángulo 113" width="68.638" height="159.521" transform="translate(91.739 233.691)" fill="#ffedca"/>
        <path id="Trazado_758" data-name="Trazado 758" d="M319.995,19.773H129.368A11.18,11.18,0,0,0,118.25,32.126l15.275,144.9a11.182,11.182,0,0,0,11.119,10.008H335.271a11.181,11.181,0,0,0,11.12-12.353l-15.277-144.9a11.179,11.179,0,0,0-11.119-10.008" fill="#ead5b0"/>
        <path id="Trazado_759" data-name="Trazado 759" d="M119.611,45.028c32.108-7.223,71.049-9.279,112.45-4.683,38.793,4.308,74.2,13.84,102.974,26.616l-3.92-37.18A11.18,11.18,0,0,0,320,19.773H129.369a11.179,11.179,0,0,0-11.118,12.353Z" fill="#ddc69f"/>
        <path id="Trazado_760" data-name="Trazado 760" d="M330.291,19.773H139.664a11.18,11.18,0,0,0-11.118,12.353l15.275,144.9a11.181,11.181,0,0,0,11.119,10.008H345.567a11.181,11.181,0,0,0,11.12-12.353L341.41,29.781a11.179,11.179,0,0,0-11.119-10.008" fill="#ffedca"/>
        <rect id="Rectángulo_114" data-name="Rectángulo 114" width="292.856" height="12.202" transform="translate(102.29 230.513)" fill="#ffedca"/>
        <path id="Trazado_761" data-name="Trazado 761" d="M341.41,29.78a11.18,11.18,0,0,0-11.119-10.008H139.664a11.179,11.179,0,0,0-11.118,12.353l13.83,132.037H355.487Z" fill="#3f2d2a"/>
        <path id="Trazado_762" data-name="Trazado 762" d="M334.134,28.411h-200.2l14.041,135.751h200.2Z" fill="#80c4d8"/>
        <path id="Trazado_763" data-name="Trazado 763" d="M232.693,28.411H177.137c.091,1.362.146,2.738.146,4.131,0,25.8-15.877,46.712-35.463,46.712-.889,0-1.766-.058-2.638-.142l8.8,85.05H325.237s-48.81-114.27-92.544-135.751" fill="#58a9bf"/>
        <rect id="Rectángulo_115" data-name="Rectángulo 115" width="68.639" height="162.698" transform="translate(86.018 230.513)" fill="#ead5b0"/>
        <path id="Trazado_764" data-name="Trazado 764" d="M273,173.536c0-.474-3.191-.857-19.829-.857s-19.828.383-19.828.857,3.191.858,19.828.858S273,174.011,273,173.536" fill="#9e7a6f"/>
        <path id="Trazado_765" data-name="Trazado 765" d="M151.42,43.366H317.729L332.28,146.83l-169.143,2.217Z" fill="#f2e5c7"/>
        <path id="Trazado_766" data-name="Trazado 766" d="M167.367,54.5l2.425,23.124h24.252L191.21,54.736Z" fill="#fff6de"/>
        <path id="Trazado_767" data-name="Trazado 767" d="M207.5,54.5H310.15l1.819,9.467-102.384-.52Z" fill="#fff6de"/>
        <path id="Trazado_768" data-name="Trazado 768" d="M210.529,69.029H313.182L315,78.5l-102.384-.521Z" fill="#fff6de"/>
        <path id="Trazado_769" data-name="Trazado 769" d="M296.75,85.529h21.49L318.621,95l-21.434-.52Z" fill="#fff6de"/>
        <path id="Trazado_770" data-name="Trazado 770" d="M265.453,85.529h21.49L287.324,95l-21.434-.52Z" fill="#fff6de"/>
        <path id="Trazado_771" data-name="Trazado 771" d="M234.158,85.529h21.49L256.028,95l-21.434-.52Z" fill="#fff6de"/>
        <path id="Trazado_772" data-name="Trazado 772" d="M202.861,85.529h21.49L224.732,95l-21.434-.52Z" fill="#fff6de"/>
        <path id="Trazado_773" data-name="Trazado 773" d="M171.564,85.529h21.49L193.435,95,172,94.476Z" fill="#fff6de"/>
        <path id="Trazado_774" data-name="Trazado 774" d="M296.75,98.672h21.49l.381,9.467-21.434-.521Z" fill="#fff6de"/>
        <path id="Trazado_775" data-name="Trazado 775" d="M265.453,98.672h21.49l.381,9.467-21.434-.521Z" fill="#fff6de"/>
        <path id="Trazado_776" data-name="Trazado 776" d="M234.158,98.672h21.49l.381,9.467-21.434-.521Z" fill="#fff6de"/>
        <path id="Trazado_777" data-name="Trazado 777" d="M202.861,98.672h21.49l.381,9.467-21.434-.521Z" fill="#fff6de"/>
        <path id="Trazado_778" data-name="Trazado 778" d="M171.564,98.672h21.49l.381,9.467L172,107.618Z" fill="#fff6de"/>
        <path id="Trazado_779" data-name="Trazado 779" d="M296.75,111.815h21.49l.381,9.467-21.434-.521Z" fill="#fff6de"/>
        <path id="Trazado_780" data-name="Trazado 780" d="M265.453,111.815h21.49l.381,9.467-21.434-.521Z" fill="#fff6de"/>
        <path id="Trazado_781" data-name="Trazado 781" d="M234.158,111.815h21.49l.381,9.467-21.434-.521Z" fill="#fff6de"/>
        <path id="Trazado_782" data-name="Trazado 782" d="M202.861,111.815h21.49l.381,9.467-21.434-.521Z" fill="#fff6de"/>
        <path id="Trazado_783" data-name="Trazado 783" d="M171.564,111.815h21.49l.381,9.467L172,120.761Z" fill="#fff6de"/>
      </g>
    </g>
  </g>
</svg>
