<svg id="Grupo_198" data-name="Grupo 198" xmlns="http://www.w3.org/2000/svg" xmlns:xlink="http://www.w3.org/1999/xlink" width="695.255" height="396.988" viewBox="0 0 695.255 396.988">
  <defs>
    <clipPath id="clip-path">
      <rect id="Rectángulo_99" data-name="Rectángulo 99" width="695.255" height="396.988" fill="none"/>
    </clipPath>
    <clipPath id="clip-path-3">
      <rect id="Rectángulo_73" data-name="Rectángulo 73" width="504.363" height="393.211" transform="translate(128.122)" fill="none"/>
    </clipPath>
    <clipPath id="clip-path-4">
      <rect id="Rectángulo_78" data-name="Rectángulo 78" width="55.658" height="62.826" transform="translate(210.578 99.594)" fill="none"/>
    </clipPath>
    <clipPath id="clip-path-5">
      <rect id="Rectángulo_81" data-name="Rectángulo 81" width="48.601" height="40.845" transform="translate(38.398 128.217)" fill="none"/>
    </clipPath>
  </defs>
  <g id="Grupo_197" data-name="Grupo 197" clip-path="url(#clip-path)">
    <g id="Grupo_196" data-name="Grupo 196">
      <g id="Grupo_195" data-name="Grupo 195" clip-path="url(#clip-path)">
        <path id="Trazado_283" data-name="Trazado 283" d="M614.252,45.054c-22.164-30.691-57-47.341-94.74-44.8C487.379,2.415,457.458,16.089,425.294,18.2c-43.986,2.887-88.13-3.775-132.167-1.791S202.655,30.774,173.578,63.9c-34.348,39.135-50.768,94.978-43.931,146.43,11.112,83.624,78.351,139.257,152.917,168.8,157.584,62.428,316.2-94.4,346.526-241.347,6.582-31.895,4.584-65.835-14.838-92.73" fill="#eceffe"/>
        <g id="Grupo_188" data-name="Grupo 188" opacity="0.7">
          <g id="Grupo_187" data-name="Grupo 187">
            <g id="Grupo_186" data-name="Grupo 186" clip-path="url(#clip-path-3)">
              <path id="Trazado_284" data-name="Trazado 284" d="M614.252,45.054c-22.164-30.691-57-47.341-94.74-44.8C487.379,2.415,457.458,16.089,425.294,18.2c-43.986,2.887-88.13-3.775-132.167-1.791S202.655,30.774,173.578,63.9c-34.348,39.135-50.768,94.978-43.931,146.43,11.112,83.624,78.351,139.257,152.917,168.8,157.584,62.428,316.2-94.4,346.526-241.347,6.582-31.895,4.584-65.835-14.838-92.73" fill="#eceffe"/>
            </g>
          </g>
        </g>
        <path id="Trazado_285" data-name="Trazado 285" d="M149.479,166.485c2.768,1.856,5.487,3.639,9.98,12.588l-1.911,1.406c-3.539-2.943-9.96-5.164-10.658-6.822-.224-.568,1.649-7.813,2.589-7.172" fill="#ffcd9c"/>
        <path id="Trazado_286" data-name="Trazado 286" d="M148.342,174.868c-1.322-.838-6.57-2.352-6.361-3.253.32-1.4,4.5.339,6.257.921,2.285.749.1,2.332.1,2.332" fill="#ffcd9c"/>
        <path id="Trazado_287" data-name="Trazado 287" d="M149.221,168.785c-1.157-1.105-6.329-4.744-6.016-5.606.563-1.516,5.924,2.606,7.047,3.852,1.705,1.895-1.031,1.754-1.031,1.754" fill="#ffcd9c"/>
        <path id="Trazado_288" data-name="Trazado 288" d="M151.944,172.192c2.153-2.068-1.306-7.878-.731-9.566.79-2.352,4.245,7.363,5.2,10.182.942,2.775-4.468-.616-4.468-.616" fill="#ffcd9c"/>
        <path id="Trazado_289" data-name="Trazado 289" d="M148.074,171.276c-1.288-.877-7.022-4.132-6.8-5.029.343-1.422,5.984,2.04,7.378,2.83,2.09,1.219-.577,2.2-.577,2.2" fill="#ffcd9c"/>
        <path id="Trazado_290" data-name="Trazado 290" d="M325.907,151.617H295.265l-4.526,28.089H321.38Z" fill="#93625c"/>
        <path id="Trazado_291" data-name="Trazado 291" d="M318.276,167.069c-10.452-4.226-18.748-10.094-22.64-15.452h-.371l-4.526,28.089H321.38l1.751-10.869c-1.6-.531-3.221-1.108-4.855-1.768" fill="#75473f"/>
        <path id="Trazado_292" data-name="Trazado 292" d="M293.523,151.384l-26,130.921,4.493,7.205L296.31,151.384Z" fill="#75473f"/>
        <path id="Trazado_293" data-name="Trazado 293" d="M325.558,151.384,297.786,287.065l6.265,2.445,24.292-138.126Z" fill="#93625c"/>
        <path id="Trazado_294" data-name="Trazado 294" d="M221.41,45.751c-8.775-3.688-56.661,10.731-61.47,22.487s9.045,10.755,9.045,10.755C165,83.637,171.061,95.961,184.343,94.9l54.263,16.319c1.477-30.061-6.2-60.845-17.2-65.466" fill="#964c32"/>
        <path id="Trazado_295" data-name="Trazado 295" d="M221.687,45.89c.037.073.189.241.112.217C199.752,39.176,211.371,79,184.343,94.9l54.264,16.318c1.464-29.8-6.073-60.305-16.92-65.326" fill="#7c3621"/>
        <path id="Trazado_296" data-name="Trazado 296" d="M230.086,292.86l-4.116,95.767H228.8l9.146-96.082Z" fill="#75473f"/>
        <path id="Trazado_297" data-name="Trazado 297" d="M285.586,292.86l.513,95.767h-2.835l-5.531-96.082Z" fill="#75473f"/>
        <path id="Trazado_298" data-name="Trazado 298" d="M243.706,292.86l.577,95.767h2.834l4.437-96.082Z" fill="#75473f"/>
        <rect id="Rectángulo_74" data-name="Rectángulo 74" width="65.509" height="5.04" transform="translate(236.456 291.914)" fill="#75473f"/>
        <rect id="Rectángulo_75" data-name="Rectángulo 75" width="62.378" height="2.521" transform="translate(236.456 301.995)" fill="#75473f"/>
        <rect id="Rectángulo_76" data-name="Rectángulo 76" width="74.031" height="8.19" transform="translate(230.157 285.297)" fill="#75473f"/>
        <path id="Trazado_299" data-name="Trazado 299" d="M304.17,290.555l4.562,98.071H305.9l-9-92.286Z" fill="#93625c"/>
        <path id="Trazado_300" data-name="Trazado 300" d="M176.031,337.776s-10.02-68.995-2.862-80.861,57.716-12.305,80.569-18.9c3.936,13.624-21.966,47.654-21.966,47.654l5.9,36.285Z" fill="#fff3d2"/>
        <path id="Trazado_301" data-name="Trazado 301" d="M231.772,285.671a209.739,209.739,0,0,0,13.311-20.195H174.17l3.837,71.032,59.67-14.553Z" fill="#f4d198"/>
        <path id="Trazado_302" data-name="Trazado 302" d="M210.556,143.61c-4.54,4.567-8.275,55.687-18.061,64.725-4.565,4.217,9.517,23.12,18.069,18.259,13.227-7.515,15.907-35.129,15.456-46.873s-6.7-44.927-15.464-36.111" fill="#fff3d2"/>
        <path id="Trazado_303" data-name="Trazado 303" d="M226.02,179.721c-.351-9.2-4.26-31.528-10.146-36.56,3,6.487,2.921,22.1-.654,39.738-4.408,21.74-12.51,38.584-18.409,38.571,4.479,5.713,10.946,10.48,15.433,7.929,13.228-7.516,14.227-37.934,13.776-49.678" fill="#ffe2b8"/>
        <path id="Trazado_304" data-name="Trazado 304" d="M233.38,251.444c10.571-17.554.7-37.441-7.121-49.987-7.161-11.5-20.088-49.264-15.194-57.525s44.28-22.949,55.9-15.605S306.26,243.16,305.8,247.138s-2.8,11.8-9.054,11.491-63.361-7.185-63.361-7.185" fill="#fff3d2"/>
        <path id="Trazado_305" data-name="Trazado 305" d="M256.526,242.854c-53.622,2.263-67.724,9.507-67.724,9.507l69.846-2.671Z" fill="#ffe2b8"/>
        <path id="Trazado_306" data-name="Trazado 306" d="M237.374,241.218c.007-.538,10.3-14.545-12.709-51.358l-3.186,3.771c7.4,13.561,15.659,30.847,15.895,47.587" fill="#ffe2b8"/>
        <path id="Trazado_307" data-name="Trazado 307" d="M266.963,128.327c-2.146-1.356-2.962,4.637-6.607,4.6,9.766,30.159,21.714,112.207,21.065,115.6-.36,1.9-6.5,7.432-8.738,10.188,12.359,2.219,23.467,4.115,25.99,4.239,6.251.306,11.536-9.79,12-13.769s-32.091-113.518-43.709-120.862" fill="#ffe2b8"/>
        <path id="Trazado_308" data-name="Trazado 308" d="M257.576,190.005C240.337,164.955,252,127.359,252,127.359c-13.258,1.827-24.09,6.2-32.863,13.207-.8,15.491,17.717,44.825,24.222,54.383s11.31,24.719,14.335,54.384L269.559,249s5.255-33.949-11.983-59" fill="#ffd469"/>
        <path id="Trazado_309" data-name="Trazado 309" d="M246.665,194.308c-6.5-9.765-26.629-38.476-25.829-54.3,3.017-3.83-1.222.182-1.7.556-.8,15.491,17.717,44.825,24.222,54.384s11.31,24.718,14.335,54.383l3.245-.089c-3.029-29.893-7.813-45.242-14.272-54.936" fill="#ffab57"/>
        <path id="Trazado_310" data-name="Trazado 310" d="M262.986,285.671H189.841s-13.365-28.588-.743-33.415,73.143-7.057,84.654-1.487-10.766,34.9-10.766,34.9" fill="#7a4953"/>
        <path id="Trazado_311" data-name="Trazado 311" d="M273.751,250.769c-2.218-1.073-6.269-1.855-11.435-2.386-4.868,6.041-22.988,12.673-45.2,16.026-12.624,1.9-24.3,2.409-33.207,1.693,1.122,9.277,5.929,19.569,5.929,19.569h73.144s22.277-29.334,10.766-34.9" fill="#633540"/>
        <path id="Trazado_312" data-name="Trazado 312" d="M205.165,296.208c-.845-6.93-.227-38.919-4.283-42.825s-21.192-.8-25.929,7.389S187.49,365.257,189.34,386.419l3.367.365s13.3-83.643,12.458-90.576" fill="#7a4953"/>
        <path id="Trazado_313" data-name="Trazado 313" d="M207.793,296.589c-.6-4.9-1.779-22.532-3.855-33.814a177.468,177.468,0,0,1-1.7,25.444c-3.573,26.287-11.772,47.542-19.435,51.847,3.027,20.242,5.846,38.487,6.533,46.352l3.367.365s15.932-83.261,15.086-90.194" fill="#633540"/>
        <path id="Trazado_314" data-name="Trazado 314" d="M293.448,283.686l-60.984.956s-11.145-26.792-.62-31.509,60.987-7.609,70.583-2.5-8.979,33.058-8.979,33.058" fill="#7a4953"/>
        <path id="Trazado_315" data-name="Trazado 315" d="M302.427,250.628c-5.138-2.734-21.995-3.172-38.163-2.268-16.966.17-24.149,15.154-36.879,16.255.55,9.121,5.079,20.027,5.079,20.027l60.984-.956s18.577-27.958,8.979-33.058" fill="#633540"/>
        <path id="Trazado_316" data-name="Trazado 316" d="M258.128,293.309c-2.725-6.582-13.595-37.842-18.586-40.582s-20.648,4.936-22.956,14.258,40.913,99.262,48.535,119.553l3.347-.55s-7.612-86.1-10.34-92.679" fill="#7a4953"/>
        <path id="Trazado_317" data-name="Trazado 317" d="M258.623,291.616c-2.212-5.336-10.27-25.2-15.712-34.629-8.5,7.766,3.182,69.341,1.335,81.767,9.188,20.64,17.846,39.717,20.875,47.784l3.347-.55s-7.118-87.79-9.845-94.372" fill="#633540"/>
        <path id="Trazado_318" data-name="Trazado 318" d="M260.722,128.349c-5.41,4.008-19.236,53.506-30.734,61.358-5.361,3.663,5.973,26.394,15.419,22.5,14.6-6.027,29.488-43.86,31.367-55.363s-5.614-36.226-16.052-28.493" fill="#fff3d2"/>
        <path id="Trazado_319" data-name="Trazado 319" d="M271.339,131.073c1.277,4.831,1.8,9.637,1.233,13.083-1.879,11.5-19.389,47.444-33.994,53.471-3.356,1.385-6.95-.6-9.949-3.891.388,7.546,9.188,21.6,16.777,18.47,14.606-6.028,32.117-41.969,34-53.472,1.2-7.354-2.505-20.879-8.063-27.661" fill="#ffe2b8"/>
        <rect id="Rectángulo_77" data-name="Rectángulo 77" width="13.232" height="10.446" transform="translate(152.534 181.416) rotate(-46.33)" fill="#ffd469"/>
        <path id="Trazado_320" data-name="Trazado 320" d="M155.34,188.419l12.938-14.433c17.416,10.712,62.308,35.78,45.478,51.1-14.021,12.763-46.348-23-58.416-36.668" fill="#fff3d2"/>
        <path id="Trazado_321" data-name="Trazado 321" d="M210.274,201.524c-7.891,22.052-33.983-.191-51.026-17.465l-3.908,4.36c12.069,13.669,45.443,51.919,59.469,39.162,7.8-7.1,3.894-17.554-4.535-26.057" fill="#ffe2b8"/>
        <path id="Trazado_322" data-name="Trazado 322" d="M257.636,337.776s-16.308-67.167-10.221-79.032,46.092-17.789,63.131-11.2c3.349,13.625,1.1,35.3-13.037,38.124H263.72l3.2,46.5Z" fill="#ffe2b8"/>
        <path id="Trazado_323" data-name="Trazado 323" d="M223.338,137.45l-4.758-17.539,15.655-20.764,13.348,30.819Z" fill="#ffcd9c"/>
        <path id="Trazado_324" data-name="Trazado 324" d="M220.836,139.372l1.218-5.57c8.5-1,15.42-3.766,23.5-9.054l5.912,2.686a66.5,66.5,0,0,1-30.634,11.938" fill="#e26666"/>
        <path id="Trazado_325" data-name="Trazado 325" d="M194.681,388.627H175.222s12.072-6.157,15.321-6.389,4.138,6.389,4.138,6.389" fill="#fff8dc"/>
        <path id="Trazado_326" data-name="Trazado 326" d="M272.675,388.627H254.611s8.821-6.157,11.837-6.389,6.227,6.389,6.227,6.389" fill="#fff8dc"/>
        <path id="Trazado_327" data-name="Trazado 327" d="M251.688,263.2c6.724-13.11,26.417-2.771,29.908-17.977-16.318,1.38-32.837,6.145-36.5,13.29-6.087,11.864,12.542,79.263,12.542,79.263l4.119-2.486c-4.389-17.536-14.943-62.584-10.067-72.09" fill="#fff3d2"/>
        <g id="Grupo_191" data-name="Grupo 191" opacity="0.5" style="mix-blend-mode: multiply;isolation: isolate">
          <g id="Grupo_190" data-name="Grupo 190">
            <g id="Grupo_189" data-name="Grupo 189" clip-path="url(#clip-path-4)">
              <path id="Trazado_328" data-name="Trazado 328" d="M266.237,127.156a5.123,5.123,0,0,0-2.583-.17c-3.512-.9-8.155-.807-13.255-.038l-4.841-2.2c-.063.041-.122.075-.184.115L234.518,99.8c-.21-.071-.415-.138-.618-.207l-11.38,15.092-1.8,9.656h-.464c-.117.168-.223.335-.337.5l2.418,8.916c-.1.011-.185.03-.283.042l-.551,2.52a38.1,38.1,0,0,0-9.011,5.892c-5.234,5.109.336,20.661,15.889,20.2,19.531-.584,30.843-31.1,37.856-35.255" fill="#bc5642"/>
            </g>
          </g>
        </g>
        <path id="Trazado_329" data-name="Trazado 329" d="M209.577,139.317s-29.824-38.2-31.106-59.66c0,0,12.5-18.668,23.086-17.752s21.317,18.942,24.619,27.452,10.623,23.672,9.581,29.778c-1.321,7.757-26.18,20.182-26.18,20.182" fill="#ffcd9c"/>
        <path id="Trazado_330" data-name="Trazado 330" d="M223.554,81.154S211.325,53.245,198,59.208s21.915,43.523,26.792,50.747l3.166-5.1c-6.5-7.94-4.4-23.7-4.4-23.7" fill="#7c3621"/>
        <path id="Trazado_331" data-name="Trazado 331" d="M225.684,104.39c-3.462-4.609-6.745-20.055-.155-22.629s11.646,7.253,10.751,16.712c-.274,2.885-6.163,11.811-10.6,5.917" fill="#ffcd9c"/>
        <path id="Trazado_332" data-name="Trazado 332" d="M227.143,100.677c-2.256-3-4.4-13.044-.109-14.718s7.587,4.718,7,10.87c-.175,1.877-4.009,7.681-6.895,3.848" fill="#ef8f6f"/>
        <path id="Trazado_333" data-name="Trazado 333" d="M228.194,102.543c-1.189-1.579-2.316-6.874-.054-7.757s4,2.487,3.694,5.732c-.094.987-2.119,4.047-3.64,2.025" fill="#ffcd9c"/>
        <path id="Trazado_334" data-name="Trazado 334" d="M207.533,61.9a6.732,6.732,0,1,0-5.284,8.018,6.79,6.79,0,0,0,5.284-8.018" fill="#964c32"/>
        <path id="Trazado_335" data-name="Trazado 335" d="M280.55,244.352l18.629,7.486-.87,4.353-18.454-9.228Z" fill="#fff3d2"/>
        <path id="Trazado_336" data-name="Trazado 336" d="M199.728,96.534c-.948-1.846-.745-3.8.45-4.384s2.944.421,3.925,2.249c.991,1.854.823,3.863-.394,4.463s-3.009-.451-3.981-2.328" fill="#5e3d38"/>
        <path id="Trazado_337" data-name="Trazado 337" d="M187.581,103.458c-.739-1.791-.521-3.6.488-4.054s2.42.609,3.178,2.386c.775,1.8.575,3.658-.448,4.13s-2.471-.65-3.218-2.462" fill="#5e3d38"/>
        <path id="Trazado_338" data-name="Trazado 338" d="M194,94.487c.047,1.216,2.92,23.7,3.587,23.967s7-4.343,7-4.343Z" fill="#ffcd9c"/>
        <path id="Trazado_339" data-name="Trazado 339" d="M193.862,95.039l.747,1.154c1.016,5.818,2.7,21.459,3.252,21.671.524.2,4.38-2.491,6.181-3.778l.433.685s-6.587,5.671-7.265,5.385-3.3-23.9-3.348-25.117" fill="#ef8f6f"/>
        <path id="Trazado_340" data-name="Trazado 340" d="M195.653,91.806c.443-.025,11.3-5.6,11.265-6.629s.607-3.331-2.234-3.449c-2.812-.124-12.3,4.151-12.653,5.631s2.329,4.511,3.622,4.447" fill="#964c32"/>
        <path id="Trazado_341" data-name="Trazado 341" d="M190.718,94.515c-.114.338-7.275,6.248-8.157,5.707s-3.013-1.158-2.435-3.51c.566-2.318,6.381-7.673,7.7-7.221s3.235,4.042,2.9,5.024" fill="#964c32"/>
        <path id="Trazado_342" data-name="Trazado 342" d="M211.746,115l-10.541,7.654s3.943,6.379,5.82,6.115,7.14-4.712,7.446-5.578c.46-1.29-2.725-8.191-2.725-8.191" fill="#492e2b"/>
        <path id="Trazado_343" data-name="Trazado 343" d="M211.536,115.3l-9.85,7.3s3.624,5.7,5.372,5.4,6.659-4.512,6.954-5.314c.435-1.189-2.476-7.389-2.476-7.389" fill="#fffde9"/>
        <path id="Trazado_344" data-name="Trazado 344" d="M175.533,136.474l-46.526,14.508.277,9.9,47.75-21.382Z" fill="#ffdcb3"/>
        <path id="Trazado_345" data-name="Trazado 345" d="M124.608,221.559c6.238-2.165,5.838-8,4.579-12.574-1.266-4.6-22.027-54.57-41.168-56.78,0,0,5.865,41.6,9.381,46.271,2.172,2.881,7.64,11.306,12.563,19.815,2.835,4.9,6.594,6.058,14.645,3.268" fill="#c6bd4a"/>
        <path id="Trazado_346" data-name="Trazado 346" d="M127.763,211.419c-6.1,3.579-19.5-7.937-29.937-25.723-1.334-2.275-2.554-4.544-3.659-6.777.71,9.126,1.75,17.588,3.233,19.558,2.172,2.88,7.328,12.728,12.251,21.238,2.836,4.9,7.476,6.954,15.526,4.163,5.889-2.043,5.356-9.42,4.219-14.085a4.907,4.907,0,0,1-1.633,1.626" fill="#afa337"/>
        <path id="Trazado_347" data-name="Trazado 347" d="M87.343,73.471c-3.591-6.283-6.282-.673-6.282-.673s6.731-13.688,0-20.644-11.894.673-11.894.673-.449-9.2-6.506-9.2c-12.359,0-18.624,19.3-18.624,19.3s-13.463.447-18.4,8.078C10.369,94.6,47.85,126.2,56.153,132.259l28.274-30.292s6.5-22.215,2.916-28.5" fill="#ffb14a"/>
        <path id="Trazado_348" data-name="Trazado 348" d="M47.332,55.591a46.446,46.446,0,0,0-3.3,7.334s-13.463.447-18.4,8.078C10.369,94.6,47.85,126.2,56.152,132.259l22.581-24.192c-14.844-35.321-39.346-20.789-31.4-52.476" fill="#ff8f43"/>
        <path id="Trazado_349" data-name="Trazado 349" d="M180.106,307.645c-4.889-44.24-27.745-80.107-51.045-80.107S90.837,263.4,95.728,307.645s27.738,80.108,51.04,80.108S185,351.888,180.106,307.645m-36.158,75.289c-20.874,0-41.344-33.71-45.726-75.289s8.989-75.289,29.862-75.289,41.347,33.708,45.728,75.289-8.991,75.289-29.864,75.289" fill="#332929"/>
        <path id="Trazado_350" data-name="Trazado 350" d="M177.192,307.645c-4.889-44.24-27.745-80.107-51.045-80.107S89.231,263.4,94.121,307.645s26.436,80.108,49.734,80.108,38.225-35.865,33.337-80.108m-36.156,75.289c-20.874,0-40.037-33.71-44.418-75.289s7.681-75.289,28.551-75.289,41.349,33.708,45.729,75.289-8.99,75.289-29.862,75.289" fill="#514747"/>
        <path id="Trazado_351" data-name="Trazado 351" d="M148.675,307.645c-.938-8.48-5.32-15.355-9.786-15.355s-7.325,6.875-6.39,15.355S137.816,323,142.285,323s7.324-6.876,6.39-15.355" fill="#332929"/>
        <path id="Trazado_352" data-name="Trazado 352" d="M139.427,292.714H35.254l4.1,19.406H139.427Z" fill="#332929"/>
        <rect id="Rectángulo_79" data-name="Rectángulo 79" width="2.724" height="71.184" transform="translate(86.165 305.207) rotate(-9.913)" fill="#332929"/>
        <rect id="Rectángulo_80" data-name="Rectángulo 80" width="2.723" height="71.184" transform="matrix(0.985, -0.172, 0.172, 0.985, 137.958, 305.207)" fill="#332929"/>
        <path id="Trazado_353" data-name="Trazado 353" d="M160.078,372.4c-.937-8.48-5.314-15.355-9.782-15.355s-7.324,6.875-6.389,15.355,5.317,15.356,9.785,15.356,7.326-6.873,6.386-15.356" fill="#332929"/>
        <path id="Trazado_354" data-name="Trazado 354" d="M153.574,372.4c-.523-4.755-2.978-8.6-5.481-8.6s-4.106,3.849-3.58,8.6S147.493,381,150,381s4.1-3.849,3.578-8.605" fill="#514747"/>
        <path id="Trazado_355" data-name="Trazado 355" d="M105.9,372.4c-.939-8.48-5.319-15.355-9.782-15.355s-7.329,6.875-6.39,15.355,5.316,15.356,9.78,15.356,7.329-6.873,6.392-15.356" fill="#332929"/>
        <path id="Trazado_356" data-name="Trazado 356" d="M99.393,372.4c-.525-4.755-2.978-8.6-5.48-8.6s-4.107,3.849-3.58,8.6S93.313,381,95.815,381s4.1-3.849,3.578-8.605" fill="#514747"/>
        <path id="Trazado_357" data-name="Trazado 357" d="M145.907,343.775H94.041l-.162-.1L37.714,310.323l.694-1.172,56,33.264h51.494Z" fill="#332929"/>
        <path id="Trazado_358" data-name="Trazado 358" d="M137.806,376.907a18.983,18.983,0,0,1-18.574-14.762l-11.444-49.372a9.443,9.443,0,0,0-9.243-7.348V302.7a12.164,12.164,0,0,1,11.9,9.457l11.438,49.375a16.276,16.276,0,0,0,15.922,12.652Z" fill="#332929"/>
        <path id="Trazado_359" data-name="Trazado 359" d="M182.6,376.9a18.98,18.98,0,0,1-18.574-14.76l-11.445-49.372a9.44,9.44,0,0,0-9.24-7.348V302.7a12.163,12.163,0,0,1,11.9,9.457l11.44,49.375A16.272,16.272,0,0,0,182.6,374.185Z" fill="#332929"/>
        <path id="Trazado_360" data-name="Trazado 360" d="M45.382,292.091l-8.155-43.427,3.149-.842,7.552,44.634Z" fill="#bfacb2"/>
        <path id="Trazado_361" data-name="Trazado 361" d="M93.175,290.328,85.021,246.9l3.15-.837L95.719,290.7Z" fill="#bfacb2"/>
        <path id="Trazado_362" data-name="Trazado 362" d="M30.3,250.634A12.882,12.882,0,0,0,43.088,260.5H79.6a11.8,11.8,0,0,0,8.943-4.024,10.387,10.387,0,0,0,2.31-9.085L72.557,166.315a12.325,12.325,0,0,0-10.075-9.228c-16.511-2.841-28.674-3.49-41.691-1a10,10,0,0,0-8.259,11.744Z" fill="#473c3c"/>
        <path id="Trazado_363" data-name="Trazado 363" d="M46.544,296.393a4.561,4.561,0,0,1-3.378-5.03,4.749,4.749,0,0,1,4.782-3.889l78.135,0a4.41,4.41,0,0,1,4.371,3.34,4.156,4.156,0,0,1-2.554,4.728,16.435,16.435,0,0,1-6.42,1.192H48.913a7.973,7.973,0,0,1-2.369-.338" fill="#473c3c"/>
        <path id="Trazado_364" data-name="Trazado 364" d="M34.982,250.631a12.879,12.879,0,0,0,12.785,9.861H84.273a11.774,11.774,0,0,0,8.945-4.023,10.387,10.387,0,0,0,2.311-9.085l-18.3-81.071a12.3,12.3,0,0,0-10.067-9.226c-16.521-2.844-28.682-3.493-41.7-1-5.719,1.1-9.416,6.353-8.259,11.746Z" fill="#605555"/>
        <path id="Trazado_365" data-name="Trazado 365" d="M95.529,247.384l-18.3-81.071a11.859,11.859,0,0,0-5.023-7.206A146.963,146.963,0,0,1,66.593,195.4c-6.955,24.821-18.894,45.273-31.361,56.04a12.916,12.916,0,0,0,12.535,9.052H84.273a11.774,11.774,0,0,0,8.945-4.023,10.387,10.387,0,0,0,2.311-9.085" fill="#514747"/>
        <path id="Trazado_366" data-name="Trazado 366" d="M142.833,290.6c-.7-2.261-3.626-3.881-7-3.881h-67.8c3.391,0,6.3,1.62,7,3.881s-1,4.56-4.079,5.5a35.028,35.028,0,0,1-10.268,1.381h67.789a35.136,35.136,0,0,0,10.278-1.381c3.085-.942,4.786-3.239,4.088-5.5" fill="#332929"/>
        <path id="Trazado_367" data-name="Trazado 367" d="M203.446,370.325H121.508l12.807,9.985h81.937Z" fill="#332929"/>
        <path id="Trazado_368" data-name="Trazado 368" d="M135.657,375.241c-3.355-2.835-9.2-5.133-13.05-5.133s-4.252,2.3-.891,5.133,9.2,5.136,13.054,5.136,4.244-2.3.887-5.136" fill="#937d7d"/>
        <path id="Trazado_369" data-name="Trazado 369" d="M104.507,252.414c-8.415-7.4-9.88-94.355-13.582-99.065s-44.646-4.6-50.03,3.142,3.7,87.847,2.355,100.3,1.347,13.125,3.365,15.144L102.151,261.5c1.683-1.009,10.77-1.682,2.356-9.088" fill="#c6bd4a"/>
        <path id="Trazado_370" data-name="Trazado 370" d="M45.638,153.348s21.461,7.941,32.782-3.042c-14.947-.741-24.617-.2-32.782,3.042" fill="#fff385"/>
        <path id="Trazado_371" data-name="Trazado 371" d="M96.331,184.777c-8.111,36.5,7.436,67.2,7.436,67.2-4.124-24.968-7.7-42.185-7.436-67.2" fill="#afa337"/>
        <path id="Trazado_372" data-name="Trazado 372" d="M58.257,255.8c-17.137-2.078-1.818-69.043-15.125-69.674-9.419-.446,1.465,58.207.118,70.661s1.347,13.125,3.365,15.145l61.433-12.753c-.226-10.815-47.549-3.108-49.791-3.379" fill="#afa337"/>
        <path id="Trazado_373" data-name="Trazado 373" d="M53.055,180.7s-4.423,14.016-11.25,21.116l.006,0a18.226,18.226,0,0,0,8.9-10.014,40.6,40.6,0,0,0,2.345-11.1" fill="#afa337"/>
        <path id="Trazado_374" data-name="Trazado 374" d="M82.408,289.1h70.9s14.171-13.072,10.58-17.561-39.3-12.506-45.134-12.956c-4.151-.319-37.041-4.828-44.43,6.733-3,4.7,0,21.54,8.081,23.784" fill="#9e4451"/>
        <path id="Trazado_375" data-name="Trazado 375" d="M130.94,271.726c-15.69-3.869-28.826-9.33-35.1-14.151-9.048.452-18.059,2.346-21.509,7.744-3,4.7,0,21.54,8.08,23.784h70.9s8.149-7.522,10.519-13.113c-8.149.34-20.007-1.088-32.891-4.264" fill="#873243"/>
        <path id="Trazado_376" data-name="Trazado 376" d="M169.75,282.106c-.73-10.049-10.286-14.516-15.887-12.227s-2.747,31.433.146,40.672,31.606,55.433,40.262,63.742l2.758-2.324c-9.613-16.469-26.548-79.814-27.279-89.863" fill="#9e4451"/>
        <path id="Trazado_377" data-name="Trazado 377" d="M151.761,272.759c-6.309,5.857-4.6,22.283.756,39.388,2.893,9.235,33.1,53.837,41.754,62.145l1.578-1.329c-13-15.949-50.232-79.645-44.088-100.2" fill="#873243"/>
        <path id="Trazado_378" data-name="Trazado 378" d="M55.479,289.1h70.907s5.383-12.565,1.795-17.054S97.666,259.036,91.83,258.586c-4.148-.319-37.038-4.828-44.427,6.733-3,4.7,0,21.54,8.076,23.784" fill="#9e4451"/>
        <path id="Trazado_379" data-name="Trazado 379" d="M99.76,277.366C76.444,273.1,58.429,264.8,59.521,258.829c.009-.045.027-.087.039-.132-5.378,1.119-9.931,3.138-12.157,6.622-3,4.7,0,21.54,8.076,23.784h70.907a46.142,46.142,0,0,0,2.75-9.373,130.978,130.978,0,0,1-29.376-2.364" fill="#873243"/>
        <path id="Trazado_380" data-name="Trazado 380" d="M131.364,282.835c.877-10.035-7.845-15.965-13.735-14.6s-9.442,31.932-8.058,41.512,24.111,58.422,31.331,68L144,375.9c-6.87-17.79-13.511-83.023-12.633-93.061" fill="#9e4451"/>
        <path id="Trazado_381" data-name="Trazado 381" d="M113.272,275.2c-5.957,9.277-4.861,30.732-4.322,34.455,1.385,9.578,24.732,58.523,31.952,68.1l2.736-1.642c-9.42-14.916-34.335-88.092-30.366-100.914" fill="#873243"/>
        <path id="Trazado_382" data-name="Trazado 382" d="M21.231,225.388c-7.282-.1-7.581-7.8-6.948-12.29s7.54-46.283,29.29-58.656c0,0,4.837,37.1,2.171,41.766a179.538,179.538,0,0,0-9.568,19.154c-2.108,5.043-5.845,10.15-14.945,10.026" fill="#c6bd4a"/>
        <path id="Trazado_383" data-name="Trazado 383" d="M14.948,221.26a6.342,6.342,0,0,0,6.283,4.128c9.1.124,14.189-3.294,16.3-8.337,8.995-21.517,12.312-22.124,11.151-37.681-7.83,24.789-25.814,44.908-33.732,41.89" fill="#afa337"/>
        <path id="Trazado_384" data-name="Trazado 384" d="M11.337,215.78l1.352,2.418-4.732,3.427s14.7,18.946,32.95,4.837l4.055-14.109s-18.587-13.5-33.625,3.427" fill="#fff385"/>
        <path id="Trazado_385" data-name="Trazado 385" d="M38.721,209.139a32.414,32.414,0,0,1-11.163,1.66,38.536,38.536,0,0,1-8.893-.946,26.8,26.8,0,0,0-7.328,5.927l1.352,2.418-4.732,3.426s14.7,18.947,32.951,4.837l4.054-14.108a29.647,29.647,0,0,0-6.241-3.214" fill="#ffd371"/>
        <path id="Trazado_386" data-name="Trazado 386" d="M124.608,232.712l-2.52-1.562-4.111,4.41s-19.4-16.333-2.576-33.268l15.671-2.789s13.168,19.724-6.464,33.209" fill="#fff385"/>
        <path id="Trazado_387" data-name="Trazado 387" d="M134.058,206.009a30,30,0,0,0-2.716,10.979,35.4,35.4,0,0,0,.308,8.947,27.465,27.465,0,0,1-7.042,6.777l-2.52-1.562-4.111,4.41s-19.4-16.333-2.576-33.268l15.671-2.789a29.088,29.088,0,0,1,2.986,6.506" fill="#ffd371"/>
        <path id="Trazado_388" data-name="Trazado 388" d="M86.97,307.645c-4.889-44.24-27.743-80.107-51.042-80.107S-2.3,263.4,2.591,307.648s27.743,80.1,51.044,80.1,38.224-35.865,33.335-80.108M50.813,382.934c-20.872,0-41.343-33.71-45.724-75.286s8.987-75.292,29.861-75.292,41.345,33.708,45.728,75.289-8.988,75.289-29.865,75.289" fill="#332929"/>
        <path id="Trazado_389" data-name="Trazado 389" d="M84.058,307.645c-4.889-44.24-27.74-80.107-51.045-80.107S-3.9,263.4.992,307.648s26.432,80.1,49.731,80.1,38.225-35.865,33.335-80.108M47.9,382.934c-20.876,0-40.036-33.71-44.415-75.286s7.677-75.292,28.549-75.292,41.345,33.708,45.726,75.289-8.986,75.289-29.86,75.289" fill="#514747"/>
        <path id="Trazado_390" data-name="Trazado 390" d="M40.241,323.292c-4.339,0-8.318-7.005-9.23-15.646S32.606,292,36.946,292s8.593,7,9.5,15.646-1.868,15.646-6.208,15.646" fill="#514747"/>
        <path id="Trazado_391" data-name="Trazado 391" d="M40.014,307.645c-.578-5.243-3.289-9.5-6.053-9.5s-4.532,4.257-3.95,9.5,3.286,9.5,6.05,9.5,4.535-4.256,3.953-9.5" fill="#332929"/>
        <path id="Trazado_392" data-name="Trazado 392" d="M37.687,307.645c-.387-3.52-2.206-6.373-4.059-6.373s-3.043,2.853-2.652,6.373,2.2,6.374,4.059,6.374,3.042-2.854,2.652-6.374" fill="#c6b3b3"/>
        <path id="Trazado_393" data-name="Trazado 393" d="M40.223,211.675c6.736,1.394,49.772,22.283,57.819,24.4l-.469,2.717c-13.2-3.293-51.643,1.561-57.35,1.4S13.942,225.853,15.443,219.4s18.039-9.118,24.78-7.728" fill="#ffcd9c"/>
        <path id="Trazado_394" data-name="Trazado 394" d="M46.588,233.587c-4.943-.688-19.994-13.237-22.256-20.562-4.5,1.345-8.216,3.479-8.89,6.377-1.5,6.451,19.069,20.618,24.781,20.785s44.149-4.69,57.349-1.4l.323-1.86c-16.035-3.055-46.357-2.656-51.307-3.343" fill="#ffae85"/>
        <path id="Trazado_395" data-name="Trazado 395" d="M108.527,208.621c-.362-6.8,8.9-53.21,8.894-61.447l2.747-.219c.169,13.468,14.629,49.122,15.918,54.637s-7.175,28.729-13.79,28.88-13.4-15.042-13.769-21.851" fill="#ffcd9c"/>
        <path id="Trazado_396" data-name="Trazado 396" d="M130.767,219.462c-6.584.646-14.481-14-15.356-20.766-.677-5.263,1.495-34.188,2.719-50.924l-.71-.6c0,8.237-9.256,54.645-8.893,61.447s7.154,22.006,13.768,21.851c3.1-.071,6.617-5.222,9.335-11.238a3.2,3.2,0,0,1-.863.229" fill="#ffae85"/>
        <path id="Trazado_397" data-name="Trazado 397" d="M113.65,195.078l16.5-10.943-1.911-6.776-14.418,7.3Z" fill="#ffae85"/>
        <path id="Trazado_398" data-name="Trazado 398" d="M50.076,152.673l1.689-28.389L69,126.651l4.054,24.332s-8.11,5.07-22.979,1.69" fill="#ffcd9c"/>
        <path id="Trazado_399" data-name="Trazado 399" d="M209.761,365.439s-6.116,9.677-14.831,11.006c0,0-3.847-4.219-2.361-6.334s17.192-4.672,17.192-4.672" fill="#efe4cb"/>
        <path id="Trazado_400" data-name="Trazado 400" d="M157.115,371.984s-8.043,8.147-16.838,7.586c0,0-2.857-4.943-.955-6.691s17.793-.895,17.793-.895" fill="#efe4cb"/>
        <path id="Trazado_401" data-name="Trazado 401" d="M51.039,195.951l15.553-.529-.266,3.7-7.649,2.38-7.512-2.247Z" fill="#afa337"/>
        <path id="Trazado_402" data-name="Trazado 402" d="M51.962,195.079l14.53-.528-.248,3.7L59.1,200.634l-7.02-2.248Z" fill="#fff385"/>
        <g id="Grupo_194" data-name="Grupo 194" opacity="0.5" style="mix-blend-mode: multiply;isolation: isolate">
          <g id="Grupo_193" data-name="Grupo 193">
            <g id="Grupo_192" data-name="Grupo 192" clip-path="url(#clip-path-5)">
              <path id="Trazado_403" data-name="Trazado 403" d="M86.329,151.416a57.827,57.827,0,0,0-8.015-1.015c.035-.033.072-.061.106-.094-1.924-.1-3.756-.169-5.514-.219l-2.652-15.919a49.156,49.156,0,0,0-18.723-5.951L50.123,151.88a39.159,39.159,0,0,0-4.485,1.469l.142.05a13.063,13.063,0,0,0-4,2.163A33.29,33.29,0,0,0,38.4,158.17c7.8,6.478,19.074,10.892,29.546,10.892,13.813,0,21.441-7.673,18.386-17.646" fill="#bc5642"/>
            </g>
          </g>
        </g>
        <path id="Trazado_404" data-name="Trazado 404" d="M52.114,117s2.917,21.54,5.835,24.008,23.493,6.758,27.309,5.411S91.384,92.094,80.612,79.3s-32.759,2.02-33.656,9.425S51.667,108.474,52.114,117" fill="#ffcd9c"/>
        <path id="Trazado_405" data-name="Trazado 405" d="M60.171,129.522S58.819,67.508,46.315,80.688s4.223,38.695,4.223,38.695l4.733,11.153Z" fill="#ff8f43"/>
        <path id="Trazado_406" data-name="Trazado 406" d="M55.931,132.484c-6.271-.9-18.624-6.285-16.157-13.912s12.117.67,14.136,4.488,5.161,9.872,2.021,9.424" fill="#ffcd9c"/>
        <path id="Trazado_407" data-name="Trazado 407" d="M53.611,129.775c-3.65-.521-10.841-3.658-9.4-8.1s7.053.39,8.229,2.613,3,5.746,1.176,5.485" fill="#ef8f6f"/>
        <path id="Trazado_408" data-name="Trazado 408" d="M54.722,130.333c-2.192-.313-6.511-2.2-5.648-4.862s4.236.234,4.943,1.568,1.8,3.45.705,3.294" fill="#ffcd9c"/>
        <path id="Trazado_409" data-name="Trazado 409" d="M71.087,106.238c-.036-2.091-1.144-3.815-2.468-3.872s-2.375,1.568-2.368,3.654c0,2.114,1.1,3.906,2.45,3.967,1.362.07,2.422-1.622,2.386-3.749" fill="#5e3d38"/>
        <path id="Trazado_410" data-name="Trazado 410" d="M85.8,106.3c-.272-1.952-1.377-3.493-2.475-3.474s-1.77,1.6-1.524,3.545c.249,1.971,1.359,3.57,2.478,3.553s1.8-1.656,1.521-3.624" fill="#5e3d38"/>
        <path id="Trazado_411" data-name="Trazado 411" d="M77.651,101.83C78.27,102.7,88.9,121.454,88.412,122s-9.473-.368-9.473-.368Z" fill="#ffcd9c"/>
        <path id="Trazado_412" data-name="Trazado 412" d="M78.076,102.149l-.038,1.152c2.312,4.683,10.127,17.885,9.724,18.323-.391.42-5.819-.031-8.314-.266l-.019.77s9.967,1.723,10.458,1.15-11.192-20.253-11.811-21.129" fill="#ef8f6f"/>
        <path id="Trazado_413" data-name="Trazado 413" d="M73.535,99.278c-.238.284-10.1,3.819-10.926,3.08s-3.008-1.889-1.71-3.9,9.423-5.5,10.805-4.72,2.519,4.714,1.831,5.545" fill="#ffb14a"/>
        <path id="Trazado_414" data-name="Trazado 414" d="M79.507,98.42c.167.3,7.729,4.494,8.423,3.77s2.5-1.8,1.539-3.974c-.943-2.137-7.186-6.089-8.295-5.354s-2.156,4.671-1.667,5.558" fill="#ffb14a"/>
        <path id="Trazado_415" data-name="Trazado 415" d="M69.955,130.879l-.253-.308c3.389-2.781,10.551-5.367,15.208-2.966l-.618,1.2c-4.079-2.1-11.315-.409-14.337,2.073" fill="#ef8f6f"/>
        <path id="Trazado_416" data-name="Trazado 416" d="M80.336,130.761c0-.5-1.06-.9-2.366-.9s-2.366.4-2.366.9,1.058.9,2.366.9,2.366-.4,2.366-.9" fill="#ef8f6f"/>
        <path id="Trazado_417" data-name="Trazado 417" d="M119.3,138.072c1.195,2.689,2.391,5.308,1.2,13.341l-2.241-.195c-1.228-3.794-5.1-8.748-4.77-10.164.123-.472,5.412-3.9,5.811-2.982" fill="#ffcd9c"/>
        <path id="Trazado_418" data-name="Trazado 418" d="M113.99,142.613c-.6-1.254-3.917-5.117-3.277-5.557.988-.687,3.355,2.723,4.423,4.059,1.4,1.738-1.146,1.5-1.146,1.5" fill="#ffcd9c"/>
        <path id="Trazado_419" data-name="Trazado 419" d="M117.886,139.347c-.325-1.327-2.467-6.461-1.765-6.819,1.241-.621,3.276,4.915,3.5,6.311.341,2.122-1.734.508-1.734.508" fill="#ffcd9c"/>
        <path id="Trazado_420" data-name="Trazado 420" d="M118.228,142.971c2.78-.078,3.128-5.594,4.468-6.317,1.86-1.011-.549,6.917-1.285,9.19-.724,2.239-3.183-2.873-3.183-2.873" fill="#ffcd9c"/>
        <path id="Trazado_421" data-name="Trazado 421" d="M115.67,140.248c-.545-1.263-3.332-6.472-2.684-6.9,1.018-.687,3.621,4.6,4.3,5.865,1,1.92-1.616,1.038-1.616,1.038" fill="#ffcd9c"/>
        <path id="Trazado_422" data-name="Trazado 422" d="M102.134,238.612c-2.131-1.873-4.193-3.723-12.142-5.361l-.56,1.926c3.156,2.26,6.525,7.1,7.962,7.289.488.052,5.472-3.22,4.74-3.854" fill="#ffcd9c"/>
        <path id="Trazado_423" data-name="Trazado 423" d="M96.1,241.541c.98.9,3.507,4.929,4.133,4.542.975-.6-1.442-3.681-2.343-5.006-1.168-1.732-1.79.464-1.79.464" fill="#ffcd9c"/>
        <path id="Trazado_424" data-name="Trazado 424" d="M100.464,239.37c1.14.705,5.252,4.164,5.821,3.7,1-.826-3.529-4.329-4.766-4.972-1.881-.977-1.055,1.275-1.055,1.275" fill="#ffcd9c"/>
        <path id="Trazado_425" data-name="Trazado 425" d="M97.171,237.9c1-2.286,6.3-.77,7.426-1.646,1.569-1.215-6.685-1.807-9.067-1.939-2.345-.131,1.641,3.585,1.641,3.585" fill="#ffcd9c"/>
        <path id="Trazado_426" data-name="Trazado 426" d="M98.882,240.916c1,.867,4.973,4.888,5.592,4.49.984-.622-3.116-4.513-4.08-5.492-1.472-1.458-1.512,1-1.512,1" fill="#ffcd9c"/>
        <path id="Trazado_427" data-name="Trazado 427" d="M131.969,179.1l-24.05,12.271-1.645-58.826a20.442,20.442,0,0,1,20.109-.582c5.3,2.657,5.586,47.137,5.586,47.137" fill="#fff4d2"/>
        <path id="Trazado_428" data-name="Trazado 428" d="M129.473,180.373c-4.762-5.379-9.6-14.808-12.929-26.068a81.544,81.544,0,0,1-3.69-24.31,18.9,18.9,0,0,0-6.58,2.549l1.645,58.825Z" fill="#ffdcb3"/>
        <path id="Trazado_429" data-name="Trazado 429" d="M126.885,148.963s-9.619.92-17.323,5.046Z" fill="#ffdcb3"/>
        <path id="Trazado_430" data-name="Trazado 430" d="M116.387,169.72s5.918.3,13.524-5.724Z" fill="#fff4d2"/>
        <path id="Trazado_431" data-name="Trazado 431" d="M112.1,153.224s6.582,1.1,15.856-4.592Z" fill="#fff4d2"/>
        <path id="Trazado_432" data-name="Trazado 432" d="M125.922,159.123s-6.64-.658-15.516,5.631Z" fill="#ffdcb3"/>
        <path id="Trazado_433" data-name="Trazado 433" d="M126.372,141.949s-9.6-1.126-18,1.283Z" fill="#ffdcb3"/>
        <path id="Trazado_434" data-name="Trazado 434" d="M124.884,134.907s-8.1-1.528-15.277.557Z" fill="#ffdcb3"/>
        <path id="Trazado_435" data-name="Trazado 435" d="M130.674,156.167s6.254-12.333,3.647-15.113a8.18,8.18,0,0,0-6.252-2.433Z" fill="#fff4d2"/>
        <path id="Trazado_436" data-name="Trazado 436" d="M176.608,136.34c2.39,2.321,4.749,4.56,7.57,14.168l-2.131,1.042c-2.956-3.527-8.877-6.859-9.267-8.615-.119-.6,3.016-7.393,3.828-6.6" fill="#ffcd9c"/>
        <path id="Trazado_437" data-name="Trazado 437" d="M173.991,144.385c-1.151-1.061-6.044-3.487-5.677-4.337.565-1.321,4.371,1.139,5.991,2.024,2.116,1.145-.314,2.313-.314,2.313" fill="#ffcd9c"/>
        <path id="Trazado_438" data-name="Trazado 438" d="M175.942,138.557c-.94-1.3-5.378-5.8-4.916-6.59.824-1.391,5.363,3.622,6.245,5.049,1.339,2.168-1.329,1.541-1.329,1.541" fill="#ffcd9c"/>
        <path id="Trazado_439" data-name="Trazado 439" d="M178.013,142.4c2.489-1.65.122-7.984.988-9.544,1.2-2.172,2.863,8,3.3,10.948.431,2.9-4.286-1.4-4.286-1.4" fill="#ffcd9c"/>
        <path id="Trazado_440" data-name="Trazado 440" d="M174.37,140.8c-1.11-1.094-6.173-5.32-5.794-6.164.593-1.337,5.524,3.075,6.753,4.1,1.84,1.573-.959,2.062-.959,2.062" fill="#ffcd9c"/>
        <rect id="Rectángulo_82" data-name="Rectángulo 82" width="13.233" height="10.446" transform="translate(176.962 153.343) rotate(-47.93)" fill="#ffd469"/>
        <path id="Trazado_441" data-name="Trazado 441" d="M219.727,199.623c-5.187-5.566-33.57-32.755-39.624-40.031l12.929-14.266c10.042,7.336,45.459,32.32,49.547,37.377,5.193,6.424,9.417,21.459,3.761,26.441s-21.276-3.791-26.613-9.521" fill="#fff3d2"/>
        <path id="Trazado_442" data-name="Trazado 442" d="M249.321,189.444c-7.254,8.15-24.433,3.059-32.2-3.939-4.21-3.8-22.3-18.656-33.9-29.36l-3.123,3.446c6.054,7.277,33.851,36.938,39.037,42.5,5.337,5.731,22.4,14.214,28.056,9.233,3.915-3.448,4.978-14.347,2.125-21.885" fill="#ffe2b8"/>
        <path id="Trazado_443" data-name="Trazado 443" d="M167.551,396.988a966.562,966.562,0,0,0,132.872-8.858H32.031a1027.882,1027.882,0,0,0,135.52,8.858" fill="#e1e1e1"/>
        <path id="Trazado_444" data-name="Trazado 444" d="M245.558,124.748s10.54,19.195-6.77,44.039S221.5,136.322,221.5,136.322" fill="none" stroke="#000" stroke-miterlimit="10" stroke-width="2"/>
        <path id="Trazado_445" data-name="Trazado 445" d="M229.334,237.444s5.2-53.779,2.534-62.576" fill="none" stroke="#000" stroke-miterlimit="10" stroke-width="2"/>
        <path id="Trazado_446" data-name="Trazado 446" d="M232.629,238.128c0,4.408-1.806,7.981-4.032,7.981s-4.032-3.573-4.032-7.981,1.8-7.98,4.032-7.98,4.032,3.573,4.032,7.98"/>
        <rect id="Rectángulo_83" data-name="Rectángulo 83" width="57.872" height="137.178" transform="translate(637.383 251.725)" fill="#ffedca"/>
        <rect id="Rectángulo_84" data-name="Rectángulo 84" width="57.872" height="132.248" transform="translate(632.882 256.655)" fill="#ead5b0"/>
        <path id="Trazado_447" data-name="Trazado 447" d="M690.754,256.655H632.882V388.9l57.872-118.316Z" fill="#dbc197"/>
        <path id="Trazado_448" data-name="Trazado 448" d="M467.912,226.614l-2.933-.626c1.249-3.92-.907-7.014-3.4-10.6-2.225-3.191-4.747-6.809-4.975-11.511-.229-4.755,1.884-8.87,3.929-12.848,2.652-5.16,4.943-9.616,1.371-14.3l.592-.378c4.3,5.645,2.024,9.885-.673,15.133a24.823,24.823,0,0,0-3.017,12.307c.2,4.162,2.453,7.391,4.631,10.514,2.669,3.831,6.01,7.51,4.48,12.309" fill="#a09d45"/>
        <path id="Trazado_449" data-name="Trazado 449" d="M590.032,196H546.54l-13.326,58.3h43.492Z" fill="#dbc197"/>
        <path id="Trazado_450" data-name="Trazado 450" d="M593.86,196H550.367l-13.326,58.3h43.493Z" fill="#ead5b0"/>
        <path id="Trazado_451" data-name="Trazado 451" d="M585.924,230.711,593.86,196H550.366l-9.7,42.46Z" fill="#dbc197"/>
        <rect id="Rectángulo_85" data-name="Rectángulo 85" width="66.445" height="7.716" transform="translate(536.644 247.224)" fill="#dbc197"/>
        <rect id="Rectángulo_86" data-name="Rectángulo 86" width="48.655" height="7.716" transform="translate(556.578 247.224)" fill="#f4e1c1"/>
        <rect id="Rectángulo_87" data-name="Rectángulo 87" width="197.729" height="8.359" transform="translate(487.828 258.289)" fill="#dbc197"/>
        <rect id="Rectángulo_88" data-name="Rectángulo 88" width="57.872" height="134.499" transform="translate(439.44 254.404)" fill="#ffedca"/>
        <path id="Trazado_452" data-name="Trazado 452" d="M631.894,74.04H471.167a9.429,9.429,0,0,0-9.375,10.416l12.88,122.174a9.427,9.427,0,0,0,9.375,8.438H644.774a9.426,9.426,0,0,0,9.374-10.414L641.268,82.479a9.427,9.427,0,0,0-9.374-8.439" fill="#ead5b0"/>
        <path id="Trazado_453" data-name="Trazado 453" d="M462.94,95.335c27.072-6.09,59.9-7.824,94.812-3.948,32.708,3.631,62.559,11.669,86.821,22.439l-3.3-31.346a9.426,9.426,0,0,0-9.374-8.439H471.168a9.427,9.427,0,0,0-9.375,10.415Z" fill="#ddc69f"/>
        <path id="Trazado_454" data-name="Trazado 454" d="M640.575,74.04H479.848a9.429,9.429,0,0,0-9.375,10.416l12.88,122.174a9.427,9.427,0,0,0,9.375,8.438H653.454a9.425,9.425,0,0,0,9.375-10.414L649.948,82.479a9.425,9.425,0,0,0-9.373-8.439" fill="#ffedca"/>
        <path id="Trazado_455" data-name="Trazado 455" d="M466.072,222.253s-15.271,1.286-25.721,8.681l50.478-.322c-10.932-8.038-24.757-8.359-24.757-8.359" fill="#8e4638"/>
        <path id="Trazado_456" data-name="Trazado 456" d="M456.266,229.327c0-2.494,2.047-4.757,5.368-6.449-5.31.937-14.355,3.153-21.283,8.056l16.19-.1a4.691,4.691,0,0,1-.275-1.5" fill="#7f392f"/>
        <path id="Trazado_457" data-name="Trazado 457" d="M493.99,229.433H438.048l1.552,6.1a23.2,23.2,0,0,0,22.483,17.476h7.872a23.2,23.2,0,0,0,22.482-17.476Z" fill="#c4b191"/>
        <path id="Trazado_458" data-name="Trazado 458" d="M455.784,234.069a11.7,11.7,0,0,1,.991-4.636H438.047l1.552,6.1a23.2,23.2,0,0,0,22.483,17.476h7.872a23.124,23.124,0,0,0,9.8-2.183c-13.337-.419-23.966-7.75-23.966-16.759" fill="#b29d7f"/>
        <rect id="Rectángulo_89" data-name="Rectángulo 89" width="246.92" height="10.288" transform="translate(448.335 251.725)" fill="#ffedca"/>
        <path id="Trazado_459" data-name="Trazado 459" d="M649.95,82.479a9.428,9.428,0,0,0-9.375-8.438H479.848a9.428,9.428,0,0,0-9.375,10.415l11.662,111.326H661.818Z" fill="#3f2d2a"/>
        <path id="Trazado_460" data-name="Trazado 460" d="M643.814,81.324H475.02l11.838,114.458h168.8Z" fill="#80c4d8"/>
        <path id="Trazado_461" data-name="Trazado 461" d="M558.284,81.324H511.442c.076,1.148.123,2.309.123,3.483,0,21.752-13.386,39.385-29.9,39.385-.749,0-1.489-.048-2.224-.12l7.416,71.71H636.311S595.158,99.436,558.284,81.324" fill="#58a9bf"/>
        <path id="Trazado_462" data-name="Trazado 462" d="M599.446,123.763c-10.819-10.026-30.865-19.29-38.8-19.29s-36.438,14.36-42.011,22.72c-6.9,10.343-20.791,68.589-20.791,68.589H635.026c-6.858-19.719-26.793-63.873-35.58-72.019" fill="#ffedca"/>
        <path id="Trazado_463" data-name="Trazado 463" d="M539.332,112.4c-9.016,4.688-17.847,10.521-20.693,14.791-6.9,10.344-20.791,68.589-20.791,68.589h30.468c-13.541-30.271-8.369-63.588,11.016-83.38" fill="#efd4a5"/>
        <path id="Trazado_464" data-name="Trazado 464" d="M560.811,103.937c-3.271,0-10.2,2.979-17.415,6.435,8.9,22.126,31.614,38.469,31.614,38.469s10.664-21.112,12.476-34.127c-8.942-6.206-21.242-10.777-26.675-10.777" fill="#aa5582"/>
        <path id="Trazado_465" data-name="Trazado 465" d="M587.233,114.545c-8.92-6.119-21.039-10.608-26.422-10.608-3.269,0-10.2,2.979-17.415,6.434.029.072.063.143.091.214,3.857,7.221,13.559,14.732,24.021,14.732,8.414,0,16.719-4.179,19.725-10.772" fill="#964172"/>
        <path id="Trazado_466" data-name="Trazado 466" d="M553.242,105.994s2.431-17.709,6.446-26.843l17.841,2.763,1.125,26.042c-2.089,10.128-20.094,13.986-25.412-1.962" fill="#ed7656"/>
        <path id="Trazado_467" data-name="Trazado 467" d="M583.692,92.042a70.506,70.506,0,0,0,7.5-24.757l-9.216-6.323Z" fill="#824733"/>
        <path id="Trazado_468" data-name="Trazado 468" d="M558.9,107.065c-2.8-15.941.989-40.74,8.6-43.826s19.517,1.79,21.007,9.586-1.006,32.961-4.955,39.133c-2.22,3.47-23.168,3.552-24.649-4.893" fill="#ffbb83"/>
        <path id="Trazado_469" data-name="Trazado 469" d="M601.8,172.1l33.223,23.685h3.429c1.04-24.248,2.473-47.943.322-66.767l-14.789-9.86c-9.72,16.691-16.789,36.17-22.185,52.942" fill="#ffedca"/>
        <rect id="Rectángulo_90" data-name="Rectángulo 90" width="57.872" height="137.178" transform="translate(434.618 251.725)" fill="#ead5b0"/>
        <path id="Trazado_470" data-name="Trazado 470" d="M592.266,203.686c0-.4-2.69-.724-16.719-.724s-16.718.325-16.718.724,2.691.723,16.718.723,16.719-.324,16.719-.723" fill="#9e7a6f"/>
        <path id="Trazado_471" data-name="Trazado 471" d="M554.877,96.417l4.136-4.31s3.4-21.042,7.745-23.964c5.573-3.751,8.6,4.042,17.256,3.858,5.037-.107,9.108-3.966,9.108-3.966s-12-20.147-29.135-11.779c-15.019.741-9.11,40.161-9.11,40.161" fill="#824733"/>
        <path id="Trazado_472" data-name="Trazado 472" d="M559.673,87.261l4.379,3.413s.005-20.319,4.5-23.382c0,0-1.048-5.795-5.87-1.213s-3.013,21.182-3.013,21.182" fill="#824733"/>
        <path id="Trazado_473" data-name="Trazado 473" d="M561.07,86.8c-.686-3.611-2.9-6.526-5.017-6.41-2.231.122-3.4,3.513-2.535,7.454.842,3.823,3.24,6.457,5.284,6.007,1.949-.429,2.934-3.539,2.268-7.051" fill="#ffbb83"/>
        <path id="Trazado_474" data-name="Trazado 474" d="M559.673,87.261c-.4-2.137-1.714-3.86-2.968-3.792-1.32.072-2.013,2.078-1.5,4.41.5,2.262,1.917,3.82,3.126,3.554,1.153-.254,1.737-2.094,1.342-4.172" fill="#ed7656"/>
        <path id="Trazado_475" data-name="Trazado 475" d="M559.562,89.21c-.26-1.372-1.1-2.479-1.905-2.436-.848.047-1.293,1.334-.963,2.832.32,1.453,1.23,2.453,2.007,2.282.74-.163,1.114-1.345.861-2.678" fill="#ffbb83"/>
        <path id="Trazado_476" data-name="Trazado 476" d="M623.988,119.155c4.216,5.562,9.188,8.711,14.789,9.86,0,0,5.49-10.5,3.775-15.538s-11.384-13.291-11.384-13.291-5.251,6-7.18,18.969" fill="#ff9d66"/>
        <path id="Trazado_477" data-name="Trazado 477" d="M625.953,110.63c1.407-10.209,7.168-21.529,8.125-22.043s4.185.308,4.314,1.745-2.97,13.278-2.97,13.278c-2.059,5.718-5.516,7.133-9.469,7.02" fill="#ffbb83"/>
        <path id="Trazado_478" data-name="Trazado 478" d="M632.161,107.422c.83-4.319,3.319-5.714,5.355-4.32s1.075,5.606-.1,7.535-5.787-.429-5.251-3.215" fill="#ffbb83"/>
        <path id="Trazado_479" data-name="Trazado 479" d="M624.9,115.254c1.037-6.907,3.593-9.137,5.562-6.909s.806,8.965-.465,12.05-5.767-.686-5.1-5.141" fill="#ffbb83"/>
        <path id="Trazado_480" data-name="Trazado 480" d="M631.191,108.4c5.125,3.6,6.781,7.47,5.131,9.123s-6.65-2.042-8.94-4.635.5-6.809,3.809-4.488" fill="#ffbb83"/>
        <path id="Trazado_481" data-name="Trazado 481" d="M635.9,110.019c.831-4.319,3.319-5.714,5.355-4.321s1.076,5.607-.1,7.536-5.787-.429-5.251-3.215" fill="#ffbb83"/>
        <path id="Trazado_482" data-name="Trazado 482" d="M638.459,115.168c.7-4.414,2.779-6.093,4.483-4.932s.9,5.485-.087,7.548-4.844.231-4.4-2.616" fill="#ffbb83"/>
        <path id="Trazado_483" data-name="Trazado 483" d="M543.823,195.782H550.9c-4.339-6.783-6.33-16.363-7.608-26.792.19,9.546.372,18.6.535,26.792" fill="#efd4a5"/>
        <path id="Trazado_484" data-name="Trazado 484" d="M636.008,195.782h-29.15l-3.8-27.521c5.859,15.6,16.265,25.5,32.955,27.521" fill="#efd4a5"/>
        <path id="Trazado_485" data-name="Trazado 485" d="M550.79,156.772l19.934-.429,2.037,13.517-21.542.2Z" fill="#efd4a5"/>
        <path id="Trazado_486" data-name="Trazado 486" d="M558.856,150.782l4.277-.226.437,7.106-4.622.106Z" fill="#efd4a5"/>
        <path id="Trazado_487" data-name="Trazado 487" d="M552.132,156.673l18.253-.41,1.866,12.928-19.726.192Z" fill="#fff3e1"/>
        <path id="Trazado_488" data-name="Trazado 488" d="M454.747,207.685c-3.889,5.647-8.053-1.264-8.527-6.082,6.453.041,10.834,1.442,8.527,6.082" fill="#a09d45"/>
        <path id="Trazado_489" data-name="Trazado 489" d="M459.778,191.209c-4.008,3.7-6.884-2.174-6.772-5.9,5.622,1,9.289,2.728,6.772,5.9" fill="#a09d45"/>
        <path id="Trazado_490" data-name="Trazado 490" d="M460,201.333c-.393-5.778,5.584-6.983,8.6-6.279-2.175,6.091-6.829,13.6-8.6,6.279" fill="#a09d45"/>
        <path id="Trazado_491" data-name="Trazado 491" d="M462.26,175.25c-3.329,8.04-8.289,7.3-12.572,4.863s1.709-5.569,6.723-5.658,5.849.795,5.849.795" fill="#efd154"/>
        <path id="Trazado_492" data-name="Trazado 492" d="M464.808,172.988c5.257,6.64,9.839,4.6,13.338,1.157s-3.067-4.761-7.914-3.486-5.424,2.329-5.424,2.329" fill="#efd154"/>
        <path id="Trazado_493" data-name="Trazado 493" d="M466.315,174.08l-5.689.368c-2.5,3.329-2.463,8.824,5.239,6.762,6.52-1.747,5.692-6.072.45-7.13" fill="#efd154"/>
        <path id="Trazado_494" data-name="Trazado 494" d="M459.2,174.952l3.154-1.185c1.437-2.174-2.1-4.434-8.734-2.471-6.272,1.856-.308,3.948,5.58,3.656" fill="#efd154"/>
        <path id="Trazado_495" data-name="Trazado 495" d="M464.139,173.061l-3.1-.447c-1.814-1.788.771-4.764,7.15-4.335,6.031.4,1.25,3.757-4.054,4.782" fill="#efd154"/>
        <path id="Trazado_496" data-name="Trazado 496" d="M468.135,172.812c-.207-1.014-2.826-1.369-5.85-.794s-5.3,1.862-5.1,2.876,2.826,1.369,5.849.794,5.306-1.862,5.1-2.876" fill="#f7eac1"/>
        <path id="Trazado_497" data-name="Trazado 497" d="M572.18,88.581c-.049-1.617-.691-2.908-1.436-2.884s-1.307,1.357-1.258,2.974.691,2.909,1.435,2.884,1.308-1.356,1.259-2.974" fill="#604748"/>
        <path id="Trazado_498" data-name="Trazado 498" d="M585.139,90.412c.224-1.6-.192-2.983-.93-3.085s-1.516,1.114-1.741,2.717.192,2.983.93,3.085,1.516-1.114,1.741-2.717" fill="#604748"/>
        <path id="Trazado_499" data-name="Trazado 499" d="M573.13,79.566l-5.336,1.187a1.345,1.345,0,0,0-1.009,1.494l.2,1.347a1.124,1.124,0,0,0,1.366.967l5.336-1.186a1.347,1.347,0,0,0,1.008-1.5l-.2-1.347a1.124,1.124,0,0,0-1.366-.967" fill="#824733"/>
        <path id="Trazado_500" data-name="Trazado 500" d="M586.869,82.588,582.595,81.1c-.526-.183-1.063.208-1.2.873l-.272,1.319a1.327,1.327,0,0,0,.7,1.535l4.275,1.487c.526.182,1.063-.209,1.2-.875l.272-1.319a1.328,1.328,0,0,0-.7-1.535" fill="#824733"/>
        <path id="Trazado_501" data-name="Trazado 501" d="M577.876,91.583s-.25.233-.6.613c.533,2.467.8,6.5-2.644,4.984,0,.1-.033.2-.028.3,5.591,3.484,3.866-4.293,3.275-5.9" fill="#ed7656"/>
        <path id="Trazado_502" data-name="Trazado 502" d="M580.349,101.54a6.257,6.257,0,0,1-.155.85,5.525,5.525,0,0,1-6.519,4.179,5.3,5.3,0,0,1-3.584-6.081Z" fill="#492e36"/>
        <path id="Trazado_503" data-name="Trazado 503" d="M578.457,104.221a4.025,4.025,0,0,0,.918-1.675,4.238,4.238,0,0,0,.1-.654l-8.851-1.049a4.422,4.422,0,0,0,.431,2.47Z" fill="#f9ebd7"/>
        <rect id="Rectángulo_91" data-name="Rectángulo 91" width="44.888" height="71.411" transform="translate(631.515 61.873)" fill="#f2e5c7"/>
        <rect id="Rectángulo_92" data-name="Rectángulo 92" width="32.884" height="4.647" transform="translate(637.759 74.754)" fill="#f3f7fa"/>
        <rect id="Rectángulo_93" data-name="Rectángulo 93" width="32.884" height="4.647" transform="translate(637.759 84.038)" fill="#f3f7fa"/>
        <rect id="Rectángulo_94" data-name="Rectángulo 94" width="32.884" height="4.647" transform="translate(637.759 93.322)" fill="#f3f7fa"/>
        <rect id="Rectángulo_95" data-name="Rectángulo 95" width="32.884" height="4.647" transform="translate(637.759 102.605)" fill="#f3f7fa"/>
        <rect id="Rectángulo_96" data-name="Rectángulo 96" width="32.884" height="4.647" transform="translate(637.759 111.889)" fill="#f3f7fa"/>
        <rect id="Rectángulo_97" data-name="Rectángulo 97" width="32.884" height="4.646" transform="translate(637.759 121.173)" fill="#f3f7fa"/>
        <path id="Trazado_504" data-name="Trazado 504" d="M421.567,122.624l-7.183-.2.035-7.652,7.184-.132Z" fill="#a39f9f"/>
        <path id="Trazado_505" data-name="Trazado 505" d="M407.2,122.228l-7.183-.2.032-6.989,7.184-.133Z" fill="#a39f9f"/>
        <path id="Trazado_506" data-name="Trazado 506" d="M392.835,121.833l-7.183-.2.029-6.327,7.184-.133Z" fill="#a39f9f"/>
        <path id="Trazado_507" data-name="Trazado 507" d="M378.47,121.437l-7.183-.2.026-5.666,7.183-.133Z" fill="#a39f9f"/>
        <path id="Trazado_508" data-name="Trazado 508" d="M364.1,121.04l-7.183-.2.023-5,7.184-.134Z" fill="#a39f9f"/>
        <path id="Trazado_509" data-name="Trazado 509" d="M349.739,120.645l-7.183-.2.02-4.343,7.184-.133Z" fill="#a39f9f"/>
        <path id="Trazado_510" data-name="Trazado 510" d="M335.373,120.25l-7.183-.2.017-3.682,7.184-.133Z" fill="#a39f9f"/>
        <path id="Trazado_511" data-name="Trazado 511" d="M321.007,119.854l-7.183-.2.014-3.02,7.185-.133Z" fill="#a39f9f"/>
        <path id="Trazado_512" data-name="Trazado 512" d="M306.642,119.458l-6.385-.176.011-2.394,6.386-.118Z" fill="#a39f9f"/>
        <path id="Trazado_513" data-name="Trazado 513" d="M429.226,104.147l25.084,14.634-25.215,14.406Z" fill="#a39f9f"/>
      </g>
    </g>
  </g>
</svg>
