<svg xmlns="http://www.w3.org/2000/svg" xmlns:xlink="http://www.w3.org/1999/xlink" width="70.157" height="94.384" viewBox="0 0 70.157 94.384">
  <defs>
    <clipPath id="clip-path">
      <rect id="Rectángulo_28" data-name="Rectángulo 28" width="70.157" height="94.384" transform="translate(0 0)" fill="none"/>
    </clipPath>
  </defs>
  <g id="Grupo_30" data-name="Grupo 30" transform="translate(0 0)">
    <g id="Grupo_29" data-name="Grupo 29" clip-path="url(#clip-path)">
      <path id="Trazado_276" data-name="Trazado 276" d="M55.937,0H18.681A7.026,7.026,0,0,0,11.663,7.02V87.365a7.027,7.027,0,0,0,7.018,7.02H55.937a7.028,7.028,0,0,0,7.019-7.02V7.02A7.027,7.027,0,0,0,55.937,0M13.8,15.271h47.02v63.8H13.8ZM18.681,2.137H55.937A4.889,4.889,0,0,1,60.82,7.02v6.116H13.8V7.02a4.888,4.888,0,0,1,4.882-4.883M55.937,92.249H18.681A4.889,4.889,0,0,1,13.8,87.365v-6.16H60.82v6.16a4.889,4.889,0,0,1-4.883,4.884" fill="#3e145e"/>
      <path id="Trazado_277" data-name="Trazado 277" d="M37.31,24.98s15.315-14.072,28.18.963c0,0,12.778,14.856-9.311,36.731L36.685,77.194s-18.009-12.13-24.9-21.268c0,0-13.447-17.453,0-32.8,0,0,12-9.718,25.521,1.854" fill="#ffe227"/>
      <path id="Trazado_278" data-name="Trazado 278" d="M5.83,43.688a1.193,1.193,0,0,1-1.172-.974,22.537,22.537,0,0,1-.326-2.494,14.935,14.935,0,0,1-.077-1.686c0-11.494,8.589-20.843,19.145-20.843a18.372,18.372,0,0,1,13.8,6.4,18.373,18.373,0,0,1,13.8-6.4,17.728,17.728,0,0,1,5.948,1.025,1.194,1.194,0,1,1-.8,2.251,15.328,15.328,0,0,0-5.148-.886A16.158,16.158,0,0,0,38.155,26.7a1.238,1.238,0,0,1-1.9,0A16.158,16.158,0,0,0,23.4,20.081c-9.231,0-16.744,8.261-16.757,18.422a13.145,13.145,0,0,0,.07,1.517,19.833,19.833,0,0,0,.293,2.253,1.2,1.2,0,0,1-.953,1.394,1.227,1.227,0,0,1-.223.021" fill="#3e145e"/>
      <path id="Trazado_279" data-name="Trazado 279" d="M37.205,77.313a1.206,1.206,0,0,1-.521-.119C25.632,71.845,17.171,65.251,11.536,57.6a1.195,1.195,0,0,1,1.924-1.417C18.773,63.4,26.761,69.659,37.2,74.79c19.743-9.7,26.9-21.434,29.416-29.6a20.021,20.021,0,0,0,1.074-5.135,13.034,13.034,0,0,0,.072-1.477A19.233,19.233,0,0,0,62.52,25.126a1.195,1.195,0,0,1,1.724-1.655,21.576,21.576,0,0,1,5.909,15.058,13.843,13.843,0,0,1-.079,1.723,22.244,22.244,0,0,1-1.185,5.68c-2.666,8.652-10.252,21.141-31.163,31.262a1.209,1.209,0,0,1-.521.119" fill="#3e145e"/>
      <path id="Trazado_280" data-name="Trazado 280" d="M15.2,39.723A1.193,1.193,0,0,1,14,38.529c0-5.608,4.215-10.17,9.4-10.17.189,0,.376.006.562.017a1.194,1.194,0,0,1-.154,2.384c-.134-.009-.271-.013-.408-.013-3.864,0-7.008,3.492-7.008,7.782A1.194,1.194,0,0,1,15.2,39.723" fill="#3e145e"/>
      <path id="Trazado_281" data-name="Trazado 281" d="M30.4,59.24l-.084,0a1.2,1.2,0,0,1-1.075-.9L25.6,43.785,21.88,53.969a1.195,1.195,0,0,1-1.966.435l-3.372-3.373H1.194a1.195,1.195,0,0,1,0-2.389H17.036a1.193,1.193,0,0,1,.844.35l2.4,2.4L24.7,39.309a1.175,1.175,0,0,1,1.184-.783,1.2,1.2,0,0,1,1.1.9L30.669,54.2l1.869-4.618a1.194,1.194,0,0,1,1.106-.746h2.75L42.462,33.6a1.194,1.194,0,0,1,2.3.443v18.2L46.523,48.9a1.194,1.194,0,0,1,1.058-.638h5.726a1.194,1.194,0,1,1,0,2.388H48.3l-3.673,7a1.194,1.194,0,0,1-2.252-.554V40.268l-4.063,10.2a1.2,1.2,0,0,1-1.11.753H34.45l-2.944,7.272a1.2,1.2,0,0,1-1.107.746" fill="#3e145e"/>
    </g>
  </g>
</svg>
