<svg id="Grupo_18" data-name="Grupo 18" xmlns="http://www.w3.org/2000/svg" xmlns:xlink="http://www.w3.org/1999/xlink" width="570.383" height="479.897" viewBox="0 0 570.383 479.897">
  <defs>
    <clipPath id="clip-path">
      <rect id="Rectángulo_9" data-name="Rectángulo 9" width="570.383" height="479.897" fill="none"/>
    </clipPath>
    <clipPath id="clip-path-3">
      <rect id="Rectángulo_1" data-name="Rectángulo 1" width="570.383" height="438.72" fill="none"/>
    </clipPath>
    <clipPath id="clip-path-4">
      <rect id="Rectángulo_2" data-name="Rectángulo 2" width="469.657" height="40.616" transform="translate(19.398 391.606)" fill="none"/>
    </clipPath>
    <clipPath id="clip-path-5">
      <path id="Trazado_64" data-name="Trazado 64" d="M308.354,28.327l1.627,114.917s-10.024-.686-10.024,14.7c.021,43.253,10.619,43.622,10.619,43.622l1.7,132.424h152.5l-3.92-305.663Z" fill="none"/>
    </clipPath>
    <clipPath id="clip-path-7">
      <rect id="Rectángulo_7" data-name="Rectángulo 7" width="47.555" height="69.207" transform="translate(403.624 242.327)" fill="none"/>
    </clipPath>
  </defs>
  <g id="Grupo_17" data-name="Grupo 17" clip-path="url(#clip-path)">
    <g id="Grupo_8" data-name="Grupo 8">
      <g id="Grupo_7" data-name="Grupo 7" clip-path="url(#clip-path)">
        <g id="Grupo_3" data-name="Grupo 3" opacity="0.7">
          <g id="Grupo_2" data-name="Grupo 2">
            <g id="Grupo_1" data-name="Grupo 1" clip-path="url(#clip-path-3)">
              <path id="Trazado_1" data-name="Trazado 1" d="M398.271.182C361.216-2.049,175.349,15.657,78.123,85.363s212.333,78.675,172.3,118.71S-51.694,297.6,9.107,384.244c56.445,80.44,353.791,59.029,466.862,17.3,32.973-12.17,107.139-42.968,92.532-120.117-12.6-66.532-175.831-20.662-130.607-47.408S578.858,136.15,532.558,89.849c-33.4-33.4-232.962,40.279-203.236,10.552S498.709,6.229,398.271.182" fill="#eceffe"/>
            </g>
          </g>
        </g>
        <g id="Grupo_6" data-name="Grupo 6" style="mix-blend-mode: multiply;isolation: isolate">
          <g id="Grupo_5" data-name="Grupo 5">
            <g id="Grupo_4" data-name="Grupo 4" clip-path="url(#clip-path-4)">
              <path id="Trazado_2" data-name="Trazado 2" d="M489.055,411.914s-105.136,20.309-234.828,20.309S19.4,411.914,19.4,411.914s105.136-20.308,234.829-20.308,234.828,20.308,234.828,20.308" fill="#e0e0e0"/>
            </g>
          </g>
        </g>
        <path id="Trazado_3" data-name="Trazado 3" d="M477.3,13.611H313.592a8.158,8.158,0,0,0-8.135,8.134l3.618,323.2a8.159,8.159,0,0,0,8.135,8.135H480.92a8.158,8.158,0,0,0,8.134-8.135l-3.618-323.2a8.158,8.158,0,0,0-8.134-8.134" fill="#323232"/>
        <path id="Trazado_4" data-name="Trazado 4" d="M466.8,13.611H303.088a8.158,8.158,0,0,0-8.135,8.134l3.618,323.2a8.159,8.159,0,0,0,8.135,8.135H470.417a8.158,8.158,0,0,0,8.134-8.135l-3.618-323.2a8.158,8.158,0,0,0-8.135-8.134" fill="#424242"/>
        <path id="Trazado_5" data-name="Trazado 5" d="M464.769,333.99H312.274L308.355,28.328H460.85Z" fill="#c299f6"/>
        <path id="Trazado_6" data-name="Trazado 6" d="M425.708,96.522s.63-11.084-7.7-9.665,2.044,20.865,2.044,20.865,16.149-3.849,16.124-10.188-7.84-5.787-10.467-1.012" fill="#d94562"/>
        <path id="Trazado_7" data-name="Trazado 7" d="M437.774,71.294s-4.44-5.9-8.066-1.6,10,9.728,10,9.728,6.556-8.893,3.82-12.1-6.47.423-5.755,3.98" fill="#d94562"/>
        <path id="Trazado_8" data-name="Trazado 8" d="M419.721,53.167s.052-5.846-4.293-4.889,1.6,10.922,1.6,10.922,8.4-2.431,8.223-5.764-4.268-2.847-5.53-.269" fill="#d94562"/>
      </g>
    </g>
    <g id="Grupo_10" data-name="Grupo 10">
      <g id="Grupo_9" data-name="Grupo 9" clip-path="url(#clip-path-5)">
        <path id="Trazado_9" data-name="Trazado 9" d="M350.462,82.857q1.127,15.489,2.263,30.958c.419,5.788.848,11.576,1.825,17.3.72,4.222,1.805,8.544,4.512,11.87,4.135,5.069,11.106,6.741,17.614,7.437,7.3.762,14.788.675,21.844-1.345a36.889,36.889,0,0,0,4.833-1.746,30.82,30.82,0,0,0,13.042-10.373c4.177-6.034,5.634-14.132,2.9-20.939-2.961-7.372-10.306-12.6-12.2-20.322-1.344-5.469.3-11.209-.023-16.835-1.07-17.864-21.928-29.009-38.223-25.793-6.95,1.381-13.657,5.5-16.661,11.924a23.446,23.446,0,0,0-1.992,8.66,69.944,69.944,0,0,0,.262,9.208" fill="#252727"/>
        <path id="Trazado_10" data-name="Trazado 10" d="M356.767,72.739a16.9,16.9,0,0,1,4.39-10.312,8.058,8.058,0,0,0,11.7,7.683,17.859,17.859,0,0,1,2.606-9.159,19.915,19.915,0,0,0,11.8,12.567c4.4,1.67,9.792,2.031,12.566,5.827,2.137,2.923,1.907,6.938,1.051,10.462s-2.243,6.986-2.12,10.6c.136,4.577,2.666,8.709,5.36,12.409s5.673,7.338,6.99,11.721.5,9.816-3.283,12.393L402.7,147.113c.222.071.432.143.654.214a30.8,30.8,0,0,0,13.041-10.373,23.638,23.638,0,0,0,4.1-16.378,19,19,0,0,0-1.191-4.561c-2.961-7.372-10.306-12.6-12.2-20.322-1.344-5.469.3-11.209-.023-16.835-1.07-17.864-21.928-29.009-38.223-25.793-6.95,1.381-13.657,5.5-16.661,11.924-.125.267-.239.533-.342.8a23.978,23.978,0,0,0-1.65,7.86c2.189-.306,4.378-.614,6.567-.91" fill="#424242"/>
        <path id="Trazado_11" data-name="Trazado 11" d="M361.63,126.773c1.42,4.069,5.445,12.051,15.038,11.185,9.257-.829,17.027-9.972,20.647-15a28.259,28.259,0,0,0-3.11-1.267c-.3-.1-.609-.179-.9-.264-2.8-.822-5.143-1.255-5.143-1.255l-13.974.577a8.209,8.209,0,0,0-2.858.457v.011a27.142,27.142,0,0,0-8.055,4.293q-.787.592-1.645,1.26" fill="#ffa07f"/>
        <path id="Trazado_12" data-name="Trazado 12" d="M376.173,133.711l11.993-13.531c-.107-2.082-.315-2.859-.717-8.006-.438-5.725-.87-11.089-.87-11.089l-15.913,7.064a38.164,38.164,0,0,1,3.432,12.927c.953,9.235,2.075,12.635,2.075,12.635" fill="#ffa07f"/>
        <path id="Trazado_13" data-name="Trazado 13" d="M370.666,108.149a38.164,38.164,0,0,1,3.432,12.927c.52.192,1.026.369,1.5.512,1.9.577,7.718-5.029,11.848-9.415-.438-5.724-.87-11.088-.87-11.088Z" fill="#ff7d6f"/>
        <path id="Trazado_14" data-name="Trazado 14" d="M352.9,89.631q.584,2.223,1.46,4.658s-.39,8.131.536,9.911,6.847,12.873,12.543,11.937c4.753-.78,16.148-8.263,20.037-12.6A4.812,4.812,0,0,0,388.8,101.4c.425-3.238,1.753-17.5,1.885-18.689.353-3.234.7-27.636-28.458-19.645a14.186,14.186,0,0,0-10.243,11.078,35.521,35.521,0,0,0,.914,15.487" fill="#ffa07f"/>
        <path id="Trazado_15" data-name="Trazado 15" d="M362.689,105.85s5.887-4.591,12.642-2.446c0,0-1.847,5.85-5.139,6.4-3.995.663-7.5-3.95-7.5-3.95" fill="#fc5b68"/>
        <path id="Trazado_16" data-name="Trazado 16" d="M363.088,105.937s4.246-2.148,11.884-2.361c0,0-.951,4.58-5.3,5.217a6.851,6.851,0,0,1-6.581-2.856" fill="#fff0e7"/>
        <path id="Trazado_17" data-name="Trazado 17" d="M379.961,89.909a5.215,5.215,0,0,0-9.9,1.488,8.209,8.209,0,0,1,4.718-2.2,8.3,8.3,0,0,1,5.183.708" fill="#161818"/>
        <path id="Trazado_18" data-name="Trazado 18" d="M354.362,94.29s-.39,8.131.536,9.911,6.846,12.873,12.542,11.937c4.754-.781,16.149-8.263,20.037-12.6-4.831,3.659-17.731,13.022-21.677,11.829-4.888-1.477-10.778-11.918-10.717-12.978s.09-7.989.09-7.989-1.063-2.143-2.271-4.767q.582,2.223,1.46,4.658" fill="#ffbf90"/>
        <path id="Trazado_19" data-name="Trazado 19" d="M360.458,91.815a3.937,3.937,0,0,0-7.475,1.124,6.191,6.191,0,0,1,3.562-1.657,6.261,6.261,0,0,1,3.913.533" fill="#161818"/>
        <path id="Trazado_20" data-name="Trazado 20" d="M387.47,101.047a11.261,11.261,0,0,0,7.646-4.642,8.941,8.941,0,0,0,.731-1.193c.976-1.958,1.005-8.607-1.776-10.038-1.949-1-3.269.623-3.885,1.686v0a6.291,6.291,0,0,0-.4.8Z" fill="#ffbf90"/>
        <path id="Trazado_21" data-name="Trazado 21" d="M387.47,101.047a11.261,11.261,0,0,0,7.646-4.642c.117-.192.219-.376.3-.548.975-1.958,1-8.608-1.777-10.037a2.611,2.611,0,0,0-3.458,1.04v0a6.291,6.291,0,0,0-.4.8Z" fill="#ffa07f"/>
        <path id="Trazado_22" data-name="Trazado 22" d="M395.147,90.411a2.851,2.851,0,0,1-.058,1.612c-.65,2.258-2.8,4.05-4.869,5.716a5.592,5.592,0,0,0,.6-3.518c-.062-.412-.169-.819-.19-1.234-.085-1.669,3.58-5.681,4.515-2.576" fill="#ff7d6f"/>
        <path id="Trazado_23" data-name="Trazado 23" d="M389.177,98.417l.117-.073c.076-.05.2-.116.335-.219a4.826,4.826,0,0,0,1.012-.993,4.287,4.287,0,0,0,.79-1.8A3.69,3.69,0,0,0,391.066,93a2.036,2.036,0,0,0-.166-.285l-.046-.07c-.01-.017-.005-.006-.006-.008v0h0l.006-.012.032-.065.067-.13c.045-.085.091-.171.139-.254a9.538,9.538,0,0,1,.6-.945c.211-.293.431-.565.651-.814a6.173,6.173,0,0,1,.647-.654,1.507,1.507,0,0,1,.676-.333,1.106,1.106,0,0,1,.591.072.549.549,0,0,1,.271.227.457.457,0,0,1,.043.11.278.278,0,0,0-.012-.119.53.53,0,0,0-.232-.294,1.2,1.2,0,0,0-.682-.184,1.887,1.887,0,0,0-.9.3,6.117,6.117,0,0,0-.8.629,8.935,8.935,0,0,0-.785.8,8.14,8.14,0,0,0-.719.969c-.056.088-.108.177-.16.267l-.077.137-.1.193-.069.136c.021.043.052.086.078.129l.116.184a1.751,1.751,0,0,1,.143.248,3.914,3.914,0,0,1,.43,2.055A4.421,4.421,0,0,1,390.3,97a4.893,4.893,0,0,1-.76,1.06c-.109.119-.21.2-.271.262l-.1.092" fill="#cf4a57"/>
        <path id="Trazado_24" data-name="Trazado 24" d="M352.738,86.625s1.192-6.168,3.948-5.288,2,1.479,2,1.479Z" fill="#424242"/>
        <path id="Trazado_25" data-name="Trazado 25" d="M379.26,80.831s-9.372-4.915-10.984-1.237c-.941,2.147.544,2.778.544,2.778Z" fill="#424242"/>
        <path id="Trazado_26" data-name="Trazado 26" d="M365.379,99.047a4.308,4.308,0,0,1,1.818-.559,6.138,6.138,0,0,1-3.2,3.354.883.883,0,0,1-.352.1.915.915,0,0,1-.422-.137,7.214,7.214,0,0,1-2.184-1.788,1.393,1.393,0,0,1-.292-.491c-.172-.613.259-.5.633-.365a5.723,5.723,0,0,0,4-.111" fill="#ff7d6f"/>
        <path id="Trazado_27" data-name="Trazado 27" d="M363.849,101.493c-.391-.321-.826-.589-1.226-.9a9.654,9.654,0,0,1-1.365-1.285c1.95-1.467,1.843-3.563,1.648-5.936a6.949,6.949,0,0,0-2.04-4.357,7.243,7.243,0,0,0-.649-.564,2.461,2.461,0,0,0-.711-.357c.129.136.22.3.338.438a12.931,12.931,0,0,1,.9,1.109,8.582,8.582,0,0,1,1.417,4.055,6.983,6.983,0,0,1-.337,2.8,5.5,5.5,0,0,1-1.9,2.677c-.007.005,1.439,1.543,1.579,1.667a7.224,7.224,0,0,0,1.176.85,2.5,2.5,0,0,0,1.375.481.8.8,0,0,0,.431-.148,1.528,1.528,0,0,1-.243-.18c-.033-.03-.064-.06-.1-.091-.093-.091-.19-.177-.29-.259" fill="#fc5b68"/>
        <path id="Trazado_28" data-name="Trazado 28" d="M357.849,100.2c-.286.872-2.138,1.048-4.136.394s-3.386-1.895-3.1-2.767,2.138-1.049,4.136-.394,3.386,1.894,3.1,2.767" fill="#ff7d6f"/>
        <path id="Trazado_29" data-name="Trazado 29" d="M382.437,95.168c.39,1.282-1.675,3.044-4.611,3.936s-5.631.575-6.021-.707,1.675-3.044,4.611-3.936,5.632-.575,6.021.707" fill="#ff7d6f"/>
        <path id="Trazado_30" data-name="Trazado 30" d="M394.071,85.173l-5.119,4.216-.289-11.6-9.524-1.825-2.7-6.776-.637,6.31-11.966.573-3.6-5.54.167,6.723L350.128,80.1s-1.538-21.085,15.079-20.813a68.1,68.1,0,0,1,28.384,6.558l3.21,10.778Z" fill="#252727"/>
        <path id="Trazado_31" data-name="Trazado 31" d="M356.767,72.739a16.9,16.9,0,0,1,4.39-10.312,8.058,8.058,0,0,0,11.7,7.683,17.859,17.859,0,0,1,2.606-9.159,19.915,19.915,0,0,0,11.8,12.567c3.093,1.176,6.687,1.7,9.5,3.235l.041-.133L393.6,65.839a68.284,68.284,0,0,0-28.389-6.555c-10.481-.179-13.733,8.15-14.722,14.325,2.09-.294,4.192-.588,6.282-.87" fill="#424242"/>
        <path id="Trazado_32" data-name="Trazado 32" d="M351.849,65.789a9.007,9.007,0,0,0,1.139,1.619,27.241,27.241,0,0,1,13.437-11.273c.722,2.1,1.455,4.2,2.177,6.294a10.348,10.348,0,0,1,8.177-5.508,22.57,22.57,0,0,0,16.07,12.462l-1.611-5.133A21.918,21.918,0,0,1,402.959,78.5c1.621,6.462.225,13.492,2.469,19.762,1.971,5.53,6.478,9.679,10.2,14.211a28.5,28.5,0,0,1,4.858,8.1,18.978,18.978,0,0,0-1.19-4.56c-2.962-7.373-10.307-12.6-12.2-20.323-1.345-5.468.3-11.209-.023-16.835-1.071-17.864-21.929-29.008-38.224-25.793-6.95,1.381-13.657,5.5-16.66,11.924-.125.267-.239.533-.343.8" fill="#595959"/>
        <path id="Trazado_33" data-name="Trazado 33" d="M402.465,128.952l-8.855-6.013-20.367-1.42-9.524,4.538s3.663,12.5,8.6,13.85,15.136,2.079,15.136,2.079,11.85-1.272,15.01-13.034" fill="#fc9e80"/>
        <path id="Trazado_34" data-name="Trazado 34" d="M418.633,467.937c-.229,2.774-6.826,11.354-10.291,11.034S393.1,469.451,392,463.878c-.312-1.574-.115-4.676.337-8.317.074-.622.162-1.267.251-1.911,1.22-9.013,3.568-20.12,3.568-20.12l15.826,1.3s3.609,12.961,5.521,23.081c.794,4.209,1.3,7.928,1.129,10.021" fill="#fc9e80"/>
        <path id="Trazado_35" data-name="Trazado 35" d="M418.633,467.937c-.229,2.774-6.826,11.354-10.291,11.034S393.1,469.451,392,463.878c-.312-1.574-.115-4.676.337-8.317.074-.622.162-1.267.251-1.911,3.607,3.1,11.757,9.989,12.711,9.848,1.228-.2,4.326-3.624,4.762-5.381s-1.444-23.559-1.444-23.559l3.365.277s3.609,12.961,5.521,23.081c.794,4.209,1.3,7.928,1.129,10.021" fill="#fd7d6f"/>
        <path id="Trazado_36" data-name="Trazado 36" d="M406.888,293.849c-.446,5.273-.912,10.663-1.356,15.761-1.307,14.742-2.427,27.041-2.427,27.041s10.642,25.418,10.58,35.313c-.031,5.145-1.7,62.871-1.7,62.871l-15.83-1.3s-9.342-74.105-12.594-82.991c-1.466-4-3.763-21.349-5.837-39.209-.8-6.864-1.566-13.786-2.24-20.071Z" fill="#fc9e80"/>
        <path id="Trazado_37" data-name="Trazado 37" d="M406.888,293.849c-.446,5.273-.912,10.663-1.356,15.761-1.307,14.742-2.427,27.041-2.427,27.041s10.642,25.418,10.58,35.313c-.031,5.145-1.7,62.871-1.7,62.871l-3.372-.278c-.142-16.583-.55-54.272-1.184-62.505-.813-10.632-10.344-37.074-10.344-37.074s1.984-22.458,3.6-41.641Z" fill="#fd7d6f"/>
        <path id="Trazado_38" data-name="Trazado 38" d="M350.23,354.507c2.228,4.031,4.494,8.346,5.893,11.585,2.574,5.98,10.545,74.928,10.545,74.928l-15.823,3.469s-22.92-82.134-26.879-89.982Z" fill="#fc9e80"/>
        <path id="Trazado_39" data-name="Trazado 39" d="M350.23,354.507c2.228,4.031,4.494,8.346,5.893,11.585,2.574,5.98,10.545,74.928,10.545,74.928l-6.087,1.335-.554-11.12s-4.18-57.552-7.888-62.175c-1.793-2.24-5.4-8.6-8.633-14.553Z" fill="#fd7d6f"/>
        <path id="Trazado_40" data-name="Trazado 40" d="M336.792,226.342l57.821-1.879,14.534,6.224-1.913-29.013,1.913-75.9-8.386-2.738-2.691-.232-1.264-.1-4.338-.371-15.184-.892c-.626.6-4.373.336-8.792-.209-1.4-.186-2.865.208-4.315,0-1.612-.244-12.1,1.626-12.1,1.626s-11.735,87.931-15.284,103.486" fill="#fff"/>
        <path id="Trazado_41" data-name="Trazado 41" d="M359.974,147.259,361,185.094l17.837-32.66L400.76,123.04l-3.446-.986L396.1,122l-3.63.337-15.183-.892c-.627.6-8.792-.209-8.792-.209s-.9-.358-5.4.035Z" fill="#414156"/>
        <path id="Trazado_42" data-name="Trazado 42" d="M396.808,122.7c-3.108,2.633-11.627,3.966-18.889,3.641-7.075-.325-8.485-2.086-9.436-5.114a70.411,70.411,0,0,1,12.106-1.933,20.881,20.881,0,0,1,11.881,3.035Z" fill="#fc9e80"/>
        <path id="Trazado_43" data-name="Trazado 43" d="M319.017,339.934c1.1,7.527,19.429,86.761,19.429,86.761h32.419s-4.385-58.657-4.547-62.612-8.989-29.033-8.989-29.033l12.806-67.217c1.136,22.782,3.038,61.545,3.038,65.048,0,4.988,9.477,93.814,9.477,93.814h38.486s-1.242-45.48-2.471-52.091-9.592-41.723-9.592-41.723,1.02-71.972,1.426-77.088c.348-4.488-5.88-27.745-8.235-33.474H337.553c-3.932,22.235-19.5,111.026-18.536,117.615" fill="#c2adb9"/>
        <path id="Trazado_44" data-name="Trazado 44" d="M361.714,376.124c.8,7.052.464,35.018.2,50.571h8.955s-4.385-58.656-4.547-62.611-8.989-29.033-8.989-29.033l12.805-67.217L352.922,256.5l8.792,17.468-11.727,65.965s10.6,26.259,11.727,36.189" fill="#252727"/>
        <path id="Trazado_45" data-name="Trazado 45" d="M409.073,332.881s2.03-34.692,3.406-57.616a21.826,21.826,0,0,1-1.948-2.28,10.135,10.135,0,0,1-4.369-.761c-1.451,19.679-4.327,60.657-4.327,60.657s5.1,34.972,7.307,42.14c1.66,5.4,2.436,36.606,2.7,51.673h9.291s-1.241-45.479-2.471-52.09-9.592-41.723-9.592-41.723" fill="#af97a6"/>
        <path id="Trazado_46" data-name="Trazado 46" d="M383.927,232.177a3.514,3.514,0,1,0,3.513-3.514,3.514,3.514,0,0,0-3.513,3.514" fill="#252727"/>
        <path id="Trazado_47" data-name="Trazado 47" d="M340.455,204.256l-21.48,83.9,24.769,3.116,8.146-6.329,8.536,7.6,57.107,7.243-4.1-41.989-5.7-48.508Z" fill="#fff"/>
        <path id="Trazado_48" data-name="Trazado 48" d="M351.889,284.938s-1.156-41.854,0-58.619S361,185.094,361,185.094s-6.41,30.877-6.41,35.952-1.547,44.5-1.353,49.738-1.35,14.154-1.35,14.154" fill="#d0d1d3"/>
        <path id="Trazado_49" data-name="Trazado 49" d="M342.041,188.277a146.274,146.274,0,0,0,8.414-14.787l4.331,6.97-2.755-57.6a59.768,59.768,0,0,0-8.664,2.079c-2.478.96-14.618,37.07-18.082,47.666.412,1.2.843,2.4,1.284,3.594q7.846,5.9,15.472,12.082" fill="#fff"/>
        <path id="Trazado_50" data-name="Trazado 50" d="M349.987,129.862s-10.3,20.524-10.3,24.384,4.694,21.938,4.694,21.938-8.292-17.492-7.6-23.161,13.2-23.161,13.2-23.161" fill="#d0d1d3"/>
        <path id="Trazado_51" data-name="Trazado 51" d="M357.357,177.128l-7.37-30.448,3.685-1.74-3.685-2.954,7.37-19.665s-9.724,19.418-9.627,19.665,2.257,2.664,2.257,2.664-1.754,1.575-1.764,2.043,9.134,30.435,9.134,30.435" fill="#d0d1d3"/>
        <path id="Trazado_52" data-name="Trazado 52" d="M368.808,202.046l-8.153-30.42h-.036l-6.158-22.974a2.925,2.925,0,0,0-2.891-2.167l-43.925,1a2.925,2.925,0,0,0-2.759,3.681l8.153,30.421h.037l6.156,22.974a2.926,2.926,0,0,0,2.892,2.167l43.925-1a2.925,2.925,0,0,0,2.759-3.682" fill="#6d6e71"/>
        <path id="Trazado_53" data-name="Trazado 53" d="M316.732,159.9l30.318-.294.679,3.414h-29.9Z" fill="#929496"/>
        <path id="Trazado_54" data-name="Trazado 54" d="M318.307,166.434l30.318-.294.679,3.414H319.4Z" fill="#929496"/>
        <path id="Trazado_55" data-name="Trazado 55" d="M314.679,165.339c.314,1.442-5.134,6.515-3.479,4.962s9.978-4.47,10.808-3.029-8.317,10.239-8.317,10.239,8.644-5.187,9.686-2.1c.341,1.011-.582,2.578-1.967,4.228,2.407-.15,4.38.17,3.947,1.747-1.018,3.716-11.634,5.4-11.634,5.4-12.476.662-8.419-18.74-8.419-18.74s9.061-4.156,9.375-2.713" fill="#ffa07f"/>
        <path id="Trazado_56" data-name="Trazado 56" d="M350.495,220.892l-13.726-2.737-1.546,5.943,14.208,2.385Z" fill="#d0d1d3"/>
        <path id="Trazado_57" data-name="Trazado 57" d="M399.064,224.572l-26.437-2.895-1.02,6.056,27.457,3.74Z" fill="#d0d1d3"/>
        <path id="Trazado_58" data-name="Trazado 58" d="M402.465,125.811l-7.421,25.121h-7.57l4.966,5.151L366,180.9l22.618-24.814s-6.128-7.47-5.191-7.229,9.564-.391,9.564-.391Z" fill="#d0d1d3"/>
        <path id="Trazado_59" data-name="Trazado 59" d="M373.761,119.164s4.07,6.742,4.158,7.18-7.926,5.234-8.889,5.165-.547-10.279-.547-10.279Z" fill="#fff"/>
        <path id="Trazado_60" data-name="Trazado 60" d="M388.161,119.164l-10.242,7.18s3.954,7.3,5.442,7.383,13.954-11.672,13.954-11.672-5.215-2.669-9.154-2.891" fill="#fff"/>
        <path id="Trazado_61" data-name="Trazado 61" d="M377.292,133.226a1.473,1.473,0,1,1-1.474-1.474,1.475,1.475,0,0,1,1.474,1.474" fill="#313044"/>
        <path id="Trazado_62" data-name="Trazado 62" d="M375.818,139.5a1.473,1.473,0,1,1-1.474-1.474,1.475,1.475,0,0,1,1.474,1.474" fill="#313044"/>
        <path id="Trazado_63" data-name="Trazado 63" d="M374.345,145.767a1.474,1.474,0,1,1-1.475-1.474,1.474,1.474,0,0,1,1.475,1.474" fill="#313044"/>
      </g>
    </g>
    <g id="Grupo_12" data-name="Grupo 12">
      <g id="Grupo_11" data-name="Grupo 11" clip-path="url(#clip-path)">
        <path id="Trazado_65" data-name="Trazado 65" d="M387.721,280.159a16.776,16.776,0,1,1-16.776-16.775,16.776,16.776,0,0,1,16.776,16.775" fill="#d94562"/>
        <path id="Trazado_66" data-name="Trazado 66" d="M368.035,285.921a5.673,5.673,0,0,0-1.717-3.211s4.237-4.687,8.563-5.048a3.47,3.47,0,0,0,1.8,3.335l5.679-3.335s-2.974-4.777-7.482-3.786-12.259,6.58-13.612,8.654.872,7.061.872,7.061Z" fill="#fff"/>
        <rect id="Rectángulo_4" data-name="Rectángulo 4" width="37.126" height="16.776" transform="translate(73.911 400.709)" fill="#3e145e"/>
        <rect id="Rectángulo_5" data-name="Rectángulo 5" width="37.126" height="16.776" transform="translate(315.643 400.709)" fill="#3e145e"/>
        <path id="Trazado_67" data-name="Trazado 67" d="M366.857,293.284,330.52,382.79H93.037L56.7,293.284s.764-11.326,5.848-21.191c2.881-5.576,7.133-10.679,13.413-13.011,16.224-6.035,255.421-6.035,271.635,0,6.368,2.371,10.65,7.583,13.52,13.246a61.427,61.427,0,0,1,5.741,20.956" fill="#dbcbf4"/>
        <path id="Trazado_68" data-name="Trazado 68" d="M361.116,272.328c-126.089-10.415-248.788-3.821-298.567-.235,2.879-5.576,7.132-10.679,13.412-13.011,16.224-6.035,255.421-6.035,271.634,0,6.369,2.371,10.65,7.583,13.521,13.246" fill="#c299f6"/>
        <path id="Trazado_69" data-name="Trazado 69" d="M324.417,385.275c-38.022-1.593-76.082-1.884-114.137-1.863l-56.58.029c-19.183.011-38.42-.3-57.556,1.176a.735.735,0,0,0,0,1.47c18.813,1.451,37.721,1.165,56.58,1.175l57.556.031c38.055.019,76.115-.271,114.137-1.865a.077.077,0,0,0,0-.153" fill="#456997"/>
        <path id="Trazado_70" data-name="Trazado 70" d="M308.571,349.42c-6.6-3.165-15.31-3.348-22.5-4.347q-11.488-1.6-23.034-2.735-25.024-2.456-50.2-2.69c-32.419-.276-65.832,1.462-97.58,8.25-1.061.226-.848,2.051.26,1.924,32.129-3.683,63.952-7.145,96.371-6.908q23.724.174,47.375,2.26,13.019,1.167,25.975,2.935c7.3,1,15.563,3.609,22.909,2.909.759-.073,1.276-1.194.433-1.6" fill="#3e145e"/>
        <path id="Trazado_71" data-name="Trazado 71" d="M89.989,399.465c.165-.909.331-1.832.49-2.77l.189-1.061c1.055-6.062,2.131-12.775,3.12-19.808.449-3.208.877-6.5,1.275-9.819a307.844,307.844,0,0,0,2.515-40.463c-.328-19.445-3.722-35.453-12.987-40.536a35.66,35.66,0,0,0-4.4-2.052c-19.663-7.633-38.98,5.218-41.534,24.509-2.075,15.724,11.7,69.408,18.482,94.429,10.916-1.288,21.878-1.833,32.846-2.429" fill="#dbcbf4"/>
        <path id="Trazado_72" data-name="Trazado 72" d="M98.775,343.36a114.369,114.369,0,0,0-1.316-18.026c-1.786-11.993-5.09-24.723-10.947-35.422a.184.184,0,0,0-.331.159C90.119,301.617,93.673,312.8,94.976,325a141.058,141.058,0,0,1,.685,18.151c-.115,5.161-1.611,11.3-.564,16.315.132.629,1.143.975,1.491.312,2.412-4.588,2.13-11.323,2.187-16.416" fill="#3e145e"/>
        <path id="Trazado_73" data-name="Trazado 73" d="M71.227,313.033a7.389,7.389,0,1,1-3.946-9.675,7.388,7.388,0,0,1,3.946,9.675" fill="#c299f6"/>
        <path id="Trazado_74" data-name="Trazado 74" d="M73.445,309.038a10.706,10.706,0,0,0-7.758-6.229,8.728,8.728,0,0,0-9.069,4.3c-2.321,3.844-1.517,8.391-.107,12.4.142.4.828.234.734-.195-.714-3.262-1.017-6.576.35-9.729,1.572-3.626,5.026-5.874,8.936-4.427,5.643,2.089,7.818,10.19,5.523,15.4-.1.22.271.366.339.143,1.188-3.908,2.826-7.653,1.052-11.668" fill="#3e145e"/>
        <path id="Trazado_75" data-name="Trazado 75" d="M332.8,399.465q-.25-1.363-.491-2.77l-.189-1.061c-1.055-6.062-2.132-12.775-3.12-19.808-.449-3.208-.877-6.5-1.276-9.819a308.006,308.006,0,0,1-2.514-40.463c.327-19.445,3.722-35.453,12.987-40.536a35.8,35.8,0,0,1,4.4-2.052c19.664-7.633,38.981,5.218,41.534,24.509,2.076,15.724-11.7,69.408-18.482,94.429-10.915-1.288-21.877-1.833-32.845-2.429" fill="#dbcbf4"/>
        <path id="Trazado_76" data-name="Trazado 76" d="M324.011,343.36a114.251,114.251,0,0,1,1.316-18.026c1.786-11.993,5.09-24.723,10.947-35.422a.184.184,0,0,1,.331.159c-3.938,11.546-7.492,22.727-8.8,34.927a141.058,141.058,0,0,0-.685,18.151c.115,5.161,1.611,11.3.564,16.315-.132.629-1.143.975-1.491.312-2.412-4.588-2.13-11.323-2.187-16.416" fill="#3e145e"/>
        <path id="Trazado_77" data-name="Trazado 77" d="M351.558,313.033a7.389,7.389,0,1,0,3.946-9.675,7.388,7.388,0,0,0-3.946,9.675" fill="#c299f6"/>
        <path id="Trazado_78" data-name="Trazado 78" d="M349.341,309.038a10.706,10.706,0,0,1,7.758-6.229,8.726,8.726,0,0,1,9.068,4.3c2.321,3.844,1.518,8.391.107,12.4-.141.4-.827.234-.733-.195.714-3.262,1.017-6.576-.35-9.729-1.572-3.626-5.027-5.874-8.936-4.427-5.643,2.089-7.818,10.19-5.524,15.4.1.22-.27.366-.338.143-1.188-3.908-2.826-7.653-1.052-11.668" fill="#3e145e"/>
        <path id="Trazado_79" data-name="Trazado 79" d="M386.918,385.6a16.7,16.7,0,0,1-4.987,13.354c-2.919,2.723-7.485,4.927-14.637,5.525-1.234.1-2.547.157-3.938.157H66.846c-1.391,0-2.7-.058-3.939-.157-7.152-.6-11.717-2.8-14.636-5.525A16.7,16.7,0,0,1,43.284,385.6c.147-.088.284-.166.431-.245-.147-.078-.284-.156-.431-.234a16.238,16.238,0,0,1,.029-2.92,16.062,16.062,0,0,1,4.958-10.444c2.919-2.723,7.484-4.928,14.636-5.525q1.852-.148,3.939-.148h296.51q2.087,0,3.938.148c7.152.6,11.718,2.8,14.637,5.525a16.062,16.062,0,0,1,4.958,10.444,16.238,16.238,0,0,1,.029,2.92c-.157.078-.284.156-.431.234.147.079.274.157.431.245" fill="#3e145e"/>
        <path id="Trazado_80" data-name="Trazado 80" d="M386.888,382.2a16.111,16.111,0,0,1-4.958,10.444c-2.919,2.713-7.485,4.928-14.636,5.516-1.235.107-2.548.156-3.939.156H66.845c-1.391,0-2.7-.049-3.937-.156-7.153-.588-11.719-2.8-14.638-5.516a13.48,13.48,0,0,1,0-20.887c2.919-2.724,7.485-4.928,14.638-5.526q1.849-.147,3.937-.147h296.51q2.086,0,3.939.147c7.151.6,11.717,2.8,14.636,5.526a16.06,16.06,0,0,1,4.958,10.443" fill="#c299f6"/>
        <path id="Trazado_81" data-name="Trazado 81" d="M221.08,246a7.1,7.1,0,0,0,3.241,2.945c2.34,1.366,4.62,3.021,6.959,4.381l3.641,6.3,5.858-5.164,1.722-1.519-3.608-6.09a30.441,30.441,0,0,0,.129-11.88,43.152,43.152,0,0,1-1.1-4.651c-.205-2.023.288-4.049.318-6.085a1.966,1.966,0,0,0-.33-1.33,1.4,1.4,0,0,0-1.653-.223,3.363,3.363,0,0,0-1.25,1.261c-.035.054-.074.113-.1.17a12.647,12.647,0,0,0-1.87,7.839,1.8,1.8,0,0,1-.1,1.035,1.483,1.483,0,0,1-.739.56,8.653,8.653,0,0,1-5.673.1,4.383,4.383,0,0,0-2.354-.263c-1.115.335-1.657,1.569-2,2.68a34.184,34.184,0,0,0-1.366,6.72A6.411,6.411,0,0,0,221.08,246" fill="#ff7d6f"/>
        <path id="Trazado_82" data-name="Trazado 82" d="M233.443,251.208l4.234,5.988,4.824-4.254-3.608-6.09a30.441,30.441,0,0,0,.129-11.88,43.152,43.152,0,0,1-1.1-4.651c-.205-2.023.288-4.05.318-6.085a1.971,1.971,0,0,0-.33-1.33,1.4,1.4,0,0,0-1.654-.223,3.361,3.361,0,0,0-1.249,1.261c-.035.054-.074.113-.1.17a2.628,2.628,0,0,1,1.124-.085c.938.287.714,1.642.509,2.6-.486,2.285.327,4.618.812,6.9.933,4.4-2.435,13.433-3.908,17.679" fill="#ffa07f"/>
        <path id="Trazado_83" data-name="Trazado 83" d="M229.459,242.318a13.483,13.483,0,0,0,.3,6.3,10.763,10.763,0,0,1-1.645-5.919,6.4,6.4,0,0,1,2.949-5.2,2.848,2.848,0,0,1,1.082-.443c-.124.749-1.2,1.615-1.593,2.314a10.361,10.361,0,0,0-1.1,2.952" fill="#cf4a57"/>
        <path id="Trazado_84" data-name="Trazado 84" d="M224.251,246.182l11.467-.725a1.544,1.544,0,0,0,1.444-1.638l-1.326-21.01a1.544,1.544,0,0,0-1.639-1.444l-11.467.724a1.544,1.544,0,0,0-1.444,1.638l1.326,21.011a1.544,1.544,0,0,0,1.639,1.444" fill="#424242"/>
        <path id="Trazado_85" data-name="Trazado 85" d="M224.943,244.807l9.915-.626a1.018,1.018,0,0,0,.952-1.08l-1.225-19.409a1.017,1.017,0,0,0-1.08-.952l-9.916.626a1.018,1.018,0,0,0-.952,1.08l1.225,19.409a1.019,1.019,0,0,0,1.081.952" fill="#95e8dc"/>
        <path id="Trazado_86" data-name="Trazado 86" d="M227.932,232.578a2.406,2.406,0,1,1,2.507-.059,4.259,4.259,0,0,1,3.108,3.96l-8.534.2a4.257,4.257,0,0,1,2.919-4.1" fill="#fff"/>
        <path id="Trazado_87" data-name="Trazado 87" d="M220.788,246.669c2.989,1.471,7.034.862,7.034.862a8.1,8.1,0,0,0,.8-2.242c.084-.351.147-.718.2-1.1a21.435,21.435,0,0,0,.19-2.619c.011-.392.013-.788.006-1.182-.021-1.051-.084-2.091-.176-3.061-.032-.416-.075-.817-.116-1.2-.121-1.044-.254-1.949-.364-2.626-.127-.783-.221-1.256-.221-1.256-3.015-.49-7.536,1.223-7.536,1.223a11.869,11.869,0,0,0-.872,3.45,27.4,27.4,0,0,0,1.059,9.749" fill="#ffa07f"/>
        <path id="Trazado_88" data-name="Trazado 88" d="M223.91,236.882s.416.1,1.039.205a18.213,18.213,0,0,0,2.354.264c.548.021,1.069.007,1.535-.021-.032-.416-.076-.817-.116-1.2a5.919,5.919,0,0,0-1.363-.223,6,6,0,0,0-2.5.467,4.989,4.989,0,0,0-.95.51" fill="#cf4a57"/>
        <path id="Trazado_89" data-name="Trazado 89" d="M224.361,240.962s.391.13.975.269a13.751,13.751,0,0,0,2.232.349,12.5,12.5,0,0,0,1.44-.006c.011-.392.013-.788.006-1.182a5.531,5.531,0,0,0-1.36-.258,5.842,5.842,0,0,0-2.369.375,5.132,5.132,0,0,0-.924.453" fill="#cf4a57"/>
        <path id="Trazado_90" data-name="Trazado 90" d="M223.634,244.682s.4.142,1.027.291a13.411,13.411,0,0,0,2.381.352,11.655,11.655,0,0,0,1.576-.037c.084-.351.147-.717.2-1.1a6.7,6.7,0,0,0-1.708-.312,6.767,6.767,0,0,0-2.488.368,5.831,5.831,0,0,0-.989.433" fill="#cf4a57"/>
        <path id="Trazado_91" data-name="Trazado 91" d="M219.729,236.92a8.225,8.225,0,0,1,2.292-1.984,9.978,9.978,0,0,1,2.642-.89,19.058,19.058,0,0,1,3.21-.578,2.617,2.617,0,0,1,.485.035c-.127-.783-.221-1.256-.221-1.256-3.015-.49-7.535,1.223-7.535,1.223a11.839,11.839,0,0,0-.873,3.45" fill="#ffbf90"/>
        <path id="Trazado_92" data-name="Trazado 92" d="M217,206.313l4.956,12.309-9.487-7.742Z" fill="#ff8035"/>
        <path id="Trazado_93" data-name="Trazado 93" d="M231.4,213.253l-4.776,5.8,1.277-6.814Z" fill="#ff8035"/>
        <path id="Trazado_94" data-name="Trazado 94" d="M211.982,220.711l6.722,3.354-6.927.282Z" fill="#ff8035"/>
        <path id="Trazado_95" data-name="Trazado 95" d="M234.921,259.623l12.317,19.509,4.181-3.8,5.847-5.314L242.5,252.944l-4.827,4.249Z" fill="#ffa07f"/>
        <path id="Trazado_96" data-name="Trazado 96" d="M234.921,259.623l12.317,19.509,4.181-3.8-13.744-18.142Z" fill="#ff7d6f"/>
        <path id="Trazado_97" data-name="Trazado 97" d="M249.712,266.4l4.018-.469,8.295,8.2,15.58-27.276,5.675,24.357s-17.656,26.717-21.371,25.612-14.671-17.693-14.671-17.693Z" fill="#ffa07f"/>
        <path id="Trazado_98" data-name="Trazado 98" d="M316.052,356.851c0,4.184-46.919,7.575-104.8,7.575s-104.8-3.391-104.8-7.575,46.92-7.576,104.8-7.576,104.8,3.391,104.8,7.576" fill="#c9b3f4"/>
        <path id="Trazado_99" data-name="Trazado 99" d="M278.73,274.225c1.178.892,2.341,1.8,3.511,2.7l8.558-13.236-3.244-30.949s-8.207,7.491-10.6,11.86c-1.6,2.915-7.9,13.363-11.924,20,4.723,2.909,9.2,6.211,13.7,9.62" fill="#254f79"/>
        <path id="Trazado_100" data-name="Trazado 100" d="M272.74,195.791s3.832,28.13,4.911,31.937l9.938-5.163-10.52-30.315Z" fill="#3f0727"/>
        <path id="Trazado_101" data-name="Trazado 101" d="M285.192,294.6l37.89,28.66,3.363-13.472,3.8-15.219c-7.663-7.444-41-13.382-41-13.382l-2.78,9.2Z" fill="#ffa07f"/>
        <path id="Trazado_102" data-name="Trazado 102" d="M286.461,290.389c12.509,3.868,32.89,15.3,39.983,19.4l3.8-15.218c-7.664-7.444-41.005-13.382-41.005-13.382Z" fill="#ff7d6f"/>
        <path id="Trazado_103" data-name="Trazado 103" d="M287.622,270.829c.555,1.045-1.645,18.836-3.463,25.351,13.557,12.369,42.271,29.587,42.271,29.587s11.794-28.91,9.592-77.975c-3.966-16.373-10.356-20.474-12.982-22.788-1.079-.944-4.51-1.417-8.2-1.64-5.342-.314-11.213-.119-11.213-.119l-12.434,6.523-.154.088c-.625.393-2.979,1.881-3.481,2.889-.272.363-.59,2.474-1.545,5.348-.068.187-.125.383-.193.581-1.758,5.337-4.131,12.666-3.529,15.06.947,3.827,4.085,14.75,5.333,17.1" fill="#456997"/>
        <path id="Trazado_104" data-name="Trazado 104" d="M303.55,247.127a.252.252,0,0,1,.037,0c8.656-2.069,10.746-17,11.252-23.762-5.343-.314-11.213-.119-11.213-.119l-12.434,6.524s-.055.029-.155.087c-.262.167-.842.53-1.457.959v.009c-.56,3.851-.687,18.947,13.969,16.3" fill="#ffa07f"/>
        <path id="Trazado_105" data-name="Trazado 105" d="M310.588,225.516l-7.161,12.544-5.995-7.107s-.185-1.109-.258-1.538c-.175-1.022-.3-1.753-.335-1.913-.282-1.307-2.623-6.73-2.623-6.73l12.526-9.36s.839,2.818,1.736,5.936c1.082,3.762,2.11,8.168,2.11,8.168" fill="#ffa07f"/>
        <path id="Trazado_106" data-name="Trazado 106" d="M308.478,217.348c-3.255,3.639-10.434,11.61-11.232,12.036a.412.412,0,0,1-.072.031c-.175-1.022-.3-1.753-.335-1.913-.282-1.307-2.623-6.73-2.623-6.73l12.526-9.361s.839,2.819,1.736,5.937" fill="#ff7d6f"/>
        <path id="Trazado_107" data-name="Trazado 107" d="M312.9,322.584a74.3,74.3,0,0,1-9.32,5.076c-.894.425-1.8.817-2.723,1.194l-3.476,1.434a297.807,297.807,0,0,1-43.347-58.93,83.8,83.8,0,0,1,39.619-31.128s1.82,1.519,4.76,4.365c8.719,8.417,27.253,28.489,37.468,55.4A79.278,79.278,0,0,1,312.9,322.584" fill="#d94562"/>
        <path id="Trazado_108" data-name="Trazado 108" d="M303.576,327.66c-.895.425-1.8.816-2.724,1.193l-3.475,1.435a297.767,297.767,0,0,1-43.347-58.93,83.8,83.8,0,0,1,39.619-31.129s1.82,1.52,4.76,4.366c-2.937,2.985-7.892,5.539-9.7,7.377-7.232,7.28-13.111,17.245-11.857,28.75a47.452,47.452,0,0,0,4.073,13.669,110.167,110.167,0,0,0,22.656,33.269" fill="#aa2b48"/>
        <path id="Trazado_109" data-name="Trazado 109" d="M151.031,337.388l-7.383,2.957-12.014,4.8-8.008-14.762,13.6-6.162,6.995-3.175Z" fill="#fff5f2"/>
        <path id="Trazado_110" data-name="Trazado 110" d="M103.372,314.132a2.541,2.541,0,0,1,2.475.4c2.368,1.989,10.421,9.6,13.636,11.151,2.5,1.205,6.674,1.29,8.416,1.267l7.7,17.747c-3.921,3.18-12.107,8.032-13.824,9.039Z" fill="#008c7b"/>
        <path id="Trazado_111" data-name="Trazado 111" d="M99.461,315.928l18.407,39.6,3.91-1.8-18.406-39.6Z" fill="#f6ded4"/>
        <path id="Trazado_112" data-name="Trazado 112" d="M119.937,329.519c-.032.048-.064.1-.1.143-.253.35-.721.717-1.141.352a1.4,1.4,0,0,1-.379-.748,9.076,9.076,0,0,1-.173-2.884,6.808,6.808,0,0,1,.712-3.049c.563-.934,1.686-.524,1.933.506a7.77,7.77,0,0,1-.854,5.68" fill="#f6ded4"/>
        <path id="Trazado_113" data-name="Trazado 113" d="M116.46,327.506c-.032.048-.065.1-.1.143-.252.35-.721.717-1.14.353a1.41,1.41,0,0,1-.379-.748,9.051,9.051,0,0,1-.173-2.884,6.821,6.821,0,0,1,.711-3.05c.564-.934,1.687-.524,1.934.506a7.77,7.77,0,0,1-.854,5.68" fill="#f6ded4"/>
        <path id="Trazado_114" data-name="Trazado 114" d="M113.375,324.475c-.032.048-.065.1-.1.143-.252.35-.721.717-1.14.353a1.407,1.407,0,0,1-.379-.748,9.051,9.051,0,0,1-.173-2.884,6.821,6.821,0,0,1,.711-3.05c.564-.934,1.687-.524,1.934.506a7.77,7.77,0,0,1-.854,5.68" fill="#f6ded4"/>
        <path id="Trazado_115" data-name="Trazado 115" d="M292.76,311.745s-80.663-30.279-85.63-26.87-67.049,35.154-67.049,35.154l7.933,22.231L212.968,317.2,292.2,358.075Z" fill="#252727"/>
        <path id="Trazado_116" data-name="Trazado 116" d="M204.812,325.165l-5.537,5.71-9.013,9.282-13.33-10.216,9.908-11.171,5.093-5.75Z" fill="#fff5f2"/>
        <path id="Trazado_117" data-name="Trazado 117" d="M151.813,323.355a2.544,2.544,0,0,1,2.421-.646c2.973.851,13.43,4.517,17,4.625,2.771.083,6.621-1.543,8.2-2.274L193.7,338.125c-2.284,4.5-7.781,12.269-8.938,13.889Z" fill="#008c7b"/>
        <path id="Trazado_118" data-name="Trazado 118" d="M148.973,326.589l32.951,28.659,2.839-3.234-32.951-28.659Z" fill="#f6ded4"/>
        <path id="Trazado_119" data-name="Trazado 119" d="M173.211,330.653c-.01.058-.02.114-.032.171-.087.423-.365.949-.9.787a1.427,1.427,0,0,1-.651-.528,9.076,9.076,0,0,1-1.332-2.564,6.8,6.8,0,0,1-.594-3.074c.134-1.083,1.327-1.166,1.972-.326a7.772,7.772,0,0,1,1.535,5.534" fill="#f6ded4"/>
        <path id="Trazado_120" data-name="Trazado 120" d="M169.215,330.233c-.009.058-.02.114-.032.171-.087.423-.365.949-.9.787a1.427,1.427,0,0,1-.651-.528A9.076,9.076,0,0,1,166.3,328.1a6.8,6.8,0,0,1-.594-3.074c.134-1.083,1.327-1.166,1.972-.326a7.77,7.77,0,0,1,1.535,5.534" fill="#f6ded4"/>
        <path id="Trazado_121" data-name="Trazado 121" d="M165.162,328.722c-.009.058-.02.114-.032.171-.087.423-.365.949-.9.787a1.413,1.413,0,0,1-.65-.528,9.04,9.04,0,0,1-1.333-2.564,6.8,6.8,0,0,1-.594-3.073c.134-1.084,1.327-1.167,1.972-.326a7.769,7.769,0,0,1,1.535,5.533" fill="#f6ded4"/>
        <path id="Trazado_122" data-name="Trazado 122" d="M326.43,325.545s-3.632,19.993-13.2,27.341-12.779,8.315-18.914,6.477c-8.135-2.888-52.125-50.5-52.125-50.5l-37.974,20.969L186.34,313.788s44.982-46.992,53.45-47.452c12.623-.686,45.4,28.26,45.4,28.26Z" fill="#424242"/>
        <path id="Trazado_123" data-name="Trazado 123" d="M298.586,183.559a17.873,17.873,0,0,0-22.147,4.175,9.017,9.017,0,0,0-2.272,4.4c-.57,5.451,2.491,23.577,9.034,30.4s11.642,3.64,13.393,2.334,9.545-8.608,10.554-12.417-.225-21.059-2.758-24.727c-.879-1.271-3.177-2.757-5.8-4.155" fill="#ffbf90"/>
        <path id="Trazado_124" data-name="Trazado 124" d="M298.76,182.1a17.873,17.873,0,0,0-22.147,4.175,9.017,9.017,0,0,0-2.272,4.4c-.57,5.451,2.491,23.577,9.034,30.4s11.643,3.64,13.394,2.334,9.544-8.608,10.553-12.417-.225-21.059-2.758-24.727c-.878-1.271-3.176-2.757-5.8-4.155" fill="#ffa07f"/>
        <path id="Trazado_125" data-name="Trazado 125" d="M304.9,203.7c.4-.419,1.686-4.6,4.166-3.262s4.159,4.444,3.189,6.892c-.884,2.234-2.311,4.819-5.108,5.112Z" fill="#ffa07f"/>
        <path id="Trazado_126" data-name="Trazado 126" d="M309.936,202.962a2.648,2.648,0,0,1,.379,1.361c.083,2.045-1.14,4.068-2.325,5.962a5.163,5.163,0,0,0-.453-3.087c-.158-.328-.349-.642-.475-.984-.506-1.374,1.321-5.619,2.874-3.252" fill="#ff7d6f"/>
        <path id="Trazado_127" data-name="Trazado 127" d="M307.348,211.106l.073-.091c.047-.059.125-.145.206-.263a4.058,4.058,0,0,0,.534-1.077,3.844,3.844,0,0,0,.147-1.7,3.427,3.427,0,0,0-.9-1.857,1.773,1.773,0,0,0-.207-.2l-.054-.046c-.013-.012-.005,0-.007-.005h0s0,0,0-.011l.009-.064.018-.124c.014-.083.026-.165.042-.246a8.87,8.87,0,0,1,.226-.935c.09-.3.192-.579.3-.84a5.106,5.106,0,0,1,.338-.705,1.18,1.18,0,0,1,.444-.442.856.856,0,0,1,.484-.084.472.472,0,0,1,.273.124.363.363,0,0,1,.062.081.392.392,0,0,0-.04-.1.458.458,0,0,0-.26-.19.95.95,0,0,0-.584.013,1.472,1.472,0,0,0-.632.47,4.86,4.86,0,0,0-.468.721,7.582,7.582,0,0,0-.407.862,7.088,7.088,0,0,0-.31.985c-.02.086-.038.173-.056.262l-.023.133-.029.185-.019.13c.028.031.064.06.1.089l.14.126a1.618,1.618,0,0,1,.178.173,3.618,3.618,0,0,1,.88,1.612,4.071,4.071,0,0,1,.063,1.551,4.3,4.3,0,0,1-.32,1.071c-.055.126-.112.219-.144.285l-.051.1" fill="#cf4a57"/>
        <path id="Trazado_128" data-name="Trazado 128" d="M289.283,210.073a3.07,3.07,0,0,1,1.238-.557,4.384,4.384,0,0,1-1.97,2.658.668.668,0,0,1-.241.1.652.652,0,0,1-.311-.059,5.161,5.161,0,0,1-1.7-1.074.99.99,0,0,1-.251-.322c-.175-.418.14-.372.416-.313a4.086,4.086,0,0,0,2.822-.432" fill="#ff7d6f"/>
        <path id="Trazado_129" data-name="Trazado 129" d="M288.416,211.939c-.3-.193-.637-.344-.947-.53a6.865,6.865,0,0,1-1.08-.788c1.251-1.211.989-2.686.642-4.348a4.954,4.954,0,0,0-2.338-3.246,1.77,1.77,0,0,0-.535-.19c.1.085.182.191.278.281a9.212,9.212,0,0,1,.733.706,6.094,6.094,0,0,1,1.361,2.745,4.963,4.963,0,0,1,.009,2.013,3.925,3.925,0,0,1-1.111,2.062c-.005,0,1.155.965,1.265,1.04a5.23,5.23,0,0,0,.907.5,1.788,1.788,0,0,0,1.016.218.571.571,0,0,0,.292-.143,1.115,1.115,0,0,1-.188-.1c-.026-.019-.051-.037-.076-.057-.074-.055-.15-.108-.228-.157" fill="#fc5b68"/>
        <path id="Trazado_130" data-name="Trazado 130" d="M296.9,216.7a9.243,9.243,0,0,0-6.263-.853,3.375,3.375,0,0,0-1.783.872,1.524,1.524,0,0,0-.251,1.845,1.974,1.974,0,0,1-.945-2.034,2.741,2.741,0,0,1,1.5-1.717,5.057,5.057,0,0,1,2.293-.426A8.97,8.97,0,0,1,296.9,216.7" fill="#fc5b68"/>
        <path id="Trazado_131" data-name="Trazado 131" d="M296.021,208.561c.364.688,2.134.467,3.952-.5s3-2.3,2.633-2.987-2.133-.468-3.952.494-3,2.3-2.633,2.988" fill="#ff7d6f"/>
        <path id="Trazado_132" data-name="Trazado 132" d="M276.01,211.756c-.05.588,1.344,1.187,3.115,1.34s3.247-.2,3.3-.789-1.344-1.188-3.115-1.34-3.248.2-3.3.789" fill="#ff7d6f"/>
        <path id="Trazado_133" data-name="Trazado 133" d="M298.326,201.119a3.75,3.75,0,0,1-2.973,3.144,5.659,5.659,0,0,1-4.476-.932,9.645,9.645,0,0,0,7.449-2.212" fill="#252727"/>
        <path id="Trazado_134" data-name="Trazado 134" d="M278.345,206.6a2.172,2.172,0,0,0,2.563,1.43,3.944,3.944,0,0,0,2.338-2.4,4.71,4.71,0,0,1-4.9.968" fill="#252727"/>
        <path id="Trazado_135" data-name="Trazado 135" d="M289.671,195.142a11.863,11.863,0,0,0,8.881,1.792,9.166,9.166,0,0,1-6.782.981,3.632,3.632,0,0,1-1.742-.919,1.691,1.691,0,0,1-.357-1.854" fill="#55062c"/>
        <path id="Trazado_136" data-name="Trazado 136" d="M280.572,198.48a1.751,1.751,0,0,1,.424,2.1,2.866,2.866,0,0,1-1.751,1.415,8.535,8.535,0,0,1-2.288.308c1.631-.518,3.406-2.123,3.615-3.821" fill="#55062c"/>
        <path id="Trazado_137" data-name="Trazado 137" d="M272.161,198.052l20.127-4.68,1.869-4.536,2.957,4.2,5.087-1.109,2.815,13.674,2.96,14.388,19.87-12.544s-2.8-5.162-6.42-11.26c-4.26-7.155-9.646-15.586-12.978-18.393-6.162-5.205-19.262-3.6-28.536-1.238s-7.751,21.5-7.751,21.5" fill="#3f0727"/>
        <path id="Trazado_138" data-name="Trazado 138" d="M272.161,198.052l20.127-4.68,1.869-4.536,2.957,4.2,5.087-1.109,2.815,13.674a5.983,5.983,0,0,0,2.284-2.21c.943-1.624,1.288-3.966,3.086-4.51,1.778-.552,3.411,1.169,5.221,1.589,2.526.583,5.034-1.587,5.768-4.087a1.8,1.8,0,0,0,.051-.2c-2.229-3.737-4.762-7.834-7.155-11.282a39.259,39.259,0,0,0-5.823-7.111c-6.162-5.205-19.262-3.6-28.536-1.238-5.33,1.349-7.1,8.251-7.628,13.88a49.377,49.377,0,0,0-.123,7.621" fill="#55062c"/>
        <path id="Trazado_139" data-name="Trazado 139" d="M272.284,190.431a19.712,19.712,0,0,1,5.582-.662c4.01.061,8.053.593,12.055.4,1.011-2.241,2.03-4.492,3.05-6.733,2.034,1.489,4.16,3.38,6.2,4.868,1.276-.981,2.56-1.961,3.836-2.94A5.8,5.8,0,0,1,306,183.9c1.737-.1,3.181,1.315,4.883,1.65a4.949,4.949,0,0,0,3.385-.646,39.3,39.3,0,0,0-5.822-7.111c-6.162-5.205-19.263-3.6-28.537-1.238-5.329,1.349-7.1,8.251-7.628,13.88" fill="#6f0a32"/>
        <path id="Trazado_140" data-name="Trazado 140" d="M347.729,28.328s4.31,6.335,11.374,6.335h45.479c6.652,0,9.836-6.335,9.836-6.335l-18.4-5.177-42.7.98Z" fill="#424242"/>
        <path id="Trazado_141" data-name="Trazado 141" d="M304.234,278.448l-1.6,1.711-5.317,5.654-2.574-2.683-2.71-.221c-1.914-.416-16.148-12.1-15.666-13.227a8.067,8.067,0,0,1,.485-.932c.27-.475.569-.892.764-1.17.156-.208.244-.335.244-.335a13.179,13.179,0,0,1,.226-1.452,7.24,7.24,0,0,1,.383-1.371c.184-.438.431-.786.733-.861a7.986,7.986,0,0,1,2.8.932c3.471,1.5,8.81,4.244,8.76,3.8-.083-.618-10.012-9.415-10.012-9.415a2.52,2.52,0,0,1,.182-.922,2.494,2.494,0,0,1,.621-.961c.848-.84,16.841,9.813,16.841,9.813a13.6,13.6,0,0,1,.631-8.961c.017-.022.022-.048.039-.071l0-.013a1.161,1.161,0,0,1,.1-.178.855.855,0,0,1,.273-.278.438.438,0,0,1,.181-.058,1.011,1.011,0,0,1,.376.094,3.815,3.815,0,0,1,1.832,2.588,27.933,27.933,0,0,1,.406,3.218,16.024,16.024,0,0,0,2.333,5.718,4.929,4.929,0,0,1,.541,2.483,16.532,16.532,0,0,1-1.745,6.242l.013,0a.042.042,0,0,1,.023.018c.1.109.434.42.83.833" fill="#ffa07f"/>
        <path id="Trazado_142" data-name="Trazado 142" d="M278.083,265.787c.286.192.58.387.883.572a29.381,29.381,0,0,0,4.772,2.372c1.2.463,2,.69,2.093.714-.076-.061-.725-.581-1.755-1.331-1.1-.8-2.626-1.874-4.368-2.95-.42-.259-.833-.505-1.233-.741a6.886,6.886,0,0,0-.392,1.364" fill="#fc5b68"/>
        <path id="Trazado_143" data-name="Trazado 143" d="M276.852,268.751a31.212,31.212,0,0,0,5.478,2.815,31.328,31.328,0,0,0-4.711-3.992c-.2.281-.491.707-.767,1.177" fill="#fc5b68"/>
        <path id="Trazado_144" data-name="Trazado 144" d="M304.234,278.448l-1.6,1.711c-.01-.015-.021-.029-.033-.032-.211-.208-.421-.417-.615-.649a2.655,2.655,0,0,1-.341-.639,3.173,3.173,0,0,1,.195-1.929c.644-2.017,1.49-4.062,1.354-6.183-.157-2.5-1.664-4.717-2.278-7.161-.451-1.759-.475-3.7-1.451-5.243-.124-.18-.261-.361-.395-.557a1.161,1.161,0,0,1,.1-.178.855.855,0,0,1,.273-.278.438.438,0,0,1,.181-.058,1.011,1.011,0,0,1,.376.094,3.815,3.815,0,0,1,1.832,2.588,27.933,27.933,0,0,1,.406,3.218,16.024,16.024,0,0,0,2.333,5.718,4.929,4.929,0,0,1,.541,2.483,16.389,16.389,0,0,1-1.732,6.244.042.042,0,0,1,.023.018c.1.109.434.42.83.833" fill="#ffbf90"/>
        <path id="Trazado_145" data-name="Trazado 145" d="M336.22,310c-13.712,2.141-38.9-24.184-38.9-24.184l5.317-5.654,1.6-1.711,22.4,12.337L325.1,268.541l3.366-.786,11.384-2.67S345.237,308.6,336.22,310" fill="#ffa07f"/>
        <path id="Trazado_146" data-name="Trazado 146" d="M329.468,296.436l-26.831-16.277,1.6-1.711,22.4,12.337L325.1,268.54l3.365-.786Z" fill="#ffbf90"/>
        <path id="Trazado_147" data-name="Trazado 147" d="M346.974,276.687c-2.029-20.044-9.122-41.077-9.565-42.484-.814-2.616-14.363-8.984-14.363-8.984l-.647,3.292-1.891,9.6,1,40.292c6.323-.6,19.158-1.045,25.466-1.717" fill="#456997"/>
        <path id="Trazado_148" data-name="Trazado 148" d="M315.717,224.014c-.345,1.967,13.352,2.794,13.352,2.794l1.13,3.618-5.752.207-7.237,4.234s.17,1.622.474,3.59a.012.012,0,0,1,0,.017c0,.016.007.024,0,.041.032.143.055.292.086.45.006.026,0,.058.01.082.013.051.025.117.038.168a6.233,6.233,0,0,0,.119.682,26.171,26.171,0,0,0,.634,2.8c.026.1.06.209.086.31a9.54,9.54,0,0,0,.541,1.377,2.047,2.047,0,0,0,.68.9l6.209-2.008s7.552,4.936,8.92,5.019c.549.029,2.646-1.1,4.98-2.444.822-.487,1.646-1.008,2.459-1.487a.39.39,0,0,1,.069-.045c.275-.179,4.174-4.192,4.456-4.362l-6.258-12.454-2.546,1.1c-.489-.419-1-.864-1.531-1.311a26.758,26.758,0,0,0-6.059-4.04,6.818,6.818,0,0,0-2.3-.622c-4.825-.249-12.2-.562-12.563,1.386" fill="#fc9e80"/>
        <path id="Trazado_149" data-name="Trazado 149" d="M317.685,238.469c.038.247.082.5.125.752.053-.019.105-.046.156-.07.88-.417,2.079-.962,3.386-1.522a21.633,21.633,0,0,1,3.481-1.188c.24-.051.454-.1.645-.138s.369-.045.507-.065l.444-.061s-.152-.052-.44-.139c-.145-.038-.324-.092-.533-.14s-.451-.068-.717-.1a8.546,8.546,0,0,0-4.021.647,10.079,10.079,0,0,0-3.033,2.023" fill="#cd4a57"/>
        <path id="Trazado_150" data-name="Trazado 150" d="M318.578,242.7c.024.1.059.207.085.307.247-.116.567-.273.955-.458.88-.417,2.079-.962,3.388-1.526a21.9,21.9,0,0,1,3.479-1.185c.239-.051.458-.1.65-.139.2-.022.366-.047.506-.062l.445-.064s-.155-.054-.446-.137c-.142-.043-.323-.092-.531-.144-.21-.031-.447-.065-.719-.1a8.542,8.542,0,0,0-4.018.643,10.213,10.213,0,0,0-3.188,2.18c-.252.258-.452.49-.606.68" fill="#cd4a57"/>
        <path id="Trazado_151" data-name="Trazado 151" d="M409.147,125.778s9.37,6.206,10.352,10.53-13.435,74.845-15.008,78.076-57.725,27.944-57.725,27.944l-6.73-16.49,40.716-25.03L391.137,160.2Z" fill="#fff"/>
        <path id="Trazado_152" data-name="Trazado 152" d="M401.787,213.131,348.594,238.06,343.605,226.4l38.758-24.1,9.911-42.69-11.523,41.2-40.716,25.029,6.73,16.49s40.792-16.846,57.726-27.943l2.742-12.71Z" fill="#bbbcc0"/>
        <path id="Trazado_153" data-name="Trazado 153" d="M270.8,175.7a.534.534,0,0,1-.191-.036c-.269-.1-6.047-2.4-7.471-6.7-1.47-.571-3.383-2.071-4.393-5.946a.525.525,0,0,1,1.017-.264,7.9,7.9,0,0,0,3.1,4.922c0-.014,0-.029,0-.043-.224-2.229.8-3.138,1.432-3.481a3.353,3.353,0,0,1,3.547.381,2.156,2.156,0,0,1,.825,2.333,3.814,3.814,0,0,1-3.782,2.438,4.234,4.234,0,0,1-.48-.027c1.633,3.443,6.538,5.391,6.6,5.413a.526.526,0,0,1-.191,1.015m-6.8-7.553a3.854,3.854,0,0,0,.84.1h.035a2.8,2.8,0,0,0,2.771-1.673,1.138,1.138,0,0,0-.469-1.228,2.294,2.294,0,0,0-2.389-.279c-.705.383-1.013,1.232-.891,2.454a5.28,5.28,0,0,0,.1.623" fill="#424242"/>
        <path id="Trazado_154" data-name="Trazado 154" d="M261.455,214.682c-1.17,1.352-3.622,1.158-5.08.059a3.4,3.4,0,0,1-1.316-3.458c-1.922.624-4.533,2.523-6.929,7.771a.526.526,0,0,1-.956-.437c2.833-6.206,6.07-8.06,8.279-8.523a7.154,7.154,0,0,1,.671-1.136c3.641-5.133,11.807-4.2,12.152-4.163a.525.525,0,0,1-.128,1.043c-.077-.01-7.856-.908-11.169,3.728q-.138.2-.257.39a5.481,5.481,0,0,1,4.874,2.651,1.829,1.829,0,0,1-.081,2c-.019.026-.04.05-.06.073m-5.249-3.647a2.392,2.392,0,0,0,.8,2.867c1.175.886,3.014.917,3.688.052.21-.264.064-.668-.043-.885a4.467,4.467,0,0,0-3.974-2.063c-.147,0-.305.01-.472.029" fill="#424242"/>
        <path id="Trazado_155" data-name="Trazado 155" d="M287.8,169.554a.525.525,0,0,1-.386-.881,1.931,1.931,0,0,0,.469-2.067,1.619,1.619,0,0,0-1.67-.878,2.317,2.317,0,0,1-2.186-2.071c-.135-1.192.568-2.881,2.994-3.727a.525.525,0,0,1,.345.992c-1.722.6-2.394,1.746-2.3,2.616a1.266,1.266,0,0,0,1.187,1.142,2.654,2.654,0,0,1,2.582,1.492,2.973,2.973,0,0,1-.653,3.213.524.524,0,0,1-.386.169" fill="#424242"/>
        <path id="Trazado_156" data-name="Trazado 156" d="M258.459,189.978a3.236,3.236,0,0,1-1.934-1.3c-.456-.535-.744-.837-1.333-.854a.525.525,0,0,1,.029-1.05,2.74,2.74,0,0,1,2.1,1.223,2.046,2.046,0,0,0,1.924.983c.736-.045.831-.349.886-1.528.044-.921.1-2.068,1.21-2.617,2.184-1.084,4.343,1.995,4.434,2.126a.525.525,0,0,1-.865.6c-.018-.025-1.749-2.452-3.1-1.783-.52.259-.584.825-.627,1.727-.046.964-.114,2.422-1.871,2.528a3.51,3.51,0,0,1-.854-.046" fill="#424242"/>
        <path id="Trazado_157" data-name="Trazado 157" d="M400.019,309.57V244.291a5.337,5.337,0,0,1,5.337-5.337h44.09a5.336,5.336,0,0,1,5.337,5.337V309.57a5.337,5.337,0,0,1-5.337,5.337h-44.09a5.338,5.338,0,0,1-5.337-5.337" fill="#6d6e71"/>
        <path id="Trazado_158" data-name="Trazado 158" d="M448.638,311.534H406.163a2.541,2.541,0,0,1-2.54-2.541V244.867a2.54,2.54,0,0,1,2.54-2.54h42.475a2.541,2.541,0,0,1,2.541,2.54v64.126a2.541,2.541,0,0,1-2.541,2.541" fill="#fff9ef"/>
      </g>
    </g>
    <g id="Grupo_14" data-name="Grupo 14">
      <g id="Grupo_13" data-name="Grupo 13" clip-path="url(#clip-path-7)">
        <path id="Trazado_159" data-name="Trazado 159" d="M409.9,266.948s1.687,20.456,2.32,23.245l7.372-3.345-6.43-22.291Z" fill="#3f0727"/>
        <path id="Trazado_160" data-name="Trazado 160" d="M415.09,338.76l26.253,22.146,2.946-9.6,3.329-10.842c-5.247-5.667-29.089-11.235-29.089-11.235l-2.361,6.538Z" fill="#ffa07f"/>
        <path id="Trazado_161" data-name="Trazado 161" d="M416.168,335.77c8.883,3.273,23.157,12.311,28.121,15.539l3.329-10.842c-5.247-5.667-29.089-11.235-29.089-11.235Z" fill="#ff7d6f"/>
        <path id="Trazado_162" data-name="Trazado 162" d="M417.758,321.693c.36.776-1.912,13.535-3.475,18.169,9.313,9.45,29.381,22.983,29.381,22.983s9.625-20.417,9.921-55.924c-2.234-11.973-6.69-15.179-8.5-16.951-.743-.722-3.2-1.2-5.858-1.5-3.845-.431-8.091-.516-8.091-.516l-9.227,4.231s-.041.02-.115.059a8.957,8.957,0,0,0-2.624,1.951c-.211.252-.521,1.763-1.321,3.8-.056.133-.1.272-.161.412-1.475,3.785-3.47,8.985-3.127,10.737.537,2.8,2.383,10.806,3.194,12.546" fill="#456997"/>
        <path id="Trazado_163" data-name="Trazado 163" d="M430.167,305.193a.193.193,0,0,1,.027,0c6.328-1.161,8.411-11.858,9.036-16.723-3.845-.431-8.091-.516-8.091-.516l-9.227,4.231s-.041.02-.115.059c-.2.109-.629.349-1.089.635v.006c-.552,2.759-1.224,13.653,9.459,12.307" fill="#ffa07f"/>
        <path id="Trazado_164" data-name="Trazado 164" d="M436.078,289.862l-5.651,8.781-4.056-5.362s-.091-.807-.126-1.119c-.087-.744-.15-1.278-.168-1.394-.154-.955-1.636-4.96-1.636-4.96l9.4-6.277s.5,2.068,1.025,4.353c.636,2.757,1.209,5.978,1.209,5.978" fill="#ffa07f"/>
        <path id="Trazado_165" data-name="Trazado 165" d="M434.869,283.884c-2.489,2.5-7.979,7.981-8.571,8.258a.479.479,0,0,1-.053.019c-.087-.744-.149-1.277-.168-1.393-.154-.955-1.635-4.96-1.635-4.96l9.4-6.278s.5,2.069,1.025,4.354" fill="#ff7d6f"/>
        <path id="Trazado_166" data-name="Trazado 166" d="M432.8,360.049a53.83,53.83,0,0,1-6.923,3.307c-.662.272-1.33.52-2.013.756l-2.564.9a215.3,215.3,0,0,1-29.03-44.21,60.6,60.6,0,0,1,29.8-20.951s1.255,1.167,3.269,3.335c5.971,6.411,18.58,21.614,24.921,41.433A57.312,57.312,0,0,1,432.8,360.049" fill="#d94562"/>
        <path id="Trazado_167" data-name="Trazado 167" d="M425.882,363.356c-.662.272-1.33.521-2.012.757l-2.564.9a215.246,215.246,0,0,1-29.031-44.21,60.6,60.6,0,0,1,29.8-20.951s1.256,1.167,3.269,3.335c-2.235,2.042-5.911,3.7-7.29,4.953-5.5,4.978-10.128,11.945-9.665,20.3a34.308,34.308,0,0,0,2.416,10.024,79.64,79.64,0,0,0,15.078,24.889" fill="#aa2b48"/>
        <path id="Trazado_168" data-name="Trazado 168" d="M429.026,259.11a12.922,12.922,0,0,0-16.149,2.163,6.527,6.527,0,0,0-1.81,3.087c-.621,3.912.893,17.117,5.355,22.289s8.266,3.076,9.58,2.2,7.221-5.847,8.095-8.558.647-15.212-1.041-17.958a13.216,13.216,0,0,0-4.03-3.223" fill="#ffbf90"/>
        <path id="Trazado_169" data-name="Trazado 169" d="M429.207,258.067a12.922,12.922,0,0,0-16.149,2.163,6.525,6.525,0,0,0-1.81,3.086c-.621,3.913.893,17.118,5.355,22.29s8.266,3.076,9.58,2.2,7.221-5.847,8.1-8.558.647-15.213-1.042-17.958a13.2,13.2,0,0,0-4.03-3.223" fill="#ffa07f"/>
        <path id="Trazado_170" data-name="Trazado 170" d="M432.811,273.892c.309-.286,1.394-3.256,3.133-2.194s2.832,3.367,2.038,5.1c-.724,1.579-1.854,3.391-3.885,3.495Z" fill="#ffa07f"/>
        <path id="Trazado_171" data-name="Trazado 171" d="M436.474,273.553a1.922,1.922,0,0,1,.222,1c-.019,1.48-.98,2.893-1.909,4.215a3.733,3.733,0,0,0-.208-2.246c-.1-.243-.227-.478-.3-.729-.313-1.011,1.169-4.007,2.2-2.238" fill="#ff7d6f"/>
        <path id="Trazado_172" data-name="Trazado 172" d="M434.293,279.334l.057-.062c.035-.042.1-.1.158-.183a2.913,2.913,0,0,0,.428-.756,2.807,2.807,0,0,0,.171-1.222,2.476,2.476,0,0,0-.579-1.376,1.426,1.426,0,0,0-.141-.15l-.038-.036,0,0h0s0,0,0-.009l.009-.045.017-.089c.013-.058.026-.118.04-.175a6.35,6.35,0,0,1,.2-.667c.076-.211.161-.411.248-.6a3.665,3.665,0,0,1,.27-.5.874.874,0,0,1,.338-.3.61.61,0,0,1,.353-.041.341.341,0,0,1,.192.1.347.347,0,0,1,.042.061.249.249,0,0,0-.025-.07.333.333,0,0,0-.181-.147.681.681,0,0,0-.422-.013,1.06,1.06,0,0,0-.474.314,3.572,3.572,0,0,0-.366.5,5.755,5.755,0,0,0-.327.607,5.024,5.024,0,0,0-.261.7c-.018.061-.035.124-.051.187l-.022.1-.027.133-.019.094c.019.023.044.044.066.067l.1.1a1.251,1.251,0,0,1,.122.131,2.617,2.617,0,0,1,.573,1.2,2.932,2.932,0,0,1-.014,1.122,3.05,3.05,0,0,1-.273.76c-.044.089-.089.155-.114.2l-.041.07" fill="#cf4a57"/>
        <path id="Trazado_173" data-name="Trazado 173" d="M421.291,277.894a2.211,2.211,0,0,1,.915-.354,3.166,3.166,0,0,1-1.524,1.842.47.47,0,0,1-.178.063.477.477,0,0,1-.222-.055,3.71,3.71,0,0,1-1.189-.84.718.718,0,0,1-.168-.242c-.111-.309.115-.264.312-.211a2.863,2.863,0,0,0,.7.1,2.923,2.923,0,0,0,1.353-.3" fill="#ff7d6f"/>
        <path id="Trazado_174" data-name="Trazado 174" d="M420.593,279.209c-.212-.151-.446-.273-.663-.419a5,5,0,0,1-.75-.611c.95-.826.818-1.9.631-3.115A3.582,3.582,0,0,0,418.6,272.9a3.983,3.983,0,0,0-.354-.266,1.288,1.288,0,0,0-.379-.157c.071.065.124.144.19.213a6.56,6.56,0,0,1,.5.538,4.416,4.416,0,0,1,.877,2.034,3.6,3.6,0,0,1-.071,1.453,2.83,2.83,0,0,1-.881,1.446s.8.74.873.8a3.819,3.819,0,0,0,.636.395,1.289,1.289,0,0,0,.725.2.4.4,0,0,0,.216-.092.863.863,0,0,1-.132-.083l-.052-.044c-.052-.043-.1-.084-.159-.122" fill="#fc5b68"/>
        <path id="Trazado_175" data-name="Trazado 175" d="M426.538,282.97a6.677,6.677,0,0,0-4.489-.855,2.438,2.438,0,0,0-1.321.56,1.1,1.1,0,0,0-.252,1.322,1.428,1.428,0,0,1-.6-1.505,1.984,1.984,0,0,1,1.149-1.181,3.662,3.662,0,0,1,1.672-.22,6.492,6.492,0,0,1,3.845,1.879" fill="#fc5b68"/>
        <path id="Trazado_176" data-name="Trazado 176" d="M426.214,277.061c.236.512,1.522.42,2.872-.205s2.253-1.545,2.016-2.056-1.522-.419-2.872.205-2.252,1.545-2.016,2.056" fill="#ff7d6f"/>
        <path id="Trazado_177" data-name="Trazado 177" d="M411.643,278.6c-.059.423.925.909,2.2,1.087s2.352-.021,2.411-.443-.924-.91-2.2-1.087-2.352.02-2.411.443" fill="#ff7d6f"/>
        <path id="Trazado_178" data-name="Trazado 178" d="M428.163,271.778a2.708,2.708,0,0,1-2.266,2.154,4.092,4.092,0,0,1-3.2-.843,6.973,6.973,0,0,0,5.462-1.311" fill="#252727"/>
        <path id="Trazado_179" data-name="Trazado 179" d="M413.528,274.964a1.571,1.571,0,0,0,1.8,1.131,2.854,2.854,0,0,0,1.78-1.642,3.409,3.409,0,0,1-3.576.511" fill="#252727"/>
        <path id="Trazado_180" data-name="Trazado 180" d="M422.144,267.13a8.579,8.579,0,0,0,6.343,1.635,6.635,6.635,0,0,1-4.934.447,2.622,2.622,0,0,1-1.222-.73,1.223,1.223,0,0,1-.187-1.352" fill="#55062c"/>
        <path id="Trazado_181" data-name="Trazado 181" d="M415.447,269.19a1.267,1.267,0,0,1,.226,1.531,2.077,2.077,0,0,1-1.319.954,6.138,6.138,0,0,1-1.664.135,3.866,3.866,0,0,0,2.757-2.62" fill="#55062c"/>
        <path id="Trazado_182" data-name="Trazado 182" d="M409.392,268.559l14.71-2.6,1.524-3.2,1.973,3.144,3.715-.606,1.508,9.98,1.584,10.5,14.826-8.293s-1.824-3.834-4.2-8.375c-2.8-5.33-6.365-11.623-8.662-13.777-4.249-3.994-13.768-3.337-20.555-1.991s-6.421,15.226-6.421,15.226" fill="#3f0727"/>
        <path id="Trazado_183" data-name="Trazado 183" d="M409.392,268.559l14.71-2.6,1.524-3.2,1.973,3.144,3.715-.606,1.508,9.98a4.334,4.334,0,0,0,1.733-1.507c.743-1.137,1.082-2.814,2.4-3.138s2.418.975,3.708,1.348c1.8.518,3.7-.953,4.322-2.729a1.268,1.268,0,0,0,.044-.141c-1.466-2.784-3.136-5.839-4.732-8.42a28.4,28.4,0,0,0-3.93-5.357c-4.249-3.994-13.768-3.337-20.555-1.991-3.9.769-5.44,5.685-6.04,9.728a35.713,35.713,0,0,0-.381,5.5" fill="#55062c"/>
        <path id="Trazado_184" data-name="Trazado 184" d="M409.773,263.061a14.261,14.261,0,0,1,4.055-.264c2.893.2,5.792.738,8.688.755.816-1.579,1.638-3.165,2.461-4.743,1.41,1.152,2.873,2.6,4.291,3.752.958-.658,1.923-1.317,2.882-1.976a4.2,4.2,0,0,1,2.218-.947c1.257-.008,2.245,1.072,3.461,1.379a3.582,3.582,0,0,0,2.469-.336,28.4,28.4,0,0,0-3.93-5.357c-4.249-3.994-13.768-3.337-20.554-1.991-3.9.769-5.441,5.685-6.041,9.728" fill="#6f0a32"/>
      </g>
    </g>
    <g id="Grupo_16" data-name="Grupo 16">
      <g id="Grupo_15" data-name="Grupo 15" clip-path="url(#clip-path)">
        <path id="Trazado_185" data-name="Trazado 185" d="M346.974,276.687l-.581-4.831-21.388,1.415-2.948-27.136-.549,32.269Z" fill="#254f79"/>
        <path id="Trazado_186" data-name="Trazado 186" d="M411.228,182.666a9.136,9.136,0,1,1-9.136-9.137,9.136,9.136,0,0,1,9.136,9.137" fill="#1e2020"/>
        <path id="Trazado_187" data-name="Trazado 187" d="M406.475,182.666a4.383,4.383,0,1,1-4.383-4.384,4.383,4.383,0,0,1,4.383,4.384" fill="#e3e0d9"/>
        <path id="Trazado_188" data-name="Trazado 188" d="M347.477,196.161a5.637,5.637,0,0,1-5.644-3.672s-5.593-46.027,11.866-49.682c10.523-2.205,17.573,37.124,17.573,37.124s1.107,4.04-4.808,6.977" fill="none" stroke="#000" stroke-miterlimit="10" stroke-width="2"/>
        <path id="Trazado_189" data-name="Trazado 189" d="M353.337,195.426a4,4,0,1,1-4-4,4,4,0,0,1,4,4" fill="#1e2020"/>
        <path id="Trazado_190" data-name="Trazado 190" d="M369.551,187.427a4,4,0,1,1-4-4,4,4,0,0,1,4,4" fill="#1e2020"/>
        <path id="Trazado_191" data-name="Trazado 191" d="M353.7,142.806s-.7-23.318,20.068-24.368" fill="none" stroke="#000" stroke-miterlimit="10" stroke-width="2"/>
        <path id="Trazado_192" data-name="Trazado 192" d="M387.862,118.438s12.224,4.157,15.1,20.109c2.7,14.957-.871,34.982-.871,34.982" fill="none" stroke="#000" stroke-miterlimit="10" stroke-width="2"/>
      </g>
    </g>
  </g>
</svg>
