<svg id="Grupo_46" data-name="Grupo 46" xmlns="http://www.w3.org/2000/svg" xmlns:xlink="http://www.w3.org/1999/xlink" width="121.595" height="121.595" viewBox="0 0 121.595 121.595">
  <defs>
    <clipPath id="clip-path">
      <rect id="Rectángulo_48" data-name="Rectángulo 48" width="121.595" height="121.595" fill="none"/>
    </clipPath>
  </defs>
  <g id="Grupo_45" data-name="Grupo 45" clip-path="url(#clip-path)">
    <path id="Trazado_412" data-name="Trazado 412" d="M119.427,60.8A58.63,58.63,0,1,1,60.8,2.168a58.63,58.63,0,0,1,58.63,58.63" fill="#fff"/>
    <path id="Trazado_413" data-name="Trazado 413" d="M60.8,121.6a60.8,60.8,0,1,1,60.8-60.8,60.867,60.867,0,0,1-60.8,60.8m0-117.259A56.462,56.462,0,1,0,117.26,60.8,56.526,56.526,0,0,0,60.8,4.336" fill="#3e145e"/>
    <path id="Trazado_414" data-name="Trazado 414" d="M117.42,60.836A56.543,56.543,0,1,1,60.877,4.413,56.484,56.484,0,0,1,117.42,60.836" fill="#e74962"/>
    <path id="Trazado_415" data-name="Trazado 415" d="M104.526,61.436A43.96,43.96,0,1,1,60.567,17.582a43.906,43.906,0,0,1,43.959,43.854" fill="#e74962"/>
    <path id="Trazado_416" data-name="Trazado 416" d="M91.35,72.06,65.319,30.805a8.111,8.111,0,0,0-13.725,0L25.721,72.06v.079a7.908,7.908,0,0,0-1.105,4.023,8.08,8.08,0,0,0,8.046,8.046H84.33a8.08,8.08,0,0,0,8.046-8.046,7.57,7.57,0,0,0-1.026-4.1m-6.941,7.415H32.662a3.333,3.333,0,0,1-3.313-3.313,3.591,3.591,0,0,1,.395-1.578L55.7,33.408a3.344,3.344,0,0,1,5.679,0L87.328,74.5a2.882,2.882,0,0,1,.394,1.657,3.333,3.333,0,0,1-3.313,3.313" fill="#fff"/>
    <path id="Trazado_417" data-name="Trazado 417" d="M58.535,68.825a3.035,3.035,0,0,0-2.288.947,3.159,3.159,0,0,0-.946,2.287,2.793,2.793,0,0,0,1.025,2.367,3.448,3.448,0,0,0,4.575,0,2.977,2.977,0,0,0,.947-2.367,3.16,3.16,0,0,0-.947-2.287,3.479,3.479,0,0,0-2.366-.947" fill="#fff"/>
    <path id="Trazado_418" data-name="Trazado 418" d="M58.693,42.4a3.218,3.218,0,0,0-2.524,1.025,3.985,3.985,0,0,0-.947,2.84c0,.867.079,2.366.158,4.338l.709,10.413a10.238,10.238,0,0,0,.632,3,1.758,1.758,0,0,0,1.657,1.026,1.643,1.643,0,0,0,1.656-1.026,8.469,8.469,0,0,0,.631-2.919l1.026-10.727c.078-1.026.157-1.972.157-2.919a8.953,8.953,0,0,0-.631-3.707A2.474,2.474,0,0,0,58.693,42.4" fill="#fff"/>
  </g>
</svg>
