<svg id="Grupo_44" data-name="Grupo 44" xmlns="http://www.w3.org/2000/svg" xmlns:xlink="http://www.w3.org/1999/xlink" width="502.178" height="425.834" viewBox="0 0 502.178 425.834">
  <defs>
    <clipPath id="clip-path">
      <rect id="Rectángulo_45" data-name="Rectángulo 45" width="502.178" height="425.834" fill="none"/>
    </clipPath>
    <clipPath id="clip-path-3">
      <rect id="Rectángulo_35" data-name="Rectángulo 35" width="494.052" height="424.364" fill="none"/>
    </clipPath>
  </defs>
  <g id="Grupo_43" data-name="Grupo 43" clip-path="url(#clip-path)">
    <g id="Grupo_42" data-name="Grupo 42">
      <g id="Grupo_41" data-name="Grupo 41" clip-path="url(#clip-path)">
        <g id="Grupo_40" data-name="Grupo 40" opacity="0.7">
          <g id="Grupo_39" data-name="Grupo 39">
            <g id="Grupo_38" data-name="Grupo 38" clip-path="url(#clip-path-3)">
              <path id="Trazado_382" data-name="Trazado 382" d="M439.285,74.622c-22.637-70.6-103.736-92.474-166.812-59.748q-5.772,2.246-11.232,4.972c-14.588,7.256-27.75,16.976-40.507,27.911-26.426,22.781-51.029,46.473-80.853,61.836-3.5,1.953-10.3,5.756-18.135,10.207-15.673,8.9-35.464,20.473-41.563,24.56q-2.361,1.582-4.817,3.012c-31.779,18.4-57.3,47.806-70.008,81.3l-.063.167A82.585,82.585,0,0,0,.078,261.577C2.14,309.427,23.947,361.3,64.85,386.311a165.1,165.1,0,0,0,16.92,8.027,205.828,205.828,0,0,0,54.668,13.544,244.078,244.078,0,0,0,35.811,1.712,229.676,229.676,0,0,0,34.73-3.507c9.794-1.238,19.489-2.914,28.99-4.965,4.041-.67,8.024-1.33,11.882-1.977,31.2-7.855,60.361,5.814,89.52,16.748,31.893,12.758,69.254,10.024,101.9-1.026a94.047,94.047,0,0,0,16.009-8.69q.941-.636,1.864-1.292c32.384-23.03,44.958-65.132,31.7-102.6-10.462-29.569-26.589-68.534-30-87.392-4.221-23.32.273-85.664-19.557-140.276" fill="#eceffe"/>
            </g>
          </g>
        </g>
        <path id="Trazado_383" data-name="Trazado 383" d="M478.988,78.676H353a23.235,23.235,0,0,0-23.19,23.19V402.644A23.236,23.236,0,0,0,353,425.834H478.988a23.236,23.236,0,0,0,23.19-23.19V101.866a23.236,23.236,0,0,0-23.19-23.19" fill="#3b5260" fill-rule="evenodd"/>
        <path id="Trazado_384" data-name="Trazado 384" d="M478.988,81.792H353a20.828,20.828,0,0,0-20.767,20.767V401.952A20.827,20.827,0,0,0,353,422.719H478.988a20.828,20.828,0,0,0,20.768-20.767V102.559a20.829,20.829,0,0,0-20.768-20.767" fill="#fff" fill-rule="evenodd"/>
        <path id="Trazado_385" data-name="Trazado 385" d="M478.988,88.368H353a14.232,14.232,0,0,0-14.191,14.19V379.8A14.233,14.233,0,0,0,353,393.991H478.988A14.233,14.233,0,0,0,493.179,379.8V102.558a14.231,14.231,0,0,0-14.191-14.19" fill="#f76d6a" fill-rule="evenodd"/>
        <path id="Trazado_386" data-name="Trazado 386" d="M427.665,400.443h-23.34a8.463,8.463,0,1,0,0,16.926h23.34a8.463,8.463,0,0,0,0-16.926" fill="#dbdbdb" fill-rule="evenodd"/>
        <path id="Trazado_387" data-name="Trazado 387" d="M395.9,409.762a8.5,8.5,0,0,0,7.041,7.492q1.219.113,2.494.114h21.118c.843,0,1.67-.039,2.477-.112a8.5,8.5,0,0,0,7.016-7.207,242.778,242.778,0,0,1-40.146-.287" fill="#ccc" fill-rule="evenodd"/>
        <path id="Trazado_388" data-name="Trazado 388" d="M473.361,136.292a39.777,39.777,0,0,1,9.28,13.093c3.564,8.521-.216,17.393-.216,17.393L469.4,161.113s-3.5-7.275-.261-21.7l.055-.239c1.119-.791,2.843-2,4.165-2.879" fill="#19334c" fill-rule="evenodd"/>
        <path id="Trazado_389" data-name="Trazado 389" d="M471.55,130.712l2.158,5.909-4.6,2.944s-2.106-3.878-1.827-3.813.029-4.017,4.27-5.04" fill="#b7ddf7" fill-rule="evenodd"/>
        <path id="Trazado_390" data-name="Trazado 390" d="M439.806,132.677s-2.376.029-3.1-3.262,1.051-7.052,1.647-7,1.457,10.259,1.457,10.259" fill="#d18c84" fill-rule="evenodd"/>
        <path id="Trazado_391" data-name="Trazado 391" d="M438.592,107.546s-4.19,4.818-2.823,10.655,2.6,7.5,2.6,7.5.465-11.247,2.1-15.374-1.875-2.779-1.875-2.779" fill="#19334c" fill-rule="evenodd"/>
        <path id="Trazado_392" data-name="Trazado 392" d="M449.79,98.322c-1.2.048-7.255-3.632-11.093.812s-3.951,8.553,1.388,11.529,15.724,1.437,17.714,2.267,4.906,1.951,5.677,6.682.906,5.964.906,5.964l3.459,8.994s3.653-1,6.22-9.063.215-17.393-4.468-22.322-15.675-6.122-19.8-4.863" fill="#19334c" fill-rule="evenodd"/>
        <path id="Trazado_393" data-name="Trazado 393" d="M429.3,284.907l6.266,86.615,2.821,22.426,23.946.06L459.4,285.28Z" fill="#8da9e6" fill-rule="evenodd"/>
        <path id="Trazado_394" data-name="Trazado 394" d="M429.3,284.907l.6,8.259,29.73.368-.222-8.254Z" fill="#7b99d9" fill-rule="evenodd"/>
        <path id="Trazado_395" data-name="Trazado 395" d="M463.915,141.983s-1.037,12.234,2.072,16.574,9.67,5.75,8.6,5.737-24.4,18.8-24.4,18.8l-10.929-17.6s7.432-1.486,8.26-7.042a90.428,90.428,0,0,0,.837-11.439,12.515,12.515,0,0,0,15.561-5.033" fill="#f9bfb3" fill-rule="evenodd"/>
        <path id="Trazado_396" data-name="Trazado 396" d="M463.915,141.983s-.229,2.7-.149,6.015c-3.052,3.361-8.129,5.795-13.065,4.484a12.226,12.226,0,0,1-2.5-.973c.151-2.625.153-4.493.153-4.493a12.515,12.515,0,0,0,15.561-5.033" fill="#d18c84" fill-rule="evenodd"/>
        <path id="Trazado_397" data-name="Trazado 397" d="M493.049,285.7c-4.11,5.01-5.187,92.04-6.225,94.051-.293.569-.489,6.338-.619,14.32l-25.277-.063c-.89-14.593-1.645-26.391-1.645-26.391L453.076,285.2Z" fill="#a1bcf5" fill-rule="evenodd"/>
        <path id="Trazado_398" data-name="Trazado 398" d="M493.049,285.7c-.668.814-1.255,3.8-1.775,8.23l-37.576-.465-.622-8.26Z" fill="#8da9e6" fill-rule="evenodd"/>
        <path id="Trazado_399" data-name="Trazado 399" d="M440.793,109.6c-.321.438-2.477,5.916-2.434,17.746s5.382,20.119,12.38,21.977,14.281-3.808,15.673-8.978,1.668-7,1.668-7c4.325.9,4.5-11.749-.661-10.787-1.667.311-3.218,1.856-3.038,3.023,0,0-.672-7.093-1.975-9.133s-2.733-5.411-9.828-4.677a20.013,20.013,0,0,1-11.785-2.17" fill="#f9bfb3" fill-rule="evenodd"/>
        <path id="Trazado_400" data-name="Trazado 400" d="M444.334,123.111c.907.011,1.632,1.054,1.615,2.329s-.764,2.3-1.673,2.288-1.63-1.054-1.616-2.329.766-2.3,1.674-2.288" fill="#1f0d2e" fill-rule="evenodd"/>
        <path id="Trazado_401" data-name="Trazado 401" d="M456.255,123.259c.908.011,1.632,1.054,1.616,2.329s-.765,2.3-1.673,2.288-1.63-1.054-1.616-2.329.766-2.3,1.673-2.288" fill="#1f0d2e" fill-rule="evenodd"/>
        <path id="Trazado_402" data-name="Trazado 402" d="M446.976,139.9a.619.619,0,0,1-.108-.654c.091-.225.29-.3.441-.162l.033.029h0c.344.309,2.536,2.283,6.78.205.17-.083.352.054.409.3a.556.556,0,0,1-.207.6c-4.526,2.217-6.94.044-7.317-.3h0Z" fill="#bd796b"/>
        <path id="Trazado_403" data-name="Trazado 403" d="M447.426,120.857a.5.5,0,1,1-.861.521c0-.006-1.473-2.353-4.505-.088a.5.5,0,0,1-.6-.808c3.91-2.92,5.962.366,5.967.375" fill="#6e2c00" fill-rule="evenodd"/>
        <path id="Trazado_404" data-name="Trazado 404" d="M460.2,121.015a.5.5,0,0,1-.862.521c0-.007-1.473-2.354-4.505-.089a.5.5,0,0,1-.6-.807c3.911-2.921,5.961.365,5.968.375" fill="#6e2c00" fill-rule="evenodd"/>
        <path id="Trazado_405" data-name="Trazado 405" d="M441.97,163.781c-18,6.787-16.208,13.076-24.977,30.8l9.613,39.086L420.474,288.5l72.643.9.108-42.977-3.041-19.21.033-.682,3.054,1.572.115-46.182c-2.139-4.6-5.583-9.441-10.961-15.138l-13.174-6.023-19.008,17.6Z" fill="#a1bcf5" fill-rule="evenodd"/>
        <path id="Trazado_406" data-name="Trazado 406" d="M423.3,196.982l1.776-.579,4.338,12.987-2.2-.383Z" fill="#7fb3d5" fill-rule="evenodd"/>
        <rect id="Rectángulo_36" data-name="Rectángulo 36" width="1.868" height="6.182" transform="translate(422.83 195.541) rotate(-18.047)" fill="#21618c"/>
        <path id="Trazado_407" data-name="Trazado 407" d="M409.276,179.61c-1.594-.282,1.326-2.541,2.6-4.229,1.414-1.88,2.412-.667,4.515-1.969s6.689,1.348,7.284,4.328-.061,4.408-.061,4.408c-1.775-.042-12.419-2.2-14.335-2.538" fill="#f9bfb3" fill-rule="evenodd"/>
        <path id="Trazado_408" data-name="Trazado 408" d="M469.251,160.755a17.756,17.756,0,0,1,3.408,1.5c-2.4,2.07-19.16,18.369-19.865,18.748-.708-1.012-1.99-3.166-1.99-3.166Z" fill="#ddedfd" fill-rule="evenodd"/>
        <path id="Trazado_409" data-name="Trazado 409" d="M453.394,180.494a5.757,5.757,0,0,1-.6.5c-.708-1.012-1.989-3.165-1.989-3.165l.578-.537Z" fill="#c6dffe" fill-rule="evenodd"/>
        <path id="Trazado_410" data-name="Trazado 410" d="M432.443,262.059c.087,0,30.021-1.481,51.567-19.278l.911,1.1c-21.912,18.1-52.318,19.6-52.4,19.6Z" fill="#848fc9"/>
        <path id="Trazado_411" data-name="Trazado 411" d="M444.207,271.346l.408-.018a61.559,61.559,0,0,0,39.213-16.5l.979,1.043a63.022,63.022,0,0,1-40.137,16.886c-.145.005-.253.01-.362.018Z" fill="#848fc9"/>
        <path id="Trazado_412" data-name="Trazado 412" d="M464.852,156.144c5.229,1.666,13.445,5.835,10.528,15.183a38.779,38.779,0,0,1-4.447,9.456l-1.654-.942a37,37,0,0,0,4.278-9.082c2.136-6.842-3.115-10.428-7.561-12.189l-.009-.013a8.672,8.672,0,0,1-1.135-2.413" fill="#2c3b4a"/>
        <path id="Trazado_413" data-name="Trazado 413" d="M441.971,163.781,452.794,181l-2.609,2.1L438.37,165.248Z" fill="#ddedfd" fill-rule="evenodd"/>
        <path id="Trazado_414" data-name="Trazado 414" d="M447.326,159.561c-4.591,2.812-11.781,10.924-4.986,33.076l-1.822.559c-7.81-25.456,2.257-33.611,7.171-35.99-.053.416-.11.834-.173,1.249-.055.379-.12.748-.19,1.106" fill="#2c3b4a"/>
        <path id="Trazado_415" data-name="Trazado 415" d="M441.481,188.683a4.234,4.234,0,1,1-4.286,4.182,4.234,4.234,0,0,1,4.286-4.182" fill="#b2babb" fill-rule="evenodd"/>
        <path id="Trazado_416" data-name="Trazado 416" d="M441.476,189.056a3.861,3.861,0,1,1-3.907,3.813,3.861,3.861,0,0,1,3.907-3.813" fill="#f2f3f4" fill-rule="evenodd"/>
        <path id="Trazado_417" data-name="Trazado 417" d="M441.451,191.113a1.8,1.8,0,1,1-1.826,1.782,1.8,1.8,0,0,1,1.826-1.782" fill="#f2f3f4" fill-rule="evenodd"/>
        <path id="Trazado_418" data-name="Trazado 418" d="M441.457,190.707a2.21,2.21,0,1,1-2.238,2.183,2.21,2.21,0,0,1,2.238-2.183" fill="#b2babb" fill-rule="evenodd"/>
        <path id="Trazado_419" data-name="Trazado 419" d="M459.33,187.432c-.025.05-8.584,17.672-5.539,23.893a6.675,6.675,0,0,0,8.58,3.738l.355.887a7.615,7.615,0,0,1-9.792-4.206c-3.249-6.637,5.513-24.679,5.539-24.73Z" fill="#f2f3f4"/>
        <path id="Trazado_420" data-name="Trazado 420" d="M461.332,214.471c-.042.181.6,2.513.6,2.513,4.221-.034,3.751-4.387-.6-2.513" fill="#fff" fill-rule="evenodd"/>
        <path id="Trazado_421" data-name="Trazado 421" d="M474.51,193.16c-.024.052-8.224,18.353-15.4,20.125a7.615,7.615,0,0,1-9.511-4.8l.9-.3a6.679,6.679,0,0,0,8.379,4.178c6.721-1.659,14.734-19.54,14.758-19.591Z" fill="#e5e7e9"/>
        <path id="Trazado_422" data-name="Trazado 422" d="M451.6,208.574c-.081.165-2.029,1.553-2.029,1.553-3.221-2.658-.147-5.708,2.029-1.553" fill="#fff" fill-rule="evenodd"/>
        <path id="Trazado_423" data-name="Trazado 423" d="M461.26,183.384a44.592,44.592,0,0,0-1.861,4.481l-1.287-.417a36.168,36.168,0,0,1,1.844-4.658c3.825-8.377,18.153-3.889,16.211,5.274a39.879,39.879,0,0,1-1.557,5.388l-1.287-.419a43.225,43.225,0,0,0,1.444-5.266c1.472-6.951-10.588-10.78-13.507-4.383" fill="#1b2631"/>
        <path id="Trazado_424" data-name="Trazado 424" d="M407.341,178.211l31.507,5.577,8.637,56.027c-.046.084-.471.891-.511.967-10.619-2.591-21.216-5.227-31.834-7.816q-4.145-26.918-8.31-53.789c.03-.049.484-.914.511-.966" fill="#f2f3f4" fill-rule="evenodd"/>
        <path id="Trazado_425" data-name="Trazado 425" d="M406.828,179.177l31.507,5.578,8.637,56.026-31.856-7.77Z" fill="#2874a6" fill-rule="evenodd"/>
        <path id="Trazado_426" data-name="Trazado 426" d="M473.14,216.932l-2.77,6.236s-40.688-11.826-42.321-12.733-1.485-7.359-6.475-10.74-5.878-3.139-6.012-2.571,2.1,4.454,1.581,5.143-4.248-1.855-5.062-2.656-2.622-2.907-2.622-2.907-2.964,4.2,2.117,12.882,14.959,7.791,14.959,7.791,44.031,23.064,50.347,20.865,9.161-13.531,9.161-13.531Z" fill="#f9bfb3" fill-rule="evenodd"/>
        <path id="Trazado_427" data-name="Trazado 427" d="M473.14,216.932l-1.513,3.406,13.117,8.24a33.29,33.29,0,0,0,1.3-3.867Z" fill="#d18c84" fill-rule="evenodd"/>
        <path id="Trazado_428" data-name="Trazado 428" d="M480.786,183.664,467.6,213.035,490.431,226.8l-.493.816-23.191-13.984-.361-.218.171-.384,13.36-29.755Z" fill="#c6dffe"/>
        <path id="Trazado_429" data-name="Trazado 429" d="M450.493,127.675a.391.391,0,1,0-.775,0,7.658,7.658,0,0,1-1.13,2.839,2.348,2.348,0,0,1-1.536,1.141,1.273,1.273,0,0,0-.8.344h0a.956.956,0,0,0-.179,1.009,2.806,2.806,0,0,0,.5.86,9.478,9.478,0,0,0,2.754,2.193.373.373,0,0,0,.5-.243.46.46,0,0,0-.213-.57,8.554,8.554,0,0,1-2.473-1.973,1.95,1.95,0,0,1-.347-.565l-.024-.069a.655.655,0,0,1,.355-.115h0a3.068,3.068,0,0,0,2.061-1.475,8.946,8.946,0,0,0,1.294-3.375" fill="#bd796b"/>
        <path id="Trazado_430" data-name="Trazado 430" d="M469.541,125.307a2.092,2.092,0,0,0-3-.494c-2.018,1.132.414,6.183,1.274,6.895s.747-1.9,1.715-1.9,1.532-.554.971-1.224a1.323,1.323,0,0,0-2.261.184c-.42,1.036-.58,1-.967-.219s.967-3.026,2.211-2.32.057-.919.057-.919" fill="#e8a39c" fill-rule="evenodd"/>
        <path id="Trazado_431" data-name="Trazado 431" d="M456.753,124.017a.433.433,0,1,0,.431.434.432.432,0,0,0-.431-.434" fill="#fff" fill-rule="evenodd"/>
        <path id="Trazado_432" data-name="Trazado 432" d="M444.9,123.987a.433.433,0,1,0,.431.434.435.435,0,0,0-.431-.434" fill="#fff" fill-rule="evenodd"/>
        <path id="Trazado_433" data-name="Trazado 433" d="M479.681,360.3a298.1,298.1,0,0,1-.956,33.744l.81,0a297.909,297.909,0,0,0,.96-33.776Zm-44.233-57.346c.007.089,2.7,30.737,10.992,46.621l.722-.379c-8.221-15.741-10.895-46.226-10.9-46.314Zm25.192-8.174c.009.109,2.893,38.134,10.722,49.064l.662-.474c-7.693-10.739-10.561-48.543-10.57-48.652ZM452.471,369.1a94.04,94.04,0,0,1,1.995,24.893l.811,0a94.952,94.952,0,0,0-2.014-25.082Z" fill="#848fc9"/>
        <path id="Trazado_434" data-name="Trazado 434" d="M460.311,127.862c1.934-1.381,4.371-4.524,5.692-4.745-.925.763-1.742,1.816-1.634,2.33l-2.311,2.985c-.618-.391-1.129-.179-1.747-.57" fill="#f2f3f4"/>
        <path id="Trazado_435" data-name="Trazado 435" d="M464.567,140.832l3.514-7.492a2.138,2.138,0,0,0,1.807-.55l-4.62,9.111Z" fill="#f2f3f4"/>
        <path id="Trazado_436" data-name="Trazado 436" d="M438.36,127.342s8.548,3.275,10.228,3.17,14.436-3.328,14.436-3.328,1.044,10.425,2,12.617.959,2.191.959,2.191-3.938,7.4-9.366,8.577-8.122.155-11.928-3.97c-5.928-6.426-6.672-12.367-6.331-19.257" fill="#d7e8f2" fill-rule="evenodd"/>
        <path id="Trazado_437" data-name="Trazado 437" d="M438.36,127.342s8.515,3.262,10.218,3.171a31.509,31.509,0,0,0,4,20.507c-3-.1-5.158-1.465-7.886-4.421-5.928-6.426-6.672-12.367-6.331-19.257" fill="#e4f0f7" fill-rule="evenodd"/>
        <path id="Trazado_438" data-name="Trazado 438" d="M439.822,130.883c.023,0,7.83,2.34,8.484,2.378s14.3-3.037,14.334-3.044l.14,1.076c-.038.007-13.77,3.1-14.516,3.056-.73-.041-8.513-2.38-8.537-2.382Z" fill="#bbd6e6"/>
        <path id="Trazado_439" data-name="Trazado 439" d="M440.975,136.462c.021,0,6.38,1.827,7.365,1.6,1.152-.263,13.633-3.764,13.666-3.771l.157,1.072c-.033.007-12.651,3.541-13.655,3.771-1.168.266-7.678-1.6-7.7-1.6Z" fill="#bbd6e6"/>
        <path id="Trazado_440" data-name="Trazado 440" d="M442.422,141.115c.011,0,6.022,1.9,6.8,1.645.915-.3,12.03-4.124,12.064-4.134l.225,1.054c-.034.011-11.138,3.829-12.052,4.13-1.054.349-7.332-1.666-7.345-1.672Z" fill="#bbd6e6"/>
        <path id="Trazado_441" data-name="Trazado 441" d="M375.8,359.6a13.166,13.166,0,1,1-13.166,13.166A13.166,13.166,0,0,1,375.8,359.6" fill="#0255a1" fill-rule="evenodd"/>
        <path id="Trazado_442" data-name="Trazado 442" d="M415.824,359.6a13.166,13.166,0,1,1-13.166,13.166A13.166,13.166,0,0,1,415.824,359.6" fill="#0255a1" fill-rule="evenodd"/>
        <path id="Trazado_443" data-name="Trazado 443" d="M407.448,368.831h5.946v-1.139h-5.946v-1.2h7.1v2.34H417.6v7.862H407.448Zm16.752-2.34-5.805,2.34v7.862l5.805,2.34Z" fill="#fff" fill-rule="evenodd"/>
        <path id="Trazado_444" data-name="Trazado 444" d="M456.186,359.6a13.166,13.166,0,1,1-13.166,13.166A13.166,13.166,0,0,1,456.186,359.6" fill="#ec3d3a" fill-rule="evenodd"/>
        <path id="Trazado_445" data-name="Trazado 445" d="M370,365.839h10.556a2.32,2.32,0,0,1,2.313,2.313v6.3a2.32,2.32,0,0,1-2.249,2.312l1.063,3.678-3.721-3.677H370a2.319,2.319,0,0,1-2.313-2.313v-6.3A2.319,2.319,0,0,1,370,365.839m.783,5.089a.917.917,0,1,1-.917.917.918.918,0,0,1,.917-.917m8.991,0a.917.917,0,1,1-.918.917.918.918,0,0,1,.918-.917m-3,0a.917.917,0,1,1-.917.917.918.918,0,0,1,.917-.917m-3,0a.917.917,0,1,1-.917.917.918.918,0,0,1,.917-.917" fill="#fff" fill-rule="evenodd"/>
        <path id="Trazado_446" data-name="Trazado 446" d="M458.544,380.924c3.556,1.223,5.162-2.639,5.162-2.639l-3.785-3.441c-1.921,5.07-10.321-5.215-4.982-6.091l-2.624-4.392s-4.1.809-3.608,4.537c.441,3.315,6.676,10.938,9.837,12.026" fill="#fff" fill-rule="evenodd"/>
        <path id="Trazado_447" data-name="Trazado 447" d="M77.721,78.676H203.709a23.235,23.235,0,0,1,23.19,23.19V402.644a23.236,23.236,0,0,1-23.19,23.19H77.721a23.235,23.235,0,0,1-23.189-23.19V101.866a23.235,23.235,0,0,1,23.189-23.19" fill="#3b5260" fill-rule="evenodd"/>
        <path id="Trazado_448" data-name="Trazado 448" d="M77.721,81.792H203.709a20.828,20.828,0,0,1,20.767,20.767V401.952a20.827,20.827,0,0,1-20.767,20.767H77.721a20.827,20.827,0,0,1-20.767-20.767V102.559A20.828,20.828,0,0,1,77.721,81.792" fill="#fff" fill-rule="evenodd"/>
        <path id="Trazado_449" data-name="Trazado 449" d="M77.721,88.368H203.709a14.232,14.232,0,0,1,14.191,14.19V379.8a14.233,14.233,0,0,1-14.191,14.191H77.721A14.233,14.233,0,0,1,63.531,379.8V102.558a14.231,14.231,0,0,1,14.19-14.19" fill="#f76d6a" fill-rule="evenodd"/>
        <path id="Trazado_450" data-name="Trazado 450" d="M129.046,400.443h23.339a8.463,8.463,0,1,1,0,16.926H129.046a8.463,8.463,0,1,1,0-16.926" fill="#dbdbdb" fill-rule="evenodd"/>
        <path id="Trazado_451" data-name="Trazado 451" d="M160.8,409.762a8.5,8.5,0,0,1-7.04,7.492q-1.22.113-2.494.114H130.153c-.843,0-1.67-.039-2.477-.112a8.5,8.5,0,0,1-7.016-7.207,242.766,242.766,0,0,0,40.145-.287" fill="#ccc" fill-rule="evenodd"/>
        <path id="Trazado_452" data-name="Trazado 452" d="M130.419,190.007l-1.839-.6-4.491,13.447,2.275-.4Z" fill="#7fb3d5" fill-rule="evenodd"/>
        <rect id="Rectángulo_37" data-name="Rectángulo 37" width="6.402" height="1.935" transform="translate(127.084 194.003) rotate(-71.968)" fill="#21618c"/>
        <path id="Trazado_453" data-name="Trazado 453" d="M133.765,201.167c1.435-.25-1.187-2.289-2.327-3.812-1.269-1.695-2.17-.6-4.06-1.782s-6.022,1.2-6.564,3.879a6.991,6.991,0,0,0,.045,3.967c1.6-.035,11.181-1.95,12.906-2.252" fill="#f9bfb3" fill-rule="evenodd"/>
        <path id="Trazado_454" data-name="Trazado 454" d="M175.033,345.145c.219.548-.1,24.238-.482,48.846H150.518c-1.064-24.829-2.111-48.846-2.111-48.846Z" fill="#2874a6" fill-rule="evenodd"/>
        <path id="Trazado_455" data-name="Trazado 455" d="M175.033,345.145c.075.187.045,3-.056,7.553l-26.211-.955-.359-6.6Z" fill="#21618c" fill-rule="evenodd"/>
        <path id="Trazado_456" data-name="Trazado 456" d="M202.108,345.145l-.7,48.846H176.4l-1.327-48.635Z" fill="#2874a6" fill-rule="evenodd"/>
        <path id="Trazado_457" data-name="Trazado 457" d="M202.108,345.145l-.21,5.879-22.892,1.821-3.555-.129-.376-7.36Z" fill="#21618c" fill-rule="evenodd"/>
        <path id="Trazado_458" data-name="Trazado 458" d="M158.78,154.559l21.608,46.092,8.776-43.768-5.021-3.071-8.378,6.083-12.394-8.722Z" fill="#7fb3d5" fill-rule="evenodd"/>
        <path id="Trazado_459" data-name="Trazado 459" d="M178.02,168.52l5.08,17.617-3,13.9-7.8-16.643,2.72-14.875Z" fill="#21618c" fill-rule="evenodd"/>
        <path id="Trazado_460" data-name="Trazado 460" d="M182.652,139.007c.286.574-1.378,12.28,1.491,14.8s4.754,2.411,3.64,3.1c-9.006,5.563-19.409,8.721-28.016-2.64,0,0,4.507.918,5.441-5.394s-.058-9.87-.058-9.87,9.068,5.567,17.5,0" fill="#f9bfb3" fill-rule="evenodd"/>
        <path id="Trazado_461" data-name="Trazado 461" d="M182.652,139.007c.128.256-.132,2.728-.2,5.611-4.828,3.349-12.087,3.476-16.845-.284a20.319,20.319,0,0,0-.452-5.327s9.068,5.567,17.5,0" fill="#d18c84" fill-rule="evenodd"/>
        <path id="Trazado_462" data-name="Trazado 462" d="M188.367,120.731s3.1-2.294,4.991,1.493-2,8.3-4.9,7.951-.241-9.374-.094-9.444" fill="#e8a39c" fill-rule="evenodd"/>
        <path id="Trazado_463" data-name="Trazado 463" d="M159.757,120.544s-3.1-2.295-4.993,1.492c-2.061,4.122,4.335,11.127,5.919,6.925.526-1.395-.116-4.029-.926-8.417" fill="#e8a39c" fill-rule="evenodd"/>
        <path id="Trazado_464" data-name="Trazado 464" d="M186.764,135.593c3.672-10.256,2.44-12.625,3.6-22.15,1.836-15.049-34.134-15.049-32.3,0,1.163,9.525.359,13.313,3.717,22.15,4.306,11.332,21.34,10.156,24.976,0" fill="#f9bfb3" fill-rule="evenodd"/>
        <path id="Trazado_465" data-name="Trazado 465" d="M176.193,119.231a.649.649,0,0,0-1.246.361c.007.022,2.3,7.981,1.511,8.69-.869.776-2.743.529-2.747.528a.649.649,0,1,0-.183,1.286c.007,0,2.483.324,3.794-.849,1.388-1.242-1.122-9.993-1.129-10.016" fill="#bd796b"/>
        <path id="Trazado_466" data-name="Trazado 466" d="M181.855,132.633a.648.648,0,1,0-.864-.966c-.016.014-5.49,5.068-13.863-.071a.649.649,0,1,0-.675,1.108c9.2,5.648,15.384-.056,15.4-.071" fill="#bd796b"/>
        <path id="Trazado_467" data-name="Trazado 467" d="M182.026,116.37c-.745,0-1.348.977-1.348,2.181s.6,2.18,1.348,2.18,1.348-.976,1.348-2.18-.6-2.181-1.348-2.181" fill="#1b2631" fill-rule="evenodd"/>
        <path id="Trazado_468" data-name="Trazado 468" d="M166.79,116.37c-.744,0-1.348.977-1.348,2.181s.6,2.18,1.348,2.18,1.349-.976,1.349-2.18-.6-2.181-1.349-2.181" fill="#1b2631" fill-rule="evenodd"/>
        <path id="Trazado_469" data-name="Trazado 469" d="M184.679,113.365a.966.966,0,1,0,1.206-1.509c-.014-.011-4.878-3.958-7.627.223a.966.966,0,1,0,1.615,1.062c1.575-2.393,4.8.217,4.806.224" fill="#4d352f" fill-rule="evenodd"/>
        <path id="Trazado_470" data-name="Trazado 470" d="M163.355,111.856a.966.966,0,0,0,1.207,1.509c.008-.007,3.231-2.617,4.806-.223a.966.966,0,0,0,1.615-1.062c-2.749-4.182-7.613-.235-7.628-.224" fill="#4d352f" fill-rule="evenodd"/>
        <path id="Trazado_471" data-name="Trazado 471" d="M187.783,93.044s1.525,4.877-3.237,4.361S164.941,92.24,159.767,98.9s-1.075,21.079-1.038,21.565,1.794-7.3,2.9-10.5,1.912-3.195,1.912-3.195,6.387-3.449,10.675-2.129,8.527,2.754,10.959,2.927,2.605-.173,2.605-.173-.944,5.309.233,8.981,1.777,3.743,1.777,3.743,3.475-5.556,3.3-9.452-.631-3.9-.631-3.9,4.878-9.875-4.682-13.72" fill="#19334c" fill-rule="evenodd"/>
        <path id="Trazado_472" data-name="Trazado 472" d="M163.371,151.173c1.008.507,12.4,8.722,12.4,8.722s-7.575,12.28-7.575,11.534-9.411-16.87-9.411-16.87Z" fill="#e5e7e9" fill-rule="evenodd"/>
        <path id="Trazado_473" data-name="Trazado 473" d="M184.316,152.723l-8.551,7.172,7.173,11.567,7-14.167Z" fill="#e5e7e9" fill-rule="evenodd"/>
        <path id="Trazado_474" data-name="Trazado 474" d="M180.706,167.863l-4.137,3.283-5.455-3.854,4.652-7.4,4.94,7.968" fill="#2874a6" fill-rule="evenodd"/>
        <path id="Trazado_475" data-name="Trazado 475" d="M189.165,156.882c.77.412-8.777,43.768-8.777,43.768l-1.429,148.865,37.548-2.982-3.111-82.2s2.879,2.032,3.362,2.531c.175-.24.576-.9,1.142-1.862V176.074l-1.478-4.612ZM214.236,234.7l2.522-4.206-2.923-8.295Z" fill="#f2f3f4" fill-rule="evenodd"/>
        <path id="Trazado_476" data-name="Trazado 476" d="M158.78,154.559l21.608,46.092-1.381,148.866-40.918-1.492-.344-81.872-26.512-49.706,22.952-48.2Z" fill="#e5e7e9" fill-rule="evenodd"/>
        <path id="Trazado_477" data-name="Trazado 477" d="M213.157,174.6c-.018.036-6.289,12.6-6.062,25.789l.863-.014c-.223-12.974,5.961-25.36,5.978-25.4Z" fill="#b2babb"/>
        <path id="Trazado_478" data-name="Trazado 478" d="M135.822,170.237c.021.01,7.013,3.476,11.2,17.47l.83-.247c-4.3-14.352-11.613-17.982-11.634-17.993Z" fill="#b2babb"/>
        <path id="Trazado_479" data-name="Trazado 479" d="M196.258,159.265l.991,21.834h-6.814l3.621,6.484s-13.787,26-13.781,25.192.113-12.124.113-12.124l8.775-45.007Z" fill="#f8f9f9" fill-rule="evenodd"/>
        <path id="Trazado_480" data-name="Trazado 480" d="M158.78,152.723l21.608,47.928-.113,12.124L160.908,185.71l3.558-7.525-7.254,1.4-4.748-22.707Z" fill="#f2f3f4" fill-rule="evenodd"/>
        <rect id="Rectángulo_38" data-name="Rectángulo 38" width="20.084" height="14.002" transform="translate(148.819 200.379)" fill="#f2f3f4"/>
        <rect id="Rectángulo_39" data-name="Rectángulo 39" width="3.271" height="6.276" transform="translate(157.225 196.801)" fill="#2874a6"/>
        <rect id="Rectángulo_40" data-name="Rectángulo 40" width="16.975" height="1.148" transform="translate(150.837 205.486)" fill="#7fb3d5"/>
        <rect id="Rectángulo_41" data-name="Rectángulo 41" width="7.316" height="1.147" transform="translate(160.496 209.045)" fill="#7fb3d5"/>
        <rect id="Rectángulo_42" data-name="Rectángulo 42" width="2.722" height="1.147" transform="translate(156.469 209.045)" fill="#7fb3d5"/>
        <rect id="Rectángulo_43" data-name="Rectángulo 43" width="2.721" height="1.147" transform="translate(152.332 209.045)" fill="#7fb3d5"/>
        <path id="Trazado_481" data-name="Trazado 481" d="M163.366,267.424l.309,21.493H141.9l-.409-19.757-1.3.089.422,20.331.014.638h24.359l-.01-.658-.318-22.151Z" fill="#b2babb"/>
        <path id="Trazado_482" data-name="Trazado 482" d="M191.925,268.1l-.241,18.442-.014.666.667,0,19.343-.183.629-.005.014-.629.427-19.523-1.3-.025-.415,18.893-18.047.17.229-17.776Z" fill="#b2babb"/>
        <path id="Trazado_483" data-name="Trazado 483" d="M201.7,256.54c-3.12,2.333-8.267,4.979-12.055,8.284-4.325,3.774-1.01,7.07.569,5.617,1.615-1.486,1.979-2.228,3-1.886l19.553-1.275,1.295-2.5Z" fill="#f9bfb3" fill-rule="evenodd"/>
        <path id="Trazado_484" data-name="Trazado 484" d="M214.88,264.855l-.431.651-13.284-8.854-.308-.206.187-.318,15.285-25.922-9.17-25.218.733-.267,9.234,25.392.063.173-.093.159-15.19,25.762ZM148.056,190.59l.722.3-12.325,29.9,17.582,32.229.123.224-.156.2-12.851,16.556-.33.424-.3-.444-2.753-4.062.644-.437,2.452,3.617,12.366-15.93L135.68,220.994l-.089-.164.07-.172Z" fill="#b2babb"/>
        <path id="Trazado_485" data-name="Trazado 485" d="M152.362,255.549c3.489,1.733,11.235,5.841,15.58,8.369,3.269,1.9,3.661,6.112.22,4.967a37.289,37.289,0,0,0-4.615-1.339l-21.038.7Z" fill="#f9bfb3" fill-rule="evenodd"/>
        <path id="Trazado_486" data-name="Trazado 486" d="M182.609,117.286a.33.33,0,1,0,.33.331.331.331,0,0,0-.33-.331" fill="#f8f9f9" fill-rule="evenodd"/>
        <path id="Trazado_487" data-name="Trazado 487" d="M167.067,117.286a.33.33,0,1,0,.329.331.33.33,0,0,0-.329-.331" fill="#f8f9f9" fill-rule="evenodd"/>
        <path id="Trazado_488" data-name="Trazado 488" d="M157.734,119.856l1.893,6.939.979-.11-2.276-8Z" fill="#f5f7ff"/>
        <path id="Trazado_489" data-name="Trazado 489" d="M190.956,119.983l-2.048,6.514-1.468-.434,2.071-5.637,1.115-1.78Z" fill="#f5f7ff"/>
        <path id="Trazado_490" data-name="Trazado 490" d="M189.779,126.288s-13.471-2.236-15.828-2.115-14.76,1.577-14.76,1.577.584,9.163,3.07,11.919,7.163,6.882,13.547,6.142,11.46-4.547,13.971-17.523" fill="#e4f0f7" fill-rule="evenodd"/>
        <path id="Trazado_491" data-name="Trazado 491" d="M174.517,124.177c-.229-.01-.42-.013-.566-.005-2.358.122-14.76,1.578-14.76,1.578s.564,8.85,2.943,11.77l.014.016c.037.046.075.09.113.132l.111.123.007.007.108.117.014.015.1.111.02.023.1.105,0,0c.076.081.154.162.233.244l.02.02.084.086.062.063.075.075.05.05.082.083.069.066.079.077.04.039.1.1.02.017.094.089.02.019.069.065.1.1.006.005.144.13,0,.006c.49.442,1.021.886,1.594,1.313l.042.031.146.106.027.019.152.109.034.023.164.115,0,0,.173.118.023.016.172.113.007,0a13.89,13.89,0,0,0,8.124,2.421c-.375-2.72.55-13.285-.224-19.713" fill="#d7e8f2" fill-rule="evenodd"/>
        <path id="Trazado_492" data-name="Trazado 492" d="M163.693,132.731l.134.945,10.667-1.182,9.767.992.066-.956-9.861-1Zm.953,4.345.184.934,9.807-.977,8.039,1.029.085-.952-8.176-1.048Zm-2.531-8.123.133.945,12.238-1.307,10.61,1.033.067-.956-10.707-1.043Z" fill="#bbd6e6"/>
        <path id="Trazado_493" data-name="Trazado 493" d="M164.569,151.269a15.187,15.187,0,0,0-3.081,2.039,15.647,15.647,0,0,0-5.053,9.94,31.542,31.542,0,0,0,.9,11.974c1.409,5.511,3.83,10.178,5.771,12.041l-1.846,1.6c-2.2-2.114-4.9-7.212-6.409-13.115a33.627,33.627,0,0,1-.938-12.793,17.847,17.847,0,0,1,5.82-11.332,18.555,18.555,0,0,1,5.554-3.269,10.527,10.527,0,0,1-.717,2.914" fill="#384b5e"/>
        <path id="Trazado_494" data-name="Trazado 494" d="M163.928,185.726a5.946,5.946,0,1,1-6.492,5.92,6.226,6.226,0,0,1,6.492-5.92" fill="#b2babb" fill-rule="evenodd"/>
        <path id="Trazado_495" data-name="Trazado 495" d="M163.928,186.472a5.2,5.2,0,1,1-5.674,5.174,5.441,5.441,0,0,1,5.674-5.174" fill="#f2f3f4" fill-rule="evenodd"/>
        <path id="Trazado_496" data-name="Trazado 496" d="M163.928,188.452a3.207,3.207,0,1,1-3.5,3.194,3.359,3.359,0,0,1,3.5-3.194" fill="#b2babb" fill-rule="evenodd"/>
        <path id="Trazado_497" data-name="Trazado 497" d="M182.557,149.638c6.043,1.839,14.585,8.106,12.486,29.062l-2.533-.209c1.291-12.89-1.6-19.7-5.212-23.295l.006-.009-.013,0a11.84,11.84,0,0,0-4.1-2.916,12.168,12.168,0,0,1-.632-2.635" fill="#384b5e"/>
        <path id="Trazado_498" data-name="Trazado 498" d="M186.4,188.492c-.013.054-3.986,18.778-3.038,22.627.827,3.354,2.667,2.441,2.671,2.439l.435.842c-.008,0-2.984,1.447-4.1-3.079-.993-4.033,3.021-22.954,3.033-23.008Z" fill="#b2babb"/>
        <path id="Trazado_499" data-name="Trazado 499" d="M196.183,191.707a80.04,80.04,0,0,1-8.975,15.881,18.219,18.219,0,0,1-4.59,4.432c-1.652.987-3.272,1.2-4.75.246a6.225,6.225,0,0,1-1.956-2.229l.9-.43a5.323,5.323,0,0,0,1.639,1.9,3.264,3.264,0,0,0,3.6-.264,17.315,17.315,0,0,0,4.317-4.191,79.052,79.052,0,0,0,8.848-15.666Z" fill="#b2babb"/>
        <path id="Trazado_500" data-name="Trazado 500" d="M186.347,212.876a1.528,1.528,0,0,1,2.2.508c.261.674.6,1.29-.077,1.794-1.224.911-5.183-.769-2.12-2.3" fill="#fff" fill-rule="evenodd"/>
        <path id="Trazado_501" data-name="Trazado 501" d="M177.167,210.9a2.7,2.7,0,0,0-.166-2.378c-1.227-1.677-3.619-.138-2.678,1.327.624.97,2.37,1.71,2.844,1.051" fill="#f8f9f9" fill-rule="evenodd"/>
        <path id="Trazado_502" data-name="Trazado 502" d="M184.63,189.026c0-.015-.068-5.026,2.281-8.587a7.526,7.526,0,0,1,4.883-3.538l.006,0a5.5,5.5,0,0,1,3.055.33,5.723,5.723,0,0,1,2.385,1.858,8.233,8.233,0,0,1,1.078,7.064A59.189,59.189,0,0,1,196.1,192.8l-1.906-.668a57.025,57.025,0,0,0,2.137-6.388,6.543,6.543,0,0,0-.77-5.594,3.761,3.761,0,0,0-1.55-1.227,3.312,3.312,0,0,0-1.837-.194,5.591,5.591,0,0,0-3.526,2.676c-2.045,3.1-1.988,7.636-1.988,7.649Z" fill="#2c3b4a"/>
        <path id="Trazado_503" data-name="Trazado 503" d="M100.524,359.6a13.166,13.166,0,1,1-13.166,13.166A13.166,13.166,0,0,1,100.524,359.6" fill="#0255a1" fill-rule="evenodd"/>
        <path id="Trazado_504" data-name="Trazado 504" d="M140.544,359.6a13.166,13.166,0,1,1-13.166,13.166A13.166,13.166,0,0,1,140.544,359.6" fill="#0255a1" fill-rule="evenodd"/>
        <path id="Trazado_505" data-name="Trazado 505" d="M132.168,368.831h5.947v-1.139h-5.947v-1.2h7.1v2.34h3.045v7.862H132.168Zm16.753-2.34-5.806,2.34v7.862l5.806,2.34Z" fill="#fff" fill-rule="evenodd"/>
        <path id="Trazado_506" data-name="Trazado 506" d="M180.907,359.6a13.166,13.166,0,1,1-13.166,13.166A13.166,13.166,0,0,1,180.907,359.6" fill="#ec3d3a" fill-rule="evenodd"/>
        <path id="Trazado_507" data-name="Trazado 507" d="M94.717,365.839h10.556a2.32,2.32,0,0,1,2.313,2.313v6.3a2.32,2.32,0,0,1-2.249,2.312l1.063,3.678-3.721-3.677H94.717a2.319,2.319,0,0,1-2.313-2.313v-6.3a2.319,2.319,0,0,1,2.313-2.313m.783,5.089a.917.917,0,1,1-.917.917.918.918,0,0,1,.917-.917m8.991,0a.917.917,0,1,1-.918.917.918.918,0,0,1,.918-.917m-3,0a.917.917,0,1,1-.917.917.918.918,0,0,1,.917-.917m-3,0a.917.917,0,1,1-.917.917.918.918,0,0,1,.917-.917" fill="#fff" fill-rule="evenodd"/>
        <path id="Trazado_508" data-name="Trazado 508" d="M183.265,380.924c3.556,1.223,5.162-2.639,5.162-2.639l-3.785-3.441c-1.921,5.07-10.321-5.215-4.982-6.091l-2.624-4.392s-4.1.809-3.608,4.537c.441,3.315,6.676,10.938,9.837,12.026" fill="#fff" fill-rule="evenodd"/>
        <path id="Trazado_509" data-name="Trazado 509" d="M396.95,122.947a2.605,2.605,0,1,0,2.6-2.6,2.606,2.606,0,0,0-2.6,2.6" fill="#375a64"/>
        <path id="Trazado_510" data-name="Trazado 510" d="M386.523,122.947a2.605,2.605,0,1,0,2.6-2.6,2.605,2.605,0,0,0-2.6,2.6" fill="#375a64"/>
        <path id="Trazado_511" data-name="Trazado 511" d="M376.123,121.644a2.606,2.606,0,1,0,3.559-.954,2.606,2.606,0,0,0-3.559.954" fill="#375a64"/>
        <path id="Trazado_512" data-name="Trazado 512" d="M388.966,92.514a2.913,2.913,0,0,0-.526-.009l-1.548.044c-.341.016-.723.016-1.142.051l-1.366.192-1.594.229-1.78.441a28.869,28.869,0,0,0-8.631,3.763,30.459,30.459,0,0,0-13.99,22.893,31.614,31.614,0,0,0-.084,4.173c.049.706.035,1.424.139,2.135s.214,1.428.323,2.15a30.651,30.651,0,0,0,2.9,8.493,32.76,32.76,0,0,0,5.547,7.633,32.066,32.066,0,0,0,7.992,5.741,29.046,29.046,0,0,0,9.742,2.99,19.224,19.224,0,0,0,2.6.221,23.453,23.453,0,0,0,2.626.048,31.133,31.133,0,0,0,5.261-.665,30.739,30.739,0,0,0,10.473-4.407l-.317.032,10.669,4.282.631.254-.18-.656q-1.614-5.873-3.136-11.405l-.054.281a30.617,30.617,0,0,0,5.693-13.033,27.673,27.673,0,0,0,.415-6.677,21.577,21.577,0,0,0-.3-3.207q-.123-.786-.242-1.561c-.1-.513-.252-1.01-.373-1.51a30.512,30.512,0,0,0-11.9-17.352,29.152,29.152,0,0,0-7.083-3.737l-1.6-.571-1.515-.385-1.385-.343c-.445-.086-.874-.132-1.276-.193-.806-.1-1.515-.242-2.136-.273l-1.568-.052-.958-.021a1.449,1.449,0,0,0-.324.011,1.426,1.426,0,0,0,.324.044l.953.076,1.558.1c.616.048,1.317.2,2.116.321a30.345,30.345,0,0,1,24.259,22.505c.116.491.269.98.359,1.484l.23,1.533a20.948,20.948,0,0,1,.282,3.149,27.16,27.16,0,0,1-.432,6.546A30.047,30.047,0,0,1,413,141.026l-.1.128.042.154q1.507,5.527,3.113,11.412l.451-.4-10.663-4.294-.167-.068-.152.1a30.111,30.111,0,0,1-10.239,4.3,30.556,30.556,0,0,1-5.142.65,22.909,22.909,0,0,1-2.569-.046,18.853,18.853,0,0,1-2.541-.215,28.4,28.4,0,0,1-9.526-2.913,31.447,31.447,0,0,1-7.829-5.6,32.127,32.127,0,0,1-5.448-7.459,30.043,30.043,0,0,1-2.869-8.31q-.163-1.06-.325-2.106c-.1-.7-.092-1.4-.143-2.093A30.078,30.078,0,0,1,372.589,97.55a29.057,29.057,0,0,1,8.491-3.828l1.758-.468L384.415,93l1.353-.223c.415-.046.795-.057,1.133-.084l1.54-.112a2.974,2.974,0,0,0,.525-.062" fill="#375a64"/>
        <path id="Trazado_513" data-name="Trazado 513" d="M249.631,122.947a2.605,2.605,0,1,1-2.6-2.6,2.605,2.605,0,0,1,2.6,2.6" fill="#375a64"/>
        <path id="Trazado_514" data-name="Trazado 514" d="M260.059,122.947a2.606,2.606,0,1,1-2.6-2.6,2.606,2.606,0,0,1,2.6,2.6" fill="#375a64"/>
        <path id="Trazado_515" data-name="Trazado 515" d="M270.46,121.644a2.606,2.606,0,1,1-3.561-.954,2.607,2.607,0,0,1,3.561.954" fill="#375a64"/>
        <path id="Trazado_516" data-name="Trazado 516" d="M257.615,92.514a2.913,2.913,0,0,1,.526-.009l1.549.044c.34.016.723.016,1.142.051l1.365.192,1.594.229,1.78.441a28.858,28.858,0,0,1,8.631,3.763,30.452,30.452,0,0,1,13.99,22.893,31.443,31.443,0,0,1,.084,4.173c-.049.706-.035,1.424-.138,2.135s-.215,1.428-.324,2.15a30.586,30.586,0,0,1-2.9,8.493,32.731,32.731,0,0,1-5.547,7.633,32.047,32.047,0,0,1-7.992,5.741,29.046,29.046,0,0,1-9.742,2.99,19.209,19.209,0,0,1-2.6.221,23.471,23.471,0,0,1-2.627.048,31.133,31.133,0,0,1-5.261-.665,30.747,30.747,0,0,1-10.473-4.407l.317.032-10.668,4.282-.632.254.18-.656,3.137-11.405.053.281a30.617,30.617,0,0,1-5.693-13.033,27.621,27.621,0,0,1-.414-6.677,21.442,21.442,0,0,1,.3-3.207q.121-.786.242-1.561c.1-.513.251-1.01.373-1.51a30.511,30.511,0,0,1,11.9-17.352,29.157,29.157,0,0,1,7.084-3.737l1.6-.571,1.516-.385,1.385-.343c.445-.086.873-.132,1.276-.193.806-.1,1.514-.242,2.135-.273l1.569-.052.957-.021a1.449,1.449,0,0,1,.324.011,1.422,1.422,0,0,1-.323.044l-.954.076-1.557.1c-.616.048-1.318.2-2.117.321A30.345,30.345,0,0,0,228.4,115.565c-.116.491-.268.98-.358,1.484s-.154,1.019-.231,1.533a20.946,20.946,0,0,0-.282,3.149,27.112,27.112,0,0,0,.433,6.546,30.057,30.057,0,0,0,5.614,12.749l.1.128-.042.154q-1.509,5.527-3.114,11.412l-.451-.4,10.663-4.294.168-.068.151.1a30.116,30.116,0,0,0,10.24,4.3,30.556,30.556,0,0,0,5.142.65,22.913,22.913,0,0,0,2.569-.046,18.852,18.852,0,0,0,2.54-.215,28.412,28.412,0,0,0,9.527-2.913,31.459,31.459,0,0,0,7.828-5.6,32.1,32.1,0,0,0,5.448-7.459,30.042,30.042,0,0,0,2.869-8.31q.164-1.06.326-2.106c.1-.7.092-1.4.143-2.093a31.148,31.148,0,0,0-.064-4.1A30.15,30.15,0,0,0,273.992,97.55a29.053,29.053,0,0,0-8.49-3.828l-1.759-.468L262.166,93l-1.353-.223c-.415-.046-.795-.057-1.133-.084l-1.54-.112a2.974,2.974,0,0,1-.525-.062" fill="#375a64"/>
      </g>
    </g>
  </g>
</svg>
