<svg id="Grupo_217" data-name="Grupo 217" xmlns="http://www.w3.org/2000/svg" xmlns:xlink="http://www.w3.org/1999/xlink" width="504.363" height="412.063" viewBox="0 0 504.363 412.063">
  <defs>
    <clipPath id="clip-path">
      <rect id="Rectángulo_106" data-name="Rectángulo 106" width="504.363" height="412.063" fill="none"/>
    </clipPath>
    <clipPath id="clip-path-3">
      <rect id="Rectángulo_100" data-name="Rectángulo 100" width="504.363" height="393.211" fill="none"/>
    </clipPath>
    <clipPath id="clip-path-4">
      <rect id="Rectángulo_101" data-name="Rectángulo 101" width="119.741" height="87.11" transform="translate(192.7 107.234)" fill="none"/>
    </clipPath>
    <clipPath id="clip-path-5">
      <rect id="Rectángulo_102" data-name="Rectángulo 102" width="54.734" height="26.714" transform="translate(223.377 65.737)" fill="none"/>
    </clipPath>
    <clipPath id="clip-path-6">
      <rect id="Rectángulo_103" data-name="Rectángulo 103" width="38.299" height="24.881" transform="translate(382.646 130.682)" fill="none"/>
    </clipPath>
    <clipPath id="clip-path-7">
      <rect id="Rectángulo_104" data-name="Rectángulo 104" width="45.746" height="51.172" transform="translate(80.195 133.879)" fill="none"/>
    </clipPath>
  </defs>
  <g id="Grupo_216" data-name="Grupo 216" clip-path="url(#clip-path)">
    <g id="Grupo_215" data-name="Grupo 215">
      <g id="Grupo_214" data-name="Grupo 214" clip-path="url(#clip-path)">
        <path id="Trazado_514" data-name="Trazado 514" d="M486.13,45.055c-22.164-30.691-57-47.341-94.74-44.8C359.257,2.416,329.336,16.089,297.172,18.2c-43.986,2.886-88.13-3.775-132.167-1.791S74.533,30.775,45.456,63.906C11.108,103.041-5.312,158.884,1.525,210.335c11.112,83.625,78.351,139.257,152.917,168.8,157.584,62.428,316.2-94.4,346.526-241.346,6.582-31.9,4.584-65.835-14.838-92.73" fill="#eceffe"/>
        <g id="Grupo_201" data-name="Grupo 201" opacity="0.7">
          <g id="Grupo_200" data-name="Grupo 200">
            <g id="Grupo_199" data-name="Grupo 199" clip-path="url(#clip-path-3)">
              <path id="Trazado_515" data-name="Trazado 515" d="M486.13,45.055c-22.164-30.691-57-47.341-94.74-44.8C359.257,2.416,329.336,16.089,297.172,18.2c-43.986,2.886-88.13-3.775-132.167-1.791S74.533,30.775,45.456,63.906C11.108,103.041-5.312,158.884,1.525,210.335c11.112,83.625,78.351,139.257,152.917,168.8,157.584,62.428,316.2-94.4,346.526-241.346,6.582-31.9,4.584-65.835-14.838-92.73" fill="#eceffe"/>
            </g>
          </g>
        </g>
        <path id="Trazado_516" data-name="Trazado 516" d="M333.244,148.833c0,9.5-2.977,17.191,10.315,17.191s24.07-4.954,24.07-17.191-10.776-17.19-24.07-17.19-10.315,7.694-10.315,17.19" fill="#efc689"/>
        <path id="Trazado_517" data-name="Trazado 517" d="M335.617,164.208c3.753-11.891,12.82-20.276,23.416-20.276a20.218,20.218,0,0,1,8.313,1.809c-1.7-9.973-11.685-14.1-23.787-14.1-13.292,0-10.315,7.694-10.315,17.19,0,6.729-1.488,12.552,2.373,15.375" fill="#ffd49c"/>
        <path id="Trazado_518" data-name="Trazado 518" d="M343.6,127.988l-7.139-2.292-.115,44.332,7.151-2.257Z" fill="#efc689"/>
        <path id="Trazado_519" data-name="Trazado 519" d="M339.36,121.134l-9.171-3.055v59.6l9.171-3.055Z" fill="#f9ddaa"/>
        <path id="Trazado_520" data-name="Trazado 520" d="M185.365,183.209c-.629,6.806,7.19,53.479,6.885,61.724l2.817.283c.675-13.48,13.988-48.875,15.522-54.368s-3.44-28.9-10.245-29.2-14.35,14.764-14.979,21.565" fill="#ffcd9c"/>
        <path id="Trazado_521" data-name="Trazado 521" d="M200.345,161.644c-6.806-.3-14.351,14.765-14.979,21.565-.374,4.027,2.211,21.995,4.32,37.712a5.275,5.275,0,0,1,2.195-.5c2.686,0,5.168,2.172,7.194,5.848,4.259-14.867,10.493-31.767,11.514-35.421,1.531-5.492-3.439-28.9-10.244-29.2" fill="#ffae85"/>
        <path id="Trazado_522" data-name="Trazado 522" d="M259.7,66.311l-20.249-.573L238.21,84.555l22.637-.573Z" fill="#ffcd9c"/>
        <path id="Trazado_523" data-name="Trazado 523" d="M284.343,85.221c-6.3-4.583-57.593-4.3-65.615-1.718S207.266,93.818,205.26,98.4l91.116.285s-5.728-8.881-12.033-13.468" fill="#ffcd9c"/>
        <path id="Trazado_524" data-name="Trazado 524" d="M318.035,182.788c1.3,6.686-1.358,53.925-.219,62.078l-2.658.607c-2.029-13.3-22.285-45.872-24.31-51.146s4.227-30.117,10.684-31.206,15.207,12.987,16.5,19.667" fill="#ffcd9c"/>
        <path id="Trazado_525" data-name="Trazado 525" d="M315.139,220a6.914,6.914,0,0,1,2.659.547c.395-15.806,1-33.82.237-37.76-1.3-6.68-10.043-20.76-16.5-19.667s-12.712,25.932-10.685,31.206c1.276,3.325,9.806,17.51,16.441,30.873,2.229-3.277,4.933-5.2,7.85-5.2" fill="#ffae85"/>
        <path id="Trazado_526" data-name="Trazado 526" d="M287.207,196.972c-13.179-8.6-67.047-8.026-67.047-8.026-10.314,57.88,1.719,161.75,9.169,207.595h2.864c-.573-62.465,15.858-146.084,21.586-146.084s20.249,48.661,48.328,146.084h3.248c-4.011-49.287-18.148-199.569-18.148-199.569" fill="#604545"/>
        <path id="Trazado_527" data-name="Trazado 527" d="M239.508,307.06a129.66,129.66,0,0,1-21.057-4.6c2.715,37.042,7.32,72.183,10.878,94.083h2.865c-.263-28.752,3.077-61.982,7.314-89.481" fill="#543c3c"/>
        <path id="Trazado_528" data-name="Trazado 528" d="M275.876,307.141c6.986,22.873,15.645,52.669,26.231,89.4h3.248c-1.639-20.149-4.972-57.18-8.339-93.922a129.81,129.81,0,0,1-21.14,4.522" fill="#543c3c"/>
        <path id="Trazado_529" data-name="Trazado 529" d="M252.774,242.378c-6.261,0-23.675,81.127-24.672,146.335.42,2.761.83,5.382,1.228,7.828h2.864c-.573-62.466,15.857-146.084,21.586-146.084s20.249,48.661,48.328,146.084h3.248c-.243-3.025-.531-6.432-.847-10.156-29.8-96.029-45.424-144.007-51.735-144.007" fill="#4c3434"/>
        <path id="Trazado_530" data-name="Trazado 530" d="M290.226,229.21c-1.81-19.4-3.019-32.238-3.019-32.238-13.178-8.6-67.046-8.027-67.046-8.027a287.1,287.1,0,0,0-3.75,40.265Z" fill="#4c3434"/>
        <path id="Trazado_531" data-name="Trazado 531" d="M238.964,239.043s21.661,5.965,32.332-1.57c0,0-8.161,11.616-17.891,11.616s-14.441-10.046-14.441-10.046" fill="#4c3434"/>
        <path id="Trazado_532" data-name="Trazado 532" d="M331.334,97.256l-157.02-4.011-5.73,114.611h162.75Z" fill="#ffedca"/>
        <path id="Trazado_533" data-name="Trazado 533" d="M245.586,155.355c-28.5,2.773-54.739.742-74.138-4.78l-2.864,57.281h162.75V127.7c-17.125,13.257-48.787,24.055-85.748,27.653" fill="#ffe2bb"/>
        <path id="Trazado_534" data-name="Trazado 534" d="M320.638,106.673,184.26,103.367l-4.977,94.367H320.638Z" fill="#447262"/>
        <path id="Trazado_535" data-name="Trazado 535" d="M318.159,108.8l-131.6-3.139-4.8,89.781h136.4Z" fill="#74d1bb"/>
        <path id="Trazado_536" data-name="Trazado 536" d="M287.089,108.063l-72.382-1.729c-2.217,29.4,4.021,51.667,2.333,89.11h68.448c-2.574-50.622,3.643-69.878,1.6-87.381" fill="#59b5a8"/>
        <path id="Trazado_537" data-name="Trazado 537" d="M203.117,105.853c-6.02,10.6-14.189,51-15.336,64.471s20.351,14.336,20.728,9.454c.955-12.416,8.977-25.351,10.505-40.495,1.968-19.535-1.5-32.882-1.5-32.882Z" fill="#59b5a8"/>
        <path id="Trazado_538" data-name="Trazado 538" d="M299.561,108.416c6.491,10.665,13.554,50.4,14.017,63.538s-18.691,11.2-19.684,6.295c-4.965-24.545-13.062-35.436-14.421-46.321-2.466-19.753,4.131-24.34,4.131-24.34Z" fill="#59b5a8"/>
        <path id="Trazado_539" data-name="Trazado 539" d="M301.533,163.121c-6.457,1.089-12.713,25.932-10.686,31.206.108.287.285.669.5,1.116h26.816V183.667c-.036-.336-.078-.64-.124-.879-1.3-6.68-10.044-20.76-16.5-19.667" fill="#59b5a8"/>
        <path id="Trazado_540" data-name="Trazado 540" d="M200.345,161.644c-6.806-.3-14.351,14.765-14.979,21.565-.167,1.789.256,6.351.958,12.235H209.09c.728-2.137,1.259-3.736,1.5-4.6,1.531-5.492-3.439-28.9-10.244-29.2" fill="#59b5a8"/>
        <path id="Trazado_541" data-name="Trazado 541" d="M344.945,148.833A7.833,7.833,0,1,0,352.777,141a7.833,7.833,0,0,0-7.832,7.833" fill="#604845"/>
        <path id="Trazado_542" data-name="Trazado 542" d="M347.238,148.833a5.538,5.538,0,1,0,5.538-5.54,5.541,5.541,0,0,0-5.538,5.54" fill="#efc689"/>
        <path id="Trazado_543" data-name="Trazado 543" d="M301.247,397.83H321.3s1.146-2.294-4.87-3.727-12.607-10.026-14.9-7.737c-2.308,2.313-.287,11.464-.287,11.464" fill="#fff8dc"/>
        <path id="Trazado_544" data-name="Trazado 544" d="M234.409,397.83H213.97s-1.833-2.294,3.882-3.727,9.938-10.026,12.938-7.737c3.024,2.313,3.619,11.464,3.619,11.464" fill="#fff8dc"/>
        <g id="Grupo_204" data-name="Grupo 204" style="mix-blend-mode: overlay;isolation: isolate">
          <g id="Grupo_203" data-name="Grupo 203">
            <g id="Grupo_202" data-name="Grupo 202" clip-path="url(#clip-path-4)">
              <path id="Trazado_545" data-name="Trazado 545" d="M244.723,191.953l-.228,2.391h11.949l-1.554-4.152Z" fill="#ffe3b6"/>
              <path id="Trazado_546" data-name="Trazado 546" d="M244.533,180.506l-.1,9.591a17.567,17.567,0,0,0,10.2-1.337l-2.106-9.233Z" fill="#ffe3b6"/>
              <path id="Trazado_547" data-name="Trazado 547" d="M252.212,177.368l-1.507-7.967-6.412,1.168-.721,7.292c4.068,1.146,8.64-.493,8.64-.493" fill="#ffe3b6"/>
              <path id="Trazado_548" data-name="Trazado 548" d="M251.613,168.213l-1.619-8.5-6.876.889-.632,7.8a18.5,18.5,0,0,0,9.127-.183" fill="#ffe3b6"/>
              <path id="Trazado_549" data-name="Trazado 549" d="M243.485,150.233l-.848,8a10.849,10.849,0,0,0,7.615-.152l-.257-9Z" fill="#ffe3b6"/>
              <path id="Trazado_550" data-name="Trazado 550" d="M243.539,147.619c2.948,1.229,6.471-.287,6.471-.287l-.537-7.91-4.369.9c-.175.114-.34.227-.528.342Z" fill="#ffe3b6"/>
              <path id="Trazado_551" data-name="Trazado 551" d="M244.54,137.71c2.418,1.46,5.55.311,5.55.311l.2-7.723-4.155.512c-.027.01-.054.019-.081.032Z" fill="#ffe3b6"/>
              <path id="Trazado_552" data-name="Trazado 552" d="M246.636,128.312a7.416,7.416,0,0,0,1.7.454c.715-.158,1.34-.292,1.863-.4l-2.184-3-.317-2.347c-.1.03-.2.059-.3.086Z" fill="#ffe3b6"/>
              <path id="Trazado_553" data-name="Trazado 553" d="M247.49,121.494l-.245-1.81-.234,1.663s.177.066.479.147" fill="#ffe3b6"/>
              <path id="Trazado_554" data-name="Trazado 554" d="M231.658,118.542a83.051,83.051,0,0,1-15.021-1.751,36.873,36.873,0,0,0,5.068,7.061c2.288-.211,4.861-.417,7.515-.617a31.151,31.151,0,0,0,2.438-4.693" fill="#ffe3b6"/>
              <path id="Trazado_555" data-name="Trazado 555" d="M213.177,109.6c.521,1.335,1.133,2.722,1.815,4.1a9.648,9.648,0,0,1,1.327-.138c2.213-.1,9.527.89,16.531,1.944.518-1.455.991-2.965,1.4-4.472a61.49,61.49,0,0,1-13.281-2.8,4.847,4.847,0,0,1-1.244-.694l-4.209-.1a4.87,4.87,0,0,1-2.34,2.153" fill="#ffe3b6"/>
              <path id="Trazado_556" data-name="Trazado 556" d="M274.746,121.236c1.273.506,3.049-1.233,4.816-4.007a60.414,60.414,0,0,1-7.47,1.07,7.23,7.23,0,0,0,2.654,2.937" fill="#ffe3b6"/>
              <path id="Trazado_557" data-name="Trazado 557" d="M270.355,115c4.99-.843,9.638-1.521,11.223-1.44l.026,0c.711-1.442,1.384-2.982,1.981-4.534L276,108.856a48.738,48.738,0,0,1-7.433,1.813c.558,1.526,1.165,3,1.786,4.335" fill="#ffe3b6"/>
              <path id="Trazado_558" data-name="Trazado 558" d="M250.492,128.768l1.416,1.949L252.7,129c-.436-.254-.84-.506-1.232-.755-.316.172-.636.345-.979.522" fill="#fff1d9"/>
              <path id="Trazado_559" data-name="Trazado 559" d="M249.351,111.423c-.816.1-1.729.166-2.694.208l-.245,1.881.572,4.239c.421.072.654.11.654.11-.2.036-.419.065-.625.1l.233,1.728.245,1.809.072.537c2.353-.138,3.823-.218,3.823-.218-1.09.4-2.335.806-3.691,1.2l.317,2.347,2.184,3c.439-.093.805-.174,1.088-.235-.076-.048-.161-.1-.235-.145l.422.106.493-.106c-.091.051-.2.1-.291.156.319.079.752.189,1.282.322l2.16-4.666,0-.651c-1.319-.434-2.527-.881-3.564-1.329,0,0,1.373.086,3.553.235l-.032-4.131c-.1-.02-.212-.035-.311-.056,0,0,.114-.021.308-.06l-.041-5.435-.165-.779c-.551-.043-1.083-.094-1.571-.164,0,0,.54-.165,1.445-.434l-.556-2.644-7.068-.164-.336,2.578c1.592.4,2.578.664,2.578.664" fill="#fff1d9"/>
              <path id="Trazado_560" data-name="Trazado 560" d="M222.415,167.864c4.614-.449,14.088-5.026,18.383-9.049,0,0-16.322,4.357-18.9,6.032s-1.2,3.186.516,3.017" fill="#fff1d9"/>
              <path id="Trazado_561" data-name="Trazado 561" d="M244.234,148.426s-20.874,6.377-24.17,8.37-1.536,3.333.66,2.952c5.9-1.022,18.017-6.77,23.51-11.322" fill="#fff1d9"/>
              <path id="Trazado_562" data-name="Trazado 562" d="M244.576,140.661c.187-.115.353-.228.528-.342.225-.147.466-.3.675-.443,0,0-24.323,5.839-28.164,7.748s-1.791,3.294.771,2.971c6.476-.817,19.364-5.685,26.19-9.934" fill="#fff1d9"/>
              <path id="Trazado_563" data-name="Trazado 563" d="M215.975,136.663c-4.907,2.036-2.292,3.351.98,2.94,7.045-.877,20.015-4.841,29.1-8.761.027-.013.055-.022.081-.033,1.59-.69,3.058-1.372,4.354-2.042.342-.176.663-.349.978-.522-.06-.042-.127-.081-.187-.119-.283.06-.649.141-1.088.235-.523.113-1.148.246-1.863.405-8.344,1.819-28.488,6.29-32.358,7.9" fill="#fff1d9"/>
              <path id="Trazado_564" data-name="Trazado 564" d="M251.964,127.981l-.493.106c.064.013.125.032.2.05.093-.052.2-.1.291-.156" fill="#fff1d9"/>
              <path id="Trazado_565" data-name="Trazado 565" d="M221.705,123.852a76.6,76.6,0,0,0-7.97.989c-5.249,1.262-2.776,2.971.6,3.071,7.869.242,23.3-2.037,33.061-4.816.1-.027.2-.056.3-.086,1.357-.39,2.6-.793,3.692-1.2,0,0-1.47.08-3.824.219-4.3.252-11.57.7-18.342,1.2-2.654.2-5.227.4-7.515.616" fill="#fff1d9"/>
              <path id="Trazado_566" data-name="Trazado 566" d="M215.909,116.613c.225.062.484.119.729.178a83.027,83.027,0,0,0,15.02,1.751,84.911,84.911,0,0,0,15.355-.585c.206-.032.428-.061.625-.1,0,0-.234-.038-.655-.11-1.937-.324-7.911-1.309-14.134-2.243-7-1.054-14.317-2.041-16.531-1.945a9.956,9.956,0,0,0-1.326.138c-2.916.52-1.474,2.253.917,2.912" fill="#fff1d9"/>
              <path id="Trazado_567" data-name="Trazado 567" d="M234.251,111.035a80.715,80.715,0,0,0,12.4.6c.965-.042,1.878-.1,2.695-.208,0,0-.987-.259-2.579-.664-2.705-.686-7.167-1.8-11.626-2.857l-15.42-.36a4.812,4.812,0,0,0,1.244.693,61.431,61.431,0,0,0,13.281,2.8" fill="#fff1d9"/>
              <path id="Trazado_568" data-name="Trazado 568" d="M276.8,164.848c-2.209-1.676-16.187-6.032-16.187-6.032,3.68,4.022,11.792,8.6,15.747,9.049,1.468.169,2.646-1.339.44-3.017" fill="#fff1d9"/>
              <path id="Trazado_569" data-name="Trazado 569" d="M278.372,156.8c-2.823-1.993-20.7-8.37-20.7-8.37,4.7,4.552,15.077,10.3,20.135,11.322,1.88.381,3.387-.958.566-2.952" fill="#fff1d9"/>
              <path id="Trazado_570" data-name="Trazado 570" d="M280.465,147.624c-3.288-1.909-24.118-7.748-24.118-7.748,5.479,4.416,17.57,9.851,23.461,10.719,2.193.323,3.947-1.06.657-2.971" fill="#fff1d9"/>
              <path id="Trazado_571" data-name="Trazado 571" d="M252.7,129c7.553,4.435,21.342,9.586,28.329,10.6,2.8.41,5.045-.9.84-2.941-3.52-1.709-22.76-6.644-28.917-8.2l-1.282-.322c-.077-.019-.138-.037-.2-.05-.265-.066-.422-.107-.422-.107.074.046.159.1.234.146s.127.077.188.119c.392.249.8.5,1.232.756" fill="#fff1d9"/>
              <path id="Trazado_572" data-name="Trazado 572" d="M283.28,127.911c2.885-.1,5.007-1.809.511-3.07-3.5-.979-21.059-2.266-28.692-2.793-2.179-.15-3.552-.236-3.552-.236,1.037.449,2.245.9,3.563,1.329,8.365,2.757,21.467,5.008,28.17,4.77" fill="#fff1d9"/>
              <path id="Trazado_573" data-name="Trazado 573" d="M272.092,118.3a61.038,61.038,0,0,0,7.471-1.07c.868-.189,1.672-.4,2.365-.617,2.3-.743,3.589-2.841-.324-3.047l-.027,0c-1.585-.081-6.232.6-11.222,1.44-6.579,1.107-13.746,2.5-15.29,2.8l-.308.061c.1.02.211.035.311.055,4.306.842,11.027.906,17.024.383" fill="#fff1d9"/>
              <path id="Trazado_574" data-name="Trazado 574" d="M253.287,111.423c.488.07,1.021.121,1.571.164a60.7,60.7,0,0,0,13.71-.918A48.753,48.753,0,0,0,276,108.856l-12.886-.3c-3.436.972-6.618,1.907-8.384,2.435-.9.269-1.445.434-1.445.434" fill="#fff1d9"/>
              <path id="Trazado_575" data-name="Trazado 575" d="M207.882,108.931a7.971,7.971,0,0,1,2.925,1.091c.09.006.176.027.268.027a5.216,5.216,0,0,0,2.1-.45,4.874,4.874,0,0,0,2.34-2.153l-9-.212a4.722,4.722,0,0,0,1.368,1.7" fill="#fff1d9"/>
              <path id="Trazado_576" data-name="Trazado 576" d="M201.824,175.39c3.5-1.572,3.171-12.851,3.918-22.144,2.218-27.556,8.515-38.321,7.222-41.063a5.834,5.834,0,0,0-2.158-2.161,7.953,7.953,0,0,0-2.924-1.091,7.491,7.491,0,0,0-1.674-.1c-3.387.217-1.843,19.684-2.617,29.936-.456,6.043-2.262,27.5-8.783,33.718-1.211,1.151-.428,2.219,1.113,2.84a8.088,8.088,0,0,1,5.9.068" fill="#fff1d9"/>
              <path id="Trazado_577" data-name="Trazado 577" d="M299.781,171.846a8.776,8.776,0,0,0,2.306.513,10.105,10.105,0,0,1,3.545-.288c2.1-.583,3.326-1.86,1.82-3.35-7.338-7.255-9.461-31.533-10-38.364-.457-5.762-.281-14.07-.455-21.014l-8.525-.2a193.788,193.788,0,0,1,6.635,37.47c.9,10.676.54,23.642,4.674,25.231" fill="#fff1d9"/>
              <path id="Trazado_578" data-name="Trazado 578" d="M307.934,172.579a8.836,8.836,0,0,0-2.3-.509,10.131,10.131,0,0,0-3.545.288c-2.094.583-3.326,1.862-1.813,3.35a16.743,16.743,0,0,1,1.208,1.337c.473-3.533,2.906-3.6,2.6,2.21-.024.436-.049.966-.072,1.567a60.975,60.975,0,0,1,5.151,13.522h3.283c-.657-9.836-.8-20.345-4.508-21.765" fill="#fff1d9"/>
              <path id="Trazado_579" data-name="Trazado 579" d="M304.008,180.822c.022-.6.048-1.131.071-1.567.309-5.812-2.125-5.744-2.6-2.21-.02.146-.043.292-.055.45a85.264,85.264,0,0,0,.525,16.848h2.6a92.949,92.949,0,0,1-.544-13.521" fill="#fff1d9"/>
              <path id="Trazado_580" data-name="Trazado 580" d="M199.337,181.984c-.866-5.756,1.39-5.9,2.18-2.428a16.021,16.021,0,0,1,.983-1.434c.937-1.21.455-2.16-.677-2.733a8.085,8.085,0,0,0-5.9-.068,7.375,7.375,0,0,0-.818.36c-2.909,1.54-2.526,9.928-2.14,18.662h3.681a57.336,57.336,0,0,1,2.912-10.806c-.08-.6-.157-1.118-.219-1.553" fill="#fff1d9"/>
              <path id="Trazado_581" data-name="Trazado 581" d="M201.517,179.557c-.79-3.476-3.046-3.328-2.18,2.428.062.434.139.958.219,1.552a96.879,96.879,0,0,1,.813,10.807h2.443a87.937,87.937,0,0,0-1.2-14.342c-.026-.158-.061-.3-.094-.445" fill="#fff1d9"/>
            </g>
          </g>
        </g>
        <path id="Trazado_582" data-name="Trazado 582" d="M245.2,87.781c.072-.806-3.308-1.761-7.549-2.132s-12.381-.585-12.45.219,7.959,2.33,12.2,2.7,7.733.02,7.8-.787" fill="#ffae85"/>
        <path id="Trazado_583" data-name="Trazado 583" d="M254,88.2c-.033-.806,3.615-1.62,8.15-1.817s13.217-.076,13.255.734-8.6,2-13.13,2.192-8.238-.3-8.275-1.109" fill="#ffae85"/>
        <g id="Grupo_207" data-name="Grupo 207" opacity="0.5" style="mix-blend-mode: multiply;isolation: isolate">
          <g id="Grupo_206" data-name="Grupo 206">
            <g id="Grupo_205" data-name="Grupo 205" clip-path="url(#clip-path-5)">
              <path id="Trazado_584" data-name="Trazado 584" d="M250.893,92.45c11.875,0,22.247-4.062,27.219-9.078a149.458,149.458,0,0,0-17.4-1.482L259.7,66.31l-20.249-.573L238.4,81.77c-5.954.16-11.261.471-15.018.906,4.553,5.328,15.1,9.774,27.516,9.774" fill="#bc5642"/>
            </g>
          </g>
        </g>
        <path id="Trazado_585" data-name="Trazado 585" d="M275.182,41.988c5.869,5.482-2.743,14.005-8.87,17.309l-1.276-4.854c.365-2.658,4.279-17.941,10.146-12.455" fill="#ffcd9c"/>
        <path id="Trazado_586" data-name="Trazado 586" d="M272.441,44.755c4.027,3.765-1.886,9.613-6.091,11.879l-.875-3.331c.249-1.824,2.937-12.315,6.966-8.548" fill="#ef8f6f"/>
        <path id="Trazado_587" data-name="Trazado 587" d="M269.669,48.255c2.75,2.568-1.287,6.567-4.16,8.114l-.6-2.275c.172-1.247,2.009-8.412,4.76-5.839" fill="#ffcd9c"/>
        <path id="Trazado_588" data-name="Trazado 588" d="M223.21,41.277c-5.567,5.789,3.488,13.84,9.784,16.811l1.016-4.916c-.508-2.634-5.234-17.688-10.8-11.9" fill="#ffcd9c"/>
        <path id="Trazado_589" data-name="Trazado 589" d="M225.341,44.113c-3.9,4.061,2.447,9.706,6.862,11.788l.713-3.446c-.355-1.849-3.672-12.405-7.575-8.342" fill="#ef8f6f"/>
        <path id="Trazado_590" data-name="Trazado 590" d="M227.781,47.327c-2.638,2.744,1.651,6.559,4.635,7.962l.481-2.326c-.241-1.249-2.48-8.378-5.116-5.636" fill="#ffcd9c"/>
        <path id="Trazado_591" data-name="Trazado 591" d="M272.93,21.747c-3.419-3.426-4.224-1.712-4.224-1.712s-2.7-12.141-6.237-13.907A14.847,14.847,0,0,0,249.6,5.912S246.98.564,240.341,2.918c-5.43,1.924-9.658,10.057-9.658,10.057s-2.213-.217-4.626,2.78c-3.981,4.938,2.466,28.641,7.094,45.97l31.763.069c4.828-13.052,11.436-36.624,8.016-40.047" fill="#a34848"/>
        <path id="Trazado_592" data-name="Trazado 592" d="M272.277,21.126a25.949,25.949,0,0,1-22.325,12.208c-11.435,0-21.115-7-24.417-16.67-2.8,6.441,3.225,28.616,7.616,45.061l31.764.069c4.828-13.052,11.435-36.624,8.015-40.047-.228-.231-.446-.434-.653-.621" fill="#8c3535"/>
        <path id="Trazado_593" data-name="Trazado 593" d="M230.71,50.052c.766,8.8,2.581,23.3,6.371,24.718s19.448,3.457,24.275-.628c2.72-2.3,7.619-26.517,7.66-28.425s1.123-34.145-18.754-34.223c-21.778-.087-20.32,29.751-19.552,38.558" fill="#ffcd9c"/>
        <path id="Trazado_594" data-name="Trazado 594" d="M329.684,97.212V206.287H169.839l5.552-113.014-1.076-.028-5.731,114.611h162.75V97.256Z" fill="#efc689"/>
        <path id="Trazado_595" data-name="Trazado 595" d="M353.2,146.644a5.528,5.528,0,0,1,5.016,3.221,5.659,5.659,0,0,0,.1-1.032,5.538,5.538,0,1,0-10.554,2.319,5.532,5.532,0,0,1,5.434-4.508" fill="#ffd49c"/>
        <path id="Trazado_596" data-name="Trazado 596" d="M333.685,171.555a1.57,1.57,0,1,0,1.569-1.57,1.57,1.57,0,0,0-1.569,1.57" fill="#604845"/>
        <path id="Trazado_597" data-name="Trazado 597" d="M333.685,124.391a1.57,1.57,0,1,0,1.569-1.57,1.568,1.568,0,0,0-1.569,1.57" fill="#604845"/>
        <path id="Trazado_598" data-name="Trazado 598" d="M323.613,101.974a1.57,1.57,0,1,0,1.57-1.57,1.568,1.568,0,0,0-1.57,1.57" fill="#d39d57"/>
        <path id="Trazado_599" data-name="Trazado 599" d="M323.613,201.167a1.57,1.57,0,1,0,1.57-1.569,1.568,1.568,0,0,0-1.57,1.569" fill="#d39d57"/>
        <path id="Trazado_600" data-name="Trazado 600" d="M172.731,201.167a1.57,1.57,0,1,0,1.57-1.569,1.568,1.568,0,0,0-1.57,1.569" fill="#d39d57"/>
        <path id="Trazado_601" data-name="Trazado 601" d="M178.382,98.415a1.569,1.569,0,1,0,1.569-1.571,1.568,1.568,0,0,0-1.569,1.571" fill="#d39d57"/>
        <path id="Trazado_602" data-name="Trazado 602" d="M319.445,252.937c.628-3.069,1.274-6.061-2.189-14.184l-2.462.7c-.372,4.226-3.406,10.242-2.659,11.641.261.471,7.1,2.893,7.31,1.845" fill="#ffcd9c"/>
        <path id="Trazado_603" data-name="Trazado 603" d="M312.28,249.361c-.339,1.437-3.038,6.192-2.2,6.51,1.289.5,3.041-3.573,3.889-5.2,1.107-2.12-1.687-1.31-1.687-1.31" fill="#ffcd9c"/>
        <path id="Trazado_604" data-name="Trazado 604" d="M317.518,251.914c-.013,1.456-1.058,7.28-.172,7.5,1.558.379,2.371-5.844,2.254-7.35-.182-2.284-2.082-.15-2.082-.15" fill="#ffcd9c"/>
        <path id="Trazado_605" data-name="Trazado 605" d="M318.488,249.4c2.558-1.727,4.139,4.372,5.863,4.12,2.406-.348-2.77-7.154-5.072-8.611-2.265-1.431-.791,4.491-.791,4.491" fill="#ffcd9c"/>
        <path id="Trazado_606" data-name="Trazado 606" d="M314.8,251.458c-.279,1.439-2.026,7.479-1.186,7.788,1.326.493,2.846-5.589,3.272-7.055.614-2.225-2.086-.733-2.086-.733" fill="#ffcd9c"/>
        <path id="Trazado_607" data-name="Trazado 607" d="M190.968,252.232c-.571-3.067-1.158-6.056,1.991-14.181l2.24.7c.339,4.228,3.1,10.24,2.415,11.643-.239.468-6.459,2.895-6.646,1.841" fill="#ffcd9c"/>
        <path id="Trazado_608" data-name="Trazado 608" d="M197.484,248.656c.305,1.44,2.761,6.194,2,6.513-1.173.5-2.764-3.575-3.535-5.2-1.007-2.12,1.535-1.313,1.535-1.313" fill="#ffcd9c"/>
        <path id="Trazado_609" data-name="Trazado 609" d="M192.72,251.213c.012,1.457.961,7.281.157,7.5-1.416.377-2.157-5.843-2.051-7.349.165-2.286,1.894-.149,1.894-.149" fill="#ffcd9c"/>
        <path id="Trazado_610" data-name="Trazado 610" d="M191.84,248.7c-2.329-1.731-3.764,4.369-5.333,4.115-2.186-.344,2.519-7.154,4.61-8.608,2.062-1.43.723,4.493.723,4.493" fill="#ffcd9c"/>
        <path id="Trazado_611" data-name="Trazado 611" d="M195.194,250.755c.256,1.44,1.846,7.481,1.08,7.787-1.2.5-2.588-5.586-2.976-7.055-.557-2.221,1.9-.732,1.9-.732" fill="#ffcd9c"/>
        <path id="Trazado_612" data-name="Trazado 612" d="M241.59,45.111a2.12,2.12,0,0,0-2.173-2.093,2.151,2.151,0,0,0-2.121,2.168,2.123,2.123,0,0,0,2.171,2.094,2.159,2.159,0,0,0,2.123-2.169" fill="#543732"/>
        <path id="Trazado_613" data-name="Trazado 613" d="M260.57,46.581a2.014,2.014,0,0,0-2.161-1.861,2.057,2.057,0,0,0-2.131,1.932,2.021,2.021,0,0,0,2.165,1.866,2.055,2.055,0,0,0,2.127-1.937" fill="#543732"/>
        <path id="Trazado_614" data-name="Trazado 614" d="M247.487,43.085s-2.9,15.908-2.419,16.3a9.791,9.791,0,0,0,4.246,1.664c1.946.179,3.977-.7,4.338-1.41.57-1.122-1.859-16.709-1.859-16.709Z" fill="#ef8f6f"/>
        <path id="Trazado_615" data-name="Trazado 615" d="M248.219,42.079s-2.449,16.439-2.1,16.842,5.935,1.654,6.524.143c.454-1.162-1.153-17.2-1.153-17.2Z" fill="#ffcd9c"/>
        <path id="Trazado_616" data-name="Trazado 616" d="M233.908,39.76c-1.607-.087-2.371-2.921-1.767-3.947s10.337-5.887,11.076-5.466,1.578,4.881,1.237,5.511-8.761,4-10.546,3.9" fill="#933838"/>
        <path id="Trazado_617" data-name="Trazado 617" d="M263.8,39.434c1.6-.077,2.425-2.893,1.839-3.913s-10.2-5.915-10.941-5.5-1.688,4.844-1.363,5.472,8.677,4.029,10.465,3.938" fill="#933838"/>
        <path id="Trazado_618" data-name="Trazado 618" d="M254.085,66.083c0-.9-.54-1.622-1.2-1.622s-1.2.726-1.2,1.622.539,1.624,1.2,1.624,1.2-.727,1.2-1.624" fill="#4f2d25"/>
        <path id="Trazado_619" data-name="Trazado 619" d="M256.23,64.411l.21,3.869c2.091-2.615-.21-3.869-.21-3.869" fill="#ef8f6f"/>
        <path id="Trazado_620" data-name="Trazado 620" d="M262.744,48.963c.041-.712-1.81-1.4-4.137-1.532s-4.246.325-4.287,1.037,1.81,1.4,4.135,1.53,4.248-.327,4.289-1.035" fill="#ffae85"/>
        <path id="Trazado_621" data-name="Trazado 621" d="M243.8,47.306c-.045-.71-1.964-1.17-4.291-1.026s-4.175.835-4.132,1.543,1.964,1.168,4.289,1.026,4.178-.835,4.134-1.543" fill="#ffae85"/>
        <path id="Trazado_622" data-name="Trazado 622" d="M261.356,14.289c0-2.312-4.73-4.184-10.566-4.184s-10.567,1.872-10.567,4.184,4.729,4.187,10.567,4.187,10.566-1.874,10.566-4.187" fill="#a34848"/>
        <path id="Trazado_623" data-name="Trazado 623" d="M375.823,88.5c-3.715.835-16.322-5.773-11.1-11.306s13.953,2.1,24.161.543c3.133-.476-13.061,10.763-13.061,10.763" fill="#844129"/>
        <path id="Trazado_624" data-name="Trazado 624" d="M386.053,85.529c-3.709.833-16.325-5.777-11.1-11.308s13.951,2.1,24.158.545c3.132-.478-13.061,10.763-13.061,10.763" fill="#844129"/>
        <path id="Trazado_625" data-name="Trazado 625" d="M393.5,83.825c-3.781.285-15.415-8.107-9.517-12.824s13.547,4.121,23.857,4.077c3.16-.013-14.34,8.747-14.34,8.747" fill="#844129"/>
        <path id="Trazado_626" data-name="Trazado 626" d="M363.628,79.04c1.444,4.255,10.388,6.9,13.2,5.8,0,0,3.843-3.616,7.161-6.991a20.379,20.379,0,0,0,4.892-.107c3.134-.476-13.062,10.763-13.062,10.763-3.3.743-13.663-4.418-12.194-9.464" fill="#662e1d"/>
        <path id="Trazado_627" data-name="Trazado 627" d="M378.036,129.465s-3.47,2.151-6.477,1.151c.82-2.582,1.913-19.068,1.913-19.068s4.927,16.484,4.564,17.917" fill="#f9ad8f"/>
        <path id="Trazado_628" data-name="Trazado 628" d="M382.724,146.3c5.521.852,15.7-8.26,14.473-20.911s-10.781-50.368-20.13-45.641c-5.323,2.689-11.547,19.463-6.671,27.211,3.43,5.455,0,17.861,12.328,39.341" fill="#ffdeb3"/>
        <path id="Trazado_629" data-name="Trazado 629" d="M399.851,130.121l11.467,18.9-17.655,5.121c-4.947-9-9.882-22.806-9.279-26.419,1.331-7.992,15.467,2.4,15.467,2.4" fill="#ffdeb3"/>
        <path id="Trazado_630" data-name="Trazado 630" d="M405.449,139.946c9.848-24.057,25.451-50.6,14.565-62.722C402.2,57.38,374,80.268,374,80.268s.6,3.251,1.821,8.236c3.832,15.729,13.708,48.719,29.627,51.442" fill="#844129"/>
        <path id="Trazado_631" data-name="Trazado 631" d="M409.05,70.108a23.605,23.605,0,0,1,10.965,7.117c10.886,12.125-4.718,38.664-14.566,62.722-15.182-2.657-22.99-28.485-27.766-45.36,10.464-1.811,28.358-15.94,31.367-24.479" fill="#662e1d"/>
        <path id="Trazado_632" data-name="Trazado 632" d="M384.322,123.506l-3.6,1.347S366.3,83.184,374.61,79.707c8.911-3.731,9.712,43.8,9.712,43.8" fill="#844129"/>
        <path id="Trazado_633" data-name="Trazado 633" d="M381.393,92.521c4.7,6.42,2.929,30.985,2.929,30.985l-2.6.973c-.178-8.223.025-22.357-.325-31.958" fill="#662e1d"/>
        <path id="Trazado_634" data-name="Trazado 634" d="M369.911,107.165c1.488.848,2.886-2.07.562-2.946s-4.372.784-.562,2.946" fill="#844129"/>
        <path id="Trazado_635" data-name="Trazado 635" d="M380.628,117.638c.217-5.934,3.8-12.488,6.182-8.622s3.77,13.541-1.492,16.883c-3.96,2.509-4.833-4.248-4.69-8.261" fill="#ffdeb3"/>
        <path id="Trazado_636" data-name="Trazado 636" d="M381.221,118.178c.146-3.994,2.559-8.41,4.163-5.8s2.534,9.115-1.006,11.369c-2.664,1.689-3.252-2.863-3.157-5.567" fill="#ef8f6f"/>
        <path id="Trazado_637" data-name="Trazado 637" d="M380.939,120.574c-.027-2.135,1.14-4.568,2.07-3.222s1.6,4.791-.228,6.1c-1.382.987-1.821-1.43-1.842-2.877" fill="#ffdeb3"/>
        <path id="Trazado_638" data-name="Trazado 638" d="M388.977,103.209s-4.432-12.337-7.107-14.763l5.318-5.235a66.991,66.991,0,0,1,1.789,20" fill="#844129"/>
        <path id="Trazado_639" data-name="Trazado 639" d="M419.238,77.4s-12.325-1.821-15.617-.506l-1.765-7.465s8.668-2.45,17.382,7.971" fill="#844129"/>
        <path id="Trazado_640" data-name="Trazado 640" d="M413.174,83.516s-8.755-3.546-11.388-3.172l-.08-5.795s6.76-.245,11.468,8.967" fill="#844129"/>
        <path id="Trazado_641" data-name="Trazado 641" d="M405.582,94.353s-7.854-7.512-8.607-12.13l3.544-4.417s5.547,4.2,5.063,16.547" fill="#844129"/>
        <path id="Trazado_642" data-name="Trazado 642" d="M392.441,99.8s-3.678-9.338-6.961-12.2l5.464-5.12s4.536,5.4,1.5,17.323" fill="#844129"/>
        <path id="Trazado_643" data-name="Trazado 643" d="M397.1,92.379a37.785,37.785,0,0,0-5.737-6.553l5.464-5.122a14.131,14.131,0,0,1,.273,11.675" fill="#844129"/>
        <path id="Trazado_644" data-name="Trazado 644" d="M384.77,104.39s-4.44-12.335-7.107-14.761l5.309-5.241a67.039,67.039,0,0,1,1.8,20" fill="#844129"/>
        <path id="Trazado_645" data-name="Trazado 645" d="M452.6,282.2c1.009,18.07-29.646,11.319-43.924,12.558s-37.942,1.864-39.527,4.019c-4.809,6.538,1.845,16.7-3.062,39.133-2.943,13.455-13.142,30.818-23.815,55.9l-5.027-2.017c19.392-50.43,16.531-98.943,24.215-105.152,7.749-6.249,30.058-19.338,52.526-23.855,20.322-4.083,41.527-1.109,38.614,19.418" fill="#3d2e27"/>
        <path id="Trazado_646" data-name="Trazado 646" d="M316.4,170.751c-3.016-2.383-10.987-10.53-14.249-7.871-2.924,2.369-3.483,8.766,12.47,10.924Z" fill="#ffdeb3"/>
        <path id="Trazado_647" data-name="Trazado 647" d="M299.189,166.538c.637-.611,1.99.255,3.344,1.42s2.182,2.19,1.547,2.8-2.25.169-3.6-1-1.929-2.612-1.291-3.22" fill="#ffdeb3"/>
        <path id="Trazado_648" data-name="Trazado 648" d="M292.23,157.774c.978-.713,4.334.568,7.866,2.236s8.594,4.157,7.623,4.87-6.151-1.513-9.677-3.185-6.774-3.216-5.812-3.921" fill="#ffdeb3"/>
        <path id="Trazado_649" data-name="Trazado 649" d="M308.088,164.246c-1.093-.527-2.242.949-3.229,2.781s-1.433,3.334-.337,3.865,2.768-.527,3.753-2.357.9-3.759-.187-4.289" fill="#ffdeb3"/>
        <path id="Trazado_650" data-name="Trazado 650" d="M298.106,168.237c.534-.526,1.674.227,2.811,1.247s1.837,1.909,1.3,2.444-1.881.132-3.017-.888-1.624-2.272-1.1-2.8" fill="#ffdeb3"/>
        <path id="Trazado_651" data-name="Trazado 651" d="M303.857,162.468c.792.45-.685,2.03-2.113,4.129s-2.7,3.546-3.5,3.1-.274-2.533,1.158-4.636,3.665-3.044,4.455-2.59" fill="#ffdeb3"/>
        <path id="Trazado_652" data-name="Trazado 652" d="M444.367,279.808c-6.7,15.61-98.146,14.294-98.158,14.323-1.155,2.293,12.19,13.222,17.96,27.995s3.953,33.4,5.887,60.505l-5.766.948c-15.07-56.923-37.32-90.347-34.879-97.192,3.884-10.839,135.485-54.4,114.956-6.579" fill="#3d2e27"/>
        <path id="Trazado_653" data-name="Trazado 653" d="M357.983,394.857l15.194-9.742s-5.309-5.479-6.935-4.44c-2.475,1.589-8.259,14.182-8.259,14.182" fill="#d1b7b0"/>
        <path id="Trazado_654" data-name="Trazado 654" d="M327.294,394.147l15.408.756s.329-7.054-1.323-7.131c-2.508-.123-14.085,6.375-14.085,6.375" fill="#d1b7b0"/>
        <path id="Trazado_655" data-name="Trazado 655" d="M390.516,151.9l-.608-3.675,17.635-8.7,3.917,4.408Z" fill="#d8be9c"/>
        <path id="Trazado_656" data-name="Trazado 656" d="M453.32,283.624c19.914-12.578,5.559-56.448-12.785-97.529-4.8-10.774-2.742-36.523-15.689-42.76-15.092-7.264-47.935,13.136-50.5,22.92s32.76,71.538,25.536,95.849c-.094,3.261,5.962,10.553,15.769,14.141,13.733,5.025,32.291,10.777,37.67,7.379" fill="#fff8dc"/>
        <path id="Trazado_657" data-name="Trazado 657" d="M441.286,184.6c-4.386-9.835-3.808-30.644-13.389-39.2-16.925-10.4-28.29,5.465-37.257,11.031-11.243,6.977-2.7,19.107-4.656,25.23,10.045,21.556,25.233,57.814,22.54,78.144-.091,3.259-2.681,12.854,7.125,16.442,13.733,5.024,32.291,10.777,37.67,7.378,19.914-12.578,6.313-57.943-12.033-99.024" fill="#ffe5c2"/>
        <path id="Trazado_658" data-name="Trazado 658" d="M341.689,346.257l52.851-4.121c2.745-36.38,18.856-46.741,16.134-46.333,0,0,43.582,2.063,47.7-6.176s9.608-33.976-1.031-54.911-56.629,12.7-56.629,12.7-.344,8.924-13.041,12.012-57.788,12.712-56.073,29.53,10.086,57.3,10.086,57.3" fill="#ffe5c2"/>
        <path id="Trazado_659" data-name="Trazado 659" d="M354.168,215.988c3.986-1,30.7-20.605,40.393-38.493,4.407-8.131,2.985-16.574-1.62-21.58-11-11.958-42.615,37.556-50,46.07-3.93,4.531,2.364,16.247,11.223,14" fill="#fff8dc"/>
        <path id="Trazado_660" data-name="Trazado 660" d="M304.47,178.632c6.324,5.32,36.995,42.843,48.2,34.873C367,203.317,339.815,187.236,318.19,169.35c-.948-.787-13.72,9.282-13.72,9.282" fill="#fff8dc"/>
        <path id="Trazado_661" data-name="Trazado 661" d="M353.771,200.734a10.663,10.663,0,0,1-2.306,2.582c-8.367,6.906-31.419-15.011-44.059-26.954-1.713,1.306-2.936,2.269-2.936,2.269,6.324,5.321,37.744,45.234,48.948,37.267,5.583-3.971,4.732-9.2.353-15.164" fill="#ffe5c2"/>
        <path id="Trazado_662" data-name="Trazado 662" d="M354.383,294.344c5.522-15.976,37.5-24.721,50.2-27.811,8.107-1.973,4.884-19.228,2.355-28.357-4.5,2.843-6.218,9.239-6.218,9.239s-1.545,7.831-14.242,10.919-62.29,13.79-60.575,30.607,15.789,57.316,15.789,57.316l14.145-1.1c-.467-13.329-3.653-44.424-1.451-50.81" fill="#fff8dc"/>
        <path id="Trazado_663" data-name="Trazado 663" d="M393,155.236c-3.3,27.727-23.716,33.436-39.862,46.394-2.1,1.684-9.161,6.66-11.168,5.752,1.037,4.873,5.975,10.182,12.2,8.606,3.986-1,31.185-17.911,40.882-35.8,3.7-6.836,5.511-19.229-2.052-24.953" fill="#ffe5c2"/>
        <g id="Grupo_210" data-name="Grupo 210" opacity="0.5" style="mix-blend-mode: multiply;isolation: isolate">
          <g id="Grupo_209" data-name="Grupo 209">
            <g id="Grupo_208" data-name="Grupo 208" clip-path="url(#clip-path-6)">
              <path id="Trazado_664" data-name="Trazado 664" d="M420.945,142.135a28.093,28.093,0,0,0-10.65.487l-2.751-3.1-1.533.772-.422-.693-.1.349c-3.112-.391-8.343-2.992-13.045-9.272-2.412,10.557-4.46,11.279-9.793,15.479.028.048.052.092.078.14,1.781.274,4.045-.5,6.257-2.082.507,1.232,1.039,2.463,1.59,3.675l-.663.327.454,2.737a72.977,72.977,0,0,0-6.69,4.563c.013.01.024.048.038.04,8.276-4.767,33.4-7.239,37.235-13.427" fill="#bc5642"/>
            </g>
          </g>
        </g>
        <path id="Trazado_665" data-name="Trazado 665" d="M397.744,259.927l9,15.616s-5.7,2.941-7.718,1.654-7.716-10.472-6.979-12.678,5.694-4.592,5.694-4.592" fill="#fff8dc"/>
        <path id="Trazado_666" data-name="Trazado 666" d="M392.745,390.8a4.926,4.926,0,1,0-4.926,4.928,4.93,4.93,0,0,0,4.926-4.928" fill="#563e37"/>
        <path id="Trazado_667" data-name="Trazado 667" d="M457.908,390.8a4.927,4.927,0,1,0-4.931,4.928,4.932,4.932,0,0,0,4.931-4.928" fill="#563e37"/>
        <path id="Trazado_668" data-name="Trazado 668" d="M423.968,390.8a4.926,4.926,0,1,0-4.929,4.928,4.932,4.932,0,0,0,4.929-4.928" fill="#563e37"/>
        <path id="Trazado_669" data-name="Trazado 669" d="M412.413,307.405l3.694,19.029v50.987l5.135.42V326.8l3.692-19.4Z" fill="#563e37"/>
        <path id="Trazado_670" data-name="Trazado 670" d="M392.948,385.138h57.661s-16.468-10.528-30.292-10.528-27.369,10.528-27.369,10.528" fill="#563e37"/>
        <path id="Trazado_671" data-name="Trazado 671" d="M384.368,300.105h69.177a83.832,83.832,0,0,1-39.065,9.852c-11.5,0-30.112-9.852-30.112-9.852" fill="#563e37"/>
        <path id="Trazado_672" data-name="Trazado 672" d="M455.712,302.218a4.526,4.526,0,0,0,3.084-4.99,4.456,4.456,0,0,0-4.37-3.853H383.053a4.105,4.105,0,0,0-4,3.3,4.21,4.21,0,0,0,2.332,4.693,13.994,13.994,0,0,0,5.867,1.179h66.291a6.79,6.79,0,0,0,2.167-.334" fill="#ad8b6c"/>
        <path id="Trazado_673" data-name="Trazado 673" d="M466.271,256.854a11.993,11.993,0,0,1-11.682,9.778H421.243a10.418,10.418,0,0,1-8.169-3.987,10.954,10.954,0,0,1-2.115-9.012l16.713-80.373a11.655,11.655,0,0,1,9.2-9.144c15.083-2.818,26.2-3.463,38.086-.994a9.877,9.877,0,0,1,7.54,11.643Z" fill="#c6a583"/>
        <path id="Trazado_674" data-name="Trazado 674" d="M453.545,302.552h.2c-.129,0-.2,0-.2,0" fill="#ddca9f"/>
        <path id="Trazado_675" data-name="Trazado 675" d="M379.05,296.68a4.1,4.1,0,0,1,4-3.3h38.725a4.1,4.1,0,0,0-4,3.3,4.2,4.2,0,0,0,2.329,4.693,13.952,13.952,0,0,0,5.867,1.179H387.252a13.961,13.961,0,0,1-5.873-1.179,4.206,4.206,0,0,1-2.329-4.693" fill="#c6a583"/>
        <path id="Trazado_676" data-name="Trazado 676" d="M470.542,256.854a11.988,11.988,0,0,1-11.68,9.778h-33.35a10.416,10.416,0,0,1-8.167-3.987,10.975,10.975,0,0,1-2.113-9.012l16.714-80.375a11.649,11.649,0,0,1,9.2-9.143c15.086-2.82,26.2-3.466,38.083-.993a9.869,9.869,0,0,1,7.543,11.643Z" fill="#ad8b6c"/>
        <path id="Trazado_677" data-name="Trazado 677" d="M417.438,256.208l16.713-80.377a11.648,11.648,0,0,1,9.2-9.146c15.088-2.816,26.2-3.463,38.084-.994a9.534,9.534,0,0,1,4.114,1.976,9.615,9.615,0,0,0-6.319-4.546c-11.885-2.473-23-1.826-38.082.993a11.648,11.648,0,0,0-9.2,9.144l-16.714,80.375a10.737,10.737,0,0,0,3.576,10.511,10.985,10.985,0,0,1-1.371-7.936" fill="#dbbb9e"/>
        <path id="Trazado_678" data-name="Trazado 678" d="M445.7,288.957h-10.1l-3.857,14.513h10.1Z" fill="#563e37"/>
        <path id="Trazado_679" data-name="Trazado 679" d="M447.979,265.47H444.05l-6.3,25h3.93Z" fill="#563e37"/>
        <path id="Trazado_680" data-name="Trazado 680" d="M452.685,260.57c1.142-5.41-.4-9.8-3.448-9.8s-6.447,4.385-7.589,9.8.4,9.794,3.449,9.794,6.443-4.385,7.588-9.794" fill="#563e37"/>
        <path id="Trazado_681" data-name="Trazado 681" d="M453.485,260.662c.852-4.035-.3-7.3-2.571-7.3s-4.8,3.266-5.656,7.3.3,7.3,2.57,7.3,4.8-3.267,5.657-7.3" fill="#6d524d"/>
        <path id="Trazado_682" data-name="Trazado 682" d="M444.961,288.957h-4.9L436.2,303.47h4.9Z" fill="#6d524d"/>
        <path id="Trazado_683" data-name="Trazado 683" d="M404.362,385.138h34.831s-9.947-10.528-18.3-10.528-16.533,10.528-16.533,10.528" fill="#6d524d"/>
        <path id="Trazado_684" data-name="Trazado 684" d="M456.377,390.8a3.4,3.4,0,1,0-3.4,3.4,3.4,3.4,0,0,0,3.4-3.4" fill="#8e726e"/>
        <path id="Trazado_685" data-name="Trazado 685" d="M391.215,390.8a3.4,3.4,0,1,0-3.4,3.4,3.4,3.4,0,0,0,3.4-3.4" fill="#8e726e"/>
        <path id="Trazado_686" data-name="Trazado 686" d="M76.908,283.416h10.1l3.859,14.515H80.765Z" fill="#563e37"/>
        <path id="Trazado_687" data-name="Trazado 687" d="M74.626,259.933h3.931l6.3,25h-3.93Z" fill="#563e37"/>
        <path id="Trazado_688" data-name="Trazado 688" d="M69.923,255.031c-1.144-5.409.4-9.794,3.445-9.794s6.447,4.385,7.589,9.794-.4,9.793-3.447,9.793-6.446-4.385-7.587-9.793" fill="#563e37"/>
        <path id="Trazado_689" data-name="Trazado 689" d="M133.8,391.767a5.26,5.26,0,1,1,5.252,4.923,5.1,5.1,0,0,1-5.252-4.923" fill="#563e37"/>
        <path id="Trazado_690" data-name="Trazado 690" d="M75.4,391.767a5.259,5.259,0,1,1,5.25,4.923,5.1,5.1,0,0,1-5.25-4.923" fill="#563e37"/>
        <path id="Trazado_691" data-name="Trazado 691" d="M105.125,391.767a5.261,5.261,0,1,1,5.251,4.923,5.1,5.1,0,0,1-5.251-4.923" fill="#563e37"/>
        <path id="Trazado_692" data-name="Trazado 692" d="M113.5,308.373l-1.94,70.02-1.589.418-1.94-70.438Z" fill="#563e37"/>
        <path id="Trazado_693" data-name="Trazado 693" d="M141.483,386.107H80.046S97.59,375.58,112.322,375.58s29.161,10.527,29.161,10.527" fill="#563e37"/>
        <path id="Trazado_694" data-name="Trazado 694" d="M147.316,301.073h-73.7a93.71,93.71,0,0,0,41.621,9.854c12.249,0,32.08-9.854,32.08-9.854" fill="#563e37"/>
        <path id="Trazado_695" data-name="Trazado 695" d="M55.5,257.821a12.587,12.587,0,0,0,12.445,9.78H103.48a11.374,11.374,0,0,0,8.7-3.989,10.433,10.433,0,0,0,2.252-9.008L96.626,174.229a12.063,12.063,0,0,0-9.8-9.146c-16.072-2.82-27.91-3.465-40.579-.995a9.9,9.9,0,0,0-8.038,11.645Z" fill="#c19178"/>
        <path id="Trazado_696" data-name="Trazado 696" d="M71.3,303.183A4.509,4.509,0,0,1,68.02,298.2a4.648,4.648,0,0,1,4.654-3.855h76.05a4.31,4.31,0,0,1,4.253,3.31,4.141,4.141,0,0,1-2.485,4.69,15.763,15.763,0,0,1-6.249,1.179l-70.628,0a7.5,7.5,0,0,1-2.312-.337" fill="#c6a583"/>
        <path id="Trazado_697" data-name="Trazado 697" d="M60.054,257.821A12.582,12.582,0,0,0,72.5,267.6h35.533a11.388,11.388,0,0,0,8.7-3.989,10.434,10.434,0,0,0,2.248-9.008L101.175,174.23a12.056,12.056,0,0,0-9.8-9.143c-16.073-2.82-27.908-3.465-40.579-1a9.9,9.9,0,0,0-8.036,11.643Z" fill="#ddba9b"/>
        <path id="Trazado_698" data-name="Trazado 698" d="M73.615,303.52H73.4c.138,0,.219,0,.219,0" fill="#ddca9f"/>
        <path id="Trazado_699" data-name="Trazado 699" d="M152.985,297.652a4.315,4.315,0,0,0-4.257-3.31H107.466a4.307,4.307,0,0,1,4.259,3.31,4.133,4.133,0,0,1-2.483,4.69,15.72,15.72,0,0,1-6.249,1.177l41.253,0a15.729,15.729,0,0,0,6.256-1.179,4.139,4.139,0,0,0,2.483-4.69" fill="#ad8b6c"/>
        <path id="Trazado_700" data-name="Trazado 700" d="M126.051,384.59H93.276s9.357-9.376,17.217-9.376,15.558,9.376,15.558,9.376" fill="#6d524d"/>
        <path id="Trazado_701" data-name="Trazado 701" d="M50.795,164.092a9.9,9.9,0,0,0-8.036,11.644l8.653,41.06c3.373-14.546,9.7-39.715,16.144-54.232a82.712,82.712,0,0,0-16.761,1.528" fill="#f2d4bd"/>
        <path id="Trazado_702" data-name="Trazado 702" d="M81.732,156.158c4.411-2.329,21.174-6.737,35.414-.857l2.267,4.041h-33.4Z" fill="#edd7b7"/>
        <path id="Trazado_703" data-name="Trazado 703" d="M182.042,153.872c2.077-2.934,11.459-4.878,9.253-7.841-1.975-2.655-8.882-4.827-11.922,5.811Z" fill="#ffdeb3"/>
        <path id="Trazado_704" data-name="Trazado 704" d="M182.132,146.984c3.2,4.838,8.895,2.146,10.4.867,1.658-1.41.2-5.541-1.622-6.5s-10,3.777-8.777,5.629" fill="#ffdeb3"/>
        <path id="Trazado_705" data-name="Trazado 705" d="M186.727,142.8c.44-2.99-.66-6.861-1.924-6.907-1.43-.058.157,3.215-.96,5.688-1.2,2.687-1.795,4.461-.619,5.14s3.07-.925,3.5-3.921" fill="#ffdeb3"/>
        <path id="Trazado_706" data-name="Trazado 706" d="M192.193,141.017c1.925-1.648,2.439-3,1.817-3.508s-1.643.5-3.564,2.149-4.893,3.213-4.268,3.725,4.094-.722,6.015-2.366" fill="#ffdeb3"/>
        <path id="Trazado_707" data-name="Trazado 707" d="M194.45,143.718c2.355-1.216,3.623-3.354,3.116-3.946s-2.295,1.058-4.649,2.274-3.791,2.136-3.278,2.721,2.455.165,4.811-1.049" fill="#ffdeb3"/>
        <path id="Trazado_708" data-name="Trazado 708" d="M194.365,147.014c2.282-1.308,3.145-2.588,2.615-3.171s-1.8.587-4.086,1.9-3.847,2.262-3.321,2.845,2.5-.263,4.792-1.576" fill="#ffdeb3"/>
        <path id="Trazado_709" data-name="Trazado 709" d="M97.414,148.8c-8.859-13.618-22.615-32.716-18.371-46.277s31.108-25.614,39.887-21.451c14.1,6.684,4.253,27.49,4.253,27.49Z" fill="#89524a"/>
        <path id="Trazado_710" data-name="Trazado 710" d="M86.748,92.066c-3.7,3.177-6.546,6.762-7.705,10.46C74.8,116.088,88.555,135.185,97.414,148.8l25.769-40.238a37.857,37.857,0,0,0,1.64-4.348c-17.712,8.874,8.122-23.389-38.075-12.151" fill="#723f39"/>
        <path id="Trazado_711" data-name="Trazado 711" d="M116.944,185.982c6.385,8.188,23.022,26.112,35.96,30.168,14.172,4.439,8.837-18.273-25.627-55.573-8.459-9.133-10.333,25.4-10.333,25.4" fill="#4d97bc"/>
        <path id="Trazado_712" data-name="Trazado 712" d="M130.376,164.837c4.653,19.981-4.272,52.516-4.609,60.494-.922,21.911,9.78,31.92,18.016,35.265C154.5,264.951,96.757,297.434,90.5,289.8c-6.271-7.635-24.348-71.938-9.178-126.045,3.471-14.505,47.213-6.823,49.05,1.078" fill="#4d97bc"/>
        <path id="Trazado_713" data-name="Trazado 713" d="M175.231,147.074c-1.4,8.806-33.079,62.795-22.3,68.129,17.688,8.754,23.043-24.161,33.675-59.86.287-.957-11.375-8.269-11.375-8.269" fill="#4d97bc"/>
        <path id="Trazado_714" data-name="Trazado 714" d="M124.589,287.139s66.746,1.747,77.052,4.369c3.555.909,1.656,13.307,7.952,28.463C222.367,350.734,244.6,395.3,244.6,395.3l3.891-.566s-27.965-116.967-36.152-120.2c-8.665-3.432-61.626-20.393-89.66-15.221-15.488,2.856-8.954,17.607,1.91,27.828" fill="#4d97bc"/>
        <path id="Trazado_715" data-name="Trazado 715" d="M124.589,287.139s66.746,1.747,77.052,4.369c3.555.909,1.656,13.307,7.952,28.463C222.367,350.734,244.6,395.3,244.6,395.3l3.891-.566S212.281,289.949,206.5,283.312c-10.647-12.223-46.5-16.306-83.82-24-15.426-3.182-8.954,17.607,1.91,27.828" fill="#327893"/>
        <path id="Trazado_716" data-name="Trazado 716" d="M93.263,291.657c12.193,4.394,55.6.21,76.234,3.1,4.334.608,5.005,14.714,12.64,31.052,13.945,29.844,35.622,70.1,35.622,70.1l4.533-2.832S190.809,278.816,181.75,275.4c-5.48-2.067-44.348-21.13-67.653-16.13-11.589,2.5-36.744,2.819-20.834,32.382" fill="#4d97bc"/>
        <path id="Trazado_717" data-name="Trazado 717" d="M93.263,291.657c12.193,4.394,55.6.21,76.234,3.1,4.334.608,5.005,14.714,12.64,31.052,13.945,29.844,35.622,70.1,35.622,70.1l4.533-2.832s-36.963-98.314-43.183-105.733c-6.37-7.594-53.159-21.31-79.862-24.987-11.743-1.614-21.894-.254-5.984,29.309" fill="#327893"/>
        <path id="Trazado_718" data-name="Trazado 718" d="M235.6,396.69H217.479s2.9-5.1,4.845-5.1c2.949,0,13.271,5.1,13.271,5.1" fill="#d1b7b0"/>
        <path id="Trazado_719" data-name="Trazado 719" d="M262.877,396.69H244.759s2.9-5.1,4.847-5.1c2.949,0,13.271,5.1,13.271,5.1" fill="#d1b7b0"/>
        <path id="Trazado_720" data-name="Trazado 720" d="M115.939,159.89c-2.7,1.609-10.7,6.557-18.832-2.119l.587-30.413,16.152,20.689Z" fill="#ffdeb3"/>
        <path id="Trazado_721" data-name="Trazado 721" d="M97.157,157.828s5.1,8.271,17.524,15.109c0,0,3.485-8.712.944-14.813-1.247-3-12.518-2.817-17.765-1.774-.686.137-.762.373-.7,1.478" fill="#ffdeb3"/>
        <path id="Trazado_722" data-name="Trazado 722" d="M92.522,185.391c-8.711,16.676-4.909,32.372-14.063,46.14-4.623,6.952-13.735,3.228-14.792-8.436-1.037-11.431,1.093-33.518,13.646-60.573,1.672-3.606,5.079-7.414,7.728-6.855,7,1.479,13.805,17.622,7.481,29.724" fill="#4d97bc"/>
        <path id="Trazado_723" data-name="Trazado 723" d="M133.689,233.977c3.861.462,10.674,7.013,12.3,4.12,1.452-2.586-.17-8.836-11.805-7.008Z" fill="#ffdeb3"/>
        <path id="Trazado_724" data-name="Trazado 724" d="M140.223,231.324c-2.86,4.411,2.7,7.787,4.7,8.459,2.207.733,5.327-2.036,5.255-3.831s-8.86-6.314-9.955-4.628" fill="#ffdeb3"/>
        <path id="Trazado_725" data-name="Trazado 725" d="M146.6,233.26c3.049-.837,6.113-3.223,5.481-4.229-.705-1.142-2.937,1.4-5.861,1.5-3.173.121-5.156.362-5.173,1.548s2.5,2.033,5.553,1.185" fill="#ffdeb3"/>
        <path id="Trazado_726" data-name="Trazado 726" d="M151.182,236.822c2.572.844,4.115.713,4.27.029s-1.346-1.084-3.919-1.933-5.62-2.545-5.774-1.862,2.854,2.915,5.423,3.766" fill="#ffdeb3"/>
        <path id="Trazado_727" data-name="Trazado 727" d="M149.836,239.647c2.4,1.361,5.083,1.5,5.366.872s-2.211-1.372-4.606-2.731-4.024-2.11-4.3-1.477,1.151,1.978,3.545,3.336" fill="#ffdeb3"/>
        <path id="Trazado_728" data-name="Trazado 728" d="M146.68,240.877c2.45,1.266,4.107,1.437,4.376.793s-1.505-1.174-3.954-2.434-4.175-2.109-4.443-1.468,1.575,1.849,4.021,3.109" fill="#ffdeb3"/>
        <path id="Trazado_729" data-name="Trazado 729" d="M137.179,226.276c-15.542.816-68.4-11.581-71.493-1.344-6.15,20.364,71.837,16.446,71.837,16.446Z" fill="#4d97bc"/>
        <path id="Trazado_730" data-name="Trazado 730" d="M71.867,223.809a16.076,16.076,0,0,1-1.9-6.248c-1.16-11.206,1.5-35.622,13-61.937-2.4-.238-3.9,3.144-5.43,6.442-12.554,27.055-16.444,50.02-15.409,61.45a15.783,15.783,0,0,0,1.82,6.222c4.781,15.763,73.577,11.639,73.577,11.639l-.127-5.547c-18.386.523-61.61.408-65.528-12.021" fill="#327893"/>
        <path id="Trazado_731" data-name="Trazado 731" d="M148.363,186.411l5.636,6.86,6.491-12.618-5.513,16.658Z" fill="#327893"/>
        <g id="Grupo_213" data-name="Grupo 213" opacity="0.5" style="mix-blend-mode: multiply;isolation: isolate">
          <g id="Grupo_212" data-name="Grupo 212">
            <g id="Grupo_211" data-name="Grupo 211" clip-path="url(#clip-path-7)">
              <path id="Trazado_732" data-name="Trazado 732" d="M119.825,184.206c11.331-3.965,5.021-26.823-3.646-29.259-.4-.15-.792-.3-1.189-.433l-1.144-6.467-11.06-14.168-5.237,1.058-.341,17.6a49.413,49.413,0,0,0-14.318,3.086,3.25,3.25,0,0,0-2.7,1.561c12.231,5.66,22.6,32.98,39.631,27.021" fill="#bc5642"/>
            </g>
          </g>
        </g>
        <path id="Trazado_733" data-name="Trazado 733" d="M126.154,155.064c3.6-2.065,5.818-49.3-6.634-60.494s-26.8,4.112-27.657,7.017,5.941,44.836,6.877,46.527,24.224,8.776,27.414,6.95" fill="#ffdeb3"/>
        <path id="Trazado_734" data-name="Trazado 734" d="M103.027,139.146c.071-10.1,8.978-51.72-9.3-44.351s-2.3,34.845-2.3,34.845l4.654,8.875Z" fill="#723f39"/>
        <path id="Trazado_735" data-name="Trazado 735" d="M99.575,136.245c-4.381-7.313-13.251-7.871-13.794-2.976s10.283,14.357,13.076,10.819,3.308-3.513.718-7.843" fill="#ffdeb3"/>
        <path id="Trazado_736" data-name="Trazado 736" d="M97.356,136.687c-2.783-4.65-8.432-5.006-8.775-1.89s6.541,9.133,8.322,6.88,2.1-2.233.453-4.99" fill="#ef8f6f"/>
        <path id="Trazado_737" data-name="Trazado 737" d="M98.2,140.012c-1.875-3.137-5.682-3.374-5.92-1.272s4.416,6.161,5.614,4.642,1.422-1.509.306-3.37" fill="#ffdeb3"/>
        <path id="Trazado_738" data-name="Trazado 738" d="M105.963,82.468l14.376,3.583c3.2-2.454,8.8-2.474,8.8-2.474-7.325-5.332-17.931-3.778-23.176-1.109" fill="#89524a"/>
        <path id="Trazado_739" data-name="Trazado 739" d="M94.89,87.638l15.482-3.748c1.876-3.706,7.219-6.417,7.219-6.417-9.579-1.191-18.972,5.28-22.7,10.165" fill="#89524a"/>
        <path id="Trazado_740" data-name="Trazado 740" d="M109.166,117.83a2.455,2.455,0,0,1-.22-3.752c.939-.975,8.14-3.613,9-3.236s.714,5.309.714,5.309-7.792,2.676-9.5,1.679" fill="#89524a"/>
        <path id="Trazado_741" data-name="Trazado 741" d="M131.037,116.041c.753-.9.424-2.773-.761-3.689-.98-.758-7.324-1.876-7.909-1.337s.753,5.305.753,5.305,6.818,1.037,7.917-.279" fill="#89524a"/>
        <path id="Trazado_742" data-name="Trazado 742" d="M112.17,139.193c.874,4.32,3.8,8.224,6.242,8.517,2.038.247,5.035-2.4,6.871-6.323Z" fill="#592d29"/>
        <path id="Trazado_743" data-name="Trazado 743" d="M116.482,125c-.1-1.759-1.1-3.231-2.217-3.292s-1.945,1.311-1.844,3.071,1.1,3.231,2.219,3.292,1.946-1.315,1.842-3.071" fill="#66473e"/>
        <path id="Trazado_744" data-name="Trazado 744" d="M127.847,124.266c-.1-1.758-1.094-3.231-2.214-3.294s-1.946,1.314-1.843,3.071,1.1,3.232,2.218,3.294,1.942-1.313,1.839-3.071" fill="#66473e"/>
        <path id="Trazado_745" data-name="Trazado 745" d="M123.825,136.994c1.215-.2,6.56-2.275,6.613-2.767s-9.936-14.584-9.936-14.584Z" fill="#ffdeb3"/>
        <path id="Trazado_746" data-name="Trazado 746" d="M121.476,120.076l.6,3.123c2.959,4.213,8,10.869,7.966,11.194-.038.354-3.436,1.256-5.443,1.961l.2,1.074c1.218-.2,6.564-2.277,6.616-2.764s-9.936-14.588-9.936-14.588" fill="#f9ad8f"/>
        <path id="Trazado_747" data-name="Trazado 747" d="M113.18,139.676a6,6,0,0,0,5.38,4.964c1.66.2,3.8.011,5.3-3.18Z" fill="#fffae3"/>
        <path id="Trazado_748" data-name="Trazado 748" d="M488.774,396.526H40.187s92.666,15.536,227.452,15.536,221.135-15.536,221.135-15.536" fill="#e1e1e1"/>
        <path id="Trazado_749" data-name="Trazado 749" d="M79.234,155.236l17.975-2.7,19.735,15.54-1.953-13.565,13.046,3.716-3.6,42.938Z" fill="#327893"/>
        <path id="Trazado_750" data-name="Trazado 750" d="M80.957,255.031l9.914,42.9,40.569-18.423-9.964-26.48-42.243,2.192" fill="#4d97bc"/>
        <path id="Trazado_751" data-name="Trazado 751" d="M90.871,260.569l23.561-5.965-2.262-5.395Z" fill="#327893"/>
      </g>
    </g>
  </g>
</svg>
