<svg xmlns="http://www.w3.org/2000/svg" xmlns:xlink="http://www.w3.org/1999/xlink" viewBox="0 0 512 500"><defs><style>.cls-1,.cls-24,.cls-33{fill:none;}.cls-2{fill:#eceffe;opacity:0.7;}.cls-3{fill:#fca9aa;}.cls-23,.cls-4{fill:#c8e6ff;}.cls-29,.cls-5{fill:#3ea1de;}.cls-6{fill:#f8fdff;}.cls-7{fill:#ff59c1;}.cls-8{isolation:isolate;}.cls-9{clip-path:url(#clip-path);}.cls-10{clip-path:url(#clip-path-2);}.cls-11,.cls-13{opacity:0.25;}.cls-12,.cls-13,.cls-14,.cls-15{fill:#fff;}.cls-14{opacity:0.2;}.cls-15{opacity:0.43;}.cls-16,.cls-26{fill:#2a229e;}.cls-17{clip-path:url(#clip-path-3);}.cls-18,.cls-20{fill:#d68085;}.cls-18{opacity:0.16;}.cls-18,.cls-20,.cls-26,.cls-29{mix-blend-mode:multiply;}.cls-19{clip-path:url(#clip-path-4);}.cls-20{opacity:0.23;}.cls-21{fill:#ea98a1;}.cls-22{clip-path:url(#clip-path-5);}.cls-23{opacity:0.27;mix-blend-mode:screen;}.cls-24{stroke:#fff;stroke-width:0.49px;}.cls-24,.cls-33{stroke-miterlimit:10;}.cls-25{fill:#fcc3cb;}.cls-26{opacity:0.11;}.cls-27{clip-path:url(#clip-path-6);}.cls-28{clip-path:url(#clip-path-7);}.cls-29{opacity:0.5;}.cls-30{clip-path:url(#clip-path-8);}.cls-31{fill:#6fbcff;opacity:0.47;}.cls-32{fill:#ffc6ba;}.cls-33{stroke:#453e6b;stroke-width:0.81px;}.cls-34{clip-path:url(#clip-path-9);}.cls-35{clip-path:url(#clip-path-10);}</style><clipPath id="clip-path"><rect class="cls-1" x="7.02" y="-0.02" width="500" height="500"/></clipPath><clipPath id="clip-path-2"><circle class="cls-2" cx="257.62" cy="262.22" r="200.06" transform="translate(-109.97 258.97) rotate(-45)"/></clipPath><clipPath id="clip-path-3"><path class="cls-3" d="M98.42,547.12s76-110.69,68-125.93-44.65-72.39-23.28-111.36c24.8-45.21,16.53-89,21.39-95.3,3.9-5.06,24.24,6,26.26,32.58,2.92,38.41-19.45,67.1-9.73,72S262.5,276.76,291,307.9s8.51,114-13.91,127.86c-41.54,25.78-43.48,126.92-43.48,126.92S127.57,578.92,98.42,547.12Z"/></clipPath><clipPath id="clip-path-4"><path class="cls-3" d="M291.29,221.11s40.25-57.57,60.29-53c23.18,5.3,3.31,36.44-49,76.85S291.29,221.11,291.29,221.11Z"/></clipPath><clipPath id="clip-path-5"><rect class="cls-4" x="186.68" y="164.48" width="135.66" height="230.93" rx="10.76"/></clipPath><clipPath id="clip-path-6"><path class="cls-1" d="M140.73,289.48c3.87,3.74,202.27,0,202.27,0V58H140.73Z"/></clipPath><clipPath id="clip-path-7"><path class="cls-5" d="M228.25,284.06l2.92,29.66H275.9l5.35-39.87L249.64,269S222.9,266.56,228.25,284.06Z"/></clipPath><clipPath id="clip-path-8"><path class="cls-6" d="M276.39,154.73s-10.46,20.17-9.49,43,2,119.13,2,119.13l24.31-5.84V176.85A45,45,0,0,0,276.39,154.73Z"/></clipPath><clipPath id="clip-path-9"><path class="cls-7" d="M296.23,301.87a3,3,0,1,1-3-3A3,3,0,0,1,296.23,301.87Z"/></clipPath><clipPath id="clip-path-10"><path class="cls-7" d="M298.75,312A5.4,5.4,0,0,0,288,312Z"/></clipPath></defs><g class="cls-8"><g id="Capa_1" data-name="Capa 1"><g class="cls-9"><circle class="cls-2" cx="257.62" cy="262.22" r="200.06" transform="translate(-109.97 258.97) rotate(-45)"/><g class="cls-10"><g class="cls-11"><path class="cls-12" d="M518.09,112l-8.9-11.54c-7.45,5.74-16.82,10.11-26.5,13.49L380,83.91c-5.38-8.28-9.91-17.1-12.25-25.84l-14.08,3.77c7.13,26.55,30.21,52.42,44,66-27.26,5.13-64.7,18.4-79.93,52.81-18.13,41,16.35,80.61,38.23,100.39-44.83,3.82-77.18,24.66-89,57.61-10.43,29.1-1.73,62.37,22.16,84.73,3.35,3.14,6.54,6.3,9.64,9.46-35.57,8.83-58.84,20.16-60.19,20.83L245,466.75c.16-.08,6.21-3,16.64-7l76.75,21.5a272.75,272.75,0,0,1,17.21,28.32l13.06-6.47a255.09,255.09,0,0,0-13.89-23.67l.3-1.08-1.26-.35a369.91,369.91,0,0,0-27.13-36.14c7.5-1.31,15.32-2.44,23.46-3.26a85.27,85.27,0,0,0,29.18-8.35c18.9-9.36,33.46-25.55,39.83-45.58,9.63-30.31-.28-63-27.18-91.37,29.68-4.27,70.2-17.13,79.35-55.28,3.85-16,1.8-31.46-3.25-45.44l.62-2.09-1.56-.46c-8.49-21.69-24-39.72-35.48-51C442.83,138.15,490.39,133.31,518.09,112ZM349.85,163.14l102.69,30.18c4.26,10.08,6.83,20.92,6,32.12L330.75,187.29c.1-.24.17-.49.27-.73C335.3,176.88,342,169.27,349.85,163.14ZM331.7,471.79l-58.22-16.31a359.31,359.31,0,0,1,36.74-10.34C318.52,454.48,325.66,463.53,331.7,471.79Zm17-47.7c-11.75,1.18-22.92,2.94-33.3,5-5.08-5.42-10.51-10.9-16.32-16.34A68.87,68.87,0,0,1,279,378.38l105.88,31.11A69,69,0,0,1,348.68,424.09Zm56.59-43.85a60.47,60.47,0,0,1-14.07,23.53l-113.65-33.4a60.45,60.45,0,0,1,3.11-26.79,61.89,61.89,0,0,1,16.11-24.36l110.57,32.5A62,62,0,0,1,405.27,380.24Zm.29-36.63-102.07-30c14.17-10.37,33.41-16.76,56.39-18.29,1.54,0,6.33.14,13.09-.2C389.84,310.26,400.89,326.9,405.56,343.61Zm-27.95-63.46c-8.22-6.31-33.6-27.22-44.86-52.42l107.81,32.18C422.67,274.18,395.37,278.73,377.61,280.15Zm69.13-26-117.17-35a48.09,48.09,0,0,1-1.09-24.95l129,38.5c-.13.63-.15,1.26-.3,1.9A43.83,43.83,0,0,1,446.74,254.15Zm-89.2-96.34c17.83-10.87,39.29-15.42,54.1-17.29,7.44,6.32,25.19,22.76,36.68,44Zm58.57-32.52A241,241,0,0,1,386.7,93.47L470,117.78a239.47,239.47,0,0,1-41.09,6.84C428.07,124.62,423.3,124.64,416.11,125.29Z"/><rect class="cls-12" x="339.54" y="296.81" width="7.28" height="128.89" transform="translate(-100.12 588.78) rotate(-73.64)"/></g><path class="cls-13" d="M269,147.61a3.49,3.49,0,1,1-4.67-1.58A3.49,3.49,0,0,1,269,147.61Z"/><path class="cls-13" d="M186.49,163.64a8.14,8.14,0,1,1-10.9-3.68A8.14,8.14,0,0,1,186.49,163.64Z"/><path class="cls-13" d="M463,282.58a8.14,8.14,0,1,1-10.9-3.68A8.14,8.14,0,0,1,463,282.58Z"/><path class="cls-13" d="M175.35,102.84A7,7,0,1,1,166,99.68,7,7,0,0,1,175.35,102.84Z"/><path class="cls-13" d="M402.78,381.15a4.65,4.65,0,1,1-6.23-2.1A4.65,4.65,0,0,1,402.78,381.15Z"/><circle class="cls-13" cx="493.22" cy="139.16" r="9.3" transform="translate(-18.53 166.5) rotate(-18.81)"/><path class="cls-13" d="M254.45,83a4.65,4.65,0,1,1-6.23-2.11A4.65,4.65,0,0,1,254.45,83Z"/><path class="cls-12" d="M294,423.15A4.65,4.65,0,1,1,287.8,421,4.64,4.64,0,0,1,294,423.15Z"/><path class="cls-13" d="M276.31,327.5a3.49,3.49,0,1,1-4.68-1.58A3.49,3.49,0,0,1,276.31,327.5Z"/><path class="cls-13" d="M457.53,219.11A4.65,4.65,0,1,1,451.3,217,4.64,4.64,0,0,1,457.53,219.11Z"/><path class="cls-13" d="M426.91,330.28a7,7,0,1,1-9.35-3.16A7,7,0,0,1,426.91,330.28Z"/><path class="cls-13" d="M507,340a4.65,4.65,0,1,1-6.24-2.11A4.65,4.65,0,0,1,507,340Z"/><g class="cls-11"><path class="cls-12" d="M80,184.28l-7.54.05a49.27,49.27,0,0,1-2.75,15.14L25.22,232.34a48,48,0,0,1-14.48-3.05l-2.86,7c13.16,5.38,31,4,40.95,2.59-6.43,12.82-12.69,32.39-3.3,49.44,11.2,20.31,38.3,18.53,53.3,15.72-12.47,19.65-14,39.49-4.16,54.67,8.72,13.41,25.14,20.25,41.82,17.43,2.35-.4,4.64-.72,6.92-1a166.37,166.37,0,0,0-10.28,31.31l7.4,1.43c0-.09.7-3.51,2.32-9.05l32.9-24.86a139.2,139.2,0,0,1,17.05,1.79l1.43-7.4a131.13,131.13,0,0,0-14.1-1.7l-.35-.46-.54.41a190.55,190.55,0,0,0-23.37-.16c1.81-3.5,3.79-7.07,6-10.68a44.12,44.12,0,0,0,5.71-14.62,40,40,0,0,0-6.29-30.68c-9.46-13.46-26-19.61-46.12-17.43,7.54-13.56,14.94-34.27,2.1-50a40.64,40.64,0,0,0-19.73-12.9l-.66-.9-.68.49c-11.59-3.3-23.86-2.57-32.11-1.37C67.23,223.47,80.14,202.37,80,184.28Zm-31.64,85.3L93,236.75a36,36,0,0,1,15.1,7.59L52.34,285c-.06-.12-.14-.22-.21-.34A31.57,31.57,0,0,1,48.39,269.58ZM169.76,373.74l-25,18.86a186.64,186.64,0,0,1,7.26-18.37C158.5,373.74,164.47,373.64,169.76,373.74ZM155.44,351.8c-3.19,5.22-6,10.36-8.37,15.29-3.82.39-7.78.91-11.84,1.59a35.68,35.68,0,0,1-20.44-2.5l46-33.84A35.69,35.69,0,0,1,155.44,351.8Zm-.32-37a31.3,31.3,0,0,1,5.28,13.17l-49.35,36.32A31.21,31.21,0,0,1,101,354.58a32,32,0,0,1-5-14.26L144,305A32.11,32.11,0,0,1,155.12,314.77Zm-15-11.59L95.8,335.8c.18-9.08,3.58-19,10.14-28.95.5-.61,2-2.56,4-5.44C121.48,299.2,131.79,299.87,140.13,303.18Zm-34.88-8.38c-5.17,1.41-21.73,5.31-35.63,2.05l47-34.3C116.91,274.38,110.23,287.05,105.25,294.8Zm11-36.6L65.1,295.47a24.81,24.81,0,0,1-10.61-7.36l56.25-41c.22.25.47.45.69.71A22.75,22.75,0,0,1,116.21,258.2Zm-67.6,6.54c1.11-10.75,6-21,9.83-27.69C63.37,236,75.7,233.81,88,235.73Zm5-34.3a124.8,124.8,0,0,1-22.32,2.14l36.09-26.65a124.44,124.44,0,0,1-10.05,19C57,225.31,55.55,227.28,53.57,230.44Z"/><rect class="cls-12" x="94.52" y="332.5" width="66.68" height="3.77" transform="translate(-173.37 140.93) rotate(-36.36)"/></g><path class="cls-12" d="M102.57,407.51a6.05,6.05,0,1,1-7.09,4.8A6.06,6.06,0,0,1,102.57,407.51Z"/><path class="cls-13" d="M167.58,254.89a6.06,6.06,0,1,1-7.09,4.79A6.05,6.05,0,0,1,167.58,254.89Z"/><path class="cls-13" d="M34,348.88A5.19,5.19,0,1,1,27.92,353,5.2,5.2,0,0,1,34,348.88Z"/><path class="cls-13" d="M198.81,334.93a3.46,3.46,0,1,1-4.06,2.74A3.46,3.46,0,0,1,198.81,334.93Z"/><circle class="cls-13" cx="96.31" cy="172.39" r="6.92" transform="translate(-83.27 254.52) rotate(-85.39)"/><path class="cls-13" d="M54.6,333.48a3.46,3.46,0,1,1-4.06,2.74A3.47,3.47,0,0,1,54.6,333.48Z"/><path class="cls-12" d="M174.67,418.22a3.46,3.46,0,1,1-4,2.74A3.45,3.45,0,0,1,174.67,418.22Z"/><path class="cls-13" d="M110.07,385.62a2.6,2.6,0,1,1-3,2.06A2.59,2.59,0,0,1,110.07,385.62Z"/><path class="cls-13" d="M127.55,229.53a3.46,3.46,0,1,1-4,2.74A3.45,3.45,0,0,1,127.55,229.53Z"/><path class="cls-13" d="M179.56,297.73a5.19,5.19,0,1,1-6.08,4.11A5.19,5.19,0,0,1,179.56,297.73Z"/><path class="cls-13" d="M221.36,254.71a3.46,3.46,0,1,1-4.05,2.74A3.46,3.46,0,0,1,221.36,254.71Z"/></g><circle class="cls-14" cx="179.22" cy="78.54" r="39.13"/><circle class="cls-15" cx="179.22" cy="78.54" r="46.86" transform="translate(-3.04 149.73) rotate(-45)"/><path class="cls-16" d="M179.22,118.11a39.57,39.57,0,1,1,39.57-39.57A39.61,39.61,0,0,1,179.22,118.11Zm0-78.27a38.7,38.7,0,1,0,38.71,38.7A38.74,38.74,0,0,0,179.22,39.84Z"/><circle class="cls-14" cx="441.61" cy="217.95" r="39.06" transform="translate(-48.96 174.77) rotate(-21.24)"/><circle class="cls-15" cx="441.61" cy="217.95" r="46.78"/><path class="cls-16" d="M441.61,257.44A39.49,39.49,0,1,1,481.1,218,39.54,39.54,0,0,1,441.61,257.44Zm0-78.12A38.63,38.63,0,1,0,480.24,218,38.67,38.67,0,0,0,441.61,179.32Z"/><circle class="cls-14" cx="356.04" cy="92.95" r="41.9"/><circle class="cls-15" cx="356.04" cy="92.95" r="50.17"/><path class="cls-16" d="M356,135.31A42.37,42.37,0,1,1,398.4,93,42.42,42.42,0,0,1,356,135.31Zm0-83.8A41.44,41.44,0,1,0,397.48,93,41.48,41.48,0,0,0,356,51.51Z"/><path class="cls-7" d="M187,92.31a9,9,0,0,0,9.92-15l-12.17-8.06-9.92,15Z"/><path class="cls-7" d="M182.85,68,170.69,60a9,9,0,1,0-9.92,15L172.93,83ZM165.71,61.4a1.68,1.68,0,1,1,.48,2.33A1.69,1.69,0,0,1,165.71,61.4Zm9.67,7.75A1.68,1.68,0,0,1,178.19,71a1.68,1.68,0,0,1-2.81-1.86Zm-7.47-.91a1.68,1.68,0,1,1,.47,2.33A1.68,1.68,0,0,1,167.91,68.24Zm-8.09,0a1.68,1.68,0,1,1,.47,2.33A1.68,1.68,0,0,1,159.82,68.26Zm9.35,6.2A1.68,1.68,0,0,1,172,76.32a1.68,1.68,0,0,1-2.81-1.86Z"/><circle class="cls-14" cx="91.9" cy="363.89" r="35.9"/><circle class="cls-15" cx="91.9" cy="363.89" r="42.99"/><path class="cls-16" d="M91.9,400.19a36.3,36.3,0,1,1,36.3-36.3A36.34,36.34,0,0,1,91.9,400.19Zm0-71.8a35.51,35.51,0,1,0,35.51,35.5A35.54,35.54,0,0,0,91.9,328.39Z"/><polygon class="cls-7" points="71.26 381.59 71.26 381.59 77.12 376.5 77.54 377.06 71.26 381.59"/><path class="cls-7" d="M94.46,369.35l-1.57,1.2-5.51-7.3.91-.69,8.63-6.51,5.51,7.29L95,369l.9.86,8.44-6.37-6.78-9L77.87,369.33l-1.66,8.3,8.44.68,11.1-8.39A4.81,4.81,0,0,1,94.46,369.35Z"/><path class="cls-7" d="M91.73,365.88l-3.44-3.32-.91.69,5.51,7.3,1.57-1.2A6,6,0,0,1,91.73,365.88Z"/><path class="cls-7" d="M94.46,369.35a4.81,4.81,0,0,0,1.29.57l.1-.07L95,369Z"/><path class="cls-7" d="M91.6,365.35a3.08,3.08,0,0,0-3.31-2.79l3.44,3.32C91.68,365.71,91.64,365.53,91.6,365.35Z"/><path class="cls-7" d="M104.15,364.46l-7.62-10.1a.7.7,0,0,1,.13-1h0a.71.71,0,0,1,1,.14l7.63,10.1a.71.71,0,0,1-.14,1h0A.71.71,0,0,1,104.15,364.46Z"/><path class="cls-7" d="M112,358.53l-7.63-10.1a.71.71,0,0,1,.14-1h0a.71.71,0,0,1,1,.14l7.62,10.1a.7.7,0,0,1-.13,1h0A.71.71,0,0,1,112,358.53Z"/><rect class="cls-7" x="102.93" y="351.38" width="4.92" height="8.44" transform="translate(325.68 57.22) rotate(52.95)"/><circle class="cls-14" cx="73.32" cy="189.9" r="39.06" transform="translate(-128.61 215.61) rotate(-76.14)"/><circle class="cls-15" cx="73.32" cy="189.9" r="46.78" transform="translate(-126.08 230.85) rotate(-80.49)"/><path class="cls-16" d="M73.32,229.39a39.5,39.5,0,1,1,39.5-39.49A39.54,39.54,0,0,1,73.32,229.39Zm0-78.12A38.63,38.63,0,1,0,112,189.9,38.67,38.67,0,0,0,73.32,151.27Z"/><polygon class="cls-7" points="76.2 189.02 73.32 189.02 73.32 186.13 70.43 186.13 70.43 189.02 67.55 189.02 67.55 191.9 70.43 191.9 70.43 194.78 73.32 194.78 73.32 191.9 76.2 191.9 76.2 189.02"/><path class="cls-7" d="M88.85,177.49H56.63a3.34,3.34,0,0,0-3.35,3.34V201a3.34,3.34,0,0,0,3.35,3.34H88.85A3.33,3.33,0,0,0,92.19,201V180.83A3.33,3.33,0,0,0,88.85,177.49ZM72.31,197.38a6.92,6.92,0,1,1,6.91-6.92A6.92,6.92,0,0,1,72.31,197.38Z"/><path class="cls-7" d="M81.6,179.22H79.87v-1.64c0-1.73-.68-2.69-.9-2.69H66.51c-.22,0-.9,1-.9,2.69v1.64H63.88v-1.64c0-2.52,1.13-4.41,2.63-4.41H79c1.5,0,2.63,1.89,2.63,4.41Z"/><path class="cls-7" d="M349,86.55l6.43,16.61,6.36-25.4,5.65,18.61h10.22a19.68,19.68,0,0,0,1.8-8c0-8.18-6-14.81-13.47-14.81a12.91,12.91,0,0,0-9.79,4.63,12.89,12.89,0,0,0-9.78-4.63c-7.44,0-13.77,6.63-13.47,14.81a20.15,20.15,0,0,0,1.83,7.45h8.94Z"/><path class="cls-7" d="M361.93,85.2l-6.13,24.52-7.18-18.56-3.79,6.63h-9.1c6.19,11.34,20.43,19.71,20.43,19.71s14.31-7.85,20.48-19.14H365.92Z"/><path class="cls-7" d="M468.29,206.66l-.38-1.9a12.84,12.84,0,0,1-4,0l-10.5-9.65a12.48,12.48,0,0,1,.07-3.82L451.6,191c-.72,3.59.51,8.05,1.35,10.49-3.56-1-8.82-1.63-12.67,1.58-4.59,3.83-2.82,10.6-1.37,14.26-5.58-2.2-10.68-1.62-14,1.62a10.62,10.62,0,0,0-2.36,11.44c.21.57.41,1.13.59,1.7a42.92,42.92,0,0,0-8.43-1.07v1.94s.93,0,2.41.14l7.9,7.11a36.45,36.45,0,0,1,.38,4.4h1.94a35.21,35.21,0,0,0-.26-3.65l.1-.11-.13-.11a51.15,51.15,0,0,0-1.1-5.93c1,.29,2,.62,3,1a11.37,11.37,0,0,0,4,.73,10.33,10.33,0,0,0,7.46-3.09c2.94-3.05,3.69-7.54,2.15-12.53,3.8,1.25,9.41,2.11,12.75-1.91a10.4,10.4,0,0,0,2.3-5.62l.2-.21-.16-.15a20.33,20.33,0,0,0-1.22-8.19C457.74,205.34,463.71,207.58,468.29,206.66Zm-23.13-3.83,10.48,9.68a9.31,9.31,0,0,1-1.18,4.19l-13-12.11.07-.07A8.15,8.15,0,0,1,445.16,202.83Zm-20.43,35.81-6-5.4a50.35,50.35,0,0,1,5,.94C424.18,235.79,424.5,237.29,424.73,238.64Zm4.86-4.7c-1.48-.55-2.92-1-4.28-1.37-.29-.95-.61-1.92-1-2.92a9.18,9.18,0,0,1-.37-5.29l10.81,10A9.16,9.16,0,0,1,429.59,233.94Zm9.35-1.89a8.12,8.12,0,0,1-3.07,2l-11.61-10.71a8,8,0,0,1,2-3,8.26,8.26,0,0,1,3.36-2l11.29,10.42A8.17,8.17,0,0,1,438.94,232.05Zm2.2-4.36-10.42-9.62a14.22,14.22,0,0,1,7.82,1.15c.18.09.75.39,1.57.75A14,14,0,0,1,441.14,227.69Zm.41-9.24c-.6-1.24-2.4-5.24-2.26-8.91l11,10.22C447.29,220.4,443.76,219.33,441.55,218.45Zm9.8,1-11.93-11.1a6.33,6.33,0,0,1,1.35-3.05l13.13,12.23c0,.06-.09.14-.15.21A5.85,5.85,0,0,1,451.35,219.43Zm-5-16.78a18.79,18.79,0,0,1,7.49,1.13,22.29,22.29,0,0,1,1.78,7.42Zm8.92-.42a32.84,32.84,0,0,1-1.63-5.55l8.51,7.83a31.94,31.94,0,0,1-5.32-1.61A15.48,15.48,0,0,0,455.31,202.23Z"/><rect class="cls-7" x="432.16" y="217.52" width="0.97" height="17.18" transform="translate(-26.93 390.73) rotate(-47.3)"/><circle class="cls-14" cx="398.85" cy="387.7" r="39.06" transform="translate(-148.46 486.93) rotate(-54.46)"/><circle class="cls-15" cx="398.85" cy="387.7" r="46.78"/><path class="cls-16" d="M398.85,427.19a39.49,39.49,0,1,1,39.49-39.49A39.53,39.53,0,0,1,398.85,427.19Zm0-78.12a38.63,38.63,0,1,0,38.63,38.63A38.67,38.67,0,0,0,398.85,349.07Z"/><path class="cls-7" d="M417,387.93a5.9,5.9,0,0,0-5.86-5.9,16.14,16.14,0,0,0,2-7.73c0-6.83-4.2-9.57-6.62-10.59a3.16,3.16,0,0,0,0-.32,2.28,2.28,0,1,0-.6,1.54c2.07.82,5.83,3.17,5.83,9.37a15.78,15.78,0,0,1-2.4,8,5.9,5.9,0,0,0-4.13,4.82,20.63,20.63,0,0,1-8.24,4.21c-9.59-2.47-14.77-10.59-14.77-17,0-7,4.78-9.09,6.54-9.62a2.27,2.27,0,1,0-.4-1.29c-2.07.66-7.5,3.14-7.5,10.91A17.44,17.44,0,0,0,386,386.36a23.38,23.38,0,0,0,10.26,6.18v12.32a7.61,7.61,0,0,0,15.22,0V393.81A5.89,5.89,0,0,0,417,387.93ZM403.89,411.1a6.25,6.25,0,0,1-6.25-6.24V392.54a22.81,22.81,0,0,0,7.56-3.8,5.91,5.91,0,0,0,4.94,5v11.1A6.26,6.26,0,0,1,403.89,411.1Zm7.16-20.9a2.27,2.27,0,1,1,2.27-2.27A2.28,2.28,0,0,1,411.05,390.2Z"/><path class="cls-3" d="M98.42,547.12s76-110.69,68-125.93-44.65-72.39-23.28-111.36c24.8-45.21,16.53-89,21.39-95.3,3.9-5.06,24.24,6,26.26,32.58,2.92,38.41-19.45,67.1-9.73,72S262.5,276.76,291,307.9s8.51,114-13.91,127.86c-41.54,25.78-43.48,126.92-43.48,126.92S127.57,578.92,98.42,547.12Z"/><g class="cls-17"><path class="cls-18" d="M181.08,218.42s-5.34,32.58-2.91,59.32S158.23,409,183,416.81,287.08,409,290,444s61.27-43.28,61.27-43.28l-5.84-31.6S196.16,205.78,181.08,218.42Z"/><path class="cls-18" d="M165.08,430c.44,2.4-75.41,149.72,76.3,111.8s18.47,56.4,18.47,56.4L112.53,567.05,60,529.13S147.13,414,165.08,430"/></g><path class="cls-3" d="M291.29,221.11s40.25-57.57,60.29-53c23.18,5.3,3.31,36.44-49,76.85S291.29,221.11,291.29,221.11Z"/><g class="cls-19"><path class="cls-20" d="M324.52,173.2s2.92,63.21,36.47,19.45-10.7,32.09-10.7,32.09l-33.9,9.13-3.05-21.28Z"/></g><path class="cls-21" d="M345.44,236s-23-6.31-38.25,14.22S328,269.52,345.44,236Z"/><path class="cls-21" d="M346.55,282.62s-19.95-9.06-36.74,7.35S325.91,310.45,346.55,282.62Z"/><path class="cls-21" d="M343,322s-19.8-9.53-36.6,6.88S322.37,349.82,343,322Z"/><rect class="cls-16" x="182.06" y="158.86" width="144.9" height="258.19" rx="11.76"/><path class="cls-16" d="M324,239.82h0V201.89h0a3.89,3.89,0,0,1,3.89,3.89v30.15A3.89,3.89,0,0,1,324,239.82Z"/><path class="cls-16" d="M185,224.74h0v37.93h0a3.89,3.89,0,0,1-3.89-3.89V228.63A3.9,3.9,0,0,1,185,224.74Z"/><path class="cls-16" d="M324,264.62h1.07a2.82,2.82,0,0,1,2.82,2.82v14.3a2.82,2.82,0,0,1-2.82,2.82H324a0,0,0,0,1,0,0V264.62A0,0,0,0,1,324,264.62Z"/><rect class="cls-4" x="186.68" y="164.48" width="135.66" height="230.93" rx="10.76"/><g class="cls-22"><polygon class="cls-23" points="154.83 307.4 289.03 114.86 340.08 117.77 159.2 359.92 154.83 307.4"/><polygon class="cls-23" points="171.45 367.8 351.27 141.6 366.83 155.7 171.38 385.91 171.45 367.8"/><path class="cls-23" d="M204.91,411.94c2.43-3.4,177.48-191.09,177.48-191.09l19,37.44L326,349.71,215.92,419.5l-14.18-2.45"/></g><path class="cls-24" d="M259.85,406.35a5.35,5.35,0,1,1-5.34-5.35A5.34,5.34,0,0,1,259.85,406.35Z"/><path class="cls-3" d="M331,242.31s-15.9,18.55-14.58,37.77,29.82-8.62,33.79-23.85S345.61,226.41,331,242.31Z"/><path class="cls-3" d="M332.58,286.22s-17.1,14.51-18.69,32.12,28.28-3.48,34.09-16.72S348.1,273.92,332.58,286.22Z"/><path class="cls-3" d="M333,323.94s-15.73,9.34-19.41,23.28,23.21,1,29.69-8.8S347.18,316.17,333,323.94Z"/><path class="cls-25" d="M332.35,281.92c-4.7,5.45-11.07,7.68-14.23,5s-1.89-9.35,2.81-14.81,9.19-5.48,12.34-2.76S337.06,276.46,332.35,281.92Z"/><path class="cls-25" d="M329.81,320.54c-4.37,5.07-10.3,7.14-13.23,4.61s-1.76-8.69,2.61-13.76,8.54-5.1,11.47-2.57S334.18,315.47,329.81,320.54Z"/><path class="cls-25" d="M325.73,349.67c-3.46,4-8.16,5.66-10.48,3.66s-1.39-6.89,2.07-10.91,6.77-4,9.09-2S329.2,345.65,325.73,349.67Z"/><path class="cls-26" d="M266.89,341H156.06a3.66,3.66,0,0,0-3.66,3.67v17.47a3.66,3.66,0,0,0,3.66,3.66h78.26l5.11,6.32,6-6.32h21.44a3.66,3.66,0,0,0,3.66-3.66V344.62A3.66,3.66,0,0,0,266.89,341Z"/><path class="cls-12" d="M266.89,337.55H156.06a3.66,3.66,0,0,0-3.66,3.67v17.46a3.66,3.66,0,0,0,3.66,3.67h78.26l5.11,6.32,6-6.32h21.44a3.66,3.66,0,0,0,3.66-3.67V341.22A3.66,3.66,0,0,0,266.89,337.55Z"/><g class="cls-27"><path class="cls-5" d="M228.25,284.06l2.92,29.66H275.9l5.35-39.87L249.64,269S222.9,266.56,228.25,284.06Z"/><g class="cls-28"><path class="cls-29" d="M222.9,271.91c-.55,1.86,56.89,8.26,66.13-2.43C304.29,251.81,226.79,258.78,222.9,271.91Z"/></g><path class="cls-25" d="M162.61,239.82s-3.41-14.59.48-26.26c0,0,5.84-3.4,5.84,3.89S162.61,239.82,162.61,239.82Z"/><path class="cls-5" d="M255.48,155.7s-22.86,6.81-23.83,13.61,0,101.14,0,101.14,44.74,3.89,49.6,0S292,163,287.57,159.59s-20.42-5.84-20.42-5.84Z"/><path class="cls-6" d="M276.39,154.73s-10.46,20.17-9.49,43,2,119.13,2,119.13l24.31-5.84V176.85A45,45,0,0,0,276.39,154.73Z"/><g class="cls-30"><path class="cls-31" d="M266.66,237.39l31.61-2.92-7.78-47.17s10.69,27.72-25.77,31.61c-36.78,3.92,3,15.41,3,15.41"/></g><path class="cls-6" d="M249.81,157.61s-5.76,13.89-6.73,51.82-2.43,107.46-2.43,107.46l-22.86-1.95s8.27-135.66,13.62-145.87S249.81,157.61,249.81,157.61Z"/><path class="cls-6" d="M249.89,157.4s-18,3.89-24.32,8.75-19.44,38.42-21.88,37.93-22.85-25.77-26.25-27.23c0,0-8.27,12.64-10.7,13.13,0,0,24.8,34.52,33.55,39.87S230,206,230,206Z"/><path class="cls-32" d="M242.71,107.86c0,.86-4.31,13.8,0,28.46s12.08,12.94,12.08,12.94-.87,6-3.45,8.62l4.31,9.49,19.28-12.16s-7.21-15.44-1.17-29.24-17.25-35.36-30.19-18.11"/><path class="cls-16" d="M271.25,121.66s.78,12.45-5.45,14-12.45-4.67-17.89-2.33-6.23-2.34-6.23-2.34-1.56,10.12-1.56,12.46,4.67,8.56,10.12,8.56,21-8.56,23.35-13.23,0-17.12,0-17.12Z"/><path class="cls-16" d="M260.82,110.44s-16.31,5.07-20.7-.86c-6.52-8.83,6-13.8,12.08-11.21s25.87-3.45,22.42,9.49c0,0,10.35,2.58,5.18,12.93a134.16,134.16,0,0,0-6.9,15.53V125.11S266.86,108.72,260.82,110.44Z"/><path class="cls-32" d="M170.45,176.9s-3.3-3.47-3.9-6.3a.47.47,0,0,0-.86-.14c-.88,1.53-1.85,4.31.81,6.63C170.39,180.5,170.45,176.9,170.45,176.9Z"/><path class="cls-32" d="M174.76,183.41c-.48,0-2.43-6.32-5.83-6.8s-10.21,0-11.19,0-9.23-5.35-13.12-2.43c0,0,10.21,3.4,11.67,5.34s8.26,6.81,15.07,7.78"/><polygon class="cls-31" points="278.83 157.35 282.95 173.45 277.6 173.45 280.03 184.14 267.25 208.7 282.95 185.6 280.03 174.42 284.89 174.42 278.83 157.35"/><polygon class="cls-31" points="248.18 158.25 234.08 170.77 237.49 170.77 233.11 180.5 241.86 200.92 235.06 180.5 239.43 170.29 237 169.31 248.18 158.25"/><polygon class="cls-7" points="200.53 195.81 241.38 195.81 256.45 245.9 215.61 245.9 200.53 195.81"/><path class="cls-32" d="M257.67,225.23s-3.46-5.33-9.27-6.07l1.33,4.39s-10-2.21-12.49-4.15-1.45,7.29,1,9.23S244.54,233,246,234s12.15-.48,12.15-.48Z"/><path class="cls-6" d="M276.63,155.46s21.39,5.34,28.2,11.67,11.67,50.56,8.75,55.91-51.29,14.35-55.18,14.35c0,0,0-13.13-3.41-15.08,0,0,35.25-6.08,36.71-9.48S291.22,165.67,276.63,155.46Z"/><path class="cls-33" d="M259,122.08c.11,3.52-1.66,6.43-3.95,6.5s-4.25-2.72-4.36-6.25,1.66-6.43,4-6.5S258.91,118.55,259,122.08Z"/><path class="cls-33" d="M247,122c.11,3.52-1.66,6.44-3.95,6.51s-4.25-2.73-4.36-6.25,1.66-6.43,4-6.51S246.86,118.49,247,122Z"/><line class="cls-33" x1="258.88" y1="122.15" x2="274.93" y2="125.07"/><path class="cls-33" d="M246.73,121.66a3.74,3.74,0,0,1,4-.22"/><path class="cls-32" d="M277.76,129.46c-1.15,2.35-3.3,3.66-4.8,2.92s-1.77-3.24-.61-5.59,3.3-3.66,4.8-2.92S278.92,127.11,277.76,129.46Z"/></g><path class="cls-12" d="M298.27,387.15h-90a6.8,6.8,0,0,1-6.8-6.81h0a6.8,6.8,0,0,1,6.8-6.81h90a6.8,6.8,0,0,1,6.8,6.81h0A6.8,6.8,0,0,1,298.27,387.15Z"/><path class="cls-16" d="M215.12,380.34a5.35,5.35,0,1,1-5.35-5.35A5.35,5.35,0,0,1,215.12,380.34Z"/><path class="cls-7" d="M175.74,346.9c0-2.19-1.78-4.43-4-4.43a4,4,0,0,0-4,3.74h0a4,4,0,0,0-4-3.74c-2.19,0-4,2.24-4,4.43a3.87,3.87,0,0,0,.08.77h0s.86,6,7.86,8.81c7-2.81,7.86-8.81,7.86-8.81h0A3.87,3.87,0,0,0,175.74,346.9Z"/><rect class="cls-16" x="182.06" y="344.36" width="74.39" height="1.46"/><rect class="cls-16" x="182.06" y="347.11" width="74.39" height="1.46"/><rect class="cls-16" x="182.06" y="349.87" width="74.39" height="1.46"/><rect class="cls-16" x="182.06" y="352.62" width="26.74" height="1.46"/><path class="cls-26" d="M193.5,298.17H304.33a3.66,3.66,0,0,1,3.66,3.66V319.3a3.66,3.66,0,0,1-3.66,3.66H226.07L221,329.28l-6-6.32H193.5a3.66,3.66,0,0,1-3.66-3.66V301.83A3.66,3.66,0,0,1,193.5,298.17Z"/><path class="cls-12" d="M193.5,294.76H304.33a3.66,3.66,0,0,1,3.66,3.67v17.46a3.66,3.66,0,0,1-3.66,3.67H226.07L221,325.88l-6-6.32H193.5a3.66,3.66,0,0,1-3.66-3.67V298.43A3.66,3.66,0,0,1,193.5,294.76Z"/><rect class="cls-16" x="203.94" y="301.57" width="74.39" height="1.46" transform="translate(482.27 604.6) rotate(180)"/><rect class="cls-16" x="203.94" y="304.32" width="74.39" height="1.46" transform="translate(482.27 610.11) rotate(180)"/><rect class="cls-16" x="203.94" y="307.08" width="74.39" height="1.46" transform="translate(482.27 615.62) rotate(180)"/><rect class="cls-16" x="251.59" y="309.83" width="26.74" height="1.46" transform="translate(529.92 621.13) rotate(180)"/><path class="cls-7" d="M296.23,301.87a3,3,0,1,1-3-3A3,3,0,0,1,296.23,301.87Z"/><g class="cls-34"><rect class="cls-7" x="290.3" y="298.91" width="5.93" height="5.93"/><path class="cls-7" d="M296.23,301.87a3,3,0,1,1-3-3A3,3,0,0,1,296.23,301.87Z"/><path class="cls-7" d="M296.17,301.87a2.91,2.91,0,1,1-2.91-2.9A2.91,2.91,0,0,1,296.17,301.87Z"/><path class="cls-7" d="M296.11,301.87a2.85,2.85,0,1,1-2.85-2.84A2.86,2.86,0,0,1,296.11,301.87Z"/><path class="cls-7" d="M296.05,301.87a2.79,2.79,0,1,1-2.79-2.78A2.79,2.79,0,0,1,296.05,301.87Z"/><path class="cls-7" d="M296,301.87a2.73,2.73,0,1,1-2.73-2.72A2.73,2.73,0,0,1,296,301.87Z"/><path class="cls-7" d="M295.93,301.87a2.67,2.67,0,1,1-2.67-2.66A2.68,2.68,0,0,1,295.93,301.87Z"/><path class="cls-7" d="M295.87,301.87a2.61,2.61,0,1,1-2.61-2.6A2.6,2.6,0,0,1,295.87,301.87Z"/><path class="cls-7" d="M295.81,301.87a2.55,2.55,0,1,1-2.55-2.54A2.54,2.54,0,0,1,295.81,301.87Z"/><path class="cls-7" d="M295.75,301.87a2.49,2.49,0,1,1-2.49-2.48A2.49,2.49,0,0,1,295.75,301.87Z"/><path class="cls-7" d="M295.68,301.87a2.42,2.42,0,1,1-2.42-2.42A2.42,2.42,0,0,1,295.68,301.87Z"/><path class="cls-7" d="M295.62,301.87a2.36,2.36,0,1,1-2.36-2.36A2.35,2.35,0,0,1,295.62,301.87Z"/><path class="cls-7" d="M295.56,301.87a2.3,2.3,0,1,1-2.3-2.3A2.3,2.3,0,0,1,295.56,301.87Z"/><path class="cls-7" d="M295.5,301.87a2.24,2.24,0,1,1-2.24-2.24A2.24,2.24,0,0,1,295.5,301.87Z"/><path class="cls-7" d="M295.44,301.87a2.18,2.18,0,1,1-2.18-2.18A2.17,2.17,0,0,1,295.44,301.87Z"/><path class="cls-7" d="M295.38,301.87a2.12,2.12,0,1,1-2.12-2.12A2.12,2.12,0,0,1,295.38,301.87Z"/><path class="cls-7" d="M295.32,301.87a2.06,2.06,0,1,1-2.06-2.06A2.06,2.06,0,0,1,295.32,301.87Z"/><path class="cls-7" d="M295.26,301.87a2,2,0,1,1-2-2A2,2,0,0,1,295.26,301.87Z"/><path class="cls-7" d="M295.2,301.87a1.94,1.94,0,1,1-1.94-1.94A1.94,1.94,0,0,1,295.2,301.87Z"/><path class="cls-7" d="M295.14,301.87a1.88,1.88,0,1,1-1.88-1.88A1.88,1.88,0,0,1,295.14,301.87Z"/><path class="cls-7" d="M295.08,301.87a1.82,1.82,0,1,1-1.82-1.82A1.81,1.81,0,0,1,295.08,301.87Z"/><path class="cls-7" d="M295,301.87a1.76,1.76,0,1,1-1.76-1.76A1.76,1.76,0,0,1,295,301.87Z"/><path class="cls-7" d="M295,301.87a1.7,1.7,0,1,1-1.7-1.69A1.7,1.7,0,0,1,295,301.87Z"/><path class="cls-7" d="M294.9,301.87a1.64,1.64,0,1,1-1.64-1.63A1.64,1.64,0,0,1,294.9,301.87Z"/><circle class="cls-7" cx="293.26" cy="301.87" r="1.58"/><path class="cls-7" d="M294.78,301.87a1.52,1.52,0,1,1-1.52-1.51A1.52,1.52,0,0,1,294.78,301.87Z"/><path class="cls-7" d="M294.72,301.87a1.46,1.46,0,1,1-1.46-1.45A1.46,1.46,0,0,1,294.72,301.87Z"/><path class="cls-7" d="M294.66,301.87a1.4,1.4,0,1,1-2.79,0,1.4,1.4,0,0,1,2.79,0Z"/><path class="cls-7" d="M294.6,301.87a1.34,1.34,0,1,1-1.34-1.33A1.33,1.33,0,0,1,294.6,301.87Z"/><path class="cls-7" d="M294.54,301.87a1.28,1.28,0,1,1-1.28-1.27A1.27,1.27,0,0,1,294.54,301.87Z"/><path class="cls-7" d="M294.48,301.87a1.22,1.22,0,1,1-1.22-1.21A1.22,1.22,0,0,1,294.48,301.87Z"/><path class="cls-7" d="M294.41,301.87a1.15,1.15,0,0,1-2.3,0,1.15,1.15,0,0,1,2.3,0Z"/><path class="cls-7" d="M294.35,301.87a1.09,1.09,0,1,1-1.09-1.09A1.09,1.09,0,0,1,294.35,301.87Z"/><path class="cls-7" d="M294.29,301.87a1,1,0,1,1-1-1A1,1,0,0,1,294.29,301.87Z"/><path class="cls-7" d="M294.23,301.87a1,1,0,0,1-1.94,0,1,1,0,0,1,1.94,0Z"/><path class="cls-7" d="M294.17,301.87a.91.91,0,1,1-.91-.91A.91.91,0,0,1,294.17,301.87Z"/><path class="cls-7" d="M294.11,301.87a.85.85,0,1,1-.85-.85A.85.85,0,0,1,294.11,301.87Z"/><path class="cls-7" d="M294.05,301.87a.79.79,0,1,1-1.58,0,.79.79,0,0,1,1.58,0Z"/><path class="cls-7" d="M294,301.87a.73.73,0,1,1-.73-.73A.73.73,0,0,1,294,301.87Z"/><path class="cls-7" d="M293.93,301.87a.67.67,0,1,1-.67-.67A.67.67,0,0,1,293.93,301.87Z"/><path class="cls-7" d="M293.87,301.87a.61.61,0,1,1-.61-.61A.61.61,0,0,1,293.87,301.87Z"/><path class="cls-7" d="M293.81,301.87a.55.55,0,1,1-.55-.55A.55.55,0,0,1,293.81,301.87Z"/><path class="cls-7" d="M293.75,301.87a.49.49,0,0,1-.49.49.49.49,0,0,1,0-1A.49.49,0,0,1,293.75,301.87Z"/><path class="cls-7" d="M293.69,301.87a.43.43,0,1,1-.85,0,.43.43,0,0,1,.85,0Z"/><path class="cls-7" d="M293.63,301.87a.37.37,0,1,1-.73,0,.37.37,0,0,1,.73,0Z"/><path class="cls-7" d="M293.57,301.87a.31.31,0,0,1-.31.31.3.3,0,0,1-.3-.31.29.29,0,0,1,.3-.3A.3.3,0,0,1,293.57,301.87Z"/><path class="cls-7" d="M293.51,301.87a.25.25,0,1,1-.49,0,.25.25,0,0,1,.49,0Z"/><path class="cls-7" d="M293.45,301.87a.2.2,0,0,1-.19.19.19.19,0,0,1-.18-.19.18.18,0,0,1,.18-.18A.19.19,0,0,1,293.45,301.87Z"/><path class="cls-7" d="M293.39,301.87a.13.13,0,0,1-.13.13.12.12,0,0,1-.12-.13.12.12,0,0,1,.12-.12A.12.12,0,0,1,293.39,301.87Z"/><path class="cls-7" d="M293.33,301.87a.07.07,0,0,1-.07.07.07.07,0,0,1-.06-.07.06.06,0,0,1,.06-.06A.07.07,0,0,1,293.33,301.87Z"/></g><path class="cls-7" d="M298.75,312A5.4,5.4,0,0,0,288,312Z"/><g class="cls-35"><rect class="cls-7" x="287.96" y="306.64" width="10.79" height="5.39"/><path class="cls-7" d="M297.62,309.33a4.27,4.27,0,1,1-4.27-4.26A4.27,4.27,0,0,1,297.62,309.33Z"/><path class="cls-7" d="M297.53,309.33a4.18,4.18,0,1,1-4.18-4.17A4.18,4.18,0,0,1,297.53,309.33Z"/><path class="cls-7" d="M297.44,309.33a4.09,4.09,0,1,1-4.09-4.09A4.09,4.09,0,0,1,297.44,309.33Z"/><path class="cls-7" d="M297.36,309.33a4,4,0,1,1-4-4A4,4,0,0,1,297.36,309.33Z"/><path class="cls-7" d="M297.27,309.33a3.92,3.92,0,1,1-3.92-3.91A3.92,3.92,0,0,1,297.27,309.33Z"/><path class="cls-7" d="M297.18,309.33a3.83,3.83,0,1,1-3.83-3.83A3.82,3.82,0,0,1,297.18,309.33Z"/><path class="cls-7" d="M297.09,309.33a3.74,3.74,0,1,1-3.74-3.74A3.73,3.73,0,0,1,297.09,309.33Z"/><path class="cls-7" d="M297,309.33a3.66,3.66,0,1,1-3.66-3.65A3.66,3.66,0,0,1,297,309.33Z"/><path class="cls-7" d="M296.92,309.33a3.57,3.57,0,1,1-3.57-3.57A3.57,3.57,0,0,1,296.92,309.33Z"/><path class="cls-7" d="M296.83,309.33a3.48,3.48,0,1,1-3.48-3.48A3.48,3.48,0,0,1,296.83,309.33Z"/><path class="cls-7" d="M296.75,309.33a3.4,3.4,0,1,1-3.4-3.39A3.4,3.4,0,0,1,296.75,309.33Z"/><path class="cls-7" d="M296.66,309.33a3.31,3.31,0,1,1-3.31-3.31A3.31,3.31,0,0,1,296.66,309.33Z"/><path class="cls-7" d="M296.57,309.33a3.22,3.22,0,1,1-3.22-3.22A3.22,3.22,0,0,1,296.57,309.33Z"/><path class="cls-7" d="M296.49,309.33a3.14,3.14,0,1,1-3.14-3.13A3.15,3.15,0,0,1,296.49,309.33Z"/><path class="cls-7" d="M296.4,309.33a3,3,0,1,1-3-3.05A3,3,0,0,1,296.4,309.33Z"/><path class="cls-7" d="M296.31,309.33a3,3,0,1,1-3-3A3,3,0,0,1,296.31,309.33Z"/><path class="cls-7" d="M296.23,309.33a2.88,2.88,0,1,1-2.88-2.87A2.87,2.87,0,0,1,296.23,309.33Z"/><path class="cls-7" d="M296.14,309.33a2.79,2.79,0,1,1-2.79-2.78A2.79,2.79,0,0,1,296.14,309.33Z"/><path class="cls-7" d="M296.05,309.33a2.7,2.7,0,1,1-2.7-2.7A2.7,2.7,0,0,1,296.05,309.33Z"/><path class="cls-7" d="M296,309.33a2.61,2.61,0,1,1-2.61-2.61A2.61,2.61,0,0,1,296,309.33Z"/><path class="cls-7" d="M295.88,309.33a2.53,2.53,0,1,1-2.53-2.52A2.53,2.53,0,0,1,295.88,309.33Z"/><path class="cls-7" d="M295.79,309.33a2.44,2.44,0,1,1-2.44-2.44A2.44,2.44,0,0,1,295.79,309.33Z"/><path class="cls-7" d="M295.7,309.33a2.35,2.35,0,1,1-2.35-2.35A2.35,2.35,0,0,1,295.7,309.33Z"/><path class="cls-7" d="M295.62,309.33a2.27,2.27,0,1,1-2.27-2.26A2.27,2.27,0,0,1,295.62,309.33Z"/><path class="cls-7" d="M295.53,309.33a2.18,2.18,0,1,1-2.18-2.18A2.18,2.18,0,0,1,295.53,309.33Z"/><path class="cls-7" d="M295.44,309.33a2.09,2.09,0,1,1-2.09-2.09A2.08,2.08,0,0,1,295.44,309.33Z"/><path class="cls-7" d="M295.36,309.33a2,2,0,1,1-2-2A2,2,0,0,1,295.36,309.33Z"/><path class="cls-7" d="M295.27,309.33a1.92,1.92,0,1,1-1.92-1.92A1.92,1.92,0,0,1,295.27,309.33Z"/><path class="cls-7" d="M295.18,309.33a1.83,1.83,0,1,1-1.83-1.83A1.83,1.83,0,0,1,295.18,309.33Z"/><path class="cls-7" d="M295.1,309.33a1.75,1.75,0,1,1-1.75-1.74A1.74,1.74,0,0,1,295.1,309.33Z"/><path class="cls-7" d="M295,309.33a1.66,1.66,0,1,1-1.66-1.65A1.66,1.66,0,0,1,295,309.33Z"/><path class="cls-7" d="M294.92,309.33a1.57,1.57,0,1,1-1.57-1.57A1.57,1.57,0,0,1,294.92,309.33Z"/><path class="cls-7" d="M294.83,309.33a1.48,1.48,0,1,1-1.48-1.48A1.48,1.48,0,0,1,294.83,309.33Z"/><path class="cls-7" d="M294.75,309.33a1.4,1.4,0,1,1-2.79,0,1.4,1.4,0,0,1,2.79,0Z"/><path class="cls-7" d="M294.66,309.33a1.31,1.31,0,1,1-1.31-1.31A1.31,1.31,0,0,1,294.66,309.33Z"/><path class="cls-7" d="M294.57,309.33a1.22,1.22,0,1,1-2.44,0,1.22,1.22,0,0,1,2.44,0Z"/><path class="cls-7" d="M294.49,309.33a1.14,1.14,0,1,1-1.14-1.13A1.14,1.14,0,0,1,294.49,309.33Z"/><path class="cls-7" d="M294.4,309.33a1,1,0,1,1-1-1.05A1,1,0,0,1,294.4,309.33Z"/><path class="cls-7" d="M294.31,309.33a1,1,0,1,1-1-1A1,1,0,0,1,294.31,309.33Z"/><path class="cls-7" d="M294.23,309.33a.88.88,0,1,1-1.75,0,.88.88,0,0,1,1.75,0Z"/><path class="cls-7" d="M294.14,309.33a.79.79,0,1,1-.79-.79A.79.79,0,0,1,294.14,309.33Z"/><path class="cls-7" d="M294.05,309.33a.7.7,0,0,1-1.4,0,.7.7,0,0,1,1.4,0Z"/><path class="cls-7" d="M294,309.33a.61.61,0,0,1-.62.61.61.61,0,0,1,0-1.22A.61.61,0,0,1,294,309.33Z"/><path class="cls-7" d="M293.88,309.33a.53.53,0,0,1-.53.53.52.52,0,0,1-.52-.53.52.52,0,0,1,.52-.52A.52.52,0,0,1,293.88,309.33Z"/><path class="cls-7" d="M293.79,309.33a.44.44,0,0,1-.44.44.44.44,0,1,1,0-.88A.44.44,0,0,1,293.79,309.33Z"/><path class="cls-7" d="M293.7,309.33a.34.34,0,0,1-.35.35.35.35,0,0,1-.35-.35.35.35,0,0,1,.35-.35A.35.35,0,0,1,293.7,309.33Z"/><path class="cls-7" d="M293.62,309.33a.27.27,0,1,1-.53,0,.27.27,0,0,1,.53,0Z"/><path class="cls-7" d="M293.53,309.33a.18.18,0,1,1-.18-.18A.18.18,0,0,1,293.53,309.33Z"/><path class="cls-7" d="M293.44,309.33a.09.09,0,1,1-.09-.09A.09.09,0,0,1,293.44,309.33Z"/></g></g></g></g></svg>