<svg id="Grupo_243" data-name="Grupo 243" xmlns="http://www.w3.org/2000/svg" xmlns:xlink="http://www.w3.org/1999/xlink" width="504.363" height="411.224" viewBox="0 0 504.363 411.224">
  <defs>
    <clipPath id="clip-path">
      <rect id="Rectángulo_126" data-name="Rectángulo 126" width="504.363" height="411.224" fill="none"/>
    </clipPath>
    <clipPath id="clip-path-3">
      <rect id="Rectángulo_118" data-name="Rectángulo 118" width="504.363" height="393.211" transform="translate(0 7.937)" fill="none"/>
    </clipPath>
    <clipPath id="clip-path-4">
      <rect id="Rectángulo_121" data-name="Rectángulo 121" width="43.579" height="36.625" transform="translate(77.919 172.292)" fill="none"/>
    </clipPath>
    <clipPath id="clip-path-5">
      <rect id="Rectángulo_122" data-name="Rectángulo 122" width="26.087" height="104.495" transform="translate(390.258 287.691)" fill="none"/>
    </clipPath>
    <clipPath id="clip-path-6">
      <rect id="Rectángulo_123" data-name="Rectángulo 123" width="35.253" height="87.07" transform="translate(319.224 307.592)" fill="none"/>
    </clipPath>
    <clipPath id="clip-path-7">
      <rect id="Rectángulo_124" data-name="Rectángulo 124" width="53.421" height="61.378" transform="translate(360.66 46.753)" fill="none"/>
    </clipPath>
  </defs>
  <g id="Grupo_242" data-name="Grupo 242" clip-path="url(#clip-path)">
    <g id="Grupo_241" data-name="Grupo 241">
      <g id="Grupo_240" data-name="Grupo 240" clip-path="url(#clip-path)">
        <path id="Trazado_784" data-name="Trazado 784" d="M486.13,52.991c-22.164-30.691-57-47.341-94.74-44.8-32.133,2.162-62.054,15.836-94.218,17.947-43.986,2.887-88.13-3.775-132.167-1.791S74.533,38.711,45.456,71.842C11.108,110.977-5.312,166.82,1.525,218.272c11.112,83.624,78.351,139.257,152.917,168.8,157.584,62.428,316.2-94.4,346.526-241.347,6.582-31.895,4.584-65.835-14.838-92.73" fill="#eceffe"/>
        <g id="Grupo_227" data-name="Grupo 227" opacity="0.7">
          <g id="Grupo_226" data-name="Grupo 226">
            <g id="Grupo_225" data-name="Grupo 225" clip-path="url(#clip-path-3)">
              <path id="Trazado_785" data-name="Trazado 785" d="M486.13,52.991c-22.164-30.691-57-47.341-94.74-44.8-32.133,2.162-62.054,15.836-94.218,17.947-43.986,2.887-88.13-3.775-132.167-1.791S74.533,38.711,45.456,71.842C11.108,110.977-5.312,166.82,1.525,218.272c11.112,83.624,78.351,139.257,152.917,168.8,157.584,62.428,316.2-94.4,346.526-241.347,6.582-31.895,4.584-65.835-14.838-92.73" fill="#eceffe"/>
            </g>
          </g>
        </g>
        <path id="Trazado_786" data-name="Trazado 786" d="M452.665,395.646H84.063s76.144,15.578,186.9,15.578,181.705-15.578,181.705-15.578" fill="#e1e1e1"/>
        <path id="Trazado_787" data-name="Trazado 787" d="M155.222,255.989c5.6-1.941,5.236-7.177,4.106-11.275-1.134-4.122-19.752-48.931-36.915-50.914,0,0,5.26,37.3,8.413,41.491,1.947,2.583,6.85,10.137,11.265,17.768,2.543,4.394,5.913,5.432,13.131,2.93" fill="#c6bd4a"/>
        <path id="Trazado_788" data-name="Trazado 788" d="M158.051,246.9c-5.468,3.211-17.486-7.116-26.842-23.063-1.2-2.041-2.292-4.076-3.282-6.079.636,8.184,1.569,15.772,2.9,17.538,1.948,2.583,6.571,11.414,10.987,19.043,2.543,4.4,6.7,6.237,13.922,3.735,5.279-1.833,4.8-8.447,3.782-12.631a4.368,4.368,0,0,1-1.465,1.457" fill="#afa337"/>
        <path id="Trazado_789" data-name="Trazado 789" d="M121.808,123.2c-3.22-5.635-5.634-.6-5.634-.6s6.036-12.275,0-18.511-10.664.6-10.664.6-.4-8.25-5.835-8.25c-11.081,0-16.7,17.3-16.7,17.3s-12.072.4-16.5,7.244c-13.69,21.156,19.918,49.493,27.363,54.927l25.353-27.161s5.834-19.92,2.615-25.552" fill="#ffb14a"/>
        <path id="Trazado_790" data-name="Trazado 790" d="M85.931,107.169a41.71,41.71,0,0,0-2.955,6.575s-12.072.4-16.5,7.244c-13.691,21.157,19.918,49.494,27.363,54.927l20.248-21.692c-13.312-31.672-35.282-18.642-28.157-47.054" fill="#ff8f43"/>
        <path id="Trazado_791" data-name="Trazado 791" d="M204.987,333.181c-4.385-39.669-24.879-71.831-45.772-71.831s-34.275,32.162-29.888,71.831,24.872,71.832,45.767,71.832,34.278-32.16,29.893-71.832m-32.423,67.512c-18.717,0-37.072-30.229-41-67.512s8.061-67.51,26.776-67.51,37.077,30.225,41,67.51-8.06,67.512-26.778,67.512" fill="#332929"/>
        <path id="Trazado_792" data-name="Trazado 792" d="M202.375,333.181c-4.385-39.669-24.88-71.831-45.772-71.831s-33.1,32.162-28.717,71.831,23.7,71.832,44.6,71.832,34.275-32.16,29.893-71.832m-32.422,67.512c-18.717,0-35.9-30.229-39.829-67.512s6.888-67.51,25.6-67.51,37.078,30.225,41,67.51-8.06,67.512-26.777,67.512" fill="#514747"/>
        <path id="Trazado_793" data-name="Trazado 793" d="M176.8,333.182c-.842-7.6-4.771-13.769-8.775-13.769s-6.569,6.165-5.73,13.769,4.769,13.77,8.776,13.77,6.567-6.167,5.729-13.77" fill="#332929"/>
        <path id="Trazado_794" data-name="Trazado 794" d="M168.511,319.794H75.1l3.68,17.4h89.73Z" fill="#332929"/>
        <rect id="Rectángulo_119" data-name="Rectángulo 119" width="2.443" height="63.83" transform="translate(120.752 330.995) rotate(-9.913)" fill="#332929"/>
        <rect id="Rectángulo_120" data-name="Rectángulo 120" width="2.441" height="63.83" transform="translate(167.195 330.995) rotate(-9.913)" fill="#332929"/>
        <path id="Trazado_795" data-name="Trazado 795" d="M187.029,391.244c-.841-7.6-4.766-13.769-8.773-13.769s-6.567,6.165-5.728,13.769,4.768,13.77,8.773,13.77,6.571-6.163,5.728-13.77" fill="#332929"/>
        <path id="Trazado_796" data-name="Trazado 796" d="M181.2,391.244c-.469-4.264-2.669-7.716-4.915-7.716s-3.681,3.452-3.21,7.716,2.673,7.716,4.917,7.716,3.68-3.452,3.208-7.716" fill="#514747"/>
        <path id="Trazado_797" data-name="Trazado 797" d="M138.447,391.244c-.842-7.6-4.77-13.769-8.771-13.769s-6.572,6.165-5.73,13.769,4.767,13.77,8.771,13.77,6.571-6.163,5.73-13.77" fill="#332929"/>
        <path id="Trazado_798" data-name="Trazado 798" d="M132.613,391.244c-.472-4.264-2.671-7.716-4.915-7.716s-3.681,3.452-3.209,7.716,2.671,7.716,4.914,7.716,3.682-3.452,3.21-7.716" fill="#514747"/>
        <path id="Trazado_799" data-name="Trazado 799" d="M174.321,365.578H127.813l-.144-.085L77.3,335.583l.623-1.052,50.219,29.828h46.174Z" fill="#332929"/>
        <path id="Trazado_800" data-name="Trazado 800" d="M167.057,395.288A17.023,17.023,0,0,1,150.4,382.052l-10.261-44.273a8.471,8.471,0,0,0-8.288-6.589v-2.442a10.906,10.906,0,0,1,10.67,8.479L152.781,381.5a14.592,14.592,0,0,0,14.276,11.345Z" fill="#332929"/>
        <path id="Trazado_801" data-name="Trazado 801" d="M207.221,395.286a17.017,17.017,0,0,1-16.654-13.234L180.3,337.779a8.467,8.467,0,0,0-8.287-6.589v-2.442a10.908,10.908,0,0,1,10.67,8.479L192.946,381.5a14.588,14.588,0,0,0,14.275,11.345Z" fill="#332929"/>
        <path id="Trazado_802" data-name="Trazado 802" d="M84.183,319.235,76.87,280.3l2.823-.755,6.772,40.021Z" fill="#bfacb2"/>
        <path id="Trazado_803" data-name="Trazado 803" d="M127.037,317.653l-7.312-38.94,2.826-.75,6.767,40.024Z" fill="#bfacb2"/>
        <path id="Trazado_804" data-name="Trazado 804" d="M70.661,282.062a11.55,11.55,0,0,0,11.464,8.845h32.738a10.575,10.575,0,0,0,8.019-3.609,9.313,9.313,0,0,0,2.072-8.146l-16.406-72.7a11.048,11.048,0,0,0-9.033-8.275c-14.805-2.547-25.712-3.13-37.383-.894a8.97,8.97,0,0,0-7.408,10.53Z" fill="#473c3c"/>
        <path id="Trazado_805" data-name="Trazado 805" d="M85.224,323.092a4.088,4.088,0,0,1-3.029-4.51,4.258,4.258,0,0,1,4.289-3.487l70.061,0a3.954,3.954,0,0,1,3.92,2.995,3.726,3.726,0,0,1-2.291,4.24,14.718,14.718,0,0,1-5.756,1.068H87.348a7.133,7.133,0,0,1-2.124-.3" fill="#473c3c"/>
        <path id="Trazado_806" data-name="Trazado 806" d="M74.856,282.059A11.549,11.549,0,0,0,86.321,290.9h32.734a10.556,10.556,0,0,0,8.021-3.609,9.317,9.317,0,0,0,2.072-8.146l-16.406-72.7a11.034,11.034,0,0,0-9.029-8.273c-14.812-2.55-25.717-3.132-37.386-.9a8.972,8.972,0,0,0-7.407,10.533Z" fill="#605555"/>
        <path id="Trazado_807" data-name="Trazado 807" d="M129.148,279.146l-16.406-72.694a10.636,10.636,0,0,0-4.5-6.461,131.9,131.9,0,0,1-5.036,32.543c-6.238,22.257-16.943,40.6-28.121,50.25a11.581,11.581,0,0,0,11.24,8.118h32.734a10.556,10.556,0,0,0,8.021-3.609,9.318,9.318,0,0,0,2.072-8.147" fill="#514747"/>
        <path id="Trazado_808" data-name="Trazado 808" d="M171.565,317.9c-.631-2.027-3.25-3.48-6.278-3.48h-60.8c3.042,0,5.65,1.453,6.276,3.48s-.893,4.088-3.657,4.934a31.491,31.491,0,0,1-9.209,1.238h60.787a31.516,31.516,0,0,0,9.216-1.238c2.767-.846,4.291-2.906,3.665-4.934" fill="#332929"/>
        <path id="Trazado_809" data-name="Trazado 809" d="M225.915,389.386H152.442l11.484,8.954H237.4Z" fill="#332929"/>
        <path id="Trazado_810" data-name="Trazado 810" d="M165.13,393.794c-3.009-2.542-8.253-4.6-11.7-4.6s-3.812,2.061-.8,4.6,8.249,4.6,11.706,4.6,3.806-2.061.8-4.6" fill="#937d7d"/>
        <path id="Trazado_811" data-name="Trazado 811" d="M137.2,283.656c-7.546-6.638-8.86-84.607-12.18-88.831s-40.031-4.123-44.86,2.818,3.319,78.772,2.112,89.939,1.207,11.768,3.017,13.58l49.8-9.357c1.509-.9,9.658-1.507,2.114-8.149" fill="#c6bd4a"/>
        <path id="Trazado_812" data-name="Trazado 812" d="M84.412,194.825s19.242,7.121,29.395-2.728c-13.4-.665-22.075-.181-29.395,2.728" fill="#fff385"/>
        <path id="Trazado_813" data-name="Trazado 813" d="M129.867,223.008c-7.272,32.728,6.667,60.255,6.667,60.255-3.7-22.39-6.9-37.828-6.667-60.255" fill="#afa337"/>
        <path id="Trazado_814" data-name="Trazado 814" d="M95.726,286.7c-15.366-1.863-1.63-61.909-13.561-62.476-8.447-.4,1.313,52.2.106,63.362s1.207,11.768,3.017,13.58l55.085-11.436c-.2-9.7-42.635-2.786-44.647-3.03" fill="#afa337"/>
        <path id="Trazado_815" data-name="Trazado 815" d="M91.063,219.352S87.1,231.919,80.975,238.287l0,0a16.338,16.338,0,0,0,7.982-8.982,36.474,36.474,0,0,0,2.1-9.951" fill="#afa337"/>
        <path id="Trazado_816" data-name="Trazado 816" d="M117.381,316.556h63.58s12.706-11.722,9.486-15.746-35.241-11.215-40.471-11.618c-3.721-.286-33.213-4.33-39.839,6.037-2.691,4.21,0,19.314,7.244,21.327" fill="#9e4451"/>
        <path id="Trazado_817" data-name="Trazado 817" d="M160.9,300.974c-14.07-3.47-25.849-8.365-31.477-12.689-8.113.4-16.194,2.1-19.287,6.944-2.69,4.21,0,19.314,7.244,21.327h63.581s7.307-6.744,9.432-11.759c-7.307.3-17.941-.975-29.493-3.823" fill="#873243"/>
        <path id="Trazado_818" data-name="Trazado 818" d="M195.7,310.281c-.656-9.011-9.224-13.017-14.245-10.964s-2.464,28.187.13,36.47,28.342,49.707,36.1,57.157l2.475-2.083c-8.62-14.768-23.806-71.569-24.461-80.58" fill="#9e4451"/>
        <path id="Trazado_819" data-name="Trazado 819" d="M179.571,301.9c-5.657,5.253-4.124,19.981.679,35.318,2.594,8.282,29.678,48.276,37.438,55.726l1.416-1.192c-11.657-14.3-45.042-71.416-39.533-89.852" fill="#873243"/>
        <path id="Trazado_820" data-name="Trazado 820" d="M93.236,316.556h63.581s4.827-11.268,1.61-15.292-27.364-11.669-32.6-12.072c-3.72-.286-33.213-4.33-39.838,6.037-2.692,4.212,0,19.314,7.242,21.327" fill="#9e4451"/>
        <path id="Trazado_821" data-name="Trazado 821" d="M132.942,306.03c-20.907-3.829-37.062-11.271-36.081-16.622.007-.04.024-.078.034-.118-4.821,1-8.9,2.813-10.9,5.938-2.692,4.212,0,19.315,7.242,21.327h63.581a41.374,41.374,0,0,0,2.466-8.4,117.432,117.432,0,0,1-26.341-2.12" fill="#873243"/>
        <path id="Trazado_822" data-name="Trazado 822" d="M161.281,310.935c.785-9-7.036-14.316-12.317-13.087s-8.467,28.632-7.224,37.224,21.619,52.384,28.093,60.974l2.774-1.664c-6.16-15.952-12.114-74.446-11.326-83.447" fill="#9e4451"/>
        <path id="Trazado_823" data-name="Trazado 823" d="M145.058,304.084c-5.342,8.32-4.359,27.558-3.876,30.9,1.243,8.589,22.178,52.476,28.651,61.066l2.454-1.473c-8.447-13.375-30.788-78.991-27.229-90.489" fill="#873243"/>
        <path id="Trazado_824" data-name="Trazado 824" d="M62.526,259.423c-6.529-.087-6.8-6.993-6.231-11.021s6.761-41.5,26.265-52.595c0,0,4.337,33.27,1.945,37.451a161.175,161.175,0,0,0-8.578,17.175c-1.89,4.522-5.243,9.1-13.4,8.99" fill="#c6bd4a"/>
        <path id="Trazado_825" data-name="Trazado 825" d="M56.891,255.722a5.688,5.688,0,0,0,5.635,3.7c8.158.112,12.722-2.953,14.613-7.474,8.067-19.294,11.041-19.839,10-33.79-7.021,22.229-23.147,40.269-30.248,37.563" fill="#afa337"/>
        <path id="Trazado_826" data-name="Trazado 826" d="M53.654,250.807l1.212,2.169-4.242,3.072s13.182,16.989,29.546,4.338l3.636-12.65s-16.667-12.111-30.152,3.071" fill="#fff385"/>
        <path id="Trazado_827" data-name="Trazado 827" d="M78.209,244.853a29.068,29.068,0,0,1-10.01,1.489,34.541,34.541,0,0,1-7.973-.848,24.01,24.01,0,0,0-6.573,5.313l1.212,2.169-4.242,3.072s13.183,16.99,29.546,4.338l3.637-12.65a26.654,26.654,0,0,0-5.6-2.883" fill="#ffd371"/>
        <path id="Trazado_828" data-name="Trazado 828" d="M155.222,265.99l-2.259-1.4-3.685,3.955s-17.4-14.646-2.311-29.83l14.052-2.5s11.807,17.686-5.8,29.778" fill="#fff385"/>
        <path id="Trazado_829" data-name="Trazado 829" d="M163.7,242.046a26.933,26.933,0,0,0-2.438,9.845,31.751,31.751,0,0,0,.278,8.022,24.6,24.6,0,0,1-6.316,6.077l-2.257-1.4-3.687,3.955s-17.4-14.645-2.31-29.83l14.051-2.5a26.108,26.108,0,0,1,2.679,5.834" fill="#ffd371"/>
        <path id="Trazado_830" data-name="Trazado 830" d="M121.474,333.181C117.089,293.512,96.6,261.35,75.7,261.35s-34.277,32.162-29.891,71.834,24.876,71.829,45.769,71.829,34.275-32.16,29.892-71.832M89.052,400.693c-18.716,0-37.072-30.229-41-67.509s8.058-67.513,26.775-67.513,37.074,30.225,41,67.51-8.06,67.512-26.779,67.512" fill="#332929"/>
        <path id="Trazado_831" data-name="Trazado 831" d="M118.863,333.181c-4.385-39.669-24.875-71.831-45.772-71.831s-33.1,32.162-28.713,71.834,23.7,71.829,44.593,71.829,34.275-32.16,29.892-71.832M86.444,400.693c-18.719,0-35.9-30.229-39.827-67.509s6.885-67.513,25.6-67.513,37.074,30.225,41,67.51-8.059,67.512-26.776,67.512" fill="#514747"/>
        <path id="Trazado_832" data-name="Trazado 832" d="M79.572,347.212c-3.892,0-7.461-6.281-8.277-14.03s1.43-14.03,5.323-14.03,7.705,6.282,8.519,14.03-1.673,14.03-5.565,14.03" fill="#514747"/>
        <path id="Trazado_833" data-name="Trazado 833" d="M79.368,333.182c-.519-4.7-2.949-8.518-5.427-8.518s-4.064,3.817-3.543,8.518,2.947,8.519,5.424,8.519,4.067-3.817,3.546-8.519" fill="#332929"/>
        <path id="Trazado_834" data-name="Trazado 834" d="M77.283,333.182c-.349-3.155-1.98-5.715-3.642-5.715s-2.727,2.56-2.378,5.715,1.979,5.716,3.64,5.716,2.729-2.56,2.38-5.716" fill="#c6b3b3"/>
        <path id="Trazado_835" data-name="Trazado 835" d="M79.555,247.126C85.6,248.377,124.186,267.108,131.4,269l-.421,2.436c-11.837-2.952-46.309,1.4-51.426,1.252S55.99,259.84,57.335,254.056s16.176-8.175,22.22-6.93" fill="#ffcd9c"/>
        <path id="Trazado_836" data-name="Trazado 836" d="M85.263,266.775c-4.433-.617-17.928-11.868-19.955-18.436-4.034,1.206-7.368,3.119-7.973,5.717-1.345,5.784,17.1,18.489,22.22,18.637s39.589-4.2,51.426-1.252l.288-1.668c-14.377-2.739-41.567-2.382-46.006-3" fill="#ffae85"/>
        <path id="Trazado_837" data-name="Trazado 837" d="M140.8,244.388c-.325-6.1,7.978-47.712,7.975-55.1l2.463-.2c.152,12.076,13.118,44.047,14.273,48.992s-6.434,25.761-12.365,25.9-12.016-13.488-12.346-19.593" fill="#ffcd9c"/>
        <path id="Trazado_838" data-name="Trazado 838" d="M160.745,254.109c-5.9.58-12.985-12.556-13.771-18.62-.607-4.72,1.342-30.656,2.439-45.664l-.636-.536c0,7.386-8.3,49-7.974,55.1s6.415,19.733,12.345,19.593c2.783-.062,5.933-4.682,8.371-10.076a2.874,2.874,0,0,1-.774.2" fill="#ffae85"/>
        <path id="Trazado_839" data-name="Trazado 839" d="M88.391,194.221l1.515-25.455,15.455,2.121L109,192.705s-7.273,4.546-20.606,1.516" fill="#ffcd9c"/>
        <path id="Trazado_840" data-name="Trazado 840" d="M231.578,385.005s-5.484,8.677-13.3,9.869c0,0-3.449-3.783-2.117-5.68s15.416-4.189,15.416-4.189" fill="#efe4cb"/>
        <path id="Trazado_841" data-name="Trazado 841" d="M184.37,390.874s-7.211,7.306-15.1,6.8c0,0-2.561-4.432-.855-6s15.954-.8,15.954-.8" fill="#efe4cb"/>
        <path id="Trazado_842" data-name="Trazado 842" d="M89.255,233.027l13.945-.475-.238,3.321L96.1,238.006l-6.737-2.014Z" fill="#afa337"/>
        <path id="Trazado_843" data-name="Trazado 843" d="M90.082,232.244l13.029-.473-.222,3.319-6.408,2.135-6.294-2.015Z" fill="#fff385"/>
        <g id="Grupo_230" data-name="Grupo 230" opacity="0.5" style="mix-blend-mode: multiply;isolation: isolate">
          <g id="Grupo_229" data-name="Grupo 229">
            <g id="Grupo_228" data-name="Grupo 228" clip-path="url(#clip-path-4)">
              <path id="Trazado_844" data-name="Trazado 844" d="M120.9,193.093a51.708,51.708,0,0,0-7.187-.909c.031-.031.064-.056.1-.086-1.724-.085-3.368-.151-4.943-.2l-2.38-14.274A44.044,44.044,0,0,0,89.7,172.292l-1.264,21.217a35.341,35.341,0,0,0-4.02,1.316s.051.019.128.045a11.738,11.738,0,0,0-3.591,1.94,29.76,29.76,0,0,0-3.03,2.339,43.5,43.5,0,0,0,26.493,9.768c12.385,0,19.225-6.883,16.486-15.824" fill="#bc5642"/>
            </g>
          </g>
        </g>
        <path id="Trazado_845" data-name="Trazado 845" d="M90.218,162.234s2.615,19.313,5.231,21.527,21.067,6.06,24.488,4.853,5.493-48.714-4.165-60.184-29.375,1.811-30.18,8.451,4.225,17.707,4.626,25.353" fill="#ffcd9c"/>
        <path id="Trazado_846" data-name="Trazado 846" d="M97.443,173.461s-1.212-55.607-12.425-43.789,3.788,34.7,3.788,34.7l4.243,10Z" fill="#ff8f43"/>
        <path id="Trazado_847" data-name="Trazado 847" d="M93.641,176.116c-5.623-.8-16.7-5.635-14.488-12.475s10.865.6,12.676,4.026,4.627,8.851,1.812,8.449" fill="#ffcd9c"/>
        <path id="Trazado_848" data-name="Trazado 848" d="M91.56,173.688c-3.273-.468-9.72-3.28-8.434-7.26s6.326.349,7.38,2.341,2.693,5.153,1.054,4.919" fill="#ef8f6f"/>
        <path id="Trazado_849" data-name="Trazado 849" d="M92.556,174.188c-1.965-.282-5.837-1.971-5.063-4.361s3.8.211,4.431,1.407,1.617,3.093.632,2.954" fill="#ffcd9c"/>
        <path id="Trazado_850" data-name="Trazado 850" d="M107.231,152.582c-.031-1.875-1.024-3.421-2.212-3.472s-2.13,1.407-2.124,3.277c.005,1.9.988,3.5,2.2,3.557s2.172-1.454,2.139-3.362" fill="#5e3d38"/>
        <path id="Trazado_851" data-name="Trazado 851" d="M120.424,152.637c-.244-1.752-1.235-3.133-2.219-3.115s-1.587,1.435-1.367,3.179c.224,1.766,1.22,3.2,2.222,3.184s1.611-1.484,1.364-3.248" fill="#5e3d38"/>
        <path id="Trazado_852" data-name="Trazado 852" d="M113.117,148.629c.556.781,10.089,17.6,9.649,18.085s-8.495-.329-8.495-.329Z" fill="#ffcd9c"/>
        <path id="Trazado_853" data-name="Trazado 853" d="M113.5,148.916l-.033,1.034c2.074,4.2,9.081,16.037,8.72,16.429-.351.376-5.218-.027-7.456-.238l-.017.69s8.937,1.545,9.377,1.031S114.053,149.7,113.5,148.916" fill="#ef8f6f"/>
        <path id="Trazado_854" data-name="Trazado 854" d="M109.427,146.342c-.213.256-9.057,3.425-9.8,2.761s-2.7-1.694-1.533-3.5,8.449-4.929,9.689-4.231,2.258,4.226,1.642,4.972" fill="#ffb14a"/>
        <path id="Trazado_855" data-name="Trazado 855" d="M114.783,145.572c.147.272,6.929,4.029,7.551,3.381s2.24-1.612,1.381-3.564c-.847-1.916-6.445-5.46-7.44-4.8s-1.932,4.189-1.492,4.983" fill="#ffb14a"/>
        <path id="Trazado_856" data-name="Trazado 856" d="M106.216,174.678l-.227-.275c3.039-2.495,9.462-4.814,13.637-2.661l-.555,1.078c-3.657-1.882-10.145-.367-12.855,1.858" fill="#ef8f6f"/>
        <path id="Trazado_857" data-name="Trazado 857" d="M115.525,174.571c0-.446-.95-.807-2.122-.807s-2.121.361-2.121.807.949.809,2.121.809,2.122-.362,2.122-.809" fill="#ef8f6f"/>
        <path id="Trazado_858" data-name="Trazado 858" d="M150.463,181.127c1.071,2.412,2.143,4.759,1.076,11.963l-2.01-.175c-1.1-3.4-4.57-7.844-4.276-9.112.109-.424,4.852-3.5,5.21-2.676" fill="#ffcd9c"/>
        <path id="Trazado_859" data-name="Trazado 859" d="M145.7,185.2c-.535-1.125-3.513-4.588-2.939-4.982.886-.618,3.008,2.44,3.967,3.638,1.255,1.56-1.028,1.344-1.028,1.344" fill="#ffcd9c"/>
        <path id="Trazado_860" data-name="Trazado 860" d="M149.2,182.271c-.291-1.189-2.211-5.793-1.581-6.114,1.111-.558,2.936,4.407,3.137,5.66.3,1.9-1.556.454-1.556.454" fill="#ffcd9c"/>
        <path id="Trazado_861" data-name="Trazado 861" d="M149.5,185.521c2.494-.069,2.806-5.017,4.007-5.665,1.668-.906-.492,6.2-1.153,8.241-.649,2.008-2.854-2.576-2.854-2.576" fill="#ffcd9c"/>
        <path id="Trazado_862" data-name="Trazado 862" d="M147.208,183.078c-.489-1.132-2.988-5.8-2.406-6.188.912-.617,3.247,4.124,3.855,5.257.894,1.721-1.449.931-1.449.931" fill="#ffcd9c"/>
        <path id="Trazado_863" data-name="Trazado 863" d="M135.072,271.28c-1.912-1.68-3.761-3.338-10.888-4.807l-.5,1.727c2.831,2.027,5.852,6.364,7.141,6.536.437.047,4.907-2.888,4.252-3.456" fill="#ffcd9c"/>
        <path id="Trazado_864" data-name="Trazado 864" d="M129.658,273.906c.878.812,3.144,4.42,3.705,4.073.875-.536-1.293-3.3-2.1-4.489-1.046-1.553-1.6.416-1.6.416" fill="#ffcd9c"/>
        <path id="Trazado_865" data-name="Trazado 865" d="M133.572,271.96c1.023.632,4.71,3.733,5.221,3.315.894-.74-3.164-3.881-4.275-4.459-1.687-.876-.946,1.144-.946,1.144" fill="#ffcd9c"/>
        <path id="Trazado_866" data-name="Trazado 866" d="M130.62,270.643c.9-2.05,5.649-.69,6.659-1.478,1.407-1.088-6-1.619-8.131-1.737-2.1-.117,1.472,3.215,1.472,3.215" fill="#ffcd9c"/>
        <path id="Trazado_867" data-name="Trazado 867" d="M132.154,273.347c.9.777,4.459,4.382,5.015,4.025.882-.557-2.8-4.046-3.66-4.923-1.32-1.308-1.355.9-1.355.9" fill="#ffcd9c"/>
        <path id="Trazado_868" data-name="Trazado 868" d="M284.868,179.545c1.01-5.758-1.512-5.758-2.269-1.984-4.591,22.9,2.522,53.423,7.061,62.953l.756-.792c-9.833-33.563-6.558-54.418-5.548-60.177" fill="#ffe3b6"/>
        <path id="Trazado_869" data-name="Trazado 869" d="M206.175,190.63c-1.71-5.644.89-5.864,2.106-2.176,7.4,22.38,3.623,53.38.053,63.262l-.873-.724c6.231-34.258.422-54.722-1.286-60.362" fill="#ffe3b6"/>
        <path id="Trazado_870" data-name="Trazado 870" d="M268.294,123.277c3.908,1.6,12.87-19.837,10.075-24.012-1.3-1.935-5.244-1.122-8.684-1.619-3.9-.564-7.376-2.2-9.166-.576-3.368,3.064,3.9,24.623,7.775,26.207" fill="#ce9163"/>
        <path id="Trazado_871" data-name="Trazado 871" d="M222.738,128c-4.968,1.858-16.292-20.479-13.545-24.507,1.417-2.083,5.979-1.523,9.906-2.237,5.209-.948,9.046-3.477,11.352-1.615,4.046,3.265-2.78,26.515-7.713,28.359" fill="#ce9163"/>
        <path id="Trazado_872" data-name="Trazado 872" d="M239.07,162.447s-19.342,10.32-21.108,5.019c-.444-1.328,20.586-6.236,20.586-6.236Z" fill="#f2c5a0"/>
        <path id="Trazado_873" data-name="Trazado 873" d="M239.809,153.442s-22.723,11.132-24.8,5.9c-.522-1.308,24.185-7.1,24.185-7.1Z" fill="#f2c5a0"/>
        <path id="Trazado_874" data-name="Trazado 874" d="M241.284,145.471s-26.238,10.726-28.635,5.463c-.6-1.318,27.927-6.669,27.927-6.669Z" fill="#f2c5a0"/>
        <path id="Trazado_875" data-name="Trazado 875" d="M241.052,138.152s-28.324,7.694-30.911,2.153c-.649-1.387,30.146-3.44,30.146-3.44Z" fill="#f2c5a0"/>
        <path id="Trazado_876" data-name="Trazado 876" d="M243.329,129.968s-32.386,4.3-35.344-1.548c-.742-1.465,34.47.169,34.47.169Z" fill="#f2c5a0"/>
        <path id="Trazado_877" data-name="Trazado 877" d="M245.1,123.474s-31.576.109-34.459-6.124c-.724-1.561,33.606,4.63,33.606,4.63Z" fill="#f2c5a0"/>
        <path id="Trazado_878" data-name="Trazado 878" d="M246.431,119.045s-28.33-2.865-30.918-9.369c-.649-1.631,30.153,7.8,30.153,7.8Z" fill="#f2c5a0"/>
        <path id="Trazado_879" data-name="Trazado 879" d="M244.053,162.13s24.336,10.85,26.524,5.5c.551-1.339-25.873-6.724-25.873-6.724Z" fill="#f2c5a0"/>
        <path id="Trazado_880" data-name="Trazado 880" d="M243.946,151.724s26.926,12.851,29.354,7.709c.608-1.288-28.633-8.871-28.633-8.871Z" fill="#f2c5a0"/>
        <path id="Trazado_881" data-name="Trazado 881" d="M243.451,143.709s29.358,12.4,32.009,7.241c.664-1.294-31.222-8.406-31.222-8.406Z" fill="#f2c5a0"/>
        <path id="Trazado_882" data-name="Trazado 882" d="M243.956,136.824s30.987,8.9,33.784,3.439c.7-1.366-32.953-4.7-32.953-4.7Z" fill="#f2c5a0"/>
        <path id="Trazado_883" data-name="Trazado 883" d="M246.858,129.825s30.1,4.381,32.819-1.469c.68-1.464-32.011.1-32.011.1Z" fill="#f2c5a0"/>
        <path id="Trazado_884" data-name="Trazado 884" d="M245.219,123.355s29.268.161,31.911-6.049c.663-1.554-31.125,4.569-31.125,4.569Z" fill="#f2c5a0"/>
        <path id="Trazado_885" data-name="Trazado 885" d="M243.992,118.956s26.2-2.822,28.571-9.282c.6-1.617-27.868,7.72-27.868,7.72Z" fill="#f2c5a0"/>
        <path id="Trazado_886" data-name="Trazado 886" d="M256.56,54.009l-7.77,2.426s3.19,13.586,5.132,14.555,5.83-4.043,5.83-4.043-3.608-7.277-3.192-12.938" fill="#ce9163"/>
        <path id="Trazado_887" data-name="Trazado 887" d="M216.632,46.569c.67,12.472,13.58,18.6,21.879,18.444,4.749-.088,19.64-8.337,19.64-8.337S215.963,34.1,216.632,46.569" fill="#ce9163"/>
        <path id="Trazado_888" data-name="Trazado 888" d="M223.763,304.561c.86-3.447,3.445-10.342,3.445-10.342s-4.236-3.4-6.392,5.651,16.3,69.326,18.027,90.867l2.154.433s-18.1-83.163-17.234-86.609" fill="#ffe3b6"/>
        <path id="Trazado_889" data-name="Trazado 889" d="M225.488,293.787s9.485,18.719,12.931,30.73,4.73,66.542,4.73,66.542L241,391.17s-2.811-52.519-7.54-64.2-10.366-34.694-7.969-33.18" fill="#fff1d9"/>
        <path id="Trazado_890" data-name="Trazado 890" d="M233.811,327.934a16.171,16.171,0,0,1,3.776-6.093c-3.926-11.92-12.1-28.053-12.1-28.053-2.4-1.514,3.238,21.492,7.969,33.179.119.294.236.622.354.967" fill="#ffe3b6"/>
        <path id="Trazado_891" data-name="Trazado 891" d="M221.824,300.682c-1.509-2.8-5.6-8.4-2.8-10.772s4.741,0,4.741,0,2.37-4.525,5.169-2.585-1.508,9.695-1.508,9.695Z" fill="#fff1d9"/>
        <path id="Trazado_892" data-name="Trazado 892" d="M240.349,395.907c4.527.646,7.76.864,7.975-1.293s-6.68-6.03-6.68-6.03Z" fill="#fff1d9"/>
        <path id="Trazado_893" data-name="Trazado 893" d="M240.6,395.95a32.12,32.12,0,0,1-19.008,2.111s-1.15-2.779,3.456-2.656,13.826-7.606,16.13-6.145,1.726,6.211-.578,6.69" fill="#fff1d9"/>
        <path id="Trazado_894" data-name="Trazado 894" d="M276.32,301.56c-1.173-3.55-4.379-10.646-4.379-10.646s3.932-3.5,6.9,5.816-10.071,71.35-9.857,93.52l-2.116.444s10.62-85.589,9.452-89.134" fill="#ffe3b6"/>
        <path id="Trazado_895" data-name="Trazado 895" d="M273.625,290.471s-7.8,19.267-10.171,31.627,1.252,68.485,1.252,68.485l2.161.111s-1.911-54.049,1.769-66.076,7.249-35.705,4.989-34.147" fill="#fff1d9"/>
        <path id="Trazado_896" data-name="Trazado 896" d="M268.892,323.761c3.589-12.258,6.942-34.813,4.733-33.29,0,0-7.8,19.267-10.17,31.627-.767,4.01-.906,12.625-.74,22.437,1.3-10.706,3.538-18.484,6.177-20.774" fill="#ffe3b6"/>
        <path id="Trazado_897" data-name="Trazado 897" d="M277.906,297.566c1.26-2.883,4.847-8.645,1.835-11.086s-4.742,0-4.742,0-2.776-4.659-5.4-2.66,2.378,9.976,2.378,9.976Z" fill="#fff1d9"/>
        <path id="Trazado_898" data-name="Trazado 898" d="M267.942,395.572c-4.465.664-7.68.886-8.09-1.331s6.138-6.207,6.138-6.207Z" fill="#fff1d9"/>
        <path id="Trazado_899" data-name="Trazado 899" d="M267.7,395.616a32.525,32.525,0,0,0,19.2,2.171s.9-2.859-3.7-2.733-14.509-7.828-16.682-6.324-1.167,6.393,1.179,6.886" fill="#fff1d9"/>
        <path id="Trazado_900" data-name="Trazado 900" d="M218.809,198.777c4.307-3.018,18.742,3.662,26.928,3.662s17.237-8.4,24.346-6.032l-15.728,32.53-13.572.432Z" fill="#ffe3b6"/>
        <path id="Trazado_901" data-name="Trazado 901" d="M261.813,197.14c-2.2,8.463-8.818,14.611-16.641,14.611-7.214,0-13.4-5.23-16.048-12.685-4.482-1.052-8.4-1.63-10.315-.288l21.974,30.591,13.572-.431,15.729-32.53c-2.55-.85-5.352-.306-8.271.732" fill="#fff1d9"/>
        <path id="Trazado_902" data-name="Trazado 902" d="M262.108,198.763c-2.2,8.463-8.819,14.613-16.64,14.613-7.215,0-13.4-5.231-16.049-12.686-4.48-1.054-8.4-1.63-10.316-.29l21.976,30.593,13.572-.43,15.728-32.529c-2.55-.851-5.352-.308-8.271.729" fill="#f2c5a0"/>
        <path id="Trazado_903" data-name="Trazado 903" d="M233.914,226.1c-5.294-3.9-18.336-19.788-17.261-24.958s9.479-5.17,15.943,2.37,12.065,24.562,9.48,26.286-4.069-.681-8.162-3.7" fill="#fff1d9"/>
        <path id="Trazado_904" data-name="Trazado 904" d="M238.327,212.929a13.906,13.906,0,0,1-11.02,6.65,48.165,48.165,0,0,0,6.607,6.525c4.093,3.016,5.576,5.421,8.162,3.7,1.753-1.169-.259-9.365-3.749-16.873" fill="#ffe3b6"/>
        <path id="Trazado_905" data-name="Trazado 905" d="M233.127,227.284c-5.295-3.9-18.337-19.787-17.262-24.959s9.482-5.168,15.945,2.371,12.066,24.564,9.481,26.287-4.07-.682-8.164-3.7" fill="#f2c5a0"/>
        <path id="Trazado_906" data-name="Trazado 906" d="M260.184,225.543c4.729-4.674,15.423-22.388,13.554-27.332s-10.309-3.648-15.659,4.8-8.393,26.138-5.535,27.443,3.985-1.3,7.64-4.913" fill="#fff1d9"/>
        <path id="Trazado_907" data-name="Trazado 907" d="M261.8,213.229a26.6,26.6,0,0,1-7.724-1.109c-2.622,8.263-3.562,17.414-1.535,18.337,2.859,1.3,3.985-1.3,7.64-4.914,2.337-2.309,6.128-7.8,9.143-13.366a26.754,26.754,0,0,1-7.524,1.052" fill="#ffe3b6"/>
        <path id="Trazado_908" data-name="Trazado 908" d="M260.548,225.922c4.187-3.862,14.747-19.622,13.38-24.24-1.4-4.755-9.421-3.187-14.609,4.958-4.877,7.664-7.553,22.233-5.212,23.222s3.307-1.043,6.441-3.94" fill="#f2c5a0"/>
        <path id="Trazado_909" data-name="Trazado 909" d="M239.052,202.39l1-10.925,9.561-1.7,4.543,12.439s-9.07,1.945-15.108.184" fill="#f2c5a0"/>
        <path id="Trazado_910" data-name="Trazado 910" d="M239.785,189.673l.094-9.249,7.521-.94,1.979,8.9a16.185,16.185,0,0,1-9.594,1.288" fill="#f2c5a0"/>
        <path id="Trazado_911" data-name="Trazado 911" d="M238.974,177.878l.679-7.032,6.03-1.126L247.1,177.4s-4.3,1.579-8.127.475" fill="#f2c5a0"/>
        <path id="Trazado_912" data-name="Trazado 912" d="M237.953,168.752l.594-7.521,6.468-.856,1.524,8.2a17.02,17.02,0,0,1-8.586.176" fill="#f2c5a0"/>
        <path id="Trazado_913" data-name="Trazado 913" d="M238.1,158.949l.8-7.711,6.124-1.12.239,8.684a9.973,9.973,0,0,1-7.159.147" fill="#f2c5a0"/>
        <path id="Trazado_914" data-name="Trazado 914" d="M238.945,148.717l1.01-6.943,4.571-.961.5,7.629s-3.312,1.459-6.084.275" fill="#f2c5a0"/>
        <path id="Trazado_915" data-name="Trazado 915" d="M239.887,139.16l1.433-6.644,3.979-.5-.194,7.448s-2.945,1.109-5.218-.3" fill="#f2c5a0"/>
        <path id="Trazado_916" data-name="Trazado 916" d="M246.2,130.271l-.162-5.262-3.356-.735-.825,5.827a6.043,6.043,0,0,0,4.343.17" fill="#f2c5a0"/>
        <path id="Trazado_917" data-name="Trazado 917" d="M247.065,123.305,247,116.971l-3.829-.564-.96,6.978a6.9,6.9,0,0,0,4.854-.08" fill="#f2c5a0"/>
        <path id="Trazado_918" data-name="Trazado 918" d="M247.361,114.9l-.172-7.4-3.878-.91L243.045,115a4.155,4.155,0,0,0,4.316-.1" fill="#f2c5a0"/>
        <path id="Trazado_919" data-name="Trazado 919" d="M247.265,104.9l-.234-8.672-3.233.114-.469,8.511a3.646,3.646,0,0,0,3.936.047" fill="#f2c5a0"/>
        <path id="Trazado_920" data-name="Trazado 920" d="M247.055,94.141l-.725-8.43-2.806-.614.022,9.465a2.735,2.735,0,0,0,3.509-.421" fill="#f2c5a0"/>
        <path id="Trazado_921" data-name="Trazado 921" d="M246.732,82.668l-.726-8.431-2.8-.613.019,9.465a2.738,2.738,0,0,0,3.511-.421" fill="#f2c5a0"/>
        <path id="Trazado_922" data-name="Trazado 922" d="M208.587,104.716a1.884,1.884,0,0,0,2.117,1.473,1.7,1.7,0,0,0,1.526-1.947,1.878,1.878,0,0,0-2.116-1.47,1.7,1.7,0,0,0-1.527,1.944" fill="#fff1d9"/>
        <path id="Trazado_923" data-name="Trazado 923" d="M276.116,94.719A1.723,1.723,0,1,0,277.84,93a1.722,1.722,0,0,0-1.724,1.724" fill="#fff1d9"/>
        <path id="Trazado_924" data-name="Trazado 924" d="M219.076,168.239c4.341-.436,13.25-4.849,17.289-8.727,0,0-15.352,4.2-17.774,5.818s-1.131,3.07.485,2.909" fill="#fff1d9"/>
        <path id="Trazado_925" data-name="Trazado 925" d="M217.486,160.411c5.553-.983,16.944-6.527,22.111-10.917,0,0-19.632,6.149-22.732,8.071s-1.444,3.213.621,2.846" fill="#fff1d9"/>
        <path id="Trazado_926" data-name="Trazado 926" d="M215.286,151.587c6.47-.838,19.746-6.08,25.766-10.333,0,0-22.878,5.629-26.491,7.47s-1.683,3.174.725,2.863" fill="#fff1d9"/>
        <path id="Trazado_927" data-name="Trazado 927" d="M213.944,140.99c8.267-1.058,25.229-6.749,32.926-11.209,0,0-29.237,6.406-33.853,8.37s-2.153,3.235.927,2.839" fill="#fff1d9"/>
        <path id="Trazado_928" data-name="Trazado 928" d="M211.474,129.716c8.518.267,26.466-2.684,34.85-5.882,0,0-30.473,1.707-35.412,2.922s-2.609,2.861.562,2.96" fill="#fff1d9"/>
        <path id="Trazado_929" data-name="Trazado 929" d="M212.957,118.82c6.815,1.922,22.157,2.621,29.842,1.2,0,0-25.123-4.338-29.455-4.144s-2.921,2.225-.387,2.941" fill="#fff1d9"/>
        <path id="Trazado_930" data-name="Trazado 930" d="M217.717,110.743c5.886,2.325,19.6,3.981,26.694,3.072,0,0-22.049-5.867-25.973-5.95s-2.909,2.011-.721,2.878" fill="#fff1d9"/>
        <path id="Trazado_931" data-name="Trazado 931" d="M269.81,168.239c-3.718-.436-11.349-4.849-14.807-8.727,0,0,13.146,4.2,15.222,5.818s.968,3.07-.415,2.909" fill="#fff1d9"/>
        <path id="Trazado_932" data-name="Trazado 932" d="M271.172,160.411c-4.756-.983-14.513-6.527-18.937-10.917,0,0,16.815,6.149,19.47,8.071s1.236,3.213-.533,2.846" fill="#fff1d9"/>
        <path id="Trazado_933" data-name="Trazado 933" d="M273.055,151.587c-5.54-.838-16.911-6.08-22.065-10.333,0,0,19.591,5.629,22.684,7.47s1.444,3.174-.619,2.863" fill="#fff1d9"/>
        <path id="Trazado_934" data-name="Trazado 934" d="M274.2,140.99c-7.08-1.058-21.609-6.749-28.2-11.209,0,0,25.04,6.406,28.99,8.37s1.844,3.234-.792,2.839" fill="#fff1d9"/>
        <path id="Trazado_935" data-name="Trazado 935" d="M276.321,129.716c-7.3.267-22.665-2.684-29.845-5.882,0,0,26.1,1.707,30.326,2.922s2.233,2.861-.481,2.96" fill="#fff1d9"/>
        <path id="Trazado_936" data-name="Trazado 936" d="M275.047,118.82c-5.835,1.922-18.974,2.621-25.553,1.2,0,0,21.514-4.338,25.226-4.144s2.5,2.225.327,2.941" fill="#fff1d9"/>
        <path id="Trazado_937" data-name="Trazado 937" d="M270.974,110.743c-5.04,2.325-16.786,3.981-22.861,3.072,0,0,18.882-5.867,22.242-5.95s2.493,2.011.619,2.878" fill="#fff1d9"/>
        <path id="Trazado_938" data-name="Trazado 938" d="M213.1,107.969a4.689,4.689,0,1,0-4.687,4.522,4.609,4.609,0,0,0,4.687-4.522" fill="#fff1d9"/>
        <path id="Trazado_939" data-name="Trazado 939" d="M283.871,101.342a4.689,4.689,0,1,0-4.687,4.524,4.607,4.607,0,0,0,4.687-4.524" fill="#fff1d9"/>
        <path id="Trazado_940" data-name="Trazado 940" d="M281.732,175.719c6.03,7.774,7.194,26.22,6.92,32.823-.1,2.39.253,40.711,3.492,36.391,1.972-2.634-2.5-16.522-1.393-46.655.376-10.319,2.183-22.687-1.5-24.679s-9.763-.78-7.517,2.12" fill="#fff1d9"/>
        <path id="Trazado_941" data-name="Trazado 941" d="M282.845,177.363c3.012,2.61,5.9,7.267,8.324,13.335.507-8.058.883-15.584-1.921-17.1-3.676-1.991-9.762-.78-7.516,2.12a16.632,16.632,0,0,1,1.113,1.645" fill="#ffe3b6"/>
        <path id="Trazado_942" data-name="Trazado 942" d="M208.964,186.544c-5.312,8.267-4.361,26.721-3.312,33.269.381,2.372,4.48,40.534.636,36.516-2.34-2.444.651-16.657-3.994-46.544-1.59-10.236-4.9-22.387-1.328-24.69s9.977-1.633,8,1.449" fill="#fff1d9"/>
        <path id="Trazado_943" data-name="Trazado 943" d="M209.325,185.545c.117-2.2-5.224-2.48-8.359-.45-3.333,2.153-.665,12.9,1,22.659,1.451-12.149,4.173-20.759,7.363-22.209" fill="#ffe3b6"/>
        <path id="Trazado_944" data-name="Trazado 944" d="M263.757,62.419s-20.139,4.746-20.866,2.158S238.9,52.5,238.9,52.5l-9.307.647c1.27,10.137,5.5,21.994,8.22,22.856,1.327.422,5.861-2.565,11.295-3.159,5.7-.621,12.331,1.1,14.677-.388,2.034-1.294-.936-6.8-.027-10.038m-24.465,8.063c-1.772.813-4.091-8.052-4.091-8.052-.339-1.762,1.507-1.616,2.539-1.1s3.322,8.34,1.552,9.151" fill="#fff1d9"/>
        <path id="Trazado_945" data-name="Trazado 945" d="M242.914,60.047l23.062-2.52s-.708-5.367,0-6.687,3.7-.144,4.049-.8-2.2-5.955-.265-9.482,2.939-20.4-11.373-28.9-36.9-3.536-41.789,10.013c-4.025,11.159-1.512,30.9,6.3,36.606,16.592-9.274,18.674-4.1,20.016,1.777" fill="#fff1d9"/>
        <path id="Trazado_946" data-name="Trazado 946" d="M242.983,28.916s7.882,4.457,13.1-2.4L255.859,41.4s-4.492-5.288-8.848,1.651c-2.657-2.806-4.028-14.132-4.028-14.132" fill="#ffe3bb"/>
        <path id="Trazado_947" data-name="Trazado 947" d="M247.84,36.321c-.652-6.2-4.619-11.219-8.859-11.219s-7.15,5.023-6.5,11.219S237.1,47.54,241.342,47.54s7.15-5.022,6.5-11.219" fill="#af644a"/>
        <path id="Trazado_948" data-name="Trazado 948" d="M269.187,33.955c0-6.073-3.437-11-7.679-11s-7.676,4.925-7.676,11,3.436,11,7.676,11,7.679-4.923,7.679-11" fill="#af644a"/>
        <path id="Trazado_949" data-name="Trazado 949" d="M251.461,52.71h5s-.361-12.186-3.518-11.435-1.478,11.435-1.478,11.435" fill="#ce9163"/>
        <path id="Trazado_950" data-name="Trazado 950" d="M250.24,62.965l-2.4.337.4,2.129,2.394-.339Z" fill="#fff1d9"/>
        <path id="Trazado_951" data-name="Trazado 951" d="M254.078,62.57l-2.4.339.4,2.13,2.392-.341Z" fill="#fff1d9"/>
        <path id="Trazado_952" data-name="Trazado 952" d="M257.719,62.079l-2.394.337.4,2.129,2.4-.339Z" fill="#fff1d9"/>
        <path id="Trazado_953" data-name="Trazado 953" d="M262.444,61.292l-2.4.337.4,2.128,2.394-.338Z" fill="#fff1d9"/>
        <path id="Trazado_954" data-name="Trazado 954" d="M265,56.862l-2.4.337.4,2.13,2.394-.339Z" fill="#fff1d9"/>
        <path id="Trazado_955" data-name="Trazado 955" d="M261.461,57.157l-2.4.338.4,2.129,2.394-.338Z" fill="#fff1d9"/>
        <path id="Trazado_956" data-name="Trazado 956" d="M257.523,57.747l-2.394.339.4,2.129,2.393-.339Z" fill="#fff1d9"/>
        <path id="Trazado_957" data-name="Trazado 957" d="M253.193,58.338l-2.4.339.4,2.128,2.393-.339Z" fill="#fff1d9"/>
        <path id="Trazado_958" data-name="Trazado 958" d="M248.665,58.633l-2.393.338.4,2.13,2.393-.339Z" fill="#fff1d9"/>
        <path id="Trazado_959" data-name="Trazado 959" d="M220.787,56.248s7.655-5.693,7.8-8.793.148-25.242-8.267-23.766-5.883,27.54.465,32.559" fill="#f2c5a0"/>
        <path id="Trazado_960" data-name="Trazado 960" d="M236.618,31.3c4.24,0,8.206,5.023,8.858,11.22a15.446,15.446,0,0,1,.029,3.012c1.783-2.025,2.737-5.393,2.335-9.212-.653-6.2-4.619-11.219-8.86-11.219-3.526,0-6.123,3.474-6.527,8.206a5.49,5.49,0,0,1,4.165-2.007" fill="#ce9163"/>
        <path id="Trazado_961" data-name="Trazado 961" d="M261.508,22.957c-2.928,0-5.473,2.353-6.768,5.81a5.875,5.875,0,0,1,3.523-1.233c4.238,0,7.677,4.924,7.677,11a14.809,14.809,0,0,1-.91,5.189c2.468-1.829,4.157-5.511,4.157-9.766,0-6.073-3.437-11-7.679-11" fill="#ce9163"/>
        <path id="Trazado_962" data-name="Trazado 962" d="M254.714,52.71h1.743s-.361-12.186-3.518-11.435a2.041,2.041,0,0,0-1.315,1.355c2.21.17,2.9,7.073,3.09,10.08" fill="#f2c5a0"/>
        <path id="Trazado_963" data-name="Trazado 963" d="M253.216,53.286l1.317-2.175.653,2.175Z" fill="#fff1d9"/>
        <path id="Trazado_964" data-name="Trazado 964" d="M242.914,60.047s.979-7.13-.793-7.916-4.43,4.034-4.43,4.034l-7.217,2.225a10.05,10.05,0,0,0,1.551,6.188c1.856-5.518,4.62-6.2,9.923-3.616Z" fill="#f2c5a0"/>
        <path id="Trazado_965" data-name="Trazado 965" d="M274.665,287.588c2.46.127.838-6.231-1.04-22.776s4.021-50.9,1.521-54.65-5.06-2.867-5.816,0,1.046,30.795.377,42.266.643,34.94,4.958,35.16" fill="#fff1d9"/>
        <path id="Trazado_966" data-name="Trazado 966" d="M274.487,234.267c.974-11.791,1.968-22.143.66-24.1-2.505-3.751-5.06-2.868-5.816,0-.555,2.084.25,17.417.472,30.042,1.349-3.4,2.952-5.534,4.684-5.938" fill="#ffe3b6"/>
        <path id="Trazado_967" data-name="Trazado 967" d="M266.476,216.871s3.771,2.332,5.659-.461l.012,5.489c-1.864-2.06-4.484-2.032-5.735-.939Z" fill="#ffe3b6"/>
        <path id="Trazado_968" data-name="Trazado 968" d="M261.435,218.734c-.118-2.155,1.2-3.9,2.936-3.9s3.249,1.744,3.367,3.9-1.2,3.9-2.935,3.9-3.248-1.745-3.368-3.9" fill="#ffe3b6"/>
        <path id="Trazado_969" data-name="Trazado 969" d="M243.7,228.382s.49-5.019,2.657-5.412,4.231,2.754,4.33,5.018c-4.33,1.4-6.987.394-6.987.394" fill="#ce9163"/>
        <path id="Trazado_970" data-name="Trazado 970" d="M224.193,290.986c-2.45.123-1.182-6.071-.214-22.191s-6.837-49.59-4.541-53.244,4.9-2.793,5.817,0,.651,30.005,1.954,41.18,1.29,34.041-3.016,34.255" fill="#fff1d9"/>
        <path id="Trazado_971" data-name="Trazado 971" d="M222.464,232.712a5.019,5.019,0,0,1,3.667,2.009c-.235-9.242-.39-17.678-.877-19.169-.918-2.793-3.521-3.653-5.816,0-1,1.58-.1,8.747,1.163,17.671a3.864,3.864,0,0,1,1.863-.511" fill="#ffe3b6"/>
        <path id="Trazado_972" data-name="Trazado 972" d="M228.476,222.091s-3.645,2.27-5.684-.449l.291,5.347a4.242,4.242,0,0,1,5.684-.914Z" fill="#ffe3b6"/>
        <path id="Trazado_973" data-name="Trazado 973" d="M233.619,223.9c0-2.1-1.411-3.8-3.151-3.8s-3.15,1.7-3.15,3.8,1.41,3.8,3.15,3.8,3.151-1.7,3.151-3.8" fill="#ffe3b6"/>
        <path id="Trazado_974" data-name="Trazado 974" d="M199.779,181.828c4.85-8.275,2.482-32,1.768-38.66-1.208-11.312-6.295-32.082-3.209-33.111a6.248,6.248,0,0,1,6.863,2.057c1.711,2.676-2.075,15.836,1.054,46.271,1.073,10.422,3.57,22.826.415,25.089s-8.7,1.44-6.891-1.646" fill="#fff1d9"/>
        <path id="Trazado_975" data-name="Trazado 975" d="M202.915,112.634c1.8,2.616-1.537,15.9,2.629,46.2.975,7.1,2.645,15.1,2.622,20.206.286-5.079-1.158-13.348-1.911-20.659-3.129-30.435.657-43.595-1.054-46.271a6.246,6.246,0,0,0-6.863-2.056.914.914,0,0,0-.469.4,6.162,6.162,0,0,1,5.046,2.18" fill="#ffe3b6"/>
        <path id="Trazado_976" data-name="Trazado 976" d="M199.867,182.487a19.531,19.531,0,0,0,1.827-6.2,18.584,18.584,0,0,1-1.915,5.54,1.789,1.789,0,0,0-.221,1.679,2.369,2.369,0,0,1,.309-1.02" fill="#ffe3b6"/>
        <path id="Trazado_977" data-name="Trazado 977" d="M291.279,171.5c-5.97-7.806-5.018-31.282-4.7-37.88.543-11.2,4.722-31.96,1.223-32.763s-6.58,1.052-7.474,2.489c-1.708,2.746,3.425,15.424,2.1,45.55-.456,10.319-2.354,22.681,1.312,24.688s9.758.823,7.535-2.084" fill="#fff1d9"/>
        <path id="Trazado_978" data-name="Trazado 978" d="M283.886,149.393c2.182-30.077-2.59-42.9-.8-45.592a7.1,7.1,0,0,1,5.34-2.494,1.084,1.084,0,0,0-.616-.45c-3.5-.8-6.58,1.052-7.475,2.488-1.708,2.746,3.425,15.424,2.1,45.55-.456,10.319-2.355,22.682,1.311,24.688.1.051.2.092.292.14-2.925-2.9-.861-14.515-.149-24.33" fill="#ffe3b6"/>
        <path id="Trazado_979" data-name="Trazado 979" d="M211.863,104.932a4.613,4.613,0,0,1-4.634,4.017,4.733,4.733,0,0,1-3.451-1.486,4.4,4.4,0,0,0-.054.506,4.689,4.689,0,0,0,9.373,0,4.406,4.406,0,0,0-1.234-3.037" fill="#f2c5a0"/>
        <path id="Trazado_980" data-name="Trazado 980" d="M283.2,99.042a4.74,4.74,0,0,1-8.289.458,4.388,4.388,0,0,0-.412,1.842,4.689,4.689,0,0,0,9.372,0,4.363,4.363,0,0,0-.671-2.3" fill="#f2c5a0"/>
        <path id="Trazado_981" data-name="Trazado 981" d="M244.606,97.451l-2.371,18.527,1.507,11.42,3.664,5.17,3.016-6.68-.086-11.014-3.578-17.423Z" fill="#f2c5a0"/>
        <path id="Trazado_982" data-name="Trazado 982" d="M245.4,99.22l-2.091,16.35,1.329,10.075,3.234,4.562,2.66-5.891-.076-9.721L247.3,99.22Z" fill="#fff1d9"/>
        <path id="Trazado_983" data-name="Trazado 983" d="M211.081,103.42l.165,1.612c7.4-2.8,15.676,1.438,23.075.443,5.838-.785,8.042-2.518,13.28-4.938l-1.454-2.226a21.807,21.807,0,0,1-11.834,4.482c-5.336.268-14.876-2.061-23.232.627" fill="#fff1d9"/>
        <path id="Trazado_984" data-name="Trazado 984" d="M277.969,93.815l.344,1.58c-7.192-.654-13.013,5.621-19.663,6.683-5.24.839-7.657-.207-12.875-1.088l.575-2.511a18.7,18.7,0,0,0,11.5,1.051c4.655-1.194,12.138-6,20.116-5.715" fill="#fff1d9"/>
        <path id="Trazado_985" data-name="Trazado 985" d="M201.762,263.006c-1.317,2.559-3.314,10.712-1.964,10.325s2.645-9.993,2.645-9.993Z" fill="#ffe3b6"/>
        <path id="Trazado_986" data-name="Trazado 986" d="M204.992,258.525c-1.434,1.423-4.541,6.447-3.56,6.493s3.936-6.116,3.936-6.116Z" fill="#ffe3b6"/>
        <path id="Trazado_987" data-name="Trazado 987" d="M205.333,258.894c-1.289,4.1-3.289,17.555-1.989,17.15s2.636-16.467,2.636-16.467Z" fill="#ffe3b6"/>
        <path id="Trazado_988" data-name="Trazado 988" d="M206.311,259.053c-.647,4.712-.535,19.927.694,19.327s.061-18.64.061-18.64Z" fill="#ffe3b6"/>
        <path id="Trazado_989" data-name="Trazado 989" d="M207.226,258.647c.1,4.3,2.546,17.692,3.648,16.893s-2.81-16.453-2.81-16.453Z" fill="#ffe3b6"/>
        <path id="Trazado_990" data-name="Trazado 990" d="M208.986,258.093c.1,3.6,2.547,14.683,3.654,13.949s-2.814-13.629-2.814-13.629Z" fill="#ffe3b6"/>
        <path id="Trazado_991" data-name="Trazado 991" d="M210.237,259.482c0-1.675-1.344-1.477-3-1.477s-3,.662-3,1.477,1.344,1.477,3,1.477,3-.662,3-1.477" fill="#ffe3b6"/>
        <path id="Trazado_992" data-name="Trazado 992" d="M208.465,256.135c0-.816-.989-2.658-1.969-2.658s-1.575,1.842-1.575,2.658a1.8,1.8,0,0,0,3.544,0" fill="#ffe3b6"/>
        <path id="Trazado_993" data-name="Trazado 993" d="M296.54,251.692c1.424,2.559,3.579,10.71,2.121,10.325s-2.857-10-2.857-10Z" fill="#ffe3b6"/>
        <path id="Trazado_994" data-name="Trazado 994" d="M293.054,247.21c1.546,1.423,4.9,6.447,3.842,6.493s-4.25-6.115-4.25-6.115Z" fill="#ffe3b6"/>
        <path id="Trazado_995" data-name="Trazado 995" d="M292.683,247.58c1.392,4.1,3.552,17.556,2.149,17.149s-2.848-16.465-2.848-16.465Z" fill="#ffe3b6"/>
        <path id="Trazado_996" data-name="Trazado 996" d="M291.626,247.74c.7,4.709.582,19.926-.749,19.323s-.064-18.638-.064-18.638Z" fill="#ffe3b6"/>
        <path id="Trazado_997" data-name="Trazado 997" d="M290.641,247.332c-.108,4.3-2.751,17.692-3.938,16.895s3.034-16.453,3.034-16.453Z" fill="#ffe3b6"/>
        <path id="Trazado_998" data-name="Trazado 998" d="M288.738,246.778c-.1,3.594-2.751,14.681-3.946,13.948s3.039-13.629,3.039-13.629Z" fill="#ffe3b6"/>
        <path id="Trazado_999" data-name="Trazado 999" d="M287.388,248.166c0-1.674,1.452-1.475,3.241-1.475s3.24.66,3.24,1.475-1.449,1.476-3.24,1.476-3.241-.66-3.241-1.476" fill="#ffe3b6"/>
        <path id="Trazado_1000" data-name="Trazado 1000" d="M289.3,244.82c0-.817,1.067-2.658,2.125-2.658s1.7,1.841,1.7,2.658a1.976,1.976,0,0,1-3.824,0" fill="#ffe3b6"/>
        <path id="Trazado_1001" data-name="Trazado 1001" d="M299.9,80.906c-1.369-3.629-10.633-11.18-7.522-12.079,1.909-.557,8.528-.3,9.523,4.11a23.4,23.4,0,0,0,3.1,7.822Z" fill="#ffdeb3"/>
        <path id="Trazado_1002" data-name="Trazado 1002" d="M301.677,75.462c-4.656,1.723-8.279-2.689-9.5-4.655.129-2.321,2.05-5.193,2.7-5,2.159.419,8.578,8.989,6.8,9.654" fill="#ffdeb3"/>
        <path id="Trazado_1003" data-name="Trazado 1003" d="M291.259,61.961c-1.437-2.578-1.536-3.964-.74-3.923s1.511,1.512,2.946,4.092,6.275,9.122,5.477,9.083-6.249-6.68-7.683-9.252" fill="#ffdeb3"/>
        <path id="Trazado_1004" data-name="Trazado 1004" d="M292.865,68.608c-2-2.487-1.362-3.241-.661-3.427s2.077,1.648,4.073,4.134,3.063,4.819,2.358,5-3.776-3.219-5.77-5.707" fill="#ffdeb3"/>
        <path id="Trazado_1005" data-name="Trazado 1005" d="M292.764,72.148c-2.026-2.488-2.579-4.043-1.869-4.161s1.146-.326,3.167,2.167,3.979,6.187,3.272,6.311-2.543-1.818-4.57-4.317" fill="#ffdeb3"/>
        <path id="Trazado_1006" data-name="Trazado 1006" d="M297.406,67.435c-.694-3.067.145-6.034,1.456-5.319,1.484.8.092,2.919,1.45,5.905,1.466,3.242,2.225,5.261,1.049,5.188s-3.267-2.7-3.955-5.774" fill="#ffdeb3"/>
        <path id="Trazado_1007" data-name="Trazado 1007" d="M308.543,82.821l-3.21-5.457L296.489,81.2l1.412,5.493Z" fill="#964d44"/>
        <path id="Trazado_1008" data-name="Trazado 1008" d="M374.324,73.737s18.924-4.18,27.568,2.676l-4.239,10.7-24.308-9.194Z" fill="#ddb499"/>
        <path id="Trazado_1009" data-name="Trazado 1009" d="M382.014,131.072c-4.867-.075-32.978,20.117-44.868,22.75s-18.639-16.644-14.208-20.865C349.656,107.52,350.4,88.67,363.01,84.226c9.857-3.475,19,46.846,19,46.846" fill="#fff8dc"/>
        <path id="Trazado_1010" data-name="Trazado 1010" d="M337.044,129.647c3.395,8.138,4.525,32.311-9.457,24.251S296.679,97.622,294.63,85.609l15.7-6.347c1.833,5.584,23.314,42.248,26.714,50.385" fill="#fff8dc"/>
        <path id="Trazado_1011" data-name="Trazado 1011" d="M331.679,146.312c3.1,1.788,5.459,1.984,7.214,1.127-.968,6.273-4.159,10.577-11.306,6.46-13.98-8.058-30.908-56.276-32.957-68.289l5.847-2.364c4.335,16.6,18.6,55.8,31.2,63.066" fill="#edd7b7"/>
        <path id="Trazado_1012" data-name="Trazado 1012" d="M330.588,142.038C343.2,137.083,350.623,90.911,364.1,87.08c3.2,11.486,17.911,43.992,17.911,43.992-4.867-.075-32.826,21.779-44.717,24.412-7.663,1.7-15.044-7.168-18.143-14.813,3.629,2.03,7.627,2.862,11.434,1.367" fill="#edd7b7"/>
        <path id="Trazado_1013" data-name="Trazado 1013" d="M403.527,303.816l-73.956,1.96s15.715-117.835,14.737-132.383c-.542-8.036-3.211-36.1.815-58.522,3.261-18.156,11.684-31.273,23.072-37.56,25.45-14.044,35.332,226.505,35.332,226.505" fill="#fff8dc"/>
        <path id="Trazado_1014" data-name="Trazado 1014" d="M406.387,304.839l-72.923.5s14.684-116.377,13.7-130.923c-.542-8.039-3.212-36.105.816-58.522,3.26-18.157,11.683-31.277,23.071-37.563,25.45-14.045,35.332,226.507,35.332,226.507" fill="#ddb499"/>
        <path id="Trazado_1015" data-name="Trazado 1015" d="M410.858,197.482c1.306,22.739-.854,85.062.133,97.68s4.3,20.108,5.257,32.734-5.529,64.29-5.529,64.29H406.23s-9.969-65.55-15.431-88.369c-2.382-9.966-8.31-38.319-10.9-50.8a2.005,2.005,0,0,0-1.726-1.6,1.976,1.976,0,0,0-2.018,1.182c-5.487,12.389-18.285,41.687-20.513,50.4-2.843,11.154-.224,18.229-3.248,29.332s-27.985,62.324-27.985,62.324l-5.183-.7s10.394-54.8,15.893-90.122S350.668,195.8,350.668,195.8s58.777-22.94,60.19,1.683" fill="#3d3036"/>
        <path id="Trazado_1016" data-name="Trazado 1016" d="M405.543,188.594a10.79,10.79,0,0,1,2.911,2.386q-1.421-1.229-2.911-2.386" fill="#352a30"/>
        <g id="Grupo_233" data-name="Grupo 233" opacity="0.5">
          <g id="Grupo_232" data-name="Grupo 232">
            <g id="Grupo_231" data-name="Grupo 231" clip-path="url(#clip-path-5)">
              <path id="Trazado_1017" data-name="Trazado 1017" d="M410.749,287.69c.035,3.22.108,5.8.241,7.472.988,12.618,4.3,20.108,5.257,32.734s-5.528,64.29-5.528,64.29h-4.49s-9.968-65.549-15.43-88.37c-.162-.684-.346-1.463-.541-2.313a78.7,78.7,0,0,0,20.491-13.813" fill="#352a30"/>
            </g>
          </g>
        </g>
        <g id="Grupo_236" data-name="Grupo 236" opacity="0.5">
          <g id="Grupo_235" data-name="Grupo 235">
            <g id="Grupo_234" data-name="Grupo 234" clip-path="url(#clip-path-6)">
              <path id="Trazado_1018" data-name="Trazado 1018" d="M353.323,309.594c.387,0,.768-.021,1.153-.025-.821,7.738.3,14-2.086,22.771-3.025,11.1-27.984,62.322-27.984,62.322l-5.183-.7s9.682-51.054,15.3-86.365a89.241,89.241,0,0,0,18.8,2" fill="#352a30"/>
            </g>
          </g>
        </g>
        <path id="Trazado_1019" data-name="Trazado 1019" d="M389.743,245.859c-5.59.479-19.187,2.151-25.475-1.908,0,0,6.056,8.594,12.111,8.594s13.364-6.686,13.364-6.686" fill="#33262d"/>
        <path id="Trazado_1020" data-name="Trazado 1020" d="M410.031,322.841l-8.385-2.146s-8.033-87.364-10.828-93.81-20.61-7.16-26.9-4.654-22.517,87.45-22.517,87.45l-7.672,2.83c.487-2.985.953-5.895,1.386-8.675,5.5-35.319,15.55-108.037,15.55-108.037s58.777-22.938,60.19,1.683c1.306,22.742-.853,85.061.133,97.68s4.3,20.108,5.257,32.734-5.529,64.29-5.529,64.29h-1.006Z" fill="#33262d"/>
        <path id="Trazado_1021" data-name="Trazado 1021" d="M352.043,302.074c1.144-9.13,14.212-54.911,25.035-55.257,7.451-.239,4.655,15.048,2.818,6.2a2,2,0,0,0-1.726-1.6,1.978,1.978,0,0,0-2.019,1.181c-5.485,12.389-18.285,41.688-20.512,50.4-2.843,11.154-.225,18.227-3.248,29.332s-27.985,62.322-27.985,62.322l-2.891-.394c17.351-35.517,28.885-79.057,30.528-92.194" fill="#33262d"/>
        <path id="Trazado_1022" data-name="Trazado 1022" d="M349.038,202.154c-.2-16.344,3.33-52.893-.652-72.9-3.264-16.385,5.71-35.114,13.214-43.14,4.371-4.675,19.067-12.8,33.44-9.028C409.07,80.759,420.428,90.3,424.379,95.5s-1.6,31.8-7.6,52.271c-5.027,17.13-3.793,30.308-4.444,54.718-.183,6.8-43.067,16.054-63.3-.332" fill="#964d44"/>
        <path id="Trazado_1023" data-name="Trazado 1023" d="M356.583,201.7s8.21,9.071,26.9,6.206c2.473-.379-1.222-94.347,12.228-112.606l8.209,5.012-7.161,110.1s-24.454,6.624-42.324-4.737Z" fill="#7f3833"/>
        <path id="Trazado_1024" data-name="Trazado 1024" d="M354.313,142.027c2.1,0,17.8,1.483,16.244.9-16.592-6.266-18.688-19.157-18.688-19.157Z" fill="#7f3833"/>
        <path id="Trazado_1025" data-name="Trazado 1025" d="M393.36,144.162c-2.4-.189-20.361-.457-18.589-.775,18.906-3.4,21.113-13.31,21.113-13.31Z" fill="#7f3833"/>
        <path id="Trazado_1026" data-name="Trazado 1026" d="M361.6,86.111c3.343-3.574,12.726-9.148,23.382-9.9-18.318,7.417-33.425,29.471-29.561,49.341,4.144,21.328.84,58.75,1.162,76.146.9.772,6.77,7,7.748,7.671a39.446,39.446,0,0,1-15.293-7.219c-.2-16.344,3.331-52.893-.652-72.9-3.264-16.385,5.71-35.114,13.214-43.14" fill="#7f3833"/>
        <path id="Trazado_1027" data-name="Trazado 1027" d="M399.726,78.831C398.1,82.89,389.887,95,379.173,94.526s-14.437-8.593-14.437-8.593,5.6-9.4,15.136-10.5c14.249-1.647,19.854,3.4,19.854,3.4" fill="#dd9994"/>
        <path id="Trazado_1028" data-name="Trazado 1028" d="M422.613,312.344l-24.473,2.51s-27.568-196.639,1.3-240.281c0,0,16.314,4.015,23.655,17.558s-.978,58.188-3.914,68.723.488,127.915,3.427,151.49" fill="#edd7b7"/>
        <path id="Trazado_1029" data-name="Trazado 1029" d="M399.446,74.573s.254.062.708.2c-.237.744,13.951,1.377,21.252,14.656-29.656,40.9-11.239,198.738-7.726,223.833l-15.539,1.6s-27.568-196.638,1.305-240.28" fill="#fff8dc"/>
        <path id="Trazado_1030" data-name="Trazado 1030" d="M432.5,162.912c1.553-9.4-19.082-22.153-27.947-43.083-7.811-18.439,2.975-42.787,16.848-30.4,3.48,3.1,25.789,41.637,29.962,46.873s6.436,22.251,3.727,28.644-23.516,3.572-22.59-2.03" fill="#fff8dc"/>
        <path id="Trazado_1031" data-name="Trazado 1031" d="M450.931,168.328c3.327-6.619.8-25.461-3.3-31.338-3.477-5-20.224-36.841-27.3-48.441.356.272.712.554,1.073.876,3.479,3.1,27.023,41.868,31.2,47.1s7.67,22.68,4.962,29.073c-.852,2-3.787,3.2-7.387,3.723a3.782,3.782,0,0,0,.754-.995" fill="#edd7b7"/>
        <path id="Trazado_1032" data-name="Trazado 1032" d="M394.878,80.259l-4.134-35.325L370.975,63.993l-2.686,21.284s14.005,14.1,26.589-5.018" fill="#ffdeb3"/>
        <path id="Trazado_1033" data-name="Trazado 1033" d="M418.726,214.288c-2.624,2.6-3.943,12.986-6.82,10.949-1.773-1.253-5.8-6.507-2.181-9.14a19.56,19.56,0,0,0,5.568-5.712Z" fill="#ffdeb3"/>
        <path id="Trazado_1034" data-name="Trazado 1034" d="M412.309,215.2c4.679,2.893,2.47,9.376,1.357,11.158-1.227,1.96-5.157.873-6.139-.983s2.991-11.277,4.782-10.175" fill="#ffdeb3"/>
        <path id="Trazado_1035" data-name="Trazado 1035" d="M408.652,220.677c-2.763.829-6.43.1-6.539-1.262-.131-1.54,3-.212,5.249-1.717,2.444-1.622,4.068-2.473,4.765-1.281s-.7,3.432-3.475,4.26" fill="#ffdeb3"/>
        <path id="Trazado_1036" data-name="Trazado 1036" d="M407.276,226.809c-1.434,2.278-2.667,3-3.175,2.383s.379-1.839,1.816-4.116,2.735-5.68,3.247-5.062-.456,4.521-1.888,6.795" fill="#ffdeb3"/>
        <path id="Trazado_1037" data-name="Trazado 1037" d="M409.915,228.93c-1.012,2.7-2.938,4.324-3.515,3.847s.865-2.614,1.872-5.309,1.794-4.355,2.365-3.872.283,2.639-.722,5.334" fill="#ffdeb3"/>
        <path id="Trazado_1038" data-name="Trazado 1038" d="M412.981,228.443c-1.1,2.629-2.244,3.714-2.816,3.211s.451-2.021,1.557-4.65,1.905-4.436,2.48-3.937-.115,2.745-1.221,5.376" fill="#ffdeb3"/>
        <path id="Trazado_1039" data-name="Trazado 1039" d="M413.472,206.808l-4.335,5.8,9.538,7.921,5.427-3.874Z" fill="#964d44"/>
        <path id="Trazado_1040" data-name="Trazado 1040" d="M433.788,157.666c3.979-7.243,21.13-15.668,24.576-1.136s-25.471,55.179-33.41,63.814l-15.039-14.107c3.072-4.629,19.891-41.328,23.873-48.571" fill="#fff8dc"/>
        <path id="Trazado_1041" data-name="Trazado 1041" d="M324.991,396.073H306.742s12-5.556,15.249-5.822,3,5.822,3,5.822" fill="#e8d6df"/>
        <path id="Trazado_1042" data-name="Trazado 1042" d="M417.2,396.073h-14.11s2.943-6.264,6.195-6.527,7.915,6.527,7.915,6.527" fill="#e8d6df"/>
        <path id="Trazado_1043" data-name="Trazado 1043" d="M451.6,148.711c-.024-.1.548-1.937.522-2.028,3.011.75,5.54,3.963,6.638,8.593,3.45,14.535-25.867,56.433-33.806,65.068l-4.259-3.993c10.074-13.142,34.078-54.263,30.9-67.64" fill="#edd7b7"/>
        <path id="Trazado_1044" data-name="Trazado 1044" d="M427.73,169.836c1.979-5.371,5.591-9.548-.7-18.857,0,0,6.4,4.3,6.4,8.234s-5.706,10.623-5.706,10.623" fill="#edd7b7"/>
        <g id="Grupo_239" data-name="Grupo 239" opacity="0.5" style="mix-blend-mode: multiply;isolation: isolate">
          <g id="Grupo_238" data-name="Grupo 238">
            <g id="Grupo_237" data-name="Grupo 237" clip-path="url(#clip-path-7)">
              <path id="Trazado_1045" data-name="Trazado 1045" d="M381.037,108.013c-17.375-1.869-19.951-12.486-20.377-20.887,2.329-3.58,8.383-6.921,7.534-9.815-.129-.436.777-.369,1.159-.467l1.248-9.89,20.356-20.2,3.086,26.373a21.511,21.511,0,0,1,5.26,1.684c.048-.076.093-.161.142-.236,0,0,.06.013.161.042l.023.005c.119.033.292.079.512.145l.012,0c.517.151,1.3.4,2.269.758a32.878,32.878,0,0,1,11.659,5.413c-6.559,11.21-16.982,28.8-33.044,27.072" fill="#bc5642"/>
            </g>
          </g>
        </g>
        <path id="Trazado_1046" data-name="Trazado 1046" d="M345.285,3.678c15.66-7.858,36.868-1.673,43.483,5.042L354.422,22.406c2.12-6.522-9.137-18.728-9.137-18.728" fill="#e07c44"/>
        <path id="Trazado_1047" data-name="Trazado 1047" d="M396.93,43.609s2.145,1.594,3.149.868.83-3.086-.415-4.892-2.734,4.024-2.734,4.024" fill="#5b413c"/>
        <path id="Trazado_1048" data-name="Trazado 1048" d="M342.394,46.417l10.716-4.069,1.7-1.6-12.732,3.981Z" fill="#997570"/>
        <path id="Trazado_1049" data-name="Trazado 1049" d="M394.023,44.178c6.554-15.628,7.509-27.667-7.366-37.265-6.4-4.131-30.3-2.034-30.3-2.034s-4.721,13.355-1.3,22.875,38.964,16.424,38.964,16.424" fill="#e07c44"/>
        <path id="Trazado_1050" data-name="Trazado 1050" d="M364.139,22.863c12.229-1.644,24.279-6.868,24.214-14.505,19.655.025,12.266,20.092,5.67,35.819,0,0-35.544-6.9-38.964-16.423a21.2,21.2,0,0,1-1.073-4.969,35.279,35.279,0,0,0,10.153.078" fill="#d86030"/>
        <path id="Trazado_1051" data-name="Trazado 1051" d="M381.935,77.367a55.327,55.327,0,0,1-25.363,3.751s-10.878-47.962-7.12-54.07,9.173-20.223,12.085-19.537,18.846-1.647,21.932,3c14.748,22.21-.055,66.132-1.534,66.86" fill="#ffdeb3"/>
        <path id="Trazado_1052" data-name="Trazado 1052" d="M384.808,9.29c3.191,5.88,9.981,19.14,5.922,31.054l-9.676,11.624s-6.392-28.037-4.306-33.063-7.974-10.98-16.226-11.5l-.651-2.372S381.612,3.41,384.808,9.29" fill="#e07c44"/>
        <path id="Trazado_1053" data-name="Trazado 1053" d="M387.956,10.778c6.036,5.827,8.4,19.126,4.4,30.863L381.054,51.967s-4.584-20.117-4.719-29.322c3.951-2.836,10.1-6.254,11.621-11.867" fill="#d86030"/>
        <path id="Trazado_1054" data-name="Trazado 1054" d="M385.016,49.2c.3-4.653,6.173-20.161,11.079-17.22s3.961,8.644,2.724,10.828-5.221,5.82-6.4,6.987c-1.441,1.43-7.585,2.13-7.407-.595" fill="#ffdeb3"/>
        <path id="Trazado_1055" data-name="Trazado 1055" d="M388.254,47.308c.162-2.531,3.355-10.965,6.021-9.364a4.441,4.441,0,0,1,1.483,5.887,25.614,25.614,0,0,1-3.481,3.8c-.779.775-4.125,1.158-4.023-.323" fill="#ef8f6f"/>
        <path id="Trazado_1056" data-name="Trazado 1056" d="M387.88,49.313c.114-1.695,2.252-7.342,4.036-6.27a2.968,2.968,0,0,1,.989,3.94,16.934,16.934,0,0,1-2.326,2.544c-.526.519-2.761.776-2.7-.214" fill="#ffdeb3"/>
        <path id="Trazado_1057" data-name="Trazado 1057" d="M354.8,37.823c.642-.54.569-4.51-.505-5.2s-6.626,3.195-6.566,3.681.178,2.893.575,3.041,5.725-.869,6.5-1.526" fill="#e07c44"/>
        <path id="Trazado_1058" data-name="Trazado 1058" d="M360.981,36.521c-1.207-.293-2.362-4.1-.836-5.124s11.763.745,11.815,1.229.636,2.818.035,3.1-9.551,1.153-11.014.8" fill="#e07c44"/>
        <path id="Trazado_1059" data-name="Trazado 1059" d="M358.565,66.42l13.268-4.758s1.085,6.692-.483,8.314-9.369,2.327-9.923,2.039-2.862-5.6-2.862-5.6" fill="#512b25"/>
        <path id="Trazado_1060" data-name="Trazado 1060" d="M360.341,69.271c-.664-1.376-1.3-2.837-1.3-2.837l12.35-4.424a30.533,30.533,0,0,1,.335,3.867Z" fill="#fff6eb"/>
        <path id="Trazado_1061" data-name="Trazado 1061" d="M357.3,42.6s1.13,8.305,3.019,8.587,10.576-.148,11.525-1.741.332-9.694.332-9.694Zm.844.481,13.172-2.273s.574,6.624-.263,7.929-8.529,1.629-10.208,1.386-2.7-7.042-2.7-7.042" fill="#5b413c"/>
        <path id="Trazado_1062" data-name="Trazado 1062" d="M355.165,42.834s1.569,8.223.091,9.085-8.786,3.172-10.05,1.955-3.2-9.08-3.2-9.08Zm-.937.919-11.187,1.768s1.521,6.465,2.607,7.436,7.16-.925,8.464-1.68.116-7.524.116-7.524" fill="#5b413c"/>
        <path id="Trazado_1063" data-name="Trazado 1063" d="M352.966,45.4l-1.789.37s.5,2.823,1.593,2.414.2-2.784.2-2.784" fill="#4f332f"/>
        <path id="Trazado_1064" data-name="Trazado 1064" d="M365.036,43.7l-2.214.313s.4,3.248,1.932,2.558c1.3-.6.282-2.871.282-2.871" fill="#4f332f"/>
        <path id="Trazado_1065" data-name="Trazado 1065" d="M366.893,49.97l-6.385-7.3-1.785.3,5.185,7.237Z" fill="#fffbe6"/>
        <path id="Trazado_1066" data-name="Trazado 1066" d="M369.941,41.58l-3.066.6,2.854,2.618Z" fill="#fffbe6"/>
        <path id="Trazado_1067" data-name="Trazado 1067" d="M344.062,45.94l1.569,3.7,2.353-4.318Z" fill="#fffbe6"/>
        <path id="Trazado_1068" data-name="Trazado 1068" d="M372.124,41.592l16.324-4.774,2.563-1.7-19.418,4.817Z" fill="#5b413c"/>
        <path id="Trazado_1069" data-name="Trazado 1069" d="M359.406,63.953s-10.444-.473-10.685-1.245,7.927-26.125,7.927-26.125Z" fill="#ffdeb3"/>
        <path id="Trazado_1070" data-name="Trazado 1070" d="M356.178,36.918l.2,1.977c-2.079,6.5-7.281,22.877-7.088,23.5s6.883,1.041,9.574,1.186l.071.7s-10.441-.466-10.686-1.238,7.928-26.127,7.928-26.127" fill="#f9ad8f"/>
        <path id="Trazado_1071" data-name="Trazado 1071" d="M370.091,214.116l7.685.954v3.58h-7.685Z" fill="#ddb499"/>
        <path id="Trazado_1072" data-name="Trazado 1072" d="M382.783,217.039,381.56,243l-1.746-.357-.175-27.212Z" fill="#33262d"/>
        <path id="Trazado_1073" data-name="Trazado 1073" d="M394.893,74.63s-5.925,41.975-20.292,52.406-2.4.55-2.4.55-10.651-25.4-2.539-45.588" fill="none" stroke="#231f20" stroke-miterlimit="10" stroke-width="2"/>
        <path id="Trazado_1074" data-name="Trazado 1074" d="M370.2,130.335s-9.369.086-23.1,28.006" fill="none" stroke="#231f20" stroke-miterlimit="10" stroke-width="2"/>
        <path id="Trazado_1075" data-name="Trazado 1075" d="M342.063,163.408c-.979,4.252.014,8.11,2.217,8.617s4.781-2.529,5.76-6.782-.014-8.11-2.217-8.617-4.781,2.529-5.76,6.782" fill="#231f20"/>
      </g>
    </g>
  </g>
</svg>
