<svg id="Grupo_259" data-name="Grupo 259" xmlns="http://www.w3.org/2000/svg" xmlns:xlink="http://www.w3.org/1999/xlink" width="504.363" height="393.917" viewBox="0 0 504.363 393.917">
  <defs>
    <clipPath id="clip-path">
      <rect id="Rectángulo_132" data-name="Rectángulo 132" width="504.363" height="393.917" fill="none"/>
    </clipPath>
    <clipPath id="clip-path-3">
      <rect id="Rectángulo_127" data-name="Rectángulo 127" width="504.363" height="393.211" transform="translate(0 0.706)" fill="none"/>
    </clipPath>
    <clipPath id="clip-path-4">
      <rect id="Rectángulo_128" data-name="Rectángulo 128" width="23" height="92.132" transform="translate(57.824 253.651)" fill="none"/>
    </clipPath>
    <clipPath id="clip-path-5">
      <rect id="Rectángulo_129" data-name="Rectángulo 129" width="31.081" height="76.767" transform="translate(112.372 271.198)" fill="none"/>
    </clipPath>
    <clipPath id="clip-path-6">
      <rect id="Rectángulo_130" data-name="Rectángulo 130" width="47.1" height="54.116" transform="translate(59.82 41.221)" fill="none"/>
    </clipPath>
  </defs>
  <g id="Grupo_258" data-name="Grupo 258" clip-path="url(#clip-path)">
    <g id="Grupo_257" data-name="Grupo 257">
      <g id="Grupo_256" data-name="Grupo 256" clip-path="url(#clip-path)">
        <path id="Trazado_1076" data-name="Trazado 1076" d="M486.13,45.761c-22.164-30.691-57-47.342-94.74-44.8C359.257,3.121,329.336,16.8,297.172,18.907c-43.986,2.886-88.13-3.775-132.167-1.791S74.533,31.481,45.456,64.612C11.108,103.747-5.312,159.589,1.525,211.041c11.112,83.624,78.351,139.257,152.917,168.8,157.584,62.428,316.2-94.4,346.526-241.346,6.582-31.895,4.584-65.835-14.838-92.73" fill="#eceffe"/>
        <g id="Grupo_246" data-name="Grupo 246" opacity="0.7">
          <g id="Grupo_245" data-name="Grupo 245">
            <g id="Grupo_244" data-name="Grupo 244" clip-path="url(#clip-path-3)">
              <path id="Trazado_1077" data-name="Trazado 1077" d="M486.13,45.761c-22.164-30.691-57-47.342-94.74-44.8C359.257,3.121,329.336,16.8,297.172,18.907c-43.986,2.886-88.13-3.775-132.167-1.791S74.533,31.481,45.456,64.612C11.108,103.747-5.312,159.589,1.525,211.041c11.112,83.624,78.351,139.257,152.917,168.8,157.584,62.428,316.2-94.4,346.526-241.346,6.582-31.895,4.584-65.835-14.838-92.73" fill="#eceffe"/>
            </g>
          </g>
        </g>
        <path id="Trazado_1078" data-name="Trazado 1078" d="M294.908,36.094H420.895a23.235,23.235,0,0,1,23.19,23.189V360.062a23.235,23.235,0,0,1-23.19,23.189H294.908a23.236,23.236,0,0,1-23.191-23.189V59.283a23.236,23.236,0,0,1,23.191-23.189" fill="#3b5260" fill-rule="evenodd"/>
        <path id="Trazado_1079" data-name="Trazado 1079" d="M294.908,39.21H420.895a20.828,20.828,0,0,1,20.766,20.767V359.37a20.828,20.828,0,0,1-20.766,20.767H294.908a20.829,20.829,0,0,1-20.769-20.767V59.977A20.829,20.829,0,0,1,294.908,39.21" fill="#fff" fill-rule="evenodd"/>
        <path id="Trazado_1080" data-name="Trazado 1080" d="M294.908,45.786H420.895a14.232,14.232,0,0,1,14.191,14.19V337.218a14.234,14.234,0,0,1-14.191,14.191H294.908a14.233,14.233,0,0,1-14.192-14.191V59.976a14.233,14.233,0,0,1,14.192-14.19" fill="#f76d6a" fill-rule="evenodd"/>
        <path id="Trazado_1081" data-name="Trazado 1081" d="M346.232,357.86h23.34a8.464,8.464,0,0,1,0,16.927h-23.34a8.464,8.464,0,1,1,0-16.927" fill="#dbdbdb" fill-rule="evenodd"/>
        <path id="Trazado_1082" data-name="Trazado 1082" d="M377.991,367.18a8.5,8.5,0,0,1-7.04,7.492q-1.219.113-2.495.114H347.338c-.843,0-1.67-.039-2.477-.112a8.5,8.5,0,0,1-7.016-7.207,243,243,0,0,0,40.146-.287" fill="#ccc" fill-rule="evenodd"/>
        <path id="Trazado_1083" data-name="Trazado 1083" d="M428.227,248.79H413.959L407.265,276.8h14.269Z" fill="#473439"/>
        <path id="Trazado_1084" data-name="Trazado 1084" d="M360.2,345.188h-2.617c0-22.5,8.9-65.058,42.578-65.058v2.649c-31.609,0-39.961,40.823-39.961,62.409" fill="#60474d"/>
        <path id="Trazado_1085" data-name="Trazado 1085" d="M444.625,345.188h-2.617c0-21.586-8.352-62.409-39.96-62.409V280.13c33.68,0,42.577,42.556,42.577,65.058" fill="#60474d"/>
        <path id="Trazado_1086" data-name="Trazado 1086" d="M410.493,345.188h-2.618c0-34.412-3.871-62.409-8.631-62.409V280.13c10.707,0,11.249,54.194,11.249,65.058" fill="#60474d"/>
        <path id="Trazado_1087" data-name="Trazado 1087" d="M447.741,347.583A4.369,4.369,0,1,0,443.372,352a4.4,4.4,0,0,0,4.369-4.421" fill="#60474d"/>
        <path id="Trazado_1088" data-name="Trazado 1088" d="M363.639,347.583A4.369,4.369,0,1,0,359.27,352a4.4,4.4,0,0,0,4.369-4.421" fill="#60474d"/>
        <path id="Trazado_1089" data-name="Trazado 1089" d="M413.547,347.583A4.369,4.369,0,1,0,409.178,352a4.4,4.4,0,0,0,4.369-4.421" fill="#60474d"/>
        <path id="Trazado_1090" data-name="Trazado 1090" d="M434.506,174.152H423.747a17.464,17.464,0,0,0-17.279,15.485l-5.832,49.242a17.511,17.511,0,0,0,17.279,19.659h10.759a17.464,17.464,0,0,0,17.279-15.486l5.832-49.241a17.51,17.51,0,0,0-17.279-19.659" fill="#4c353c"/>
        <path id="Trazado_1091" data-name="Trazado 1091" d="M430,174.152H419.238a17.463,17.463,0,0,0-17.279,15.485l-5.833,49.242a17.512,17.512,0,0,0,17.28,19.659h10.758a17.462,17.462,0,0,0,17.279-15.486l5.833-49.241A17.511,17.511,0,0,0,430,174.152" fill="#60474d"/>
        <path id="Trazado_1092" data-name="Trazado 1092" d="M424.164,258.538a17.363,17.363,0,0,0,15.063-8.8A117.72,117.72,0,0,0,433.6,221.7c-6.256-19.224-16.207-34.753-26.287-42.755a17.57,17.57,0,0,0-5.356,10.693l-5.833,49.241a17.512,17.512,0,0,0,17.28,19.659Z" fill="#4c353c"/>
        <path id="Trazado_1093" data-name="Trazado 1093" d="M418.823,282.137c0-2.458-7.837-4.45-17.5-4.45s-17.5,1.992-17.5,4.45,7.836,4.45,17.5,4.45,17.5-1.992,17.5-4.45" fill="#473439"/>
        <path id="Trazado_1094" data-name="Trazado 1094" d="M428.694,277.011c0-3.075-3.993-5.568-28.109-5.568s-28.109,2.493-28.109,5.568,3.993,5.569,28.109,5.569,28.109-2.493,28.109-5.569" fill="#473439"/>
        <path id="Trazado_1095" data-name="Trazado 1095" d="M427.55,276.883c-.13-1.416-1.532-2.444-9.359-1.722s-9.019,1.991-8.888,3.406,1.533,2.444,9.36,1.721,9.018-1.989,8.887-3.4" fill="#60474d"/>
        <path id="Trazado_1096" data-name="Trazado 1096" d="M317.5,312.988l39.913,3.941-19.936-44.956-18.032,2.476Z" fill="#e8d9b5"/>
        <path id="Trazado_1097" data-name="Trazado 1097" d="M301.373,178.043c9.37,1.768,23.883-18.98,26.985-21.033s6.921,44.485,6.921,44.485-12.568,15.36-34.755,10.527c-7.507-1.635-12.1-36.422.849-33.979" fill="#fff6de"/>
        <path id="Trazado_1098" data-name="Trazado 1098" d="M323.683,350.23H325.1l5.982-69.788,63.554-9.648-38.892-31.821s-54.088,13.78-55.158,20.036c-4.714,27.578,23.1,91.221,23.1,91.221" fill="#6586b7"/>
        <path id="Trazado_1099" data-name="Trazado 1099" d="M368.707,235.972c-20.491,9.18-40.979,18.361-49.12,33.28l4.964,80.978h.546l7.019-69.065,62.517-10.371Z" fill="#4b72a0"/>
        <path id="Trazado_1100" data-name="Trazado 1100" d="M359.572,350.23h1.413l6.906-68.963,35.251-6.591-24.774-30.833s-42.391,9.052-43.361,15.3c-4.272,27.538,24.565,91.088,24.565,91.088" fill="#6586b7"/>
        <path id="Trazado_1101" data-name="Trazado 1101" d="M378.368,243.843s-20.314,4.339-33.14,9.082c0,0,3.647,52.09,6.606,78.736,4.313,11.021,7.737,18.569,7.737,18.569h1.415l6.9-68.963,35.251-6.591Z" fill="#4b72a0"/>
        <path id="Trazado_1102" data-name="Trazado 1102" d="M268.922,161.851c0-8.388-5.045-15.187-11.267-15.187s-11.266,6.8-11.266,15.187,5.044,15.187,11.266,15.187,11.267-6.8,11.267-15.187" fill="#ff9d66"/>
        <path id="Trazado_1103" data-name="Trazado 1103" d="M257.977,148.628c2.869-1.821,5.075-3.562,6.565-3.245s3.188,7.485,3.154,10.109-3.268,5.339-4.279,2.673a23.061,23.061,0,0,1-1.049-6.556s-2.19,2.509-3.371,1.666-1.827-4.134-1.02-4.647" fill="#ffbb83"/>
        <path id="Trazado_1104" data-name="Trazado 1104" d="M253.915,149.8c2.222-2.57,3.833-4.874,5.353-5s5.208,6.251,5.93,8.772-1.591,6.054-3.327,3.793a23.071,23.071,0,0,1-2.894-5.976s-1.374,3.034-2.748,2.566-2.94-3.432-2.314-4.156" fill="#ffbb83"/>
        <path id="Trazado_1105" data-name="Trazado 1105" d="M258.34,155.342c0-3.279-1.517-5.937-3.387-5.937s-3.387,2.658-3.387,5.937,1.516,5.937,3.387,5.937,3.387-2.658,3.387-5.937" fill="#4c353c"/>
        <path id="Trazado_1106" data-name="Trazado 1106" d="M253.72,153.835c0-2.817-1.7-5.1-3.785-5.1s-3.785,2.286-3.785,5.1,1.694,5.1,3.785,5.1,3.785-2.285,3.785-5.1" fill="#4c353c"/>
        <path id="Trazado_1107" data-name="Trazado 1107" d="M260.853,176.2c-6.852-7-10.277-13.322-10.277-15.682s-3.273-5.785-2.436-7.688,3.731-2.132,5.482,2.359,1.978,3.655,5.556,6.09,1.675,14.921,1.675,14.921" fill="#ffbb83"/>
        <path id="Trazado_1108" data-name="Trazado 1108" d="M249.967,149.862c2.339-2.834,4.034-5.329,5.633-5.634s5.481,5.634,6.242,8.07-1.675,6.242-3.5,4.187a19.748,19.748,0,0,1-3.045-5.634s-1.446,3.2-2.892,2.893-3.094-3.085-2.436-3.882" fill="#ffbb83"/>
        <path id="Trazado_1109" data-name="Trazado 1109" d="M260.853,174.982c-4.948-10.961-4.415-22.837-4.415-22.837l3.918-2.9s3.922-3.647,5.445-1.364,3.2,9.973,3.2,9.973Z" fill="#ffbb83"/>
        <path id="Trazado_1110" data-name="Trazado 1110" d="M302.324,212.353c-22.229-3.18-42.613-38.73-42.613-38.73l8.8-17s24.2,21.185,32.865,21.422c9.9.271,16.268,36.5.951,34.31" fill="#fff6de"/>
        <path id="Trazado_1111" data-name="Trazado 1111" d="M301.457,197.563c-.017,0-.032-.014-.049-.018C285.486,194,270.8,174.66,264.244,164.863l-5.414,10.055s20.148,32.3,41.646,37.087c.016,0,.032.014.048.018,22.187,4.832,34.755-10.527,34.755-10.527s-.9-21.388-1.6-28.384c-4.409,4.028-15.274,28.141-32.218,24.451" fill="#f4e6c6"/>
        <path id="Trazado_1112" data-name="Trazado 1112" d="M335.78,244.474c-4.576-44.539-11.815-82.569-9.268-85.525,9.545-11.079,33-19.211,44.549-12.14s59.59,91,49.455,125.651L385.2,279.988l-1.885,46.906-28.051-7.542s-6.89-65.778-5.657-68.593c1.475-3.359,8.824-7.179,8.824-7.179Z" fill="#fff6de"/>
        <path id="Trazado_1113" data-name="Trazado 1113" d="M364.065,167.149c-9.04,27.62-4.842,52.809-14.482,54.985-9.166,2.071-11.885-.469-18.877-19.507,1.674,12.469,3.526,26.783,5.074,41.847l22.656-.893s-7.35,3.819-8.824,7.178c-1.235,2.815,5.657,68.593,5.657,68.593l28.05,7.542,1.886-46.906,35.311-7.528c7.384-25.243-16.108-76.64-33.873-105.421-6.621-10.725-20.457-6.369-22.578.11" fill="#f4e6c6"/>
        <path id="Trazado_1114" data-name="Trazado 1114" d="M337.656,244.4l20.779-.819L341.5,216.226Z" fill="#d12845"/>
        <path id="Trazado_1115" data-name="Trazado 1115" d="M333.141,153.439c-3.771,9.429,6.335,45.463,6.335,45.463s12.231-43.575,26.5-54.111c-6.187-2.732-27.33,1.876-32.839,8.648" fill="#f44d61"/>
        <path id="Trazado_1116" data-name="Trazado 1116" d="M334.293,152.062c-.18.187-1,1.186-1.152,1.377-3.772,9.429,6.335,45.463,6.335,45.463s.436-1.553,1.238-4.14c-1.585-5.4-8.145-31.687-6.421-42.7" fill="#d12845"/>
        <path id="Trazado_1117" data-name="Trazado 1117" d="M333.868,152.653c-.725,2.225-.682,4.116.314,5.4,3.039,3.935,13.646.833,23.693-6.926a54.208,54.208,0,0,0,7.2-6.652c-6.817-1.928-25.076,2.124-31.211,8.173" fill="#d12845"/>
        <path id="Trazado_1118" data-name="Trazado 1118" d="M358.329,144.051c-5.536-8.792-10.839-23.523-10.839-23.523l-13.672,24.4,1.892,4.233a7.7,7.7,0,0,0,8.712,4.447c4.782-1.126,9.451-3.851,13.907-9.552" fill="#ed7656"/>
        <path id="Trazado_1119" data-name="Trazado 1119" d="M331.105,184.256c-.078-.336-7.782-33.779-1.61-52.919l1.16.374c-6.069,18.816,1.558,51.935,1.636,52.267Z" fill="#4c353c"/>
        <path id="Trazado_1120" data-name="Trazado 1120" d="M330.5,151.279c2.028,2.8,17.241-.88,18.244-7.565,1.266-8.428-.761-30.623-5.045-33.227s-15.7-1.629-19.446,3.58.34,29.059,6.247,37.212" fill="#ffbb83"/>
        <path id="Trazado_1121" data-name="Trazado 1121" d="M320.973,235.04c-2.149,6.936,0,13.415,4.831,19.608,0,0,55.438-15.362,60.318-21.629,3.123-4.011,3.671-52.179,2.021-58.307s-11.9-26.606-18.732-23.188-9.722,61.437-9.722,61.437Z" fill="#fff6de"/>
        <path id="Trazado_1122" data-name="Trazado 1122" d="M390.164,174.918c-1.226-4.553-8.313-17.135-14.678-21.9a60.618,60.618,0,0,1,6.126,13.145c1.651,6.127,2.554,56.575-.57,60.587-4.091,5.254-46.793,16.271-59.758,19.487.126,2.955,2.109,5.707,4.52,8.413,0,0,56.577-13.547,61.458-19.815,3.124-4.012,4.552-53.784,2.9-59.914" fill="#f4e6c6"/>
        <path id="Trazado_1123" data-name="Trazado 1123" d="M361.71,352H349.292s8.558-4.753,10.922-4.853,1.5,4.853,1.5,4.853" fill="#e8ce9a"/>
        <path id="Trazado_1124" data-name="Trazado 1124" d="M325.948,352H313.53s8.558-4.753,10.922-4.853,1.5,4.853,1.5,4.853" fill="#e8ce9a"/>
        <path id="Trazado_1125" data-name="Trazado 1125" d="M354.1,136.25l-5.056-2.378s-4.7-19.593-9.153-21.147-13.049-.726-16.424,3.056c0,0-3.375-1.709-3.168-4.923s17.829-12.957,26.329-6.427S354.1,136.25,354.1,136.25" fill="#96403e"/>
        <path id="Trazado_1126" data-name="Trazado 1126" d="M330.976,109.3c10.041,6.389,12.132,22.407,12.132,22.407l5.522.194-2.967-20.789Z" fill="#96403e"/>
        <path id="Trazado_1127" data-name="Trazado 1127" d="M350.315,129.718c.558-3.156-.293-5.945-1.9-6.229s-3.361,2.045-3.918,5.2.294,5.946,1.9,6.229,3.361-2.046,3.918-5.2" fill="#ffbb83"/>
        <path id="Trazado_1128" data-name="Trazado 1128" d="M348.937,130.645c.328-1.861-.173-3.505-1.119-3.672s-1.981,1.208-2.31,3.069.173,3.5,1.119,3.671,1.981-1.207,2.31-3.068" fill="#ed7656"/>
        <path id="Trazado_1129" data-name="Trazado 1129" d="M348.185,131.821c.255-1.439-.133-2.711-.865-2.84s-1.531.934-1.786,2.373.133,2.712.865,2.84,1.532-.934,1.786-2.373" fill="#ffbb83"/>
        <path id="Trazado_1130" data-name="Trazado 1130" d="M325.8,254.648c-5.761,1.545-16.259-.1-22.948,1.964,0,0-2.658-9.228,3.864-14.42,5.643-4.491,9.248-4.481,14.253-7.152a38.128,38.128,0,0,0,4.831,19.608" fill="#ffbb83"/>
        <path id="Trazado_1131" data-name="Trazado 1131" d="M333.352,129.663c-.3-1.16-.028-2.276.61-2.494s1.4.548,1.7,1.708.029,2.276-.61,2.494-1.4-.548-1.7-1.708" fill="#604748"/>
        <path id="Trazado_1132" data-name="Trazado 1132" d="M331.6,123.372l4.325-.514a.694.694,0,0,1,.747.624l.184,1.461a.681.681,0,0,1-.57.781l-4.326.512a.691.691,0,0,1-.746-.623l-.184-1.461a.681.681,0,0,1,.57-.78" fill="#96403e"/>
        <path id="Trazado_1133" data-name="Trazado 1133" d="M324.576,131.045c-.268-1.171.04-2.276.686-2.47s1.384.6,1.651,1.769-.04,2.276-.686,2.47-1.384-.6-1.651-1.769" fill="#604748"/>
        <path id="Trazado_1134" data-name="Trazado 1134" d="M321.585,124.652l3.9-.6a.741.741,0,0,1,.766.6l.357,1.429a.589.589,0,0,1-.422.776l-3.9.6a.737.737,0,0,1-.765-.594l-.358-1.429a.59.59,0,0,1,.423-.776" fill="#96403e"/>
        <path id="Trazado_1135" data-name="Trazado 1135" d="M329.617,129.909c-.352,3.76-.2,6.105,1.1,6.8a2.732,2.732,0,0,0,2.479-.2l.035.067s-2.08,1.667-3.461,1.043c-1.365-.617-1.09-3.31-.149-7.709" fill="#ed7656"/>
        <path id="Trazado_1136" data-name="Trazado 1136" d="M328.631,140.606l8.5-2.116a5.4,5.4,0,0,1-2.783,5.795c-3.652,2.012-5.72-3.679-5.72-3.679" fill="#422931"/>
        <path id="Trazado_1137" data-name="Trazado 1137" d="M330.712,142.928a7.982,7.982,0,0,1-1.2-2.1l6.864-1.708a4.64,4.64,0,0,1-.176,2.3Z" fill="#ffefdc"/>
        <path id="Trazado_1138" data-name="Trazado 1138" d="M276.584,258.21a13.244,13.244,0,0,1-9.867-4.571c-16.388-17.453-13.283-79.242-12.9-85.914.014-.233,1.2.349,1.142,1.575-.527,11.33-2.338,67.552,12.643,83.5a12.076,12.076,0,0,0,8.979,4.188c45.1,0,54.521-72.221,54.611-72.951l.069-.216c.14-.258,14.08-26.219,15.964-53.951l1.215.083c-1.842,27.119-15.09,52.534-16.054,54.349-.443,3.31-10.5,73.9-55.8,73.9" fill="#4c353c"/>
        <path id="Trazado_1139" data-name="Trazado 1139" d="M349.2,130.555c.253-1-.05-1.934-.675-2.093s-1.339.521-1.592,1.518.05,1.933.676,2.092,1.338-.521,1.591-1.517" fill="#4c353c"/>
        <path id="Trazado_1140" data-name="Trazado 1140" d="M317.709,317.013a13.166,13.166,0,1,1-13.166,13.166,13.166,13.166,0,0,1,13.166-13.166" fill="#0255a1" fill-rule="evenodd"/>
        <path id="Trazado_1141" data-name="Trazado 1141" d="M357.731,317.013a13.166,13.166,0,1,1-13.166,13.166,13.166,13.166,0,0,1,13.166-13.166" fill="#0255a1" fill-rule="evenodd"/>
        <path id="Trazado_1142" data-name="Trazado 1142" d="M349.355,326.249H355.3V325.11h-5.945v-1.2h7.1v2.34H359.5v7.862H349.355Zm16.751-2.34-5.8,2.34v7.862l5.8,2.34Z" fill="#fff" fill-rule="evenodd"/>
        <path id="Trazado_1143" data-name="Trazado 1143" d="M398.092,317.013a13.166,13.166,0,1,1-13.166,13.166,13.167,13.167,0,0,1,13.166-13.166" fill="#ec3d3a" fill-rule="evenodd"/>
        <path id="Trazado_1144" data-name="Trazado 1144" d="M311.9,323.256h10.555a2.32,2.32,0,0,1,2.314,2.313v6.3a2.32,2.32,0,0,1-2.25,2.312l1.063,3.678-3.72-3.677H311.9a2.32,2.32,0,0,1-2.314-2.313v-6.3a2.32,2.32,0,0,1,2.314-2.313m.782,5.089a.917.917,0,1,1-.917.917.917.917,0,0,1,.917-.917m8.991,0a.917.917,0,1,1-.917.917.918.918,0,0,1,.917-.917m-3,0a.917.917,0,1,1-.917.917.917.917,0,0,1,.917-.917m-3,0a.917.917,0,1,1-.917.917.918.918,0,0,1,.917-.917" fill="#fff" fill-rule="evenodd"/>
        <path id="Trazado_1145" data-name="Trazado 1145" d="M400.45,338.341c3.556,1.224,5.162-2.639,5.162-2.639l-3.785-3.44c-1.92,5.069-10.32-5.216-4.981-6.093l-2.624-4.391s-4.1.809-3.608,4.537c.44,3.315,6.676,10.938,9.836,12.026" fill="#fff" fill-rule="evenodd"/>
        <path id="Trazado_1146" data-name="Trazado 1146" d="M150.34,36.094H24.353A23.235,23.235,0,0,0,1.163,59.283V360.062a23.235,23.235,0,0,0,23.19,23.189H150.34a23.235,23.235,0,0,0,23.19-23.189V59.283a23.235,23.235,0,0,0-23.19-23.189" fill="#3b5260" fill-rule="evenodd"/>
        <path id="Trazado_1147" data-name="Trazado 1147" d="M150.34,39.21H24.353A20.828,20.828,0,0,0,3.586,59.977V359.37a20.828,20.828,0,0,0,20.767,20.767H150.34a20.829,20.829,0,0,0,20.768-20.767V59.977A20.829,20.829,0,0,0,150.34,39.21" fill="#fff" fill-rule="evenodd"/>
        <path id="Trazado_1148" data-name="Trazado 1148" d="M150.34,45.786H24.353a14.233,14.233,0,0,0-14.192,14.19V337.218a14.234,14.234,0,0,0,14.192,14.191H150.34a14.233,14.233,0,0,0,14.191-14.191V59.976a14.232,14.232,0,0,0-14.191-14.19" fill="#f76d6a" fill-rule="evenodd"/>
        <path id="Trazado_1149" data-name="Trazado 1149" d="M99.016,357.86H75.676a8.464,8.464,0,0,0,0,16.927h23.34a8.464,8.464,0,1,0,0-16.927" fill="#dbdbdb" fill-rule="evenodd"/>
        <path id="Trazado_1150" data-name="Trazado 1150" d="M67.256,367.18a8.5,8.5,0,0,0,7.041,7.492c.812.075,1.645.114,2.494.114H97.909c.843,0,1.67-.039,2.477-.112a8.5,8.5,0,0,0,7.016-7.207,243,243,0,0,1-40.146-.287" fill="#ccc" fill-rule="evenodd"/>
        <path id="Trazado_1151" data-name="Trazado 1151" d="M160.492,71.333c1.207-3.2,9.374-9.855,6.632-10.648-1.684-.492-7.519-.267-8.4,3.624A20.664,20.664,0,0,1,156,71.2Z" fill="#ffdeb3"/>
        <path id="Trazado_1152" data-name="Trazado 1152" d="M158.924,66.534c4.105,1.519,7.3-2.371,8.378-4.1-.114-2.046-1.808-4.579-2.381-4.409-1.9.37-7.563,7.926-6,8.513" fill="#ffdeb3"/>
        <path id="Trazado_1153" data-name="Trazado 1153" d="M168.11,54.629c1.267-2.272,1.354-3.494.652-3.458s-1.332,1.332-2.6,3.608-5.534,8.042-4.828,8.007,5.509-5.888,6.773-8.157" fill="#ffdeb3"/>
        <path id="Trazado_1154" data-name="Trazado 1154" d="M166.694,60.492c1.762-2.194,1.2-2.859.582-3.023s-1.83,1.454-3.591,3.644-2.7,4.251-2.079,4.41,3.33-2.838,5.088-5.031" fill="#ffdeb3"/>
        <path id="Trazado_1155" data-name="Trazado 1155" d="M166.783,63.612c1.786-2.194,2.272-3.564,1.646-3.669s-1.009-.287-2.791,1.91-3.508,5.456-2.885,5.566,2.242-1.6,4.03-3.807" fill="#ffdeb3"/>
        <path id="Trazado_1156" data-name="Trazado 1156" d="M162.689,59.457c.613-2.7-.126-5.32-1.283-4.69-1.309.71-.081,2.573-1.279,5.207-1.292,2.858-1.961,4.637-.924,4.574s2.88-2.385,3.486-5.091" fill="#ffdeb3"/>
        <path id="Trazado_1157" data-name="Trazado 1157" d="M152.87,73.022l2.83-4.811,7.8,3.382-1.246,4.843Z" fill="#964d44"/>
        <path id="Trazado_1158" data-name="Trazado 1158" d="M94.872,65.013s-16.685-3.685-24.307,2.359L74.3,76.806,95.736,68.7Z" fill="#ddb499"/>
        <path id="Trazado_1159" data-name="Trazado 1159" d="M88.093,115.564c4.291-.065,29.075,17.737,39.56,20.059s16.432-14.675,12.526-18.4C116.623,94.8,115.968,78.178,104.848,74.261c-8.69-3.064-16.755,41.3-16.755,41.3" fill="#fff8dc"/>
        <path id="Trazado_1160" data-name="Trazado 1160" d="M127.742,114.308c-2.994,7.175-3.99,28.486,8.337,21.381S163.33,86.072,165.137,75.48l-13.843-5.6c-1.616,4.923-20.554,37.248-23.552,44.424" fill="#fff8dc"/>
        <path id="Trazado_1161" data-name="Trazado 1161" d="M132.473,129c-2.736,1.577-4.813,1.75-6.361.993.853,5.532,3.668,9.325,9.967,5.7,12.328-7.1,27.251-49.617,29.058-60.21L159.983,73.4c-3.823,14.63-16.4,49.2-27.51,55.6" fill="#edd7b7"/>
        <path id="Trazado_1162" data-name="Trazado 1162" d="M133.434,125.233c-11.12-4.369-17.664-45.078-29.55-48.456-2.817,10.127-15.791,38.787-15.791,38.787,4.291-.065,28.943,19.2,39.426,21.524,6.756,1.5,13.264-6.32,16-13.061-3.2,1.79-6.724,2.523-10.08,1.206" fill="#edd7b7"/>
        <path id="Trazado_1163" data-name="Trazado 1163" d="M69.126,267.869l65.2,1.728S120.476,165.7,121.337,152.879c.478-7.086,2.831-31.834-.718-51.6-2.876-16.008-10.3-27.573-20.342-33.116-22.439-12.382-31.151,199.7-31.151,199.7" fill="#fff8dc"/>
        <path id="Trazado_1164" data-name="Trazado 1164" d="M66.6,268.771l64.294.441s-12.945-102.606-12.082-115.431c.477-7.088,2.831-31.834-.719-51.6-2.876-16.008-10.3-27.575-20.342-33.118C75.317,56.681,66.6,268.771,66.6,268.771" fill="#ddb499"/>
        <path id="Trazado_1165" data-name="Trazado 1165" d="M62.662,174.116c-1.151,20.049.753,75-.117,86.122s-3.79,17.73-4.635,28.861,4.874,56.684,4.874,56.684h3.958s8.789-57.794,13.605-77.914c2.1-8.786,7.328-33.784,9.614-44.787a1.765,1.765,0,0,1,1.52-1.408,1.743,1.743,0,0,1,1.78,1.042c4.839,10.922,16.122,36.754,18.086,44.44,2.506,9.833.2,16.071,2.864,25.861s24.674,54.949,24.674,54.949l4.569-.621s-9.164-48.321-14.013-79.459-13.711-95.253-13.711-95.253-51.823-20.226-53.068,1.483" fill="#3d3036"/>
        <path id="Trazado_1166" data-name="Trazado 1166" d="M67.347,166.28a9.5,9.5,0,0,0-2.566,2.1q1.254-1.083,2.566-2.1" fill="#352a30"/>
        <g id="Grupo_249" data-name="Grupo 249" opacity="0.5">
          <g id="Grupo_248" data-name="Grupo 248">
            <g id="Grupo_247" data-name="Grupo 247" clip-path="url(#clip-path-4)">
              <path id="Trazado_1167" data-name="Trazado 1167" d="M62.757,253.652c-.031,2.838-.1,5.108-.212,6.587-.871,11.124-3.79,17.728-4.635,28.86s4.874,56.684,4.874,56.684h3.958s8.789-57.793,13.605-77.914c.143-.6.306-1.291.477-2.04a69.436,69.436,0,0,1-18.067-12.177" fill="#352a30"/>
            </g>
          </g>
        </g>
        <g id="Grupo_252" data-name="Grupo 252" opacity="0.5">
          <g id="Grupo_251" data-name="Grupo 251">
            <g id="Grupo_250" data-name="Grupo 250" clip-path="url(#clip-path-5)">
              <path id="Trazado_1168" data-name="Trazado 1168" d="M113.389,272.962c-.342,0-.677-.019-1.017-.021.724,6.822-.266,12.344,1.839,20.077,2.667,9.788,24.674,54.947,24.674,54.947l4.568-.62s-8.536-45.015-13.49-76.148a78.618,78.618,0,0,1-16.574,1.765" fill="#352a30"/>
            </g>
          </g>
        </g>
        <path id="Trazado_1169" data-name="Trazado 1169" d="M81.279,216.77c4.928.422,16.916,1.9,22.46-1.683,0,0-5.339,7.578-10.678,7.578s-11.782-5.895-11.782-5.895" fill="#33262d"/>
        <path id="Trazado_1170" data-name="Trazado 1170" d="M63.391,284.643l7.392-1.893s7.084-77.027,9.547-82.711,18.172-6.312,23.715-4.1,19.854,77.1,19.854,77.1l6.763,2.5c-.428-2.633-.839-5.2-1.221-7.649-4.85-31.139-13.71-95.254-13.71-95.254s-51.823-20.224-53.069,1.484c-1.151,20.05.753,75-.117,86.123s-3.79,17.728-4.634,28.86,4.874,56.684,4.874,56.684h.887Z" fill="#33262d"/>
        <path id="Trazado_1171" data-name="Trazado 1171" d="M114.518,266.333c-1.009-8.05-12.531-48.413-22.073-48.718-6.57-.212-4.105,13.267-2.484,5.468a1.764,1.764,0,0,1,1.521-1.407,1.74,1.74,0,0,1,1.779,1.041c4.837,10.923,16.122,36.756,18.086,44.439,2.507,9.835.2,16.072,2.864,25.863s24.674,54.947,24.674,54.947l2.549-.347c-15.3-31.315-25.468-69.7-26.916-81.286" fill="#33262d"/>
        <path id="Trazado_1172" data-name="Trazado 1172" d="M117.167,178.236c.172-14.41-2.937-46.635.574-64.277,2.878-14.447-5.034-30.958-11.649-38.036-3.855-4.122-16.812-11.284-29.485-7.96C64.237,71.205,54.224,79.613,50.74,84.2s1.406,28.038,6.7,46.086c4.433,15.1,3.344,26.722,3.919,48.244.161,5.99,37.971,14.153,55.807-.293" fill="#964d44"/>
        <path id="Trazado_1173" data-name="Trazado 1173" d="M110.514,177.836s-7.238,8-23.715,5.473c-2.181-.334,1.078-83.184-10.78-99.283l-7.238,4.419,6.313,97.075s21.561,5.838,37.317-4.178Z" fill="#7f3833"/>
        <path id="Trazado_1174" data-name="Trazado 1174" d="M112.517,125.223c-1.849,0-15.693,1.308-14.322.789,14.629-5.524,16.477-16.891,16.477-16.891Z" fill="#7f3833"/>
        <path id="Trazado_1175" data-name="Trazado 1175" d="M78.09,127.105c2.116-.167,17.952-.4,16.39-.684-16.67-3-18.617-11.735-18.617-11.735Z" fill="#7f3833"/>
        <path id="Trazado_1176" data-name="Trazado 1176" d="M106.092,75.922c-2.947-3.15-11.22-8.065-20.615-8.725,16.149,6.539,29.469,25.985,26.062,43.5-3.653,18.805-.74,51.8-1.025,67.136-.791.682-5.968,6.173-6.83,6.764a34.777,34.777,0,0,0,13.483-6.365c.172-14.41-2.936-46.634.574-64.277,2.878-14.446-5.034-30.958-11.649-38.036" fill="#7f3833"/>
        <path id="Trazado_1177" data-name="Trazado 1177" d="M72.477,69.5c1.437,3.578,8.675,14.26,18.12,13.838s12.73-7.576,12.73-7.576-4.941-8.29-13.346-9.26c-12.562-1.452-17.5,3-17.5,3" fill="#dd9994"/>
        <path id="Trazado_1178" data-name="Trazado 1178" d="M52.3,275.387,73.873,277.6s24.308-173.372-1.15-211.85c0,0-14.384,3.539-20.856,15.481s.863,51.3,3.451,60.59S54.888,254.6,52.3,275.387" fill="#edd7b7"/>
        <path id="Trazado_1179" data-name="Trazado 1179" d="M72.723,65.75s-.223.056-.623.173c.209.656-12.3,1.215-18.737,12.922,26.146,36.065,9.909,175.222,6.81,197.348l13.7,1.407s24.308-173.371-1.15-211.85" fill="#fff8dc"/>
        <path id="Trazado_1180" data-name="Trazado 1180" d="M43.576,143.636C42.207,135.351,60.4,124.1,68.217,105.651,75.1,89.394,65.594,67.926,53.362,78.844c-3.068,2.738-22.738,36.712-26.417,41.327s-5.674,19.618-3.286,25.256,20.733,3.148,19.917-1.791" fill="#fff8dc"/>
        <path id="Trazado_1181" data-name="Trazado 1181" d="M27.33,148.412c-2.934-5.836-.7-22.447,2.9-27.63C33.3,116.373,48.065,88.3,54.308,78.072c-.314.24-.628.489-.946.773-3.068,2.738-23.827,36.914-27.5,41.529s-6.762,20-4.375,25.633c.75,1.767,3.339,2.82,6.512,3.283a3.374,3.374,0,0,1-.664-.878" fill="#edd7b7"/>
        <path id="Trazado_1182" data-name="Trazado 1182" d="M76.751,70.763,80.4,39.617,97.825,56.422l2.368,18.765s-12.348,12.43-23.442-4.424" fill="#ffdeb3"/>
        <path id="Trazado_1183" data-name="Trazado 1183" d="M55.725,188.934c2.313,2.288,3.477,11.449,6.013,9.653,1.563-1.1,5.118-5.736,1.924-8.058a17.265,17.265,0,0,1-4.911-5.036Z" fill="#ffdeb3"/>
        <path id="Trazado_1184" data-name="Trazado 1184" d="M61.382,189.741c-4.125,2.55-2.177,8.267-1.2,9.838,1.082,1.728,4.547.769,5.413-.867s-2.637-9.943-4.217-8.971" fill="#ffdeb3"/>
        <path id="Trazado_1185" data-name="Trazado 1185" d="M64.607,194.567c2.437.73,5.67.088,5.766-1.112.115-1.359-2.648-.187-4.628-1.514-2.155-1.431-3.587-2.182-4.2-1.131s.619,3.027,3.063,3.757" fill="#ffdeb3"/>
        <path id="Trazado_1186" data-name="Trazado 1186" d="M65.821,199.973c1.264,2.009,2.351,2.642,2.8,2.1s-.334-1.622-1.6-3.629-2.412-5.008-2.863-4.463.4,3.986,1.665,5.991" fill="#ffdeb3"/>
        <path id="Trazado_1187" data-name="Trazado 1187" d="M63.492,201.843c.893,2.376,2.592,3.813,3.1,3.391s-.763-2.3-1.652-4.68-1.581-3.84-2.084-3.414-.25,2.326.636,4.7" fill="#ffdeb3"/>
        <path id="Trazado_1188" data-name="Trazado 1188" d="M60.789,201.415c.968,2.317,1.979,3.274,2.484,2.83s-.4-1.78-1.373-4.1-1.68-3.91-2.186-3.47.1,2.42,1.075,4.74" fill="#ffdeb3"/>
        <path id="Trazado_1189" data-name="Trazado 1189" d="M60.358,182.338l3.821,5.116-8.409,6.984-4.785-3.415Z" fill="#964d44"/>
        <path id="Trazado_1190" data-name="Trazado 1190" d="M42.445,139.011c-3.509-6.387-18.63-13.814-21.668-1s22.456,48.649,29.457,56.263l13.259-12.438c-2.708-4.081-17.537-36.438-21.048-42.824" fill="#fff8dc"/>
        <path id="Trazado_1191" data-name="Trazado 1191" d="M138.369,349.209h16.089s-10.579-4.9-13.444-5.133-2.645,5.133-2.645,5.133" fill="#e8d6df"/>
        <path id="Trazado_1192" data-name="Trazado 1192" d="M57.068,349.209H69.509s-2.594-5.521-5.462-5.755-6.979,5.755-6.979,5.755" fill="#e8d6df"/>
        <path id="Trazado_1193" data-name="Trazado 1193" d="M26.74,131.116c.02-.084-.484-1.708-.461-1.789-2.655.662-4.883,3.5-5.852,7.577-3.042,12.816,22.8,49.756,29.806,57.369l3.755-3.52C45.1,179.166,23.941,142.91,26.74,131.116" fill="#edd7b7"/>
        <path id="Trazado_1194" data-name="Trazado 1194" d="M47.786,149.742c-1.745-4.736-4.929-8.419.614-16.627,0,0-5.645,3.789-5.645,7.26s5.031,9.367,5.031,9.367" fill="#edd7b7"/>
        <g id="Grupo_255" data-name="Grupo 255" opacity="0.5" style="mix-blend-mode: multiply;isolation: isolate">
          <g id="Grupo_254" data-name="Grupo 254">
            <g id="Grupo_253" data-name="Grupo 253" clip-path="url(#clip-path-6)">
              <path id="Trazado_1195" data-name="Trazado 1195" d="M88.953,95.233c15.319-1.647,17.591-11.009,17.967-18.415-2.054-3.156-7.392-6.1-6.643-8.654.114-.385-.684-.327-1.022-.411l-1.1-8.72L80.207,41.221l-2.72,23.253a18.968,18.968,0,0,0-4.638,1.485c-.043-.068-.083-.143-.126-.208,0,0-.052.011-.141.037l-.021,0c-.1.028-.256.069-.451.127l-.011,0c-.456.134-1.146.356-2,.668a29.012,29.012,0,0,0-10.28,4.773C65.6,81.248,74.791,96.757,88.953,95.233" fill="#bc5642"/>
            </g>
          </g>
        </g>
        <path id="Trazado_1196" data-name="Trazado 1196" d="M120.476,3.243C106.668-3.686,87.97,1.768,82.138,7.689L112.42,19.755c-1.869-5.75,8.056-16.512,8.056-16.512" fill="#e07c44"/>
        <path id="Trazado_1197" data-name="Trazado 1197" d="M74.942,38.45s-1.891,1.4-2.776.766-.732-2.721.365-4.314,2.411,3.548,2.411,3.548" fill="#5b413c"/>
        <path id="Trazado_1198" data-name="Trazado 1198" d="M123.025,40.925l-9.447-3.588-1.5-1.407L123.3,39.44Z" fill="#997570"/>
        <path id="Trazado_1199" data-name="Trazado 1199" d="M77.5,38.951C71.727,25.173,70.884,14.557,84,6.1,89.639,2.454,110.715,4.3,110.715,4.3s4.162,11.774,1.144,20.168S77.5,38.951,77.5,38.951" fill="#e07c44"/>
        <path id="Trazado_1200" data-name="Trazado 1200" d="M103.853,20.158C93.071,18.71,82.447,14.1,82.5,7.371c-17.33.021-10.814,17.714-5,31.58,0,0,31.339-6.085,34.354-14.481a18.671,18.671,0,0,0,.946-4.38,31.1,31.1,0,0,1-8.952.068" fill="#d86030"/>
        <path id="Trazado_1201" data-name="Trazado 1201" d="M88.162,68.213a48.786,48.786,0,0,0,22.362,3.308s9.591-42.287,6.279-47.673-8.089-17.83-10.656-17.226S89.53,5.171,86.809,9.264c-13,19.582.049,58.308,1.353,58.949" fill="#ffdeb3"/>
        <path id="Trazado_1202" data-name="Trazado 1202" d="M85.629,8.191c-2.813,5.185-8.8,16.876-5.221,27.38L88.94,45.819s5.634-24.72,3.795-29.15,7.032-9.681,14.307-10.135l.574-2.092S88.447,3.007,85.629,8.191" fill="#e07c44"/>
        <path id="Trazado_1203" data-name="Trazado 1203" d="M82.854,9.5c-5.322,5.138-7.411,16.863-3.885,27.212l9.971,9.1s4.041-17.736,4.16-25.852c-3.483-2.5-8.906-5.514-10.246-10.463" fill="#d86030"/>
        <path id="Trazado_1204" data-name="Trazado 1204" d="M85.447,43.378c-.27-4.1-5.443-17.775-9.77-15.183s-3.491,7.621-2.4,9.548,4.6,5.13,5.639,6.159c1.272,1.262,6.688,1.878,6.532-.524" fill="#ffdeb3"/>
        <path id="Trazado_1205" data-name="Trazado 1205" d="M82.591,41.71c-.143-2.231-2.958-9.667-5.308-8.256a3.917,3.917,0,0,0-1.308,5.192,22.578,22.578,0,0,0,3.068,3.349c.688.683,3.638,1.022,3.548-.285" fill="#ef8f6f"/>
        <path id="Trazado_1206" data-name="Trazado 1206" d="M82.92,43.478c-.1-1.495-1.985-6.473-3.558-5.527a2.617,2.617,0,0,0-.873,3.473,14.865,14.865,0,0,0,2.052,2.242c.464.458,2.435.685,2.379-.188" fill="#ffdeb3"/>
        <path id="Trazado_1207" data-name="Trazado 1207" d="M112.082,33.348c-.565-.477-.5-3.977.445-4.581s5.843,2.817,5.79,3.246-.158,2.55-.507,2.682-5.047-.767-5.728-1.347" fill="#e07c44"/>
        <path id="Trazado_1208" data-name="Trazado 1208" d="M106.637,32.2c1.064-.259,2.083-3.613.737-4.518S97,28.341,96.958,28.767s-.561,2.484-.031,2.733,8.421,1.015,9.71.7" fill="#e07c44"/>
        <path id="Trazado_1209" data-name="Trazado 1209" d="M108.767,58.561l-11.7-4.194s-.957,5.9.425,7.329,8.26,2.052,8.748,1.8,2.523-4.933,2.523-4.933" fill="#512b25"/>
        <path id="Trazado_1210" data-name="Trazado 1210" d="M107.2,61.075c.585-1.214,1.147-2.5,1.147-2.5l-10.888-3.9a26.783,26.783,0,0,0-.295,3.409Z" fill="#fff6eb"/>
        <path id="Trazado_1211" data-name="Trazado 1211" d="M96.768,35.051s-.546,7.139.293,8.547,8.5,1.791,10.161,1.536,2.661-7.571,2.661-7.571Zm9.989,9.144c-1.479.215-8.26-.071-9-1.222s-.231-6.991-.231-6.991l11.613,2.005s-.9,5.995-2.383,6.208" fill="#5b413c"/>
        <path id="Trazado_1212" data-name="Trazado 1212" d="M123.364,39.495s-1.7,6.933-2.817,8.005-7.56-.964-8.862-1.725.081-8.008.081-8.008Zm-10.67,5.715c1.149.666,6.512,2.341,7.463,1.481s2.3-6.556,2.3-6.556l-9.864-1.558s-1.055,5.971.1,6.633" fill="#5b413c"/>
        <path id="Trazado_1213" data-name="Trazado 1213" d="M113.7,40.027l1.577.326s-.439,2.489-1.4,2.128-.173-2.454-.173-2.454" fill="#4f332f"/>
        <path id="Trazado_1214" data-name="Trazado 1214" d="M103.062,38.533l1.952.276s-.348,2.863-1.7,2.255c-1.145-.524-.249-2.531-.249-2.531" fill="#4f332f"/>
        <path id="Trazado_1215" data-name="Trazado 1215" d="M101.424,44.058l5.63-6.437,1.574.267-4.571,6.381Z" fill="#fffbe6"/>
        <path id="Trazado_1216" data-name="Trazado 1216" d="M98.738,36.661l2.7.526L98.924,39.5Z" fill="#fffbe6"/>
        <path id="Trazado_1217" data-name="Trazado 1217" d="M121.554,40.5l-1.383,3.263L118.1,39.959Z" fill="#fffbe6"/>
        <path id="Trazado_1218" data-name="Trazado 1218" d="M96.813,36.67,82.419,32.461l-2.258-1.5,17.12,4.246Z" fill="#5b413c"/>
        <path id="Trazado_1219" data-name="Trazado 1219" d="M108.025,56.386s9.209-.416,9.421-1.1-6.989-23.035-6.989-23.035Z" fill="#ffdeb3"/>
        <path id="Trazado_1220" data-name="Trazado 1220" d="M110.872,32.55l-.178,1.742c1.833,5.731,6.419,20.172,6.249,20.718s-6.068.917-8.44,1.046l-.063.622s9.2-.411,9.421-1.092-6.989-23.036-6.989-23.036" fill="#f9ad8f"/>
        <path id="Trazado_1221" data-name="Trazado 1221" d="M98.6,188.782l-6.775.842v3.156H98.6Z" fill="#ddb499"/>
        <path id="Trazado_1222" data-name="Trazado 1222" d="M87.414,191.359l1.078,22.886,1.54-.315.153-23.992Z" fill="#33262d"/>
        <path id="Trazado_1223" data-name="Trazado 1223" d="M47.155,317.013a13.166,13.166,0,1,1-13.166,13.166,13.166,13.166,0,0,1,13.166-13.166" fill="#0255a1" fill-rule="evenodd"/>
        <path id="Trazado_1224" data-name="Trazado 1224" d="M87.176,317.013A13.166,13.166,0,1,1,74.01,330.179a13.167,13.167,0,0,1,13.166-13.166" fill="#0255a1" fill-rule="evenodd"/>
        <path id="Trazado_1225" data-name="Trazado 1225" d="M78.8,326.249h5.946V325.11H78.8v-1.2h7.1v2.34h3.045v7.862H78.8Zm16.752-2.34-5.805,2.34v7.862l5.805,2.34Z" fill="#fff" fill-rule="evenodd"/>
        <path id="Trazado_1226" data-name="Trazado 1226" d="M127.538,317.013a13.166,13.166,0,1,1-13.166,13.166,13.167,13.167,0,0,1,13.166-13.166" fill="#ec3d3a" fill-rule="evenodd"/>
        <path id="Trazado_1227" data-name="Trazado 1227" d="M41.348,323.256H51.9a2.32,2.32,0,0,1,2.314,2.313v6.3a2.319,2.319,0,0,1-2.249,2.312l1.062,3.678-3.72-3.677H41.348a2.319,2.319,0,0,1-2.313-2.313v-6.3a2.319,2.319,0,0,1,2.313-2.313m.782,5.089a.917.917,0,1,1-.916.917.918.918,0,0,1,.916-.917m8.991,0a.917.917,0,1,1-.917.917.918.918,0,0,1,.917-.917m-3,0a.917.917,0,1,1-.917.917.917.917,0,0,1,.917-.917m-3,0a.917.917,0,1,1-.918.917.918.918,0,0,1,.918-.917" fill="#fff" fill-rule="evenodd"/>
        <path id="Trazado_1228" data-name="Trazado 1228" d="M129.9,338.341c3.556,1.224,5.162-2.639,5.162-2.639l-3.786-3.44c-1.92,5.069-10.32-5.216-4.981-6.093l-2.624-4.391s-4.1.809-3.608,4.537c.441,3.315,6.676,10.938,9.837,12.026" fill="#fff" fill-rule="evenodd"/>
        <path id="Trazado_1229" data-name="Trazado 1229" d="M76.608,67.962s6.275,44.455,21.491,55.5,2.54.583,2.54.583,11.28-26.9,2.688-48.282" fill="none" stroke="#231f20" stroke-miterlimit="10" stroke-width="2"/>
        <path id="Trazado_1230" data-name="Trazado 1230" d="M102.757,126.96s9.923.091,24.467,29.66" fill="none" stroke="#231f20" stroke-miterlimit="10" stroke-width="2"/>
        <path id="Trazado_1231" data-name="Trazado 1231" d="M132.56,161.987c1.037,4.5-.015,8.591-2.347,9.127s-5.064-2.679-6.1-7.183.014-8.59,2.347-9.127,5.065,2.679,6.1,7.183" fill="#231f20"/>
      </g>
    </g>
  </g>
</svg>
