<svg id="Grupo_7" data-name="Grupo 7" xmlns="http://www.w3.org/2000/svg" xmlns:xlink="http://www.w3.org/1999/xlink" width="1915.72" height="422.68" viewBox="0 0 1915.72 422.68">
  <defs>
    <clipPath id="clip-path">
      <rect id="Rectángulo_3" data-name="Rectángulo 3" width="1915.72" height="422.68" fill="none"/>
    </clipPath>
    <clipPath id="clip-path-2">
      <rect id="Rectángulo_2" data-name="Rectángulo 2" width="1915.718" height="422.68" fill="none"/>
    </clipPath>
    <clipPath id="clip-path-3">
      <rect id="Rectángulo_1" data-name="Rectángulo 1" width="1828.094" height="354.235" transform="translate(55.546 1.333)" fill="none"/>
    </clipPath>
  </defs>
  <g id="Grupo_6" data-name="Grupo 6" clip-path="url(#clip-path)">
    <g id="Grupo_5" data-name="Grupo 5">
      <g id="Grupo_4" data-name="Grupo 4" clip-path="url(#clip-path-2)">
        <path id="Trazado_1" data-name="Trazado 1" d="M0,161.814V422.275H960.163V344.346H941.677V332.222c7-1.937,12.2-9.021,12.2-17.465a18.549,18.549,0,0,0-7.521-15.234,13.644,13.644,0,0,0,2.553-8.037c0-7.027-5.084-12.724-11.363-12.724s-11.361,5.7-11.361,12.724a13.621,13.621,0,0,0,2.736,8.279,18.613,18.613,0,0,0-7.182,14.992c0,9.122,6.065,16.654,13.925,17.83v11.759h-22.53V87H841.594V69.849H829.125V15.109h-11.08v54.74H804.336V87h-48.9V344.346H732.735V175.256H621.068v169.09H571.6V328.08c8.774-2.428,15.28-11.3,15.28-21.868a23.232,23.232,0,0,0-9.418-19.075,17.049,17.049,0,0,0,3.2-10.061c0-8.8-6.364-15.93-14.226-15.93s-14.224,7.131-14.224,15.93a17.034,17.034,0,0,0,3.427,10.364,23.323,23.323,0,0,0-8.993,18.772c0,11.423,7.593,20.852,17.432,22.324v15.81H520.115V324.431c10.332-2.857,17.989-13.3,17.989-25.746,0-9.46-4.429-17.76-11.086-22.454a20.1,20.1,0,0,0,3.763-11.845c0-8.039-4.516-14.893-10.861-17.56a13.6,13.6,0,0,0,5.956-11.506c0-7.324-5.3-13.264-11.842-13.264S502.189,228,502.189,235.32a13.607,13.607,0,0,0,5.958,11.506c-6.342,2.667-10.86,9.521-10.86,17.56a20.048,20.048,0,0,0,4.033,12.2,27.439,27.439,0,0,0-10.589,22.1c0,13.448,8.94,24.551,20.526,26.282v19.379H434.81V0h-109.9V344.346H308.628V41.887H211.591V344.346H187.376V166.852h-43.04V126.213H105.8V80.7H99.532v45.514H47.941v35.6Z" fill="#481872"/>
        <path id="Trazado_2" data-name="Trazado 2" d="M1915.718,161.814V422.68H955.555V344.346h18.486V332.222c-7-1.937-12.2-9.021-12.2-17.465a18.549,18.549,0,0,1,7.521-15.234,13.644,13.644,0,0,1-2.552-8.037c0-7.027,5.083-12.724,11.361-12.724s11.363,5.7,11.363,12.724a13.622,13.622,0,0,1-2.737,8.279,18.616,18.616,0,0,1,7.183,14.992c0,9.122-6.066,16.654-13.925,17.83v11.759h22.528V87h71.543V69.849h12.469V15.109h11.079v54.74h13.709V87h48.9V344.346h22.705V175.256H1294.65v169.09h49.464V328.08c-8.775-2.428-15.28-11.3-15.28-21.868a23.235,23.235,0,0,1,9.418-19.075,17.042,17.042,0,0,1-3.195-10.061c0-8.8,6.363-15.93,14.226-15.93s14.224,7.131,14.224,15.93a17.028,17.028,0,0,1-3.428,10.364,23.321,23.321,0,0,1,8.994,18.772c0,11.423-7.593,20.852-17.432,22.324v15.81H1395.6V324.431c-10.332-2.857-17.989-13.3-17.989-25.746,0-9.46,4.429-17.76,11.086-22.454a20.1,20.1,0,0,1-3.763-11.845c0-8.039,4.515-14.893,10.861-17.56a13.6,13.6,0,0,1-5.956-11.506c0-7.324,5.3-13.264,11.842-13.264s11.845,5.94,11.845,13.264a13.607,13.607,0,0,1-5.958,11.506c6.342,2.667,10.86,9.521,10.86,17.56a20.054,20.054,0,0,1-4.032,12.2,27.441,27.441,0,0,1,10.588,22.1c0,13.448-8.941,24.551-20.527,26.282v19.379h76.448V0h109.9V344.346h16.28V41.887h97.037V344.346h24.215V166.852h43.039V126.213h38.538V80.7h6.268v45.514h51.59v35.6Z" fill="#481872"/>
        <g id="Grupo_3" data-name="Grupo 3" opacity="0.31">
          <g id="Grupo_2" data-name="Grupo 2">
            <g id="Grupo_1" data-name="Grupo 1" clip-path="url(#clip-path-3)">
              <path id="Trazado_3" data-name="Trazado 3" d="M1837.522,137.862a15.4,15.4,0,0,1-10.225-3.868l-80.4-70.762a15.525,15.525,0,0,1-1.4-21.888l30.583-34.75A15.509,15.509,0,0,1,1797.973,5.2l80.4,70.763a15.51,15.51,0,0,1,1.4,21.888L1849.186,132.6a15.412,15.412,0,0,1-10.655,5.231c-.338.022-.674.032-1.009.032m-49.777-134.3q-.43,0-.864.028a13.2,13.2,0,0,0-9.124,4.479l-30.583,34.748a13.3,13.3,0,0,0,1.2,18.745l80.4,70.763a13.284,13.284,0,0,0,18.745-1.194l30.583-34.75.836.737-.836-.737a13.281,13.281,0,0,0-1.2-18.744L1796.5,6.871a13.185,13.185,0,0,0-8.756-3.312" fill="#d7e1ff"/>
              <path id="Trazado_4" data-name="Trazado 4" d="M1765.425,60.059a8.99,8.99,0,1,1,.585-.018q-.293.018-.585.018m.017-15.764a6.766,6.766,0,1,0,4.469,1.685,6.758,6.758,0,0,0-4.469-1.685" fill="#d7e1ff"/>
              <path id="Trazado_5" data-name="Trazado 5" d="M1760.229,58.093a1.115,1.115,0,0,1-.836-1.85l10.417-11.835a1.114,1.114,0,0,1,1.673,1.472l-10.417,11.835a1.111,1.111,0,0,1-.837.378" fill="#d7e1ff"/>
              <path id="Trazado_6" data-name="Trazado 6" d="M1787.743,34.7a8.988,8.988,0,1,1,.585-.018c-.2.012-.39.018-.585.018m.017-15.764a6.766,6.766,0,1,0,4.468,1.685,6.754,6.754,0,0,0-4.468-1.685" fill="#d7e1ff"/>
              <path id="Trazado_7" data-name="Trazado 7" d="M1782.547,32.735a1.1,1.1,0,0,1-.735-.278,1.114,1.114,0,0,1-.1-1.572l10.417-11.836a1.114,1.114,0,0,1,1.672,1.473l-10.416,11.835a1.114,1.114,0,0,1-.837.378" fill="#d7e1ff"/>
              <path id="Trazado_8" data-name="Trazado 8" d="M1782.505,75.08a8.991,8.991,0,1,1,6.76-3.049,8.952,8.952,0,0,1-6.76,3.049m.015-15.763c-.146,0-.293,0-.439.014a6.755,6.755,0,1,0,.439-.014" fill="#d7e1ff"/>
              <path id="Trazado_9" data-name="Trazado 9" d="M1777.3,73.119a1.115,1.115,0,0,1-.836-1.85l10.417-11.836a1.114,1.114,0,0,1,1.672,1.472l-10.417,11.836a1.11,1.11,0,0,1-.836.378" fill="#d7e1ff"/>
              <path id="Trazado_10" data-name="Trazado 10" d="M1804.823,49.723a8.994,8.994,0,1,1,6.759-3.05,8.958,8.958,0,0,1-6.759,3.05m.015-15.764c-.146,0-.293.005-.44.014a6.758,6.758,0,1,0,.44-.014" fill="#d7e1ff"/>
              <path id="Trazado_11" data-name="Trazado 11" d="M1799.62,47.761a1.115,1.115,0,0,1-.837-1.85L1809.2,34.076a1.114,1.114,0,0,1,1.673,1.472l-10.417,11.835a1.114,1.114,0,0,1-.836.378" fill="#d7e1ff"/>
              <path id="Trazado_12" data-name="Trazado 12" d="M1801.162,91.5a9,9,0,1,1,5.95-15.747h0a8.994,8.994,0,0,1-5.95,15.748m.015-15.764c-.146,0-.293,0-.439.014a6.772,6.772,0,1,0,4.9,1.675h0a6.719,6.719,0,0,0-4.463-1.688" fill="#d7e1ff"/>
              <path id="Trazado_13" data-name="Trazado 13" d="M1795.959,89.54a1.1,1.1,0,0,1-.735-.278,1.114,1.114,0,0,1-.1-1.572l10.417-11.836a1.114,1.114,0,0,1,1.672,1.473L1796.8,89.162a1.111,1.111,0,0,1-.836.378" fill="#d7e1ff"/>
              <path id="Trazado_14" data-name="Trazado 14" d="M1823.48,66.144a8.994,8.994,0,1,1,6.759-3.049,8.955,8.955,0,0,1-6.759,3.049m.015-15.763c-.146,0-.293.005-.44.014a6.758,6.758,0,1,0,.44-.014" fill="#d7e1ff"/>
              <path id="Trazado_15" data-name="Trazado 15" d="M1818.277,64.182a1.115,1.115,0,0,1-.836-1.85L1827.858,50.5a1.114,1.114,0,0,1,1.673,1.472L1819.114,63.8a1.11,1.11,0,0,1-.837.378" fill="#d7e1ff"/>
              <path id="Trazado_16" data-name="Trazado 16" d="M1818.228,106.532a8.99,8.99,0,1,1,.584-.018q-.293.018-.584.018m.022-15.768c-.146,0-.293,0-.44.014a6.758,6.758,0,1,0,.44-.014" fill="#d7e1ff"/>
              <path id="Trazado_17" data-name="Trazado 17" d="M1813.032,104.566a1.115,1.115,0,0,1-.836-1.85l10.417-11.835a1.114,1.114,0,0,1,1.673,1.472l-10.417,11.835a1.111,1.111,0,0,1-.837.378" fill="#d7e1ff"/>
              <path id="Trazado_18" data-name="Trazado 18" d="M1840.553,81.17a8.991,8.991,0,1,1,6.76-3.049,8.952,8.952,0,0,1-6.76,3.049m.015-15.763c-.146,0-.293.005-.439.014a6.758,6.758,0,1,0,.439-.014" fill="#d7e1ff"/>
              <path id="Trazado_19" data-name="Trazado 19" d="M1835.35,79.208a1.1,1.1,0,0,1-.735-.278,1.114,1.114,0,0,1-.1-1.572l10.417-11.836a1.114,1.114,0,1,1,1.672,1.472L1836.187,78.83a1.114,1.114,0,0,1-.837.378" fill="#d7e1ff"/>
              <path id="Trazado_20" data-name="Trazado 20" d="M1836.885,122.953a8.986,8.986,0,1,1,.586-.018q-.294.018-.586.018m.023-15.768c-.147,0-.293.005-.44.014a6.752,6.752,0,1,0,.44-.014" fill="#d7e1ff"/>
              <path id="Trazado_21" data-name="Trazado 21" d="M1831.689,120.987a1.115,1.115,0,0,1-.836-1.85L1841.27,107.3a1.114,1.114,0,0,1,1.673,1.472l-10.417,11.835a1.107,1.107,0,0,1-.837.378" fill="#d7e1ff"/>
              <path id="Trazado_22" data-name="Trazado 22" d="M1859.21,97.592a9,9,0,1,1,5.951-15.747h0a8.995,8.995,0,0,1-5.951,15.748m.015-15.764c-.146,0-.293,0-.439.014a6.771,6.771,0,1,0,4.9,1.675h0a6.723,6.723,0,0,0-4.464-1.688" fill="#d7e1ff"/>
              <path id="Trazado_23" data-name="Trazado 23" d="M1854.007,95.629a1.1,1.1,0,0,1-.735-.278,1.114,1.114,0,0,1-.1-1.572l10.417-11.836a1.114,1.114,0,0,1,1.672,1.473l-10.416,11.835a1.114,1.114,0,0,1-.837.378" fill="#d7e1ff"/>
              <path id="Trazado_24" data-name="Trazado 24" d="M97.628,90.77h-15.1a1.114,1.114,0,0,1-1.114-1.114V67.037H58.793a1.113,1.113,0,0,1-1.113-1.114v-15.1a1.114,1.114,0,0,1,1.113-1.114H81.412V27.089a1.114,1.114,0,0,1,1.114-1.114h15.1a1.115,1.115,0,0,1,1.115,1.114V49.707h22.618a1.113,1.113,0,0,1,1.113,1.114v15.1a1.113,1.113,0,0,1-1.113,1.114H98.743V89.656a1.115,1.115,0,0,1-1.115,1.114M83.64,88.542H96.515V65.923a1.113,1.113,0,0,1,1.113-1.113h22.619V51.935H97.628a1.113,1.113,0,0,1-1.113-1.114V28.2H83.64V50.821a1.114,1.114,0,0,1-1.114,1.114H59.908V64.81H82.526a1.113,1.113,0,0,1,1.114,1.113Z" fill="#d7e1ff"/>
              <path id="Trazado_25" data-name="Trazado 25" d="M164.556,311.452h-15.1a1.114,1.114,0,0,1-1.114-1.114V287.72H125.721a1.114,1.114,0,0,1-1.114-1.114V271.5a1.113,1.113,0,0,1,1.114-1.113h22.618V247.771a1.114,1.114,0,0,1,1.114-1.114h15.1a1.114,1.114,0,0,1,1.114,1.114V270.39h22.618A1.113,1.113,0,0,1,189.4,271.5v15.1a1.114,1.114,0,0,1-1.114,1.114H165.67v22.618a1.114,1.114,0,0,1-1.114,1.114m-13.989-2.228h12.875V286.606a1.114,1.114,0,0,1,1.114-1.114h22.618V272.617H164.556a1.114,1.114,0,0,1-1.114-1.114V248.885H150.567V271.5a1.114,1.114,0,0,1-1.114,1.114H126.835v12.875h22.618a1.114,1.114,0,0,1,1.114,1.114Z" fill="#d7e1ff"/>
              <path id="Trazado_26" data-name="Trazado 26" d="M73.4,214.59l-.289,0a17.845,17.845,0,0,1-12.138-30.659l33.378-32.343a17.846,17.846,0,1,1,24.837,25.632L85.81,209.56a17.721,17.721,0,0,1-12.41,5.03m33.363-65.806a15.511,15.511,0,0,0-10.861,4.4L62.524,185.529A15.618,15.618,0,0,0,84.26,207.961l33.378-32.343a15.618,15.618,0,0,0-10.622-26.832c-.085,0-.169,0-.253,0" fill="#d7e1ff"/>
              <path id="Trazado_27" data-name="Trazado 27" d="M101.057,194.35a1.108,1.108,0,0,1-.8-.339L76.971,169.979a1.114,1.114,0,1,1,1.6-1.55l23.286,24.032a1.114,1.114,0,0,1-.8,1.889" fill="#d7e1ff"/>
              <path id="Trazado_28" data-name="Trazado 28" d="M1779.15,355.568l-.289,0a17.846,17.846,0,0,1-12.137-30.66l33.378-32.343a17.843,17.843,0,0,1,25.233.4,17.865,17.865,0,0,1-.4,25.234l-33.378,32.342a17.723,17.723,0,0,1-12.41,5.03m33.362-65.806a15.509,15.509,0,0,0-10.86,4.4l-33.378,32.344a15.617,15.617,0,0,0,10.622,26.831,15.4,15.4,0,0,0,11.114-4.4l33.378-32.343a15.618,15.618,0,0,0-10.623-26.832h-.253" fill="#d7e1ff"/>
              <path id="Trazado_29" data-name="Trazado 29" d="M1806.807,335.328a1.112,1.112,0,0,1-.8-.339l-23.286-24.032a1.114,1.114,0,1,1,1.6-1.55l23.287,24.032a1.115,1.115,0,0,1-.8,1.889" fill="#d7e1ff"/>
              <path id="Trazado_30" data-name="Trazado 30" d="M1830.132,234.256a30.122,30.122,0,1,1,30.122-30.122,30.157,30.157,0,0,1-30.122,30.122m0-58.016a27.895,27.895,0,1,0,27.9,27.894,27.926,27.926,0,0,0-27.9-27.894" fill="#d7e1ff"/>
              <path id="Trazado_31" data-name="Trazado 31" d="M1859.14,205.247h-58.017a1.113,1.113,0,1,1,0-2.227h58.017a1.113,1.113,0,1,1,0,2.227" fill="#d7e1ff"/>
            </g>
          </g>
        </g>
      </g>
    </g>
  </g>
</svg>
